<svg width="1076" height="395" viewBox="0 0 1076 395" fill="none" xmlns="http://www.w3.org/2000/svg">
<path opacity="0.07" d="M341.055 295.4H267.905V390H214.555V295.4H0.60508V256.9L197.505 4.99997H256.905L68.2551 248.1H216.205V164.5H267.905V248.1H341.055V295.4ZM531.325 394.4C500.892 394.4 473.758 386.7 449.925 371.3C426.458 355.533 407.942 332.8 394.375 303.1C380.808 273.4 374.025 238.2 374.025 197.5C374.025 156.8 380.808 121.6 394.375 91.9C407.942 62.2 426.458 39.65 449.925 24.25C473.758 8.48333 500.892 0.599998 531.325 0.599998C561.392 0.599998 588.158 8.48333 611.625 24.25C635.458 39.65 654.158 62.2 667.725 91.9C681.292 121.6 688.075 156.8 688.075 197.5C688.075 238.2 681.292 273.4 667.725 303.1C654.158 332.8 635.458 355.533 611.625 371.3C588.158 386.7 561.392 394.4 531.325 394.4ZM531.325 345.45C562.125 345.45 586.692 332.8 605.025 307.5C623.725 282.2 633.075 245.533 633.075 197.5C633.075 149.467 623.725 112.8 605.025 87.5C586.692 62.2 562.125 49.55 531.325 49.55C500.158 49.55 475.225 62.2 456.525 87.5C438.192 112.8 429.025 149.467 429.025 197.5C429.025 245.533 438.192 282.2 456.525 307.5C475.225 332.8 500.158 345.45 531.325 345.45ZM1075.82 295.4H1002.67V390H949.321V295.4H735.371V256.9L932.271 4.99997H991.671L803.021 248.1H950.971V164.5H1002.67V248.1H1075.82V295.4Z" fill="#BDBDBD"/>
</svg>
