<svg width="655" height="274" viewBox="0 0 655 274" fill="none" xmlns="http://www.w3.org/2000/svg">
<path opacity="0.15" fill-rule="evenodd" clip-rule="evenodd" d="M320.227 186.5C361.665 183.992 436.618 257.791 421.116 208.146C405.614 158.5 528.395 205.44 548.614 177.646C493.614 154.646 691.625 153.5 642 88.5C592.375 23.5 440.318 62.0901 427.466 43.8678C414.614 25.6455 358.566 19.5889 320.227 18.4143C283.083 17.2764 252.662 31.9467 216.893 37.4167C157.528 46.4953 93.1127 13.0002 36.1134 54.0001C-20.8858 95 20.8052 183.5 41.9582 224C63.1112 264.5 124.915 213.891 169.614 233.5C213.373 252.698 269.445 189.574 320.227 186.5Z" fill="#8F8AFF"/>
</svg>
