<svg width="130" height="112" viewBox="0 0 130 112" fill="none" xmlns="http://www.w3.org/2000/svg">
<rect x="0.694336" width="128" height="112" rx="15" fill="white"/>
<rect x="1.19434" y="0.5" width="127" height="111" rx="14.5" stroke="#B8B5FF" stroke-opacity="0.15"/>
<path d="M30.6354 18.9119H21.627C21.4849 18.9119 21.2125 19.1826 21.0941 19.3179C20.5528 19.9777 19.3736 21.5053 18.9879 22.3377C18.6022 23.17 19.1486 23.5134 19.47 23.5811C20.4935 23.7587 22.774 24.1139 23.7078 24.1139H26.7529C27.8525 23.801 30.1989 23.033 30.7876 22.4645C31.3763 21.8961 31.9972 20.0285 32.2341 19.1657L30.6354 18.9119Z" stroke="#6979F8" stroke-width="2" stroke-linejoin="round"/>
<path d="M21.8975 52.3242H22.0791C22.7236 52.3281 23.3115 52.4785 23.8428 52.7754C24.374 53.0723 24.7861 53.4824 25.0791 54.0059C25.376 54.5254 25.5244 55.1074 25.5244 55.752C25.5244 56.4004 25.376 56.9883 25.0791 57.5156C24.7822 58.043 24.3721 58.4551 23.8486 58.752C23.3252 59.0449 22.7432 59.1953 22.1025 59.2031H21.8975V60.3516H20.8076V59.2031H20.6436C19.9912 59.2031 19.3975 59.0547 18.8623 58.7578C18.3311 58.4609 17.917 58.0508 17.6201 57.5273C17.3271 57.0039 17.1807 56.416 17.1807 55.7637C17.1807 55.1113 17.3271 54.5234 17.6201 54C17.917 53.4766 18.3311 53.0664 18.8623 52.7695C19.3975 52.4727 19.9912 52.3242 20.6436 52.3242H20.8076V51.1172H21.8975V52.3242ZM20.6436 53.209C19.9092 53.209 19.3271 53.4355 18.8975 53.8887C18.4717 54.3379 18.2588 54.9629 18.2588 55.7637C18.2588 56.5684 18.4717 57.1953 18.8975 57.6445C19.3232 58.0898 19.9092 58.3125 20.6553 58.3125H20.8076V53.209H20.6436ZM21.8975 53.209V58.3125H22.0615C22.8076 58.3125 23.3896 58.084 23.8076 57.627C24.2295 57.166 24.4404 56.541 24.4404 55.752C24.4404 54.9707 24.2295 54.3516 23.8076 53.8945C23.3896 53.4375 22.7998 53.209 22.0381 53.209H21.8975ZM26.4854 56.7715C26.4854 56.1504 26.6064 55.5918 26.8486 55.0957C27.0947 54.5996 27.4346 54.2168 27.8682 53.9473C28.3057 53.6777 28.8037 53.543 29.3623 53.543C30.2256 53.543 30.9229 53.8418 31.4541 54.4395C31.9893 55.0371 32.2568 55.832 32.2568 56.8242V56.9004C32.2568 57.5176 32.1377 58.0723 31.8994 58.5645C31.665 59.0527 31.3271 59.4336 30.8857 59.707C30.4482 59.9805 29.9443 60.1172 29.374 60.1172C28.5146 60.1172 27.8174 59.8184 27.2822 59.2207C26.751 58.623 26.4854 57.832 26.4854 56.8477V56.7715ZM27.5752 56.9004C27.5752 57.6035 27.7373 58.168 28.0615 58.5938C28.3896 59.0195 28.8271 59.2324 29.374 59.2324C29.9248 59.2324 30.3623 59.0176 30.6865 58.5879C31.0107 58.1543 31.1729 57.5488 31.1729 56.7715C31.1729 56.0762 31.0068 55.5137 30.6748 55.084C30.3467 54.6504 29.9092 54.4336 29.3623 54.4336C28.8271 54.4336 28.3955 54.6465 28.0674 55.0723C27.7393 55.498 27.5752 56.1074 27.5752 56.9004ZM38.1982 54.5391H36.0713V60H34.9873V54.5391H32.9014V53.6602H38.1982V54.5391ZM38.7197 56.7715C38.7197 56.1504 38.8408 55.5918 39.083 55.0957C39.3291 54.5996 39.6689 54.2168 40.1025 53.9473C40.54 53.6777 41.0381 53.543 41.5967 53.543C42.46 53.543 43.1572 53.8418 43.6885 54.4395C44.2236 55.0371 44.4912 55.832 44.4912 56.8242V56.9004C44.4912 57.5176 44.3721 58.0723 44.1338 58.5645C43.8994 59.0527 43.5615 59.4336 43.1201 59.707C42.6826 59.9805 42.1787 60.1172 41.6084 60.1172C40.749 60.1172 40.0518 59.8184 39.5166 59.2207C38.9854 58.623 38.7197 57.832 38.7197 56.8477V56.7715ZM39.8096 56.9004C39.8096 57.6035 39.9717 58.168 40.2959 58.5938C40.624 59.0195 41.0615 59.2324 41.6084 59.2324C42.1592 59.2324 42.5967 59.0176 42.9209 58.5879C43.2451 58.1543 43.4072 57.5488 43.4072 56.7715C43.4072 56.0762 43.2412 55.5137 42.9092 55.084C42.5811 54.6504 42.1436 54.4336 41.5967 54.4336C41.0615 54.4336 40.6299 54.6465 40.3018 55.0723C39.9736 55.498 39.8096 56.1074 39.8096 56.9004ZM52.7412 60C52.6787 59.875 52.6279 59.6523 52.5889 59.332C52.085 59.8555 51.4834 60.1172 50.7842 60.1172C50.1592 60.1172 49.6455 59.9414 49.2432 59.5898C48.8447 59.2344 48.6455 58.7852 48.6455 58.2422C48.6455 57.582 48.8955 57.0703 49.3955 56.707C49.8994 56.3398 50.6064 56.1562 51.5166 56.1562H52.5713V55.6582C52.5713 55.2793 52.458 54.9785 52.2314 54.7559C52.0049 54.5293 51.6709 54.416 51.2295 54.416C50.8428 54.416 50.5186 54.5137 50.2568 54.709C49.9951 54.9043 49.8643 55.1406 49.8643 55.418H48.7744C48.7744 55.1016 48.8857 54.7969 49.1084 54.5039C49.335 54.207 49.6396 53.9727 50.0225 53.8008C50.4092 53.6289 50.833 53.543 51.2939 53.543C52.0244 53.543 52.5967 53.7266 53.0107 54.0938C53.4248 54.457 53.6396 54.959 53.6553 55.5996V58.5176C53.6553 59.0996 53.7295 59.5625 53.8779 59.9062V60H52.7412ZM50.9424 59.1738C51.2822 59.1738 51.6045 59.0859 51.9092 58.9102C52.2139 58.7344 52.4346 58.5059 52.5713 58.2246V56.9238H51.7217C50.3936 56.9238 49.7295 57.3125 49.7295 58.0898C49.7295 58.4297 49.8428 58.6953 50.0693 58.8867C50.2959 59.0781 50.5869 59.1738 50.9424 59.1738ZM55.4541 60V53.6602H57.9268C58.7705 53.6602 59.417 53.8086 59.8662 54.1055C60.3193 54.3984 60.5459 54.8301 60.5459 55.4004C60.5459 55.6934 60.458 55.959 60.2822 56.1973C60.1064 56.4316 59.8467 56.6113 59.5029 56.7363C59.8857 56.8262 60.1924 57.002 60.4229 57.2637C60.6572 57.5254 60.7744 57.8379 60.7744 58.2012C60.7744 58.7832 60.5596 59.2285 60.1299 59.5371C59.7041 59.8457 59.1006 60 58.3193 60H55.4541ZM56.5381 57.2168V59.127H58.3311C58.7842 59.127 59.1221 59.043 59.3447 58.875C59.5713 58.707 59.6846 58.4707 59.6846 58.166C59.6846 57.5332 59.2197 57.2168 58.29 57.2168H56.5381ZM56.5381 56.3496H57.9385C58.9541 56.3496 59.4619 56.0527 59.4619 55.459C59.4619 54.8652 58.9814 54.5586 58.0205 54.5391H56.5381V56.3496ZM66.8506 54.5391H64.7236V60H63.6396V54.5391H61.5537V53.6602H66.8506V54.5391ZM67.3721 56.7715C67.3721 56.1504 67.4932 55.5918 67.7354 55.0957C67.9814 54.5996 68.3213 54.2168 68.7549 53.9473C69.1924 53.6777 69.6904 53.543 70.249 53.543C71.1123 53.543 71.8096 53.8418 72.3408 54.4395C72.876 55.0371 73.1436 55.832 73.1436 56.8242V56.9004C73.1436 57.5176 73.0244 58.0723 72.7861 58.5645C72.5518 59.0527 72.2139 59.4336 71.7725 59.707C71.335 59.9805 70.8311 60.1172 70.2607 60.1172C69.4014 60.1172 68.7041 59.8184 68.1689 59.2207C67.6377 58.623 67.3721 57.832 67.3721 56.8477V56.7715ZM68.4619 56.9004C68.4619 57.6035 68.624 58.168 68.9482 58.5938C69.2764 59.0195 69.7139 59.2324 70.2607 59.2324C70.8115 59.2324 71.249 59.0176 71.5732 58.5879C71.8975 58.1543 72.0596 57.5488 72.0596 56.7715C72.0596 56.0762 71.8936 55.5137 71.5615 55.084C71.2334 54.6504 70.7959 54.4336 70.249 54.4336C69.7139 54.4336 69.2822 54.6465 68.9541 55.0723C68.626 55.498 68.4619 56.1074 68.4619 56.9004ZM78.1533 58.5645L80.3096 53.6602H81.6631V60H80.5791V55.3887L78.5283 60H77.7783L75.6865 55.2891V60H74.6025V53.6602H76.0088L78.1533 58.5645ZM83.1221 56.7715C83.1221 56.1504 83.2432 55.5918 83.4854 55.0957C83.7314 54.5996 84.0713 54.2168 84.5049 53.9473C84.9424 53.6777 85.4404 53.543 85.999 53.543C86.8623 53.543 87.5596 53.8418 88.0908 54.4395C88.626 55.0371 88.8936 55.832 88.8936 56.8242V56.9004C88.8936 57.5176 88.7744 58.0723 88.5361 58.5645C88.3018 59.0527 87.9639 59.4336 87.5225 59.707C87.085 59.9805 86.5811 60.1172 86.0107 60.1172C85.1514 60.1172 84.4541 59.8184 83.9189 59.2207C83.3877 58.623 83.1221 57.832 83.1221 56.8477V56.7715ZM84.2119 56.9004C84.2119 57.6035 84.374 58.168 84.6982 58.5938C85.0264 59.0195 85.4639 59.2324 86.0107 59.2324C86.5615 59.2324 86.999 59.0176 87.3232 58.5879C87.6475 58.1543 87.8096 57.5488 87.8096 56.7715C87.8096 56.0762 87.6436 55.5137 87.3115 55.084C86.9834 54.6504 86.5459 54.4336 85.999 54.4336C85.4639 54.4336 85.0322 54.6465 84.7041 55.0723C84.376 55.498 84.2119 56.1074 84.2119 56.9004ZM93.0361 54.0234C93.833 54.0234 94.4697 54.291 94.9463 54.8262C95.4268 55.3574 95.667 56.0586 95.667 56.9297V57.0293C95.667 57.627 95.5518 58.1621 95.3213 58.6348C95.0908 59.1035 94.7588 59.4688 94.3252 59.7305C93.8955 59.9883 93.3994 60.1172 92.8369 60.1172C91.9854 60.1172 91.2998 59.834 90.7803 59.2676C90.2607 58.6973 90.001 57.9336 90.001 56.9766V56.4492C90.001 55.1172 90.2471 54.0586 90.7393 53.2734C91.2354 52.4883 91.9658 52.0098 92.9307 51.8379C93.4775 51.7402 93.8467 51.6211 94.0381 51.4805C94.2295 51.3398 94.3252 51.1465 94.3252 50.9004H95.2158C95.2158 51.3887 95.1045 51.7695 94.8818 52.043C94.6631 52.3164 94.3115 52.5098 93.8271 52.623L93.0186 52.8047C92.374 52.957 91.8896 53.2148 91.5654 53.5781C91.2451 53.9375 91.0361 54.418 90.9385 55.0195C91.5127 54.3555 92.2119 54.0234 93.0361 54.0234ZM92.8252 54.9141C92.2939 54.9141 91.8721 55.0938 91.5596 55.4531C91.2471 55.8086 91.0908 56.3027 91.0908 56.9355V57.0293C91.0908 57.709 91.2471 58.248 91.5596 58.6465C91.876 59.041 92.3018 59.2383 92.8369 59.2383C93.376 59.2383 93.8018 59.0391 94.1143 58.6406C94.4268 58.2422 94.583 57.6602 94.583 56.8945C94.583 56.2969 94.4248 55.8184 94.1084 55.459C93.7959 55.0957 93.3682 54.9141 92.8252 54.9141ZM100.882 53.6602H101.966V60H100.882V55.377L97.958 60H96.874V53.6602H97.958V58.2891L100.882 53.6602ZM108.903 53.6602V60H107.813V54.5566H105.657L105.528 56.9297C105.458 58.0195 105.274 58.7988 104.978 59.2676C104.685 59.7363 104.218 59.9805 103.577 60H103.144V59.0449L103.454 59.0215C103.806 58.9824 104.058 58.7793 104.21 58.4121C104.362 58.0449 104.46 57.3652 104.503 56.373L104.62 53.6602H108.903ZM115.489 53.6602V60H114.399V57.5332H112.765L111.271 60H110.099L111.692 57.3691C111.286 57.2207 110.974 56.9922 110.755 56.6836C110.54 56.3711 110.433 56.0078 110.433 55.5938C110.433 55.0156 110.649 54.5508 111.083 54.1992C111.517 53.8438 112.097 53.6641 112.823 53.6602H115.489ZM111.522 55.6055C111.522 55.9141 111.628 56.1641 111.839 56.3555C112.05 56.543 112.329 56.6387 112.677 56.6426H114.399V54.5391H112.841C112.438 54.5391 112.118 54.6387 111.88 54.8379C111.642 55.0332 111.522 55.2891 111.522 55.6055ZM17.4736 72.5371C17.4736 71.6543 17.5908 70.8066 17.8252 69.9941C18.0635 69.1816 18.417 68.4434 18.8857 67.7793C19.3545 67.1152 19.8408 66.6465 20.3447 66.373L20.5674 67.0879C19.9971 67.5254 19.5283 68.1934 19.1611 69.0918C18.7979 69.9902 18.5986 70.9961 18.5635 72.1094L18.5576 72.6074C18.5576 74.1152 18.833 75.4238 19.3838 76.5332C19.7158 77.1973 20.1104 77.7168 20.5674 78.0918L20.3447 78.7539C19.8252 78.4648 19.3291 77.9805 18.8564 77.3008C17.9346 75.9727 17.4736 74.3848 17.4736 72.5371ZM28.0615 73.293C27.9561 74.1953 27.6221 74.8926 27.0596 75.3848C26.501 75.873 25.7568 76.1172 24.8271 76.1172C23.8193 76.1172 23.0107 75.7559 22.4014 75.0332C21.7959 74.3105 21.4932 73.3438 21.4932 72.1328V71.3125C21.4932 70.5195 21.6338 69.8223 21.915 69.2207C22.2002 68.6191 22.6025 68.1582 23.1221 67.8379C23.6416 67.5137 24.2432 67.3516 24.9268 67.3516C25.833 67.3516 26.5596 67.6055 27.1064 68.1133C27.6533 68.6172 27.9717 69.3164 28.0615 70.2109H26.9307C26.833 69.5312 26.6201 69.0391 26.292 68.7344C25.9678 68.4297 25.5127 68.2773 24.9268 68.2773C24.208 68.2773 23.6436 68.543 23.2334 69.0742C22.8271 69.6055 22.624 70.3613 22.624 71.3418V72.168C22.624 73.0938 22.8174 73.8301 23.2041 74.377C23.5908 74.9238 24.1318 75.1973 24.8271 75.1973C25.4521 75.1973 25.9307 75.0566 26.2627 74.7754C26.5986 74.4902 26.8213 73.9961 26.9307 73.293H28.0615ZM32.9189 71.3945C32.9189 71.0977 32.8057 70.8633 32.5791 70.6914C32.3525 70.5156 32.042 70.4277 31.6475 70.4277C31.2646 70.4277 30.9443 70.5273 30.6865 70.7266C30.4326 70.9258 30.3057 71.1602 30.3057 71.4297H29.2275C29.2275 70.8789 29.458 70.4277 29.9189 70.0762C30.3799 69.7246 30.9561 69.5488 31.6475 69.5488C32.3896 69.5488 32.9678 69.709 33.3818 70.0293C33.7959 70.3457 34.0029 70.7988 34.0029 71.3887C34.0029 71.6738 33.917 71.9355 33.7451 72.1738C33.5732 72.4121 33.3291 72.6016 33.0127 72.7422C33.751 72.9922 34.1201 73.4844 34.1201 74.2188C34.1201 74.8008 33.8955 75.2617 33.4463 75.6016C32.9971 75.9414 32.3975 76.1113 31.6475 76.1113C30.917 76.1113 30.3135 75.9336 29.8369 75.5781C29.3643 75.2188 29.1279 74.7344 29.1279 74.125H30.2061C30.2061 74.4336 30.3428 74.6992 30.6162 74.9219C30.8936 75.1406 31.2373 75.25 31.6475 75.25C32.0615 75.25 32.3955 75.1543 32.6494 74.9629C32.9033 74.7715 33.0303 74.5234 33.0303 74.2188C33.0303 73.8633 32.9229 73.6094 32.708 73.457C32.4971 73.3008 32.167 73.2227 31.7178 73.2227H30.6338V72.3086H31.8115C32.5498 72.2891 32.9189 71.9844 32.9189 71.3945ZM39.4404 76C39.3779 75.875 39.3271 75.6523 39.2881 75.332C38.7842 75.8555 38.1826 76.1172 37.4834 76.1172C36.8584 76.1172 36.3447 75.9414 35.9424 75.5898C35.5439 75.2344 35.3447 74.7852 35.3447 74.2422C35.3447 73.582 35.5947 73.0703 36.0947 72.707C36.5986 72.3398 37.3057 72.1562 38.2158 72.1562H39.2705V71.6582C39.2705 71.2793 39.1572 70.9785 38.9307 70.7559C38.7041 70.5293 38.3701 70.416 37.9287 70.416C37.542 70.416 37.2178 70.5137 36.9561 70.709C36.6943 70.9043 36.5635 71.1406 36.5635 71.418H35.4736C35.4736 71.1016 35.585 70.7969 35.8076 70.5039C36.0342 70.207 36.3389 69.9727 36.7217 69.8008C37.1084 69.6289 37.5322 69.543 37.9932 69.543C38.7236 69.543 39.2959 69.7266 39.71 70.0938C40.124 70.457 40.3389 70.959 40.3545 71.5996V74.5176C40.3545 75.0996 40.4287 75.5625 40.5771 75.9062V76H39.4404ZM37.6416 75.1738C37.9814 75.1738 38.3037 75.0859 38.6084 74.9102C38.9131 74.7344 39.1338 74.5059 39.2705 74.2246V72.9238H38.4209C37.0928 72.9238 36.4287 73.3125 36.4287 74.0898C36.4287 74.4297 36.542 74.6953 36.7686 74.8867C36.9951 75.0781 37.2861 75.1738 37.6416 75.1738ZM42.001 75.1152L42.376 74.6523C42.7979 74.1055 43.0381 73.2852 43.0967 72.1914L43.1963 69.6602H47.2803V75.1152H48.0947V77.8633H47.0107V76H42.5869V77.8633H41.5029L41.5088 75.1152H42.001ZM43.2842 75.1152H46.1963V70.6621H44.2451L44.1807 72.1738C44.1143 73.4355 43.8154 74.416 43.2842 75.1152ZM53.3975 69.6602H54.4814V76H53.3975V71.377L50.4736 76H49.3896V69.6602H50.4736V74.2891L53.3975 69.6602ZM58.7236 72.5957C58.7236 73.4668 58.6084 74.3027 58.3779 75.1035C58.1514 75.9004 57.8018 76.6367 57.3291 77.3125C56.8604 77.9883 56.3682 78.4688 55.8525 78.7539L55.624 78.0918C56.2256 77.6309 56.708 76.916 57.0713 75.9473C57.4385 74.9746 57.626 73.8965 57.6338 72.7129V72.5254C57.6338 71.7051 57.5479 70.9434 57.376 70.2402C57.2041 69.5332 56.9639 68.9004 56.6553 68.3418C56.3506 67.7832 56.0068 67.3477 55.624 67.0352L55.8525 66.373C56.3682 66.6582 56.8584 67.1348 57.3232 67.8027C57.792 68.4707 58.1416 69.207 58.3721 70.0117C58.6064 70.8164 58.7236 71.6777 58.7236 72.5957Z" fill="#828282"/>
</svg>
