<svg width="24" height="25" viewBox="0 0 24 25" fill="none" xmlns="http://www.w3.org/2000/svg">
<path fill-rule="evenodd" clip-rule="evenodd" d="M12 3.72168C10.4087 3.72168 8.88258 4.35382 7.75736 5.47904C6.63214 6.60426 6 8.13038 6 9.72168V14.7217C6 15.4299 5.81218 16.1188 5.46411 16.7217H18.5359C18.1878 16.1188 18 15.4299 18 14.7217V9.72168C18 8.13038 17.3679 6.60426 16.2426 5.47904C15.1174 4.35382 13.5913 3.72168 12 3.72168ZM22 16.7217C21.4696 16.7217 20.9609 16.511 20.5858 16.1359C20.2107 15.7608 20 15.2521 20 14.7217V9.72168C20 7.59995 19.1571 5.56512 17.6569 4.06483C16.1566 2.56453 14.1217 1.72168 12 1.72168C9.87827 1.72168 7.84344 2.56453 6.34315 4.06483C4.84285 5.56512 4 7.59995 4 9.72168V14.7217C4 15.2521 3.78929 15.7608 3.41421 16.1359C3.03914 16.511 2.53043 16.7217 2 16.7217C1.44772 16.7217 1 17.1694 1 17.7217C1 18.274 1.44772 18.7217 2 18.7217H22V16.7217ZM9.76823 20.8567C10.246 20.5796 10.8579 20.7422 11.135 21.2199C11.2229 21.3714 11.3491 21.4972 11.5009 21.5847C11.6527 21.6721 11.8248 21.7181 12 21.7181C12.1752 21.7181 12.3473 21.6721 12.4991 21.5847C12.6509 21.4972 12.7771 21.3714 12.865 21.2199C13.1421 20.7422 13.754 20.5796 14.2318 20.8567C14.7095 21.1338 14.8721 21.7457 14.595 22.2235C14.3313 22.6781 13.9528 23.0554 13.4973 23.3177C13.0419 23.5801 12.5256 23.7181 12 23.7181C11.4744 23.7181 10.9581 23.5801 10.5027 23.3177C10.0472 23.0554 9.66872 22.6781 9.405 22.2235C9.12788 21.7457 9.2905 21.1338 9.76823 20.8567Z" fill="#5D55D0"/>
</svg>
