<svg width="18" height="18" viewBox="0 0 18 18" fill="none" xmlns="http://www.w3.org/2000/svg">
<path fill-rule="evenodd" clip-rule="evenodd" d="M3.16699 2.33329C2.70675 2.33329 2.33366 2.70639 2.33366 3.16663V14.8333C2.33366 15.2935 2.70675 15.6666 3.16699 15.6666H14.8337C15.2939 15.6666 15.667 15.2935 15.667 14.8333V3.16663C15.667 2.70639 15.2939 2.33329 14.8337 2.33329H3.16699ZM0.666992 3.16663C0.666992 1.78591 1.78628 0.666626 3.16699 0.666626H14.8337C16.2144 0.666626 17.3337 1.78591 17.3337 3.16663V14.8333C17.3337 16.214 16.2144 17.3333 14.8337 17.3333H3.16699C1.78628 17.3333 0.666992 16.214 0.666992 14.8333V3.16663Z" fill="white"/>
<path fill-rule="evenodd" clip-rule="evenodd" d="M6.08366 5.66663C5.85354 5.66663 5.66699 5.85317 5.66699 6.08329C5.66699 6.31341 5.85354 6.49996 6.08366 6.49996C6.31378 6.49996 6.50033 6.31341 6.50033 6.08329C6.50033 5.85317 6.31378 5.66663 6.08366 5.66663ZM4.00033 6.08329C4.00033 4.9327 4.93307 3.99996 6.08366 3.99996C7.23425 3.99996 8.16699 4.9327 8.16699 6.08329C8.16699 7.23389 7.23425 8.16663 6.08366 8.16663C4.93307 8.16663 4.00033 7.23389 4.00033 6.08329Z" fill="white"/>
<path fill-rule="evenodd" clip-rule="evenodd" d="M11.7444 6.74404C12.0698 6.4186 12.5975 6.4186 12.9229 6.74404L17.0896 10.9107C17.415 11.2361 17.415 11.7638 17.0896 12.0892C16.7641 12.4147 16.2365 12.4147 15.9111 12.0892L12.3337 8.5118L3.75625 17.0892C3.43081 17.4147 2.90317 17.4147 2.57774 17.0892C2.2523 16.7638 2.2523 16.2361 2.57774 15.9107L11.7444 6.74404Z" fill="white"/>
</svg>
