<svg width="16" height="16" viewBox="0 0 16 16" fill="none" xmlns="http://www.w3.org/2000/svg">
<path fill-rule="evenodd" clip-rule="evenodd" d="M2.66797 3.33333C2.49116 3.33333 2.32159 3.40357 2.19656 3.5286C2.07154 3.65362 2.0013 3.82319 2.0013 4V13.3333C2.0013 13.5101 2.07154 13.6797 2.19656 13.8047C2.32159 13.9298 2.49116 14 2.66797 14H12.0013C12.1781 14 12.3477 13.9298 12.4727 13.8047C12.5977 13.6797 12.668 13.5101 12.668 13.3333V9.77333C12.668 9.40514 12.9664 9.10667 13.3346 9.10667C13.7028 9.10667 14.0013 9.40514 14.0013 9.77333V13.3333C14.0013 13.8638 13.7906 14.3725 13.4155 14.7475C13.0404 15.1226 12.5317 15.3333 12.0013 15.3333H2.66797C2.13754 15.3333 1.62883 15.1226 1.25376 14.7475C0.878682 14.3725 0.667969 13.8638 0.667969 13.3333V4C0.667969 3.46957 0.878682 2.96086 1.25376 2.58579C1.62883 2.21071 2.13754 2 2.66797 2H6.22797C6.59616 2 6.89464 2.29848 6.89464 2.66667C6.89464 3.03486 6.59616 3.33333 6.22797 3.33333H2.66797Z" fill="#6979F8"/>
<path fill-rule="evenodd" clip-rule="evenodd" d="M11.5299 0.86201C11.7902 0.601661 12.2124 0.601661 12.4727 0.86201L15.1394 3.52868C15.3997 3.78903 15.3997 4.21114 15.1394 4.47149L8.47271 11.1382C8.34768 11.2632 8.17811 11.3334 8.0013 11.3334H5.33464C4.96645 11.3334 4.66797 11.0349 4.66797 10.6667V8.00008C4.66797 7.82327 4.73821 7.6537 4.86323 7.52868L11.5299 0.86201ZM6.0013 8.27622V10.0001H7.72516L13.7252 4.00008L12.0013 2.27622L6.0013 8.27622Z" fill="#6979F8"/>
</svg>
