<svg width="25" height="25" viewBox="0 0 25 25" fill="none" xmlns="http://www.w3.org/2000/svg">
<circle cx="12.0239" cy="12.1013" r="12" fill="url(#paint0_linear)"/>
<path fill-rule="evenodd" clip-rule="evenodd" d="M7.00024 14.411C7.62536 13.7859 8.4732 13.4347 9.35726 13.4347H14.6906C15.5746 13.4347 16.4225 13.7859 17.0476 14.411C17.6727 15.0361 18.0239 15.884 18.0239 16.768V18.1014C18.0239 18.4695 17.7254 18.768 17.3573 18.768C16.9891 18.768 16.6906 18.4695 16.6906 18.1014V16.768C16.6906 16.2376 16.4799 15.7289 16.1048 15.3538C15.7297 14.9787 15.221 14.768 14.6906 14.768H9.35726C8.82683 14.768 8.31812 14.9787 7.94305 15.3538C7.56797 15.7289 7.35726 16.2376 7.35726 16.768V18.1014C7.35726 18.4695 7.05878 18.768 6.69059 18.768C6.3224 18.768 6.02393 18.4695 6.02393 18.1014V16.768C6.02393 15.884 6.37512 15.0361 7.00024 14.411Z" fill="white"/>
<path fill-rule="evenodd" clip-rule="evenodd" d="M12.024 6.76803C10.9194 6.76803 10.024 7.66346 10.024 8.76803C10.024 9.87259 10.9194 10.768 12.024 10.768C13.1286 10.768 14.024 9.87259 14.024 8.76803C14.024 7.66346 13.1286 6.76803 12.024 6.76803ZM8.69067 8.76803C8.69067 6.92708 10.1831 5.43469 12.024 5.43469C13.865 5.43469 15.3573 6.92708 15.3573 8.76803C15.3573 10.609 13.865 12.1014 12.024 12.1014C10.1831 12.1014 8.69067 10.609 8.69067 8.76803Z" fill="white"/>
<defs>
<linearGradient id="paint0_linear" x1="24.0239" y1="0.101313" x2="0.248886" y2="6.72269" gradientUnits="userSpaceOnUse">
<stop stop-color="#5A13A7"/>
<stop offset="1" stop-color="#5D55D0"/>
</linearGradient>
</defs>
</svg>
