<svg width="128" height="112" viewBox="0 0 128 112" fill="none" xmlns="http://www.w3.org/2000/svg">
<rect width="128" height="112" rx="15" fill="white"/>
<rect x="0.5" y="0.5" width="127" height="111" rx="14.5" stroke="#B8B5FF" stroke-opacity="0.15"/>
<path d="M21.2031 52.3242H21.3848C22.0293 52.3281 22.6172 52.4785 23.1484 52.7754C23.6797 53.0723 24.0918 53.4824 24.3848 54.0059C24.6816 54.5254 24.8301 55.1074 24.8301 55.752C24.8301 56.4004 24.6816 56.9883 24.3848 57.5156C24.0879 58.043 23.6777 58.4551 23.1543 58.752C22.6309 59.0449 22.0488 59.1953 21.4082 59.2031H21.2031V60.3516H20.1133V59.2031H19.9492C19.2969 59.2031 18.7031 59.0547 18.168 58.7578C17.6367 58.4609 17.2227 58.0508 16.9258 57.5273C16.6328 57.0039 16.4863 56.416 16.4863 55.7637C16.4863 55.1113 16.6328 54.5234 16.9258 54C17.2227 53.4766 17.6367 53.0664 18.168 52.7695C18.7031 52.4727 19.2969 52.3242 19.9492 52.3242H20.1133V51.1172H21.2031V52.3242ZM19.9492 53.209C19.2148 53.209 18.6328 53.4355 18.2031 53.8887C17.7773 54.3379 17.5645 54.9629 17.5645 55.7637C17.5645 56.5684 17.7773 57.1953 18.2031 57.6445C18.6289 58.0898 19.2148 58.3125 19.9609 58.3125H20.1133V53.209H19.9492ZM21.2031 53.209V58.3125H21.3672C22.1133 58.3125 22.6953 58.084 23.1133 57.627C23.5352 57.166 23.7461 56.541 23.7461 55.752C23.7461 54.9707 23.5352 54.3516 23.1133 53.8945C22.6953 53.4375 22.1055 53.209 21.3438 53.209H21.2031ZM25.791 56.7715C25.791 56.1504 25.9121 55.5918 26.1543 55.0957C26.4004 54.5996 26.7402 54.2168 27.1738 53.9473C27.6113 53.6777 28.1094 53.543 28.668 53.543C29.5312 53.543 30.2285 53.8418 30.7598 54.4395C31.2949 55.0371 31.5625 55.832 31.5625 56.8242V56.9004C31.5625 57.5176 31.4434 58.0723 31.2051 58.5645C30.9707 59.0527 30.6328 59.4336 30.1914 59.707C29.7539 59.9805 29.25 60.1172 28.6797 60.1172C27.8203 60.1172 27.123 59.8184 26.5879 59.2207C26.0566 58.623 25.791 57.832 25.791 56.8477V56.7715ZM26.8809 56.9004C26.8809 57.6035 27.043 58.168 27.3672 58.5938C27.6953 59.0195 28.1328 59.2324 28.6797 59.2324C29.2305 59.2324 29.668 59.0176 29.9922 58.5879C30.3164 58.1543 30.4785 57.5488 30.4785 56.7715C30.4785 56.0762 30.3125 55.5137 29.9805 55.084C29.6523 54.6504 29.2148 54.4336 28.668 54.4336C28.1328 54.4336 27.7012 54.6465 27.373 55.0723C27.0449 55.498 26.8809 56.1074 26.8809 56.9004ZM37.5039 54.5391H35.377V60H34.293V54.5391H32.207V53.6602H37.5039V54.5391ZM38.0254 56.7715C38.0254 56.1504 38.1465 55.5918 38.3887 55.0957C38.6348 54.5996 38.9746 54.2168 39.4082 53.9473C39.8457 53.6777 40.3438 53.543 40.9023 53.543C41.7656 53.543 42.4629 53.8418 42.9941 54.4395C43.5293 55.0371 43.7969 55.832 43.7969 56.8242V56.9004C43.7969 57.5176 43.6777 58.0723 43.4395 58.5645C43.2051 59.0527 42.8672 59.4336 42.4258 59.707C41.9883 59.9805 41.4844 60.1172 40.9141 60.1172C40.0547 60.1172 39.3574 59.8184 38.8223 59.2207C38.291 58.623 38.0254 57.832 38.0254 56.8477V56.7715ZM39.1152 56.9004C39.1152 57.6035 39.2773 58.168 39.6016 58.5938C39.9297 59.0195 40.3672 59.2324 40.9141 59.2324C41.4648 59.2324 41.9023 59.0176 42.2266 58.5879C42.5508 58.1543 42.7129 57.5488 42.7129 56.7715C42.7129 56.0762 42.5469 55.5137 42.2148 55.084C41.8867 54.6504 41.4492 54.4336 40.9023 54.4336C40.3672 54.4336 39.9355 54.6465 39.6074 55.0723C39.2793 55.498 39.1152 56.1074 39.1152 56.9004ZM54.5781 57.293C54.4727 58.1953 54.1387 58.8926 53.5762 59.3848C53.0176 59.873 52.2734 60.1172 51.3438 60.1172C50.3359 60.1172 49.5273 59.7559 48.918 59.0332C48.3125 58.3105 48.0098 57.3438 48.0098 56.1328V55.3125C48.0098 54.5195 48.1504 53.8223 48.4316 53.2207C48.7168 52.6191 49.1191 52.1582 49.6387 51.8379C50.1582 51.5137 50.7598 51.3516 51.4434 51.3516C52.3496 51.3516 53.0762 51.6055 53.623 52.1133C54.1699 52.6172 54.4883 53.3164 54.5781 54.2109H53.4473C53.3496 53.5312 53.1367 53.0391 52.8086 52.7344C52.4844 52.4297 52.0293 52.2773 51.4434 52.2773C50.7246 52.2773 50.1602 52.543 49.75 53.0742C49.3438 53.6055 49.1406 54.3613 49.1406 55.3418V56.168C49.1406 57.0938 49.334 57.8301 49.7207 58.377C50.1074 58.9238 50.6484 59.1973 51.3438 59.1973C51.9688 59.1973 52.4473 59.0566 52.7793 58.7754C53.1152 58.4902 53.3379 57.9961 53.4473 57.293H54.5781ZM61.8379 52.3945H59.0957V60H57.9766V52.3945H55.2402V51.4688H61.8379V52.3945ZM69.2148 57.293C69.1094 58.1953 68.7754 58.8926 68.2129 59.3848C67.6543 59.873 66.9102 60.1172 65.9805 60.1172C64.9727 60.1172 64.1641 59.7559 63.5547 59.0332C62.9492 58.3105 62.6465 57.3438 62.6465 56.1328V55.3125C62.6465 54.5195 62.7871 53.8223 63.0684 53.2207C63.3535 52.6191 63.7559 52.1582 64.2754 51.8379C64.7949 51.5137 65.3965 51.3516 66.0801 51.3516C66.9863 51.3516 67.7129 51.6055 68.2598 52.1133C68.8066 52.6172 69.125 53.3164 69.2148 54.2109H68.084C67.9863 53.5312 67.7734 53.0391 67.4453 52.7344C67.1211 52.4297 66.666 52.2773 66.0801 52.2773C65.3613 52.2773 64.7969 52.543 64.3867 53.0742C63.9805 53.6055 63.7773 54.3613 63.7773 55.3418V56.168C63.7773 57.0938 63.9707 57.8301 64.3574 58.377C64.7441 58.9238 65.2852 59.1973 65.9805 59.1973C66.6055 59.1973 67.084 59.0566 67.416 58.7754C67.752 58.4902 67.9746 57.9961 68.084 57.293H69.2148ZM16.7793 72.5371C16.7793 71.6543 16.8965 70.8066 17.1309 69.9941C17.3691 69.1816 17.7227 68.4434 18.1914 67.7793C18.6602 67.1152 19.1465 66.6465 19.6504 66.373L19.873 67.0879C19.3027 67.5254 18.834 68.1934 18.4668 69.0918C18.1035 69.9902 17.9043 70.9961 17.8691 72.1094L17.8633 72.6074C17.8633 74.1152 18.1387 75.4238 18.6895 76.5332C19.0215 77.1973 19.416 77.7168 19.873 78.0918L19.6504 78.7539C19.1309 78.4648 18.6348 77.9805 18.1621 77.3008C17.2402 75.9727 16.7793 74.3848 16.7793 72.5371ZM20.6348 72.7715C20.6348 72.1504 20.7559 71.5918 20.998 71.0957C21.2441 70.5996 21.584 70.2168 22.0176 69.9473C22.4551 69.6777 22.9531 69.543 23.5117 69.543C24.375 69.543 25.0723 69.8418 25.6035 70.4395C26.1387 71.0371 26.4062 71.832 26.4062 72.8242V72.9004C26.4062 73.5176 26.2871 74.0723 26.0488 74.5645C25.8145 75.0527 25.4766 75.4336 25.0352 75.707C24.5977 75.9805 24.0938 76.1172 23.5234 76.1172C22.6641 76.1172 21.9668 75.8184 21.4316 75.2207C20.9004 74.623 20.6348 73.832 20.6348 72.8477V72.7715ZM21.7246 72.9004C21.7246 73.6035 21.8867 74.168 22.2109 74.5938C22.5391 75.0195 22.9766 75.2324 23.5234 75.2324C24.0742 75.2324 24.5117 75.0176 24.8359 74.5879C25.1602 74.1543 25.3223 73.5488 25.3223 72.7715C25.3223 72.0762 25.1562 71.5137 24.8242 71.084C24.4961 70.6504 24.0586 70.4336 23.5117 70.4336C22.9766 70.4336 22.5449 70.6465 22.2168 71.0723C21.8887 71.498 21.7246 72.1074 21.7246 72.9004ZM30.5488 70.0234C31.3457 70.0234 31.9824 70.291 32.459 70.8262C32.9395 71.3574 33.1797 72.0586 33.1797 72.9297V73.0293C33.1797 73.627 33.0645 74.1621 32.834 74.6348C32.6035 75.1035 32.2715 75.4688 31.8379 75.7305C31.4082 75.9883 30.9121 76.1172 30.3496 76.1172C29.498 76.1172 28.8125 75.834 28.293 75.2676C27.7734 74.6973 27.5137 73.9336 27.5137 72.9766V72.4492C27.5137 71.1172 27.7598 70.0586 28.252 69.2734C28.748 68.4883 29.4785 68.0098 30.4434 67.8379C30.9902 67.7402 31.3594 67.6211 31.5508 67.4805C31.7422 67.3398 31.8379 67.1465 31.8379 66.9004H32.7285C32.7285 67.3887 32.6172 67.7695 32.3945 68.043C32.1758 68.3164 31.8242 68.5098 31.3398 68.623L30.5312 68.8047C29.8867 68.957 29.4023 69.2148 29.0781 69.5781C28.7578 69.9375 28.5488 70.418 28.4512 71.0195C29.0254 70.3555 29.7246 70.0234 30.5488 70.0234ZM30.3379 70.9141C29.8066 70.9141 29.3848 71.0938 29.0723 71.4531C28.7598 71.8086 28.6035 72.3027 28.6035 72.9355V73.0293C28.6035 73.709 28.7598 74.248 29.0723 74.6465C29.3887 75.041 29.8145 75.2383 30.3496 75.2383C30.8887 75.2383 31.3145 75.0391 31.627 74.6406C31.9395 74.2422 32.0957 73.6602 32.0957 72.8945C32.0957 72.2969 31.9375 71.8184 31.6211 71.459C31.3086 71.0957 30.8809 70.9141 30.3379 70.9141ZM39.6484 72.9004C39.6484 73.8652 39.4277 74.6426 38.9863 75.2324C38.5449 75.8223 37.9473 76.1172 37.1934 76.1172C36.4238 76.1172 35.8184 75.873 35.377 75.3848V78.4375H34.293V69.6602H35.2832L35.3359 70.3633C35.7773 69.8164 36.3906 69.543 37.1758 69.543C37.9375 69.543 38.5391 69.8301 38.9805 70.4043C39.4258 70.9785 39.6484 71.7773 39.6484 72.8008V72.9004ZM38.5645 72.7773C38.5645 72.0625 38.4121 71.498 38.1074 71.084C37.8027 70.6699 37.3848 70.4629 36.8535 70.4629C36.1973 70.4629 35.7051 70.7539 35.377 71.3359V74.3652C35.7012 74.9434 36.1973 75.2324 36.8652 75.2324C37.3848 75.2324 37.7969 75.0273 38.1016 74.6172C38.4102 74.2031 38.5645 73.5898 38.5645 72.7773ZM44.9453 76C44.8828 75.875 44.832 75.6523 44.793 75.332C44.2891 75.8555 43.6875 76.1172 42.9883 76.1172C42.3633 76.1172 41.8496 75.9414 41.4473 75.5898C41.0488 75.2344 40.8496 74.7852 40.8496 74.2422C40.8496 73.582 41.0996 73.0703 41.5996 72.707C42.1035 72.3398 42.8105 72.1562 43.7207 72.1562H44.7754V71.6582C44.7754 71.2793 44.6621 70.9785 44.4355 70.7559C44.209 70.5293 43.875 70.416 43.4336 70.416C43.0469 70.416 42.7227 70.5137 42.4609 70.709C42.1992 70.9043 42.0684 71.1406 42.0684 71.418H40.9785C40.9785 71.1016 41.0898 70.7969 41.3125 70.5039C41.5391 70.207 41.8438 69.9727 42.2266 69.8008C42.6133 69.6289 43.0371 69.543 43.498 69.543C44.2285 69.543 44.8008 69.7266 45.2148 70.0938C45.6289 70.457 45.8438 70.959 45.8594 71.5996V74.5176C45.8594 75.0996 45.9336 75.5625 46.082 75.9062V76H44.9453ZM43.1465 75.1738C43.4863 75.1738 43.8086 75.0859 44.1133 74.9102C44.418 74.7344 44.6387 74.5059 44.7754 74.2246V72.9238H43.9258C42.5977 72.9238 41.9336 73.3125 41.9336 74.0898C41.9336 74.4297 42.0469 74.6953 42.2734 74.8867C42.5 75.0781 42.791 75.1738 43.1465 75.1738ZM52.1758 70.5391H50.0488V76H48.9648V70.5391H46.8789V69.6602H52.1758V70.5391ZM58.4102 76H57.3262V73.293H54.4141V76H53.3242V69.6602H54.4141V72.4082H57.3262V69.6602H58.4102V76ZM64.0703 76C64.0078 75.875 63.957 75.6523 63.918 75.332C63.4141 75.8555 62.8125 76.1172 62.1133 76.1172C61.4883 76.1172 60.9746 75.9414 60.5723 75.5898C60.1738 75.2344 59.9746 74.7852 59.9746 74.2422C59.9746 73.582 60.2246 73.0703 60.7246 72.707C61.2285 72.3398 61.9355 72.1562 62.8457 72.1562H63.9004V71.6582C63.9004 71.2793 63.7871 70.9785 63.5605 70.7559C63.334 70.5293 63 70.416 62.5586 70.416C62.1719 70.416 61.8477 70.5137 61.5859 70.709C61.3242 70.9043 61.1934 71.1406 61.1934 71.418H60.1035C60.1035 71.1016 60.2148 70.7969 60.4375 70.5039C60.6641 70.207 60.9688 69.9727 61.3516 69.8008C61.7383 69.6289 62.1621 69.543 62.623 69.543C63.3535 69.543 63.9258 69.7266 64.3398 70.0938C64.7539 70.457 64.9688 70.959 64.9844 71.5996V74.5176C64.9844 75.0996 65.0586 75.5625 65.207 75.9062V76H64.0703ZM62.2715 75.1738C62.6113 75.1738 62.9336 75.0859 63.2383 74.9102C63.543 74.7344 63.7637 74.5059 63.9004 74.2246V72.9238H63.0508C61.7227 72.9238 61.0586 73.3125 61.0586 74.0898C61.0586 74.4297 61.1719 74.6953 61.3984 74.8867C61.625 75.0781 61.916 75.1738 62.2715 75.1738ZM71.5293 69.6602V76H70.4395V73.5332H68.8047L67.3105 76H66.1387L67.7324 73.3691C67.3262 73.2207 67.0137 72.9922 66.7949 72.6836C66.5801 72.3711 66.4727 72.0078 66.4727 71.5938C66.4727 71.0156 66.6895 70.5508 67.123 70.1992C67.5566 69.8438 68.1367 69.6641 68.8633 69.6602H71.5293ZM67.5625 71.6055C67.5625 71.9141 67.668 72.1641 67.8789 72.3555C68.0898 72.543 68.3691 72.6387 68.7168 72.6426H70.4395V70.5391H68.8809C68.4785 70.5391 68.1582 70.6387 67.9199 70.8379C67.6816 71.0332 67.5625 71.2891 67.5625 71.6055ZM19.3633 91.2324C19.75 91.2324 20.0879 91.1152 20.377 90.8809C20.666 90.6465 20.8262 90.3535 20.8574 90.002H21.8828C21.8633 90.3652 21.7383 90.7109 21.5078 91.0391C21.2773 91.3672 20.9688 91.6289 20.582 91.8242C20.1992 92.0195 19.793 92.1172 19.3633 92.1172C18.5 92.1172 17.8125 91.8301 17.3008 91.2559C16.793 90.6777 16.5391 89.8887 16.5391 88.8887V88.707C16.5391 88.0898 16.6523 87.541 16.8789 87.0605C17.1055 86.5801 17.4297 86.207 17.8516 85.9414C18.2773 85.6758 18.7793 85.543 19.3574 85.543C20.0684 85.543 20.6582 85.7559 21.127 86.1816C21.5996 86.6074 21.8516 87.1602 21.8828 87.8398H20.8574C20.8262 87.4297 20.6699 87.0938 20.3887 86.832C20.1113 86.5664 19.7676 86.4336 19.3574 86.4336C18.8066 86.4336 18.3789 86.6328 18.0742 87.0312C17.7734 87.4258 17.623 87.998 17.623 88.748V88.9531C17.623 89.6836 17.7734 90.2461 18.0742 90.6406C18.375 91.0352 18.8047 91.2324 19.3633 91.2324ZM27.8125 86.5391H25.6855V92H24.6016V86.5391H22.5156V85.6602H27.8125V86.5391ZM28.334 88.7715C28.334 88.1504 28.4551 87.5918 28.6973 87.0957C28.9434 86.5996 29.2832 86.2168 29.7168 85.9473C30.1543 85.6777 30.6523 85.543 31.2109 85.543C32.0742 85.543 32.7715 85.8418 33.3027 86.4395C33.8379 87.0371 34.1055 87.832 34.1055 88.8242V88.9004C34.1055 89.5176 33.9863 90.0723 33.748 90.5645C33.5137 91.0527 33.1758 91.4336 32.7344 91.707C32.2969 91.9805 31.793 92.1172 31.2227 92.1172C30.3633 92.1172 29.666 91.8184 29.1309 91.2207C28.5996 90.623 28.334 89.832 28.334 88.8477V88.7715ZM29.4238 88.9004C29.4238 89.6035 29.5859 90.168 29.9102 90.5938C30.2383 91.0195 30.6758 91.2324 31.2227 91.2324C31.7734 91.2324 32.2109 91.0176 32.5352 90.5879C32.8594 90.1543 33.0215 89.5488 33.0215 88.7715C33.0215 88.0762 32.8555 87.5137 32.5234 87.084C32.1953 86.6504 31.7578 86.4336 31.2109 86.4336C30.6758 86.4336 30.2441 86.6465 29.916 87.0723C29.5879 87.498 29.4238 88.1074 29.4238 88.9004ZM40.8203 88.9004C40.8203 89.8652 40.5996 90.6426 40.1582 91.2324C39.7168 91.8223 39.1191 92.1172 38.3652 92.1172C37.5957 92.1172 36.9902 91.873 36.5488 91.3848V94.4375H35.4648V85.6602H36.4551L36.5078 86.3633C36.9492 85.8164 37.5625 85.543 38.3477 85.543C39.1094 85.543 39.7109 85.8301 40.1523 86.4043C40.5977 86.9785 40.8203 87.7773 40.8203 88.8008V88.9004ZM39.7363 88.7773C39.7363 88.0625 39.584 87.498 39.2793 87.084C38.9746 86.6699 38.5566 86.4629 38.0254 86.4629C37.3691 86.4629 36.877 86.7539 36.5488 87.3359V90.3652C36.873 90.9434 37.3691 91.2324 38.0371 91.2324C38.5566 91.2324 38.9688 91.0273 39.2734 90.6172C39.582 90.2031 39.7363 89.5898 39.7363 88.7773ZM41.916 88.7715C41.916 88.1504 42.0371 87.5918 42.2793 87.0957C42.5254 86.5996 42.8652 86.2168 43.2988 85.9473C43.7363 85.6777 44.2344 85.543 44.793 85.543C45.6562 85.543 46.3535 85.8418 46.8848 86.4395C47.4199 87.0371 47.6875 87.832 47.6875 88.8242V88.9004C47.6875 89.5176 47.5684 90.0723 47.3301 90.5645C47.0957 91.0527 46.7578 91.4336 46.3164 91.707C45.8789 91.9805 45.375 92.1172 44.8047 92.1172C43.9453 92.1172 43.248 91.8184 42.7129 91.2207C42.1816 90.623 41.916 89.832 41.916 88.8477V88.7715ZM43.0059 88.9004C43.0059 89.6035 43.168 90.168 43.4922 90.5938C43.8203 91.0195 44.2578 91.2324 44.8047 91.2324C45.3555 91.2324 45.793 91.0176 46.1172 90.5879C46.4414 90.1543 46.6035 89.5488 46.6035 88.7715C46.6035 88.0762 46.4375 87.5137 46.1055 87.084C45.7773 86.6504 45.3398 86.4336 44.793 86.4336C44.2578 86.4336 43.8262 86.6465 43.498 87.0723C43.1699 87.498 43.0059 88.1074 43.0059 88.9004ZM54.2266 92H53.1426V89.293H50.2305V92H49.1406V85.6602H50.2305V88.4082H53.1426V85.6602H54.2266V92ZM59.8867 92C59.8242 91.875 59.7734 91.6523 59.7344 91.332C59.2305 91.8555 58.6289 92.1172 57.9297 92.1172C57.3047 92.1172 56.791 91.9414 56.3887 91.5898C55.9902 91.2344 55.791 90.7852 55.791 90.2422C55.791 89.582 56.041 89.0703 56.541 88.707C57.0449 88.3398 57.752 88.1562 58.6621 88.1562H59.7168V87.6582C59.7168 87.2793 59.6035 86.9785 59.377 86.7559C59.1504 86.5293 58.8164 86.416 58.375 86.416C57.9883 86.416 57.6641 86.5137 57.4023 86.709C57.1406 86.9043 57.0098 87.1406 57.0098 87.418H55.9199C55.9199 87.1016 56.0312 86.7969 56.2539 86.5039C56.4805 86.207 56.7852 85.9727 57.168 85.8008C57.5547 85.6289 57.9785 85.543 58.4395 85.543C59.1699 85.543 59.7422 85.7266 60.1562 86.0938C60.5703 86.457 60.7852 86.959 60.8008 87.5996V90.5176C60.8008 91.0996 60.875 91.5625 61.0234 91.9062V92H59.8867ZM58.0879 91.1738C58.4277 91.1738 58.75 91.0859 59.0547 90.9102C59.3594 90.7344 59.5801 90.5059 59.7168 90.2246V88.9238H58.8672C57.5391 88.9238 56.875 89.3125 56.875 90.0898C56.875 90.4297 56.9883 90.6953 57.2148 90.8867C57.4414 91.0781 57.7324 91.1738 58.0879 91.1738ZM65.002 88.5957C65.002 89.4668 64.8867 90.3027 64.6562 91.1035C64.4297 91.9004 64.0801 92.6367 63.6074 93.3125C63.1387 93.9883 62.6465 94.4688 62.1309 94.7539L61.9023 94.0918C62.5039 93.6309 62.9863 92.916 63.3496 91.9473C63.7168 90.9746 63.9043 89.8965 63.9121 88.7129V88.5254C63.9121 87.7051 63.8262 86.9434 63.6543 86.2402C63.4824 85.5332 63.2422 84.9004 62.9336 84.3418C62.6289 83.7832 62.2852 83.3477 61.9023 83.0352L62.1309 82.373C62.6465 82.6582 63.1367 83.1348 63.6016 83.8027C64.0703 84.4707 64.4199 85.207 64.6504 86.0117C64.8848 86.8164 65.002 87.6777 65.002 88.5957Z" fill="#828282"/>
<path fill-rule="evenodd" clip-rule="evenodd" d="M19.8787 17.8787C20.4413 17.3161 21.2044 17 22 17H30C30.2652 17 30.5196 17.1054 30.7071 17.2929L36.7071 23.2929C36.8946 23.4804 37 23.7348 37 24V36C37 36.7957 36.6839 37.5587 36.1213 38.1213C35.5587 38.6839 34.7957 39 34 39H22C21.2043 39 20.4413 38.6839 19.8787 38.1213C19.3161 37.5587 19 36.7957 19 36V20C19 19.2044 19.3161 18.4413 19.8787 17.8787ZM22 19C21.7348 19 21.4804 19.1054 21.2929 19.2929C21.1054 19.4804 21 19.7348 21 20V36C21 36.2652 21.1054 36.5196 21.2929 36.7071C21.4804 36.8946 21.7348 37 22 37H34C34.2652 37 34.5196 36.8946 34.7071 36.7071C34.8946 36.5196 35 36.2652 35 36V24.4142L29.5858 19H22Z" fill="#6979F8"/>
<path fill-rule="evenodd" clip-rule="evenodd" d="M30 17C30.5523 17 31 17.4477 31 18V23H36C36.5523 23 37 23.4477 37 24C37 24.5523 36.5523 25 36 25H30C29.4477 25 29 24.5523 29 24V18C29 17.4477 29.4477 17 30 17Z" fill="#6979F8"/>
<path fill-rule="evenodd" clip-rule="evenodd" d="M23 29C23 28.4477 23.4477 28 24 28H32C32.5523 28 33 28.4477 33 29C33 29.5523 32.5523 30 32 30H24C23.4477 30 23 29.5523 23 29Z" fill="#6979F8"/>
<path fill-rule="evenodd" clip-rule="evenodd" d="M23 33C23 32.4477 23.4477 32 24 32H32C32.5523 32 33 32.4477 33 33C33 33.5523 32.5523 34 32 34H24C23.4477 34 23 33.5523 23 33Z" fill="#6979F8"/>
<path fill-rule="evenodd" clip-rule="evenodd" d="M23 25C23 24.4477 23.4477 24 24 24H26C26.5523 24 27 24.4477 27 25C27 25.5523 26.5523 26 26 26H24C23.4477 26 23 25.5523 23 25Z" fill="#6979F8"/>
</svg>
