<svg width="14" height="16" viewBox="0 0 14 16" fill="none" xmlns="http://www.w3.org/2000/svg">
<path fill-rule="evenodd" clip-rule="evenodd" d="M0.332031 4.00008C0.332031 3.63189 0.630508 3.33341 0.998698 3.33341H12.9987C13.3669 3.33341 13.6654 3.63189 13.6654 4.00008C13.6654 4.36827 13.3669 4.66675 12.9987 4.66675H0.998698C0.630508 4.66675 0.332031 4.36827 0.332031 4.00008Z" fill="#EB5757"/>
<path fill-rule="evenodd" clip-rule="evenodd" d="M5.66536 2.00008C5.48855 2.00008 5.31898 2.07032 5.19396 2.19534C5.06894 2.32037 4.9987 2.48994 4.9987 2.66675V3.33341H8.9987V2.66675C8.9987 2.48994 8.92846 2.32037 8.80344 2.19534C8.67841 2.07032 8.50884 2.00008 8.33203 2.00008H5.66536ZM10.332 3.33341V2.66675C10.332 2.13631 10.1213 1.62761 9.74624 1.25253C9.37117 0.877462 8.86246 0.666748 8.33203 0.666748H5.66536C5.13493 0.666748 4.62622 0.877462 4.25115 1.25253C3.87608 1.62761 3.66536 2.13631 3.66536 2.66675V3.33341H2.33203C1.96384 3.33341 1.66536 3.63189 1.66536 4.00008V13.3334C1.66536 13.8638 1.87608 14.3726 2.25115 14.7476C2.62622 15.1227 3.13493 15.3334 3.66536 15.3334H10.332C10.8625 15.3334 11.3712 15.1227 11.7462 14.7476C12.1213 14.3726 12.332 13.8638 12.332 13.3334V4.00008C12.332 3.63189 12.0336 3.33341 11.6654 3.33341H10.332ZM2.9987 4.66675V13.3334C2.9987 13.5102 3.06894 13.6798 3.19396 13.8048C3.31898 13.9298 3.48855 14.0001 3.66536 14.0001H10.332C10.5088 14.0001 10.6784 13.9298 10.8034 13.8048C10.9285 13.6798 10.9987 13.5102 10.9987 13.3334V4.66675H2.9987Z" fill="#EB5757"/>
<path fill-rule="evenodd" clip-rule="evenodd" d="M5.66536 6.66675C6.03355 6.66675 6.33203 6.96522 6.33203 7.33341V11.3334C6.33203 11.7016 6.03355 12.0001 5.66536 12.0001C5.29717 12.0001 4.9987 11.7016 4.9987 11.3334V7.33341C4.9987 6.96522 5.29717 6.66675 5.66536 6.66675Z" fill="#EB5757"/>
<path fill-rule="evenodd" clip-rule="evenodd" d="M8.33203 6.66675C8.70022 6.66675 8.9987 6.96522 8.9987 7.33341V11.3334C8.9987 11.7016 8.70022 12.0001 8.33203 12.0001C7.96384 12.0001 7.66536 11.7016 7.66536 11.3334V7.33341C7.66536 6.96522 7.96384 6.66675 8.33203 6.66675Z" fill="#EB5757"/>
</svg>
