<svg width="19" height="18" viewBox="0 0 19 18" fill="none" xmlns="http://www.w3.org/2000/svg">
<g clip-path="url(#clip0)">
<path fill-rule="evenodd" clip-rule="evenodd" d="M2.20898 4.76021C2.20898 4.35751 2.53544 4.03105 2.93815 4.03105H16.0632C16.4659 4.03105 16.7923 4.35751 16.7923 4.76021C16.7923 5.16292 16.4659 5.48938 16.0632 5.48938H2.93815C2.53544 5.48938 2.20898 5.16292 2.20898 4.76021Z" fill="white"/>
<path fill-rule="evenodd" clip-rule="evenodd" d="M8.04232 2.57271C7.84893 2.57271 7.66347 2.64954 7.52672 2.78628C7.38997 2.92303 7.31315 3.10849 7.31315 3.30188V4.03105H11.6882V3.30188C11.6882 3.10849 11.6113 2.92303 11.4746 2.78628C11.3378 2.64954 11.1524 2.57271 10.959 2.57271H8.04232ZM13.1465 4.03105V3.30188C13.1465 2.72172 12.916 2.16532 12.5058 1.75508C12.0955 1.34485 11.5391 1.11438 10.959 1.11438H8.04232C7.46216 1.11438 6.90576 1.34485 6.49552 1.75508C6.08529 2.16532 5.85482 2.72172 5.85482 3.30188V4.03105H4.39648C3.99378 4.03105 3.66732 4.35751 3.66732 4.76021V14.9685C3.66732 15.5487 3.89779 16.1051 4.30802 16.5153C4.71826 16.9256 5.27466 17.156 5.85482 17.156H13.1465C13.7266 17.156 14.283 16.9256 14.6933 16.5153C15.1035 16.1051 15.334 15.5487 15.334 14.9685V4.76021C15.334 4.35751 15.0075 4.03105 14.6048 4.03105H13.1465ZM5.12565 5.48938V14.9685C5.12565 15.1619 5.20247 15.3474 5.33922 15.4841C5.47596 15.6209 5.66143 15.6977 5.85482 15.6977H13.1465C13.3399 15.6977 13.5253 15.6209 13.6621 15.4841C13.7988 15.3474 13.8757 15.1619 13.8757 14.9685V5.48938H5.12565Z" fill="white"/>
<path fill-rule="evenodd" clip-rule="evenodd" d="M8.04232 7.67688C8.44503 7.67688 8.77149 8.00334 8.77149 8.40605V12.781C8.77149 13.1838 8.44503 13.5102 8.04232 13.5102C7.63961 13.5102 7.31315 13.1838 7.31315 12.781V8.40605C7.31315 8.00334 7.63961 7.67688 8.04232 7.67688Z" fill="white"/>
<path fill-rule="evenodd" clip-rule="evenodd" d="M10.959 7.67688C11.3617 7.67688 11.6882 8.00334 11.6882 8.40605V12.781C11.6882 13.1838 11.3617 13.5102 10.959 13.5102C10.5563 13.5102 10.2298 13.1838 10.2298 12.781V8.40605C10.2298 8.00334 10.5563 7.67688 10.959 7.67688Z" fill="white"/>
</g>
<defs>
<clipPath id="clip0">
<rect width="17.5" height="17.5" fill="white" transform="translate(0.75 0.385254)"/>
</clipPath>
</defs>
</svg>
