<svg width="16" height="16" viewBox="0 0 16 16" fill="none" xmlns="http://www.w3.org/2000/svg">
<path d="M12.6673 15.3337H3.33398C2.20065 15.3337 1.33398 14.467 1.33398 13.3337V8.66699C1.33398 7.53366 2.20065 6.66699 3.33398 6.66699H12.6673C13.8007 6.66699 14.6673 7.53366 14.6673 8.66699V13.3337C14.6673 14.467 13.8007 15.3337 12.6673 15.3337ZM3.33398 8.00033C2.93398 8.00033 2.66732 8.26699 2.66732 8.66699V13.3337C2.66732 13.7337 2.93398 14.0003 3.33398 14.0003H12.6673C13.0673 14.0003 13.334 13.7337 13.334 13.3337V8.66699C13.334 8.26699 13.0673 8.00033 12.6673 8.00033H3.33398Z" fill="#27AE60"/>
<path d="M4.66732 8.00033C4.26732 8.00033 4.00065 7.73366 4.00065 7.33366V4.66699C4.00065 3.60033 4.40065 2.60033 5.20065 1.86699C5.93398 1.06699 6.93398 0.666992 8.00065 0.666992C9.86732 0.666992 11.534 2.00033 11.934 3.86699C12.0007 4.20033 11.734 4.60033 11.4007 4.66699C11.0673 4.73366 10.6673 4.53366 10.6007 4.13366C10.334 2.86699 9.26732 2.00033 8.00065 2.00033C7.26732 2.00033 6.60065 2.26699 6.13398 2.80033C5.60065 3.26699 5.33398 3.93366 5.33398 4.66699V7.33366C5.33398 7.73366 5.06732 8.00033 4.66732 8.00033Z" fill="#27AE60"/>
</svg>
