<svg width="24" height="24" viewBox="0 0 24 24" fill="none" xmlns="http://www.w3.org/2000/svg">
<path fill-rule="evenodd" clip-rule="evenodd" d="M4.46447 14.4131C5.40215 13.4754 6.67392 12.9486 8 12.9486H16C17.3261 12.9486 18.5979 13.4754 19.5355 14.4131C20.4732 15.3508 21 16.6225 21 17.9486V19.9486C21 20.5009 20.5523 20.9486 20 20.9486C19.4477 20.9486 19 20.5009 19 19.9486V17.9486C19 17.153 18.6839 16.3899 18.1213 15.8273C17.5587 15.2647 16.7956 14.9486 16 14.9486H8C7.20435 14.9486 6.44129 15.2647 5.87868 15.8273C5.31607 16.3899 5 17.153 5 17.9486V19.9486C5 20.5009 4.55228 20.9486 4 20.9486C3.44772 20.9486 3 20.5009 3 19.9486V17.9486C3 16.6225 3.52678 15.3508 4.46447 14.4131Z" fill="#F2F2F2"/>
<path fill-rule="evenodd" clip-rule="evenodd" d="M11.9841 18.9441C10.7125 18.9441 9.58838 19.5761 8.9088 20.5477C8.74271 20.7852 8.60365 21.0424 8.4958 21.315C8.29261 21.8285 7.71158 22.0801 7.19803 21.8769C6.68449 21.6737 6.43289 21.0927 6.63608 20.5792C6.80197 20.1599 7.01555 19.7651 7.26991 19.4014C8.30765 17.9178 10.0321 16.9441 11.9841 16.9441C13.9361 16.9441 15.6605 17.9178 16.6983 19.4014C16.9526 19.7651 17.1662 20.1599 17.3321 20.5792C17.5353 21.0927 17.2837 21.6737 16.7701 21.8769C16.2566 22.0801 15.6756 21.8285 15.4724 21.315C15.3645 21.0424 15.2255 20.7852 15.0594 20.5477C14.3798 19.5761 13.2557 18.9441 11.9841 18.9441Z" fill="#F2F2F2"/>
<path fill-rule="evenodd" clip-rule="evenodd" d="M12 2.94861C10.3431 2.94861 9 4.29175 9 5.94861C9 7.60546 10.3431 8.94861 12 8.94861C13.6569 8.94861 15 7.60546 15 5.94861C15 4.29175 13.6569 2.94861 12 2.94861ZM7 5.94861C7 3.18718 9.23858 0.948608 12 0.948608C14.7614 0.948608 17 3.18718 17 5.94861C17 8.71003 14.7614 10.9486 12 10.9486C9.23858 10.9486 7 8.71003 7 5.94861Z" fill="#F2F2F2"/>
</svg>
