<svg width="28" height="30" viewBox="0 0 28 30" fill="none" xmlns="http://www.w3.org/2000/svg">
<path fill-rule="evenodd" clip-rule="evenodd" d="M7.47829 2.2787C8.0409 1.71609 8.80396 1.40002 9.59961 1.40002H17.5996C17.8648 1.40002 18.1192 1.50538 18.3067 1.69292L24.3067 7.69292C24.4943 7.88045 24.5996 8.13481 24.5996 8.40002V20.4C24.5996 21.1957 24.2835 21.9587 23.7209 22.5213C23.1583 23.084 22.3953 23.4 21.5996 23.4H9.59961C8.80396 23.4 8.0409 23.084 7.47829 22.5213C6.91568 21.9587 6.59961 21.1957 6.59961 20.4V4.40002C6.59961 3.60438 6.91568 2.84131 7.47829 2.2787ZM9.59961 3.40002C9.33439 3.40002 9.08004 3.50538 8.8925 3.69292C8.70497 3.88045 8.59961 4.13481 8.59961 4.40002V20.4C8.59961 20.6652 8.70497 20.9196 8.8925 21.1071C9.08004 21.2947 9.33439 21.4 9.59961 21.4H21.5996C21.8648 21.4 22.1192 21.2947 22.3067 21.1071C22.4943 20.9196 22.5996 20.6652 22.5996 20.4V8.81424L17.1854 3.40002H9.59961Z" fill="white"/>
<path fill-rule="evenodd" clip-rule="evenodd" d="M17.5996 1.40002C18.1519 1.40002 18.5996 1.84774 18.5996 2.40002V7.40002H23.5996C24.1519 7.40002 24.5996 7.84774 24.5996 8.40002C24.5996 8.95231 24.1519 9.40002 23.5996 9.40002H17.5996C17.0473 9.40002 16.5996 8.95231 16.5996 8.40002V2.40002C16.5996 1.84774 17.0473 1.40002 17.5996 1.40002Z" fill="white"/>
<path fill-rule="evenodd" clip-rule="evenodd" d="M10.5996 13.4C10.5996 12.8477 11.0473 12.4 11.5996 12.4H19.5996C20.1519 12.4 20.5996 12.8477 20.5996 13.4C20.5996 13.9523 20.1519 14.4 19.5996 14.4H11.5996C11.0473 14.4 10.5996 13.9523 10.5996 13.4Z" fill="white"/>
<path fill-rule="evenodd" clip-rule="evenodd" d="M10.5996 17.4C10.5996 16.8477 11.0473 16.4 11.5996 16.4H19.5996C20.1519 16.4 20.5996 16.8477 20.5996 17.4C20.5996 17.9523 20.1519 18.4 19.5996 18.4H11.5996C11.0473 18.4 10.5996 17.9523 10.5996 17.4Z" fill="white"/>
<path fill-rule="evenodd" clip-rule="evenodd" d="M10.5996 9.40002C10.5996 8.84774 11.0473 8.40002 11.5996 8.40002H13.5996C14.1519 8.40002 14.5996 8.84774 14.5996 9.40002C14.5996 9.95231 14.1519 10.4 13.5996 10.4H11.5996C11.0473 10.4 10.5996 9.95231 10.5996 9.40002Z" fill="white"/>
<circle cx="7.60039" cy="22" r="6.4" fill="#AA7ADD" stroke="#AA7ADD" stroke-width="1.6"/>
<circle cx="7.53359" cy="21.9336" r="4.73359" fill="#AA7ADD" stroke="white" stroke-width="1.6"/>
<path d="M8.34093 19.845C8.34647 19.4032 7.99281 19.0406 7.55102 19.035C7.10922 19.0295 6.74659 19.3831 6.74105 19.8249L8.34093 19.845ZM7.54099 21.9336L6.74124 21.9537C6.75212 22.3876 7.10697 22.7336 7.54099 22.7336V21.9336ZM9.63187 22.7336C10.0737 22.7336 10.4319 22.3755 10.4319 21.9336C10.4319 21.4918 10.0737 21.1336 9.63187 21.1336V22.7336ZM7.54099 19.835C6.74105 19.8249 6.74105 19.8249 6.74105 19.825C6.74105 19.825 6.74105 19.825 6.74105 19.825C6.74105 19.8251 6.74105 19.8252 6.74105 19.8252C6.74105 19.8254 6.74104 19.8257 6.74104 19.8261C6.74103 19.8268 6.74102 19.8278 6.741 19.8292C6.74097 19.832 6.74092 19.836 6.74085 19.8413C6.74073 19.8519 6.74055 19.8675 6.74032 19.8875C6.73987 19.9275 6.73925 19.9853 6.73856 20.0568C6.73718 20.1998 6.73553 20.3978 6.73442 20.6179C6.73223 21.0548 6.73214 21.5905 6.74124 21.9537L8.34074 21.9136C8.33231 21.5772 8.33221 21.0635 8.3344 20.626C8.33549 20.4089 8.33713 20.2134 8.33849 20.0722C8.33917 20.0016 8.33978 19.9447 8.34022 19.9054C8.34044 19.8858 8.34062 19.8706 8.34074 19.8604C8.3408 19.8553 8.34085 19.8514 8.34088 19.8488C8.3409 19.8475 8.34091 19.8465 8.34092 19.8459C8.34092 19.8456 8.34092 19.8453 8.34093 19.8452C8.34093 19.8451 8.34093 19.8451 8.34093 19.845C8.34093 19.845 8.34093 19.845 8.34093 19.845C8.34093 19.845 8.34093 19.845 7.54099 19.835ZM7.54099 22.7336H9.63187V21.1336H7.54099V22.7336Z" fill="white"/>
<path d="M6.72548 23.9737C6.71994 24.4155 7.0736 24.7782 7.51539 24.7837C7.95718 24.7892 8.31981 24.4356 8.32535 23.9938L6.72548 23.9737ZM7.52542 21.8851L8.32516 21.865C8.31429 21.4312 7.95943 21.0851 7.52542 21.0851L7.52542 21.8851ZM5.43454 21.0851C4.99271 21.0851 4.63454 21.4433 4.63454 21.8851C4.63454 22.3269 4.99271 22.6851 5.43454 22.6851L5.43454 21.0851ZM7.52542 23.9838C8.32535 23.9938 8.32535 23.9938 8.32535 23.9938C8.32535 23.9937 8.32535 23.9937 8.32535 23.9937C8.32535 23.9936 8.32536 23.9936 8.32536 23.9935C8.32536 23.9933 8.32536 23.993 8.32537 23.9927C8.32538 23.9919 8.32539 23.9909 8.32541 23.9895C8.32544 23.9868 8.32549 23.9827 8.32555 23.9774C8.32568 23.9668 8.32586 23.9513 8.32608 23.9313C8.32653 23.8913 8.32716 23.8335 8.32784 23.7619C8.32922 23.6189 8.33088 23.4209 8.33198 23.2008C8.33417 22.7639 8.33427 22.2282 8.32516 21.865L6.72567 21.9051C6.7341 22.2415 6.7342 22.7552 6.732 23.1928C6.73091 23.4098 6.72928 23.6053 6.72792 23.7465C6.72724 23.8171 6.72663 23.874 6.72619 23.9133C6.72597 23.9329 6.72579 23.9481 6.72567 23.9583C6.7256 23.9635 6.72556 23.9674 6.72553 23.9699C6.72551 23.9712 6.7255 23.9722 6.72549 23.9728C6.72549 23.9732 6.72548 23.9734 6.72548 23.9735C6.72548 23.9736 6.72548 23.9737 6.72548 23.9737C6.72548 23.9737 6.72548 23.9737 6.72548 23.9737C6.72548 23.9737 6.72548 23.9737 7.52542 23.9838ZM7.52542 21.0851L5.43454 21.0851L5.43454 22.6851L7.52542 22.6851L7.52542 21.0851Z" fill="white"/>
</svg>
