<svg width="20" height="18" viewBox="0 0 20 18" fill="none" xmlns="http://www.w3.org/2000/svg">
<path fill-rule="evenodd" clip-rule="evenodd" d="M0.833008 1.49996C0.833008 1.03972 1.2061 0.666626 1.66634 0.666626H6.66634C7.77141 0.666626 8.83122 1.10561 9.61262 1.88701C10.394 2.66842 10.833 3.72822 10.833 4.83329V16.5C10.833 16.9602 10.4599 17.3333 9.99967 17.3333C9.53944 17.3333 9.16634 16.9602 9.16634 16.5C9.16634 16.0579 8.99075 15.634 8.67819 15.3214C8.36562 15.0089 7.9417 14.8333 7.49967 14.8333H1.66634C1.2061 14.8333 0.833008 14.4602 0.833008 14V1.49996ZM9.16634 13.6132V4.83329C9.16634 4.17025 8.90295 3.53437 8.43411 3.06553C7.96527 2.59668 7.32938 2.33329 6.66634 2.33329H2.49967V13.1666H7.49967C8.08986 13.1666 8.66392 13.3231 9.16634 13.6132Z" fill="white"/>
<path fill-rule="evenodd" clip-rule="evenodd" d="M10.3867 1.88701C11.1681 1.10561 12.2279 0.666626 13.333 0.666626H18.333C18.7932 0.666626 19.1663 1.03972 19.1663 1.49996V14C19.1663 14.4602 18.7932 14.8333 18.333 14.8333H12.4997C12.0576 14.8333 11.6337 15.0089 11.3212 15.3214C11.0086 15.634 10.833 16.0579 10.833 16.5C10.833 16.9602 10.4599 17.3333 9.99967 17.3333C9.53944 17.3333 9.16634 16.9602 9.16634 16.5V4.83329C9.16634 3.72822 9.60533 2.66842 10.3867 1.88701ZM10.833 13.6132C11.3354 13.3231 11.9095 13.1666 12.4997 13.1666H17.4997V2.33329H13.333C12.67 2.33329 12.0341 2.59668 11.5652 3.06553C11.0964 3.53437 10.833 4.17025 10.833 4.83329V13.6132Z" fill="white"/>
</svg>
