<svg width="24" height="25" viewBox="0 0 24 25" fill="none" xmlns="http://www.w3.org/2000/svg">
<path fill-rule="evenodd" clip-rule="evenodd" d="M1 3.91016C1 3.35787 1.44772 2.91016 2 2.91016H8C9.32608 2.91016 10.5979 3.43694 11.5355 4.37462C12.4732 5.3123 13 6.58407 13 7.91016V21.9102C13 22.4624 12.5523 22.9102 12 22.9102C11.4477 22.9102 11 22.4624 11 21.9102C11 21.3797 10.7893 20.871 10.4142 20.4959C10.0391 20.1209 9.53043 19.9102 9 19.9102H2C1.44772 19.9102 1 19.4624 1 18.9102V3.91016ZM11 18.446V7.91016C11 7.11451 10.6839 6.35144 10.1213 5.78884C9.55871 5.22623 8.79565 4.91016 8 4.91016H3V17.9102H9C9.70823 17.9102 10.3971 18.098 11 18.446Z" fill="#6979F8"/>
<path fill-rule="evenodd" clip-rule="evenodd" d="M12.4645 4.37462C13.4021 3.43694 14.6739 2.91016 16 2.91016H22C22.5523 2.91016 23 3.35787 23 3.91016V18.9102C23 19.4624 22.5523 19.9102 22 19.9102H15C14.4696 19.9102 13.9609 20.1209 13.5858 20.4959C13.2107 20.871 13 21.3797 13 21.9102C13 22.4624 12.5523 22.9102 12 22.9102C11.4477 22.9102 11 22.4624 11 21.9102V7.91016C11 6.58407 11.5268 5.3123 12.4645 4.37462ZM13 18.446C13.6029 18.098 14.2918 17.9102 15 17.9102H21V4.91016H16C15.2044 4.91016 14.4413 5.22623 13.8787 5.78884C13.3161 6.35144 13 7.11451 13 7.91016V18.446Z" fill="#6979F8"/>
</svg>
