<svg width="28" height="25" viewBox="0 0 28 25" fill="none" xmlns="http://www.w3.org/2000/svg">
<path fill-rule="evenodd" clip-rule="evenodd" d="M4.46447 15.4131C5.40215 14.4754 6.67392 13.9486 8 13.9486H16C17.3261 13.9486 18.5979 14.4754 19.5355 15.4131C20.4732 16.3508 21 17.6225 21 18.9486V20.9486C21 21.5009 20.5523 21.9486 20 21.9486C19.4477 21.9486 19 21.5009 19 20.9486V18.9486C19 18.153 18.6839 17.3899 18.1213 16.8273C17.5587 16.2647 16.7956 15.9486 16 15.9486H8C7.20435 15.9486 6.44129 16.2647 5.87868 16.8273C5.31607 17.3899 5 18.153 5 18.9486V20.9486C5 21.5009 4.55228 21.9486 4 21.9486C3.44772 21.9486 3 21.5009 3 20.9486V18.9486C3 17.6225 3.52678 16.3508 4.46447 15.4131Z" fill="#F2F2F2"/>
<path fill-rule="evenodd" clip-rule="evenodd" d="M11.9848 19.9441C10.7132 19.9441 9.58911 20.5761 8.90953 21.5477C8.74344 21.7852 8.60438 22.0424 8.49654 22.315C8.29335 22.8285 7.71232 23.0801 7.19877 22.8769C6.68522 22.6737 6.43362 22.0927 6.63681 21.5792C6.80271 21.1599 7.01628 20.7651 7.27065 20.4014C8.30839 18.9178 10.0328 17.9441 11.9848 17.9441C13.9368 17.9441 15.6612 18.9178 16.699 20.4014C16.9534 20.7651 17.1669 21.1599 17.3328 21.5792C17.536 22.0927 17.2844 22.6737 16.7709 22.8769C16.2573 23.0801 15.6763 22.8285 15.4731 22.315C15.3653 22.0424 15.2262 21.7852 15.0601 21.5477C14.3805 20.5761 13.2564 19.9441 11.9848 19.9441Z" fill="#F2F2F2"/>
<path fill-rule="evenodd" clip-rule="evenodd" d="M12 3.94861C10.3431 3.94861 9 5.29175 9 6.94861C9 8.60546 10.3431 9.94861 12 9.94861C13.6569 9.94861 15 8.60546 15 6.94861C15 5.29175 13.6569 3.94861 12 3.94861ZM7 6.94861C7 4.18718 9.23858 1.94861 12 1.94861C14.7614 1.94861 17 4.18718 17 6.94861C17 9.71003 14.7614 11.9486 12 11.9486C9.23858 11.9486 7 9.71003 7 6.94861Z" fill="#F2F2F2"/>
<g clip-path="url(#clip0)">
<path fill-rule="evenodd" clip-rule="evenodd" d="M26.9063 8.49284C27.2969 8.88337 27.2969 9.51653 26.9063 9.90706L22.9063 13.9071C22.5158 14.2976 21.8826 14.2976 21.4921 13.9071L19.4921 11.9071C19.1016 11.5165 19.1016 10.8834 19.4921 10.4928C19.8826 10.1023 20.5158 10.1023 20.9063 10.4928L22.1992 11.7857L25.4921 8.49284C25.8826 8.10232 26.5158 8.10232 26.9063 8.49284Z" fill="white"/>
</g>
<defs>
<clipPath id="clip0">
<rect width="24" height="24" fill="white" transform="translate(3.19922 0.199951)"/>
</clipPath>
</defs>
</svg>
