<svg width="522" height="514" viewBox="0 0 522 514" fill="none" xmlns="http://www.w3.org/2000/svg">
<path opacity="0.15" fill-rule="evenodd" clip-rule="evenodd" d="M372.243 144.254C392.695 168.53 407.65 195.388 418.148 226.508C430.038 261.755 449.404 297.488 436.945 336.061C424.172 375.608 389.773 408.308 353.252 427.433C319.638 445.036 283.293 439.07 248.653 434.665C218.958 430.89 190.625 422.919 168.751 403.974C147.559 385.62 143.378 354.894 128.516 330.615C103.848 290.319 42.9078 266.107 53.1264 215.094C62.7562 167.02 127.335 151.936 169.557 125.727C207.627 102.097 245.593 66.497 286.498 70.2359C326.543 73.8963 347.181 114.504 372.243 144.254Z" fill="#8F8AFF"/>
</svg>
