<svg width="375" height="394" viewBox="0 0 375 394" fill="none" xmlns="http://www.w3.org/2000/svg">
<g filter="url(#filter0_d)">
<path fill-rule="evenodd" clip-rule="evenodd" d="M156.029 38.0141L220.602 333.984C220.602 333.984 140.968 313.477 83.0409 235.619C56.6311 199.609 38.7379 158.043 30.7183 114.074C30.7183 114.074 52.0807 87.2918 108.618 58.9046C124.029 51.0793 139.857 44.1054 156.029 38.0141V38.0141Z" fill="url(#paint0_radial)"/>
<path fill-rule="evenodd" clip-rule="evenodd" d="M300.285 204.825C292.098 233.442 279.43 260.569 262.756 285.193C250.965 303.291 236.785 319.704 220.604 333.984L156.03 38.014C254.416 30.971 301.599 54.7372 301.599 54.7372C315.811 113.451 311.895 163.777 300.285 204.825Z" fill="url(#paint1_radial)"/>
<path fill-rule="evenodd" clip-rule="evenodd" d="M53.8124 124.605C53.8124 124.605 81.9507 89.3975 160.773 59.7218L215.859 312.276C215.859 312.276 83.7955 278.568 53.8124 124.605Z" fill="url(#paint2_linear)"/>
<g style="mix-blend-mode:soft-light" opacity="0.5">
<path fill-rule="evenodd" clip-rule="evenodd" d="M129.874 72.7357L139.478 239.779L83.0411 235.619C56.6313 199.609 38.7381 158.043 30.7185 114.074C30.7185 114.074 52.0809 87.2919 108.618 58.9047L129.874 72.7357Z" fill="#FBF9FA"/>
</g>
<g style="mix-blend-mode:soft-light" opacity="0.3">
<path fill-rule="evenodd" clip-rule="evenodd" d="M300.283 204.826C292.096 233.442 279.429 260.57 262.754 285.193L246.936 277.67L284.919 198.158L300.283 204.826Z" fill="#FBF9FA"/>
</g>
<path fill-rule="evenodd" clip-rule="evenodd" d="M284.995 73.9966C284.995 73.9966 244.718 53.7192 160.772 59.7219L215.858 312.276C215.858 312.276 321.85 226.419 284.995 73.9966Z" fill="url(#paint3_linear)"/>
<path fill-rule="evenodd" clip-rule="evenodd" d="M162.171 66.1812L215.226 309.403C169.444 294.896 129.475 266.088 101.154 227.186C87.8394 208.897 77.2766 188.744 69.8043 167.374C65.3044 154.76 61.7561 141.825 59.1897 128.678C59.1897 128.678 76.832 106.431 123.476 83.0925C136.068 76.775 148.984 71.13 162.171 66.1812Z" fill="url(#paint4_linear)"/>
<path fill-rule="evenodd" clip-rule="evenodd" d="M283.512 87.4674C313.78 229.548 215.225 309.403 215.225 309.403L162.17 66.1812C243.042 60.3824 281.914 79.9228 281.914 79.9228C282.415 82.4635 282.983 84.9982 283.512 87.4674Z" fill="url(#paint5_linear)"/>
<g style="mix-blend-mode:soft-light" opacity="0.5">
<path fill-rule="evenodd" clip-rule="evenodd" d="M183.404 161.428L201.665 247.185L101.154 227.186C80.0332 197.889 65.6964 164.234 59.19 128.678C59.19 128.678 76.8323 106.431 123.476 83.0925L182.777 160.553L183.404 161.428Z" fill="#FBF9FA"/>
</g>
<g style="mix-blend-mode:soft-light">
<path fill-rule="evenodd" clip-rule="evenodd" d="M34.2821 110.104C41.14 109.102 47.688 106.578 53.4492 102.716C55.4514 101.023 57.0109 98.8643 57.9922 96.4285C58.9734 93.9926 59.3468 91.3529 59.0797 88.7386C59.0797 88.7386 39.0934 103.542 34.2821 110.104Z" fill="#FBF9FA"/>
</g>
<g style="mix-blend-mode:multiply" opacity="0.5">
<path fill-rule="evenodd" clip-rule="evenodd" d="M282.649 83.5458C232.599 63.4808 163.643 70.7727 163.643 70.7727C127.602 84.935 94.3488 105.391 65.4251 131.192C64.083 141.617 69.4718 166.336 69.8014 167.34C65.3041 154.737 61.757 141.813 59.1899 128.678C59.1899 128.678 76.8322 106.431 123.476 83.0926C136.07 76.7865 148.987 71.153 162.174 66.2154C243.043 60.3824 281.915 79.9228 281.915 79.9228C282.416 82.4635 282.018 81.0856 282.649 83.5458Z" fill="#773891"/>
</g>
<path fill-rule="evenodd" clip-rule="evenodd" d="M150.397 179.731L154.35 166.971L186.662 178.408L216.044 129.337L224.797 133.903L192.917 207.082L150.397 179.731Z" fill="url(#paint6_radial)"/>
</g>
<defs>
<filter id="filter0_d" x="0" y="0" width="374.231" height="393.986" filterUnits="userSpaceOnUse" color-interpolation-filters="sRGB">
<feFlood flood-opacity="0" result="BackgroundImageFix"/>
<feColorMatrix in="SourceAlpha" type="matrix" values="0 0 0 0 0 0 0 0 0 0 0 0 0 0 0 0 0 0 127 0"/>
<feOffset dx="10" dy="10"/>
<feGaussianBlur stdDeviation="17.5"/>
<feColorMatrix type="matrix" values="0 0 0 0 0.329412 0 0 0 0 0.141176 0 0 0 0 0.572549 0 0 0 0.35 0"/>
<feBlend mode="normal" in2="BackgroundImageFix" result="effect1_dropShadow"/>
<feBlend mode="normal" in="SourceGraphic" in2="effect1_dropShadow" result="shape"/>
</filter>
<radialGradient id="paint0_radial" cx="0" cy="0" r="1" gradientUnits="userSpaceOnUse" gradientTransform="translate(161.427 100.983) rotate(-12.3555) scale(203.554 204.204)">
<stop stop-color="#8461D3"/>
<stop offset="0.99" stop-color="#7138B6"/>
</radialGradient>
<radialGradient id="paint1_radial" cx="0" cy="0" r="1" gradientUnits="userSpaceOnUse" gradientTransform="translate(191.764 172.431) rotate(-12.3555) scale(125.972 126.374)">
<stop stop-color="#6D47D3"/>
<stop offset="0.99" stop-color="#542492"/>
</radialGradient>
<linearGradient id="paint2_linear" x1="158.03" y1="324.936" x2="102.713" y2="72.4077" gradientUnits="userSpaceOnUse">
<stop stop-color="#603082"/>
<stop offset="0.99" stop-color="#3C145F"/>
</linearGradient>
<linearGradient id="paint3_linear" x1="52762.3" y1="9859.81" x2="48564.6" y2="-8954.59" gradientUnits="userSpaceOnUse">
<stop stop-color="#603082"/>
<stop offset="0.99" stop-color="#3C145F"/>
</linearGradient>
<linearGradient id="paint4_linear" x1="159.54" y1="321.583" x2="106.273" y2="78.4111" gradientUnits="userSpaceOnUse">
<stop offset="0.04" stop-color="#A4C6FF"/>
<stop offset="0.24" stop-color="#BD9BD2"/>
<stop offset="1" stop-color="#EBD7E3"/>
</linearGradient>
<linearGradient id="paint5_linear" x1="270.927" y1="297.184" x2="217.66" y2="54.0116" gradientUnits="userSpaceOnUse">
<stop stop-color="#83A8FF"/>
<stop offset="0.21" stop-color="#8E7BBB"/>
<stop offset="1" stop-color="#EBD7E3"/>
</linearGradient>
<radialGradient id="paint6_radial" cx="0" cy="0" r="1" gradientUnits="userSpaceOnUse" gradientTransform="translate(191.25 190.152) rotate(-12.3555) scale(41.6486 41.7813)">
<stop stop-color="#5178FE"/>
<stop offset="0.99" stop-color="#713592"/>
</radialGradient>
</defs>
</svg>
