<svg width="22" height="22" viewBox="0 0 22 22" fill="none" xmlns="http://www.w3.org/2000/svg">
<path d="M13.8623 9.10369C13.8623 8.63021 13.7084 8.24669 13.4006 7.95312C13.0928 7.65956 12.688 7.51278 12.1861 7.51278H9.9134V10.6946H12.1861C12.688 10.6946 13.0928 10.5478 13.4006 10.2543C13.7084 9.9607 13.8623 9.57718 13.8623 9.10369ZM15.5455 9.10369C15.5455 10.0175 15.246 10.7633 14.6471 11.3409C14.0481 11.9186 13.2751 12.2074 12.3282 12.2074H9.9134V13.0455H13.5C13.5663 13.0455 13.6208 13.0668 13.6634 13.1094C13.706 13.152 13.7273 13.2064 13.7273 13.2727V14.1818C13.7273 14.2481 13.706 14.3026 13.6634 14.3452C13.6208 14.3878 13.5663 14.4091 13.5 14.4091H9.9134V15.7727C9.9134 15.839 9.89091 15.8935 9.84592 15.9361C9.80094 15.9787 9.74768 16 9.68612 16H8.50004C8.43376 16 8.37931 15.9787 8.33669 15.9361C8.29408 15.8935 8.27277 15.839 8.27277 15.7727V14.4091H6.68186C6.61557 14.4091 6.56112 14.3878 6.51851 14.3452C6.4759 14.3026 6.45459 14.2481 6.45459 14.1818V13.2727C6.45459 13.2064 6.4759 13.152 6.51851 13.1094C6.56112 13.0668 6.61557 13.0455 6.68186 13.0455H8.27277V12.2074H6.68186C6.61557 12.2074 6.56112 12.1861 6.51851 12.1435C6.4759 12.1009 6.45459 12.0464 6.45459 11.9801V10.9219C6.45459 10.8603 6.4759 10.8071 6.51851 10.7621C6.56112 10.7171 6.61557 10.6946 6.68186 10.6946H8.27277V6.22727C8.27277 6.16098 8.29408 6.10653 8.33669 6.06392C8.37931 6.02131 8.43376 6 8.50004 6H12.3282C13.2751 6 14.0481 6.28883 14.6471 6.86648C15.246 7.44413 15.5455 8.18987 15.5455 9.10369Z" fill="#F2F2F2"/>
<path d="M11 22C4.9 22 0 17.1 0 11C0 4.9 4.9 0 11 0C17.1 0 22 4.9 22 11C22 17.1 17.1 22 11 22ZM11 2C6 2 2 6 2 11C2 16 6 20 11 20C16 20 20 16 20 11C20 6 16 2 11 2Z" fill="#F2F2F2"/>
</svg>
