<svg width="16" height="16" viewBox="0 0 16 16" fill="none" xmlns="http://www.w3.org/2000/svg">
<path d="M12.3154 15.3333H3.24132C2.13947 15.3333 1.29688 14.4666 1.29688 13.3333V8.66662C1.29688 7.53328 2.13947 6.66662 3.24132 6.66662H12.3154C13.4172 6.66662 14.2598 7.53328 14.2598 8.66662V13.3333C14.2598 14.4666 13.4172 15.3333 12.3154 15.3333ZM3.24132 7.99995C2.85243 7.99995 2.59317 8.26662 2.59317 8.66662V13.3333C2.59317 13.7333 2.85243 13.9999 3.24132 13.9999H12.3154C12.7043 13.9999 12.9635 13.7333 12.9635 13.3333V8.66662C12.9635 8.26662 12.7043 7.99995 12.3154 7.99995H3.24132Z" fill="#EB5757"/>
<path d="M4.53762 7.99995C4.14873 7.99995 3.88947 7.73328 3.88947 7.33328V4.66662C3.88947 3.59995 4.27836 2.59995 5.05613 1.86662C5.7691 1.06662 6.74132 0.666618 7.77836 0.666618C9.59317 0.666618 11.2135 1.99995 11.6024 3.86662C11.6672 4.19995 11.408 4.59995 11.0839 4.66662C10.7598 4.73328 10.3709 4.53328 10.3061 4.13328C10.0469 2.86662 9.00984 1.99995 7.77836 1.99995C7.06539 1.99995 6.41725 2.26662 5.96354 2.79995C5.44502 3.26662 5.18576 3.93328 5.18576 4.66662V7.33328C5.18576 7.73328 4.92651 7.99995 4.53762 7.99995Z" fill="#EB5757"/>
<path fill-rule="evenodd" clip-rule="evenodd" d="M3.85457 4.6311C3.85457 2.41212 5.60344 0.613281 7.76079 0.613281C9.91813 0.613281 11.667 2.41212 11.667 4.6311V7.34703H10.3059V4.6311C10.3059 3.18532 9.16641 2.01328 7.76079 2.01328C6.35516 2.01328 5.21568 3.18532 5.21568 4.6311V7.34703H3.85457V4.6311Z" fill="#EB5757"/>
</svg>
