<svg width="24" height="28" viewBox="0 0 24 28" fill="none" xmlns="http://www.w3.org/2000/svg">
<path fill-rule="evenodd" clip-rule="evenodd" d="M0.698921 3.7361C0.0817871 4.94729 0.0817871 6.53283 0.0817871 9.70391V15.5034C0.0817871 18.6744 0.0817871 20.26 0.698921 21.4712C1.24177 22.5366 2.10796 23.4028 3.17336 23.9456C4.37302 24.5569 5.93995 24.5627 9.0511 24.5627L11.7035 27.2152C11.8899 27.4015 12.192 27.4015 12.3783 27.2152L15.0307 24.5627C18.1419 24.5627 19.7088 24.5569 20.9084 23.9456C21.9738 23.4028 22.84 22.5366 23.3829 21.4712C24 20.26 24 18.6744 24 15.5034V9.70391C24 6.53283 24 4.94729 23.3829 3.7361C22.84 2.6707 21.9738 1.80451 20.9084 1.26166C19.6972 0.644531 18.1117 0.644531 14.9406 0.644531H9.14117C5.97009 0.644531 4.38455 0.644531 3.17336 1.26166C2.10796 1.80451 1.24177 2.6707 0.698921 3.7361Z" fill="white"/>
<path fill-rule="evenodd" clip-rule="evenodd" d="M0.698921 3.7361C0.0817871 4.94729 0.0817871 6.53283 0.0817871 9.70391V15.5034C0.0817871 18.6744 0.0817871 20.26 0.698921 21.4712C1.24177 22.5366 2.10796 23.4028 3.17336 23.9456C4.37302 24.5569 5.93995 24.5627 9.0511 24.5627L11.7035 27.2152C11.8899 27.4015 12.192 27.4015 12.3783 27.2152L15.0307 24.5627C18.1419 24.5627 19.7088 24.5569 20.9084 23.9456C21.9738 23.4028 22.84 22.5366 23.3829 21.4712C24 20.26 24 18.6744 24 15.5034V9.70391C24 6.53283 24 4.94729 23.3829 3.7361C22.84 2.6707 21.9738 1.80451 20.9084 1.26166C19.6972 0.644531 18.1117 0.644531 14.9406 0.644531H9.14117C5.97009 0.644531 4.38455 0.644531 3.17336 1.26166C2.10796 1.80451 1.24177 2.6707 0.698921 3.7361Z" fill="#FFB801"/>
<rect x="5.23804" y="7.19263" width="13.6059" height="3.73064" rx="1.86532" fill="#6979F8"/>
<rect x="13.9062" y="7.19238" width="13.6059" height="3.73064" rx="1.86532" transform="rotate(90 13.9062 7.19238)" fill="#6979F8"/>
<path d="M10.019 7.19238H16.9788C18.009 7.19238 18.8441 8.02752 18.8441 9.05771C18.8441 10.0879 18.009 10.923 16.9788 10.923H10.019V7.19238Z" fill="#6979F8"/>
<path d="M10.019 7.1925H16.9788C18.009 7.1925 18.8441 8.02764 18.8441 9.05783C18.8441 10.088 18.009 10.9231 16.9788 10.9231H10.019V7.1925Z" fill="#6979F8"/>
<path d="M10.019 7.1925H16.9788C18.009 7.1925 18.8441 8.02764 18.8441 9.05783C18.8441 10.088 18.009 10.9231 16.9788 10.9231H10.019V7.1925Z" fill="url(#paint0_linear)"/>
<path d="M8.75024 7.19238H10.1756C12.236 7.19238 13.9063 8.86265 13.9063 10.923H8.75024V7.19238Z" fill="#6979F8"/>
<path d="M9.20776 10.9231H10.1763V11.8916H9.20776V10.9231Z" fill="#6979F8"/>
<path d="M9.20776 10.9231C9.74267 10.9231 10.1763 11.3567 10.1763 11.8916H9.20776V10.9231Z" fill="#FFB801"/>
<defs>
<linearGradient id="paint0_linear" x1="10.019" y1="10.9231" x2="18.8441" y2="7.1925" gradientUnits="userSpaceOnUse">
<stop stop-color="#3B359C"/>
<stop offset="0.625676" stop-color="#5D55D0"/>
</linearGradient>
</defs>
</svg>
