<svg width="19" height="20" viewBox="0 0 19 20" fill="none" xmlns="http://www.w3.org/2000/svg">
<path fill-rule="evenodd" clip-rule="evenodd" d="M13.1493 1.98991C12.4857 1.98991 11.8494 2.2535 11.3802 2.72268L3.72185 10.381C2.93993 11.1629 2.50065 12.2235 2.50065 13.3293C2.50065 14.4351 2.93993 15.4956 3.72185 16.2775C4.50378 17.0594 5.56429 17.4987 6.6701 17.4987C7.7759 17.4987 8.83642 17.0594 9.61834 16.2775L17.2767 8.61917C17.6021 8.29374 18.1297 8.29374 18.4552 8.61917C18.7806 8.94461 18.7806 9.47225 18.4552 9.79768L10.7969 17.456C9.70237 18.5505 8.21793 19.1654 6.6701 19.1654C5.12226 19.1654 3.63783 18.5505 2.54334 17.456C1.44886 16.3615 0.833984 14.8771 0.833984 13.3293C0.833984 11.7814 1.44886 10.297 2.54334 9.20251L10.2017 1.54417C10.9834 0.762424 12.0437 0.323242 13.1493 0.323242C14.2548 0.323242 15.3151 0.762424 16.0969 1.54417C16.8786 2.32592 17.3178 3.3862 17.3178 4.49176C17.3178 5.59732 16.8786 6.6576 16.0969 7.43935L8.43019 15.0977C7.96117 15.5667 7.32505 15.8302 6.66176 15.8302C5.99848 15.8302 5.36236 15.5667 4.89334 15.0977C4.42433 14.6287 4.16084 13.9925 4.16084 13.3293C4.16084 12.666 4.42433 12.0299 4.89334 11.5608L11.9687 4.49383C12.2943 4.16858 12.822 4.16889 13.1472 4.49452C13.4724 4.82015 13.4721 5.34779 13.1465 5.67303L6.07185 12.7394C5.91562 12.8958 5.8275 13.1082 5.8275 13.3293C5.8275 13.5505 5.9154 13.7627 6.07185 13.9192C6.22831 14.0756 6.44051 14.1635 6.66176 14.1635C6.88302 14.1635 7.09522 14.0756 7.25168 13.9192L14.9183 6.26084C15.3873 5.79168 15.6511 5.15514 15.6511 4.49176C15.6511 3.82823 15.3875 3.19187 14.9183 2.72268C14.4492 2.2535 13.8128 1.98991 13.1493 1.98991Z" fill="#8F5BC5"/>
</svg>
