<svg width="24" height="25" viewBox="0 0 24 25" fill="none" xmlns="http://www.w3.org/2000/svg">
<path fill-rule="evenodd" clip-rule="evenodd" d="M11 4.72168C7.13401 4.72168 4 7.85569 4 11.7217C4 15.5877 7.13401 18.7217 11 18.7217C14.866 18.7217 18 15.5877 18 11.7217C18 7.85569 14.866 4.72168 11 4.72168ZM2 11.7217C2 6.75112 6.02944 2.72168 11 2.72168C15.9706 2.72168 20 6.75112 20 11.7217C20 16.6922 15.9706 20.7217 11 20.7217C6.02944 20.7217 2 16.6922 2 11.7217Z" fill="#5D55D0"/>
<path fill-rule="evenodd" clip-rule="evenodd" d="M15.9428 16.6646C16.3333 16.2741 16.9665 16.2741 17.357 16.6646L21.707 21.0146C22.0975 21.4051 22.0975 22.0383 21.707 22.4288C21.3165 22.8193 20.6833 22.8193 20.2928 22.4288L15.9428 18.0788C15.5523 17.6883 15.5523 17.0551 15.9428 16.6646Z" fill="#5D55D0"/>
</svg>
