<?xml version="1.0" standalone="no"?>
<!DOCTYPE svg PUBLIC "-//W3C//DTD SVG 20010904//EN"
 "http://www.w3.org/TR/2001/REC-SVG-20010904/DTD/svg10.dtd">
<svg version="1.0" xmlns="http://www.w3.org/2000/svg"
 width="1090.000000pt" height="1133.000000pt" viewBox="0 0 1090.000000 1133.000000"
 preserveAspectRatio="xMidYMid meet">
<metadata>
Created by potrace 1.16, written by Peter Selinger 2001-2019
</metadata>
<g transform="translate(0.000000,1133.000000) scale(0.100000,-0.100000)"
fill="#000000" stroke="none">
<path d="M0 5665 c0 -5325 1 -5665 17 -5665 13 0 14 3 5 12 -9 9 -12 1277 -12
5643 l0 5631 20 22 21 22 -26 0 -25 0 0 -5665z"/>
<path d="M765 191 c-65 -30 -116 -91 -140 -168 l-6 -23 245 0 245 0 -8 28
c-21 73 -78 139 -143 166 -51 22 -143 20 -193 -3z"/>
<path d="M1595 186 c-55 -25 -98 -69 -120 -123 -28 -66 -39 -63 225 -63 185 0
240 3 240 13 0 23 -47 112 -71 134 -70 64 -186 81 -274 39z"/>
<path d="M2440 194 c-64 -27 -120 -94 -141 -166 l-8 -28 244 0 243 0 -10 40
c-13 51 -80 127 -133 151 -49 23 -146 24 -195 3z"/>
<path d="M3282 195 c-75 -33 -129 -95 -147 -167 l-7 -28 242 0 243 0 -7 32
c-14 68 -83 142 -155 167 -46 15 -129 13 -169 -4z"/>
<path d="M4114 196 c-69 -30 -144 -122 -144 -176 0 -20 5 -20 240 -20 132 0
240 2 240 4 0 2 -7 22 -15 45 -35 101 -122 161 -229 161 -34 -1 -75 -7 -92
-14z"/>
<path d="M4952 195 c-75 -33 -129 -95 -147 -167 l-7 -28 241 0 c271 0 258 -4
222 76 -23 49 -88 107 -140 122 -52 16 -129 14 -169 -3z"/>
<path d="M5791 197 c-50 -19 -111 -75 -132 -121 -36 -80 -49 -76 222 -76 l241
0 -6 27 c-13 53 -61 117 -110 147 -39 25 -61 31 -115 33 -36 1 -81 -3 -100
-10z"/>
<path d="M6603 185 c-57 -29 -96 -74 -118 -136 -8 -23 -15 -43 -15 -45 0 -2
108 -4 240 -4 235 0 240 0 240 20 0 55 -76 147 -146 176 -55 23 -142 18 -201
-11z"/>
<path d="M7465 198 c-69 -24 -138 -100 -151 -166 l-6 -32 241 0 c159 0 241 4
241 10 0 20 -31 84 -57 118 -51 68 -179 101 -268 70z"/>
<path d="M8285 191 c-53 -24 -120 -100 -133 -151 l-10 -40 243 0 244 0 -8 28
c-21 73 -78 139 -143 166 -51 22 -143 20 -193 -3z"/>
<path d="M9115 186 c-27 -13 -60 -34 -72 -47 -23 -25 -62 -105 -63 -126 0 -10
55 -13 241 -13 l241 0 -6 25 c-38 152 -199 228 -341 161z"/>
<path d="M9960 194 c-64 -27 -120 -94 -141 -166 l-8 -28 245 0 245 0 -6 23
c-24 77 -75 138 -140 168 -49 23 -146 24 -195 3z"/>
</g>
</svg>
