<svg width="65" height="65" viewBox="0 0 65 65" fill="none" xmlns="http://www.w3.org/2000/svg">
<g filter="url(#filter0_d)">
<circle cx="32.5" cy="28.5" r="17.5" fill="#EB5757"/>
</g>
<g clip-path="url(#clip0)">
<path fill-rule="evenodd" clip-rule="evenodd" d="M25.2085 23.7602C25.2085 23.3575 25.535 23.031 25.9377 23.031H39.0627C39.4654 23.031 39.7918 23.3575 39.7918 23.7602C39.7918 24.1629 39.4654 24.4894 39.0627 24.4894H25.9377C25.535 24.4894 25.2085 24.1629 25.2085 23.7602Z" fill="white"/>
<path fill-rule="evenodd" clip-rule="evenodd" d="M31.0418 21.5727C30.8484 21.5727 30.663 21.6495 30.5262 21.7863C30.3895 21.923 30.3127 22.1085 30.3127 22.3019V23.031H34.6877V22.3019C34.6877 22.1085 34.6108 21.923 34.4741 21.7863C34.3374 21.6495 34.1519 21.5727 33.9585 21.5727H31.0418ZM36.146 23.031V22.3019C36.146 21.7217 35.9155 21.1653 35.5053 20.7551C35.0951 20.3448 34.5387 20.1144 33.9585 20.1144H31.0418C30.4617 20.1144 29.9053 20.3448 29.495 20.7551C29.0848 21.1653 28.8543 21.7217 28.8543 22.3019V23.031H27.396C26.9933 23.031 26.6668 23.3575 26.6668 23.7602V33.9685C26.6668 34.5487 26.8973 35.1051 27.3075 35.5153C27.7178 35.9256 28.2742 36.156 28.8543 36.156H36.146C36.7262 36.156 37.2826 35.9256 37.6928 35.5153C38.103 35.1051 38.3335 34.5487 38.3335 33.9685V23.7602C38.3335 23.3575 38.007 23.031 37.6043 23.031H36.146ZM28.1252 24.4894V33.9685C28.1252 34.1619 28.202 34.3474 28.3387 34.4841C28.4755 34.6209 28.6609 34.6977 28.8543 34.6977H36.146C36.3394 34.6977 36.5248 34.6209 36.6616 34.4841C36.7983 34.3474 36.8752 34.1619 36.8752 33.9685V24.4894H28.1252Z" fill="white"/>
<path fill-rule="evenodd" clip-rule="evenodd" d="M31.0418 26.6769C31.4445 26.6769 31.771 27.0033 31.771 27.406V31.781C31.771 32.1838 31.4445 32.5102 31.0418 32.5102C30.6391 32.5102 30.3127 32.1838 30.3127 31.781V27.406C30.3127 27.0033 30.6391 26.6769 31.0418 26.6769Z" fill="white"/>
<path fill-rule="evenodd" clip-rule="evenodd" d="M33.9585 26.6769C34.3612 26.6769 34.6877 27.0033 34.6877 27.406V31.781C34.6877 32.1838 34.3612 32.5102 33.9585 32.5102C33.5558 32.5102 33.2293 32.1838 33.2293 31.781V27.406C33.2293 27.0033 33.5558 26.6769 33.9585 26.6769Z" fill="white"/>
</g>
<defs>
<filter id="filter0_d" x="0" y="0" width="65" height="65" filterUnits="userSpaceOnUse" color-interpolation-filters="sRGB">
<feFlood flood-opacity="0" result="BackgroundImageFix"/>
<feColorMatrix in="SourceAlpha" type="matrix" values="0 0 0 0 0 0 0 0 0 0 0 0 0 0 0 0 0 0 127 0"/>
<feOffset dy="4"/>
<feGaussianBlur stdDeviation="7.5"/>
<feColorMatrix type="matrix" values="0 0 0 0 0 0 0 0 0 0 0 0 0 0 0 0 0 0 0.25 0"/>
<feBlend mode="normal" in2="BackgroundImageFix" result="effect1_dropShadow"/>
<feBlend mode="normal" in="SourceGraphic" in2="effect1_dropShadow" result="shape"/>
</filter>
<clipPath id="clip0">
<rect width="17.5" height="17.5" fill="white" transform="translate(23.75 19.3853)"/>
</clipPath>
</defs>
</svg>
