<svg width="21" height="23" viewBox="0 0 21 23" fill="none" xmlns="http://www.w3.org/2000/svg">
<path fill-rule="evenodd" clip-rule="evenodd" d="M11 2.72168C9.4087 2.72168 7.88258 3.35382 6.75736 4.47904C5.63214 5.60426 5 7.13038 5 8.72168V13.7217C5 14.4299 4.81218 15.1188 4.46411 15.7217H17.5359C17.1878 15.1188 17 14.4299 17 13.7217V8.72168C17 7.13038 16.3679 5.60426 15.2426 4.47904C14.1174 3.35382 12.5913 2.72168 11 2.72168ZM21 15.7217C20.4696 15.7217 19.9609 15.511 19.5858 15.1359C19.2107 14.7608 19 14.2521 19 13.7217V8.72168C19 6.59995 18.1571 4.56512 16.6569 3.06483C15.1566 1.56453 13.1217 0.72168 11 0.72168C8.87827 0.72168 6.84344 1.56453 5.34315 3.06483C3.84285 4.56512 3 6.59995 3 8.72168V13.7217C3 14.2521 2.78929 14.7608 2.41421 15.1359C2.03914 15.511 1.53043 15.7217 1 15.7217C0.447715 15.7217 0 16.1694 0 16.7217C0 17.274 0.447715 17.7217 1 17.7217H21V15.7217ZM8.76823 19.8567C9.24595 19.5796 9.85788 19.7422 10.135 20.2199C10.2229 20.3714 10.3491 20.4972 10.5009 20.5847C10.6527 20.6721 10.8248 20.7181 11 20.7181C11.1752 20.7181 11.3473 20.6721 11.4991 20.5847C11.6509 20.4972 11.7771 20.3714 11.865 20.2199C12.1421 19.7422 12.754 19.5796 13.2318 19.8567C13.7095 20.1338 13.8721 20.7457 13.595 21.2235C13.3313 21.6781 12.9528 22.0554 12.4973 22.3177C12.0419 22.5801 11.5256 22.7181 11 22.7181C10.4744 22.7181 9.95809 22.5801 9.50266 22.3177C9.04724 22.0554 8.66872 21.6781 8.405 21.2235C8.12788 20.7457 8.2905 20.1338 8.76823 19.8567Z" fill="#5D55D0"/>
</svg>
