<svg width="24" height="24" viewBox="0 0 24 24" fill="none" xmlns="http://www.w3.org/2000/svg">
<path d="M22.7452 10.3666L22.238 9.82954L20.4579 5.0312C20.1546 4.2207 19.3789 3.68368 18.5137 3.67871H5.79931C4.93411 3.67871 4.15842 4.2207 3.85511 5.0312L2.09986 9.76987L1.36892 10.4461C0.732458 10.9881 0.364502 11.7837 0.364502 12.619V19.6102C0.369474 20.7538 1.29931 21.6787 2.44295 21.6787H3.75566C4.89931 21.6787 5.82914 20.7538 5.83411 19.6102V18.5958H18.1656V19.6102C18.1706 20.7538 19.1004 21.6787 20.2441 21.6787H21.5568C22.7004 21.6787 23.6302 20.7538 23.6352 19.6102V12.4351C23.6302 11.6544 23.312 10.9085 22.7452 10.3666ZM4.78992 5.36932C4.94903 4.94667 5.35179 4.67319 5.79931 4.67319H18.5186C18.9662 4.67319 19.3689 4.95164 19.528 5.36932L21.0794 9.54611H18.4351C18.1616 7.68147 16.4262 6.39363 14.5616 6.67208C13.0748 6.89087 11.9063 8.05937 11.6876 9.54611H3.23853L4.78992 5.36932ZM17.4207 9.54611H12.692C12.9655 8.23838 14.2483 7.40302 15.5561 7.6765C16.4909 7.8754 17.2218 8.60634 17.4207 9.54611ZM4.83964 19.6102C4.83467 20.2069 4.35235 20.6842 3.75566 20.6842H2.44295C1.84627 20.6842 1.36395 20.2069 1.35898 19.6102V18.3074C1.65732 18.5014 2.05014 18.5958 2.44295 18.5958H4.83964V19.6102ZM22.6407 19.6102C22.6358 20.2069 22.1535 20.6842 21.5568 20.6842H20.2441C19.6474 20.6842 19.1651 20.2019 19.1601 19.6102V18.5958H21.5568C21.9496 18.5958 22.3424 18.5014 22.6407 18.3074V19.6102ZM21.5568 17.6014H2.44295C1.85124 17.6063 1.36395 17.134 1.35898 16.5373V12.619C1.35898 12.0721 1.60262 11.55 2.0203 11.1969C2.02528 11.192 2.03522 11.182 2.04019 11.1771L2.71644 10.5406H21.5468L22.0242 11.0527C22.0291 11.0627 22.0441 11.0677 22.049 11.0776C22.422 11.4306 22.6358 11.9229 22.6358 12.4351V16.5373H22.6407C22.6358 17.129 22.1485 17.6063 21.5568 17.6014Z" fill="#F2F2F2" stroke="#F2F2F2" stroke-width="0.7"/>
<path d="M9.02954 1.96167C9.02954 1.40939 9.47726 0.96167 10.0295 0.96167H14.0195C14.5718 0.96167 15.0195 1.40939 15.0195 1.96167V2.49681H9.02954V1.96167Z" fill="#F2F2F2"/>
<circle cx="4.80225" cy="14.2891" r="1.5" fill="#F2F2F2"/>
<circle cx="19.2329" cy="14.2891" r="1.5" fill="#F2F2F2"/>
<rect x="8.1936" y="13.2891" width="7.62428" height="2" rx="1" fill="#F2F2F2"/>
</svg>
