<svg viewBox="0 0 37 25" fill="none" xmlns="http://www.w3.org/2000/svg">
<path d="M1.36168 20.6187C0.620412 18.1125 -0.00790294 12.606 3.409 10.6293C6.8259 8.65253 8.71554 7.74654 9.23326 7.54063C11.21 5.92278 15.7635 2.59177 18.1638 2.21055C21.1642 1.73402 25.1352 1.36338 27.9944 1.53988C30.8536 1.71637 33.7834 1.25749 35.1953 5.33447C35.6719 7.0641 35.3718 11.2999 34.8071 11.7588C34.7953 12.5295 34.6129 14.1697 33.9775 14.565C33.3422 14.9604 32.1597 14.7298 31.6478 14.565V14.265L26.0354 18.9068H25.8412C25.653 20.1775 25.0082 22.8461 23.9351 23.3544C22.862 23.8627 21.4877 23.6368 20.9347 23.4603C20.8112 23.425 20.5641 23.2697 20.5641 22.9308C19.611 23.4603 12.569 24.5192 9.23326 23.5838C6.56469 22.8355 2.87364 21.2953 1.36168 20.6187ZM16.0877 2.98484C18.7435 2.91821 25.0051 2.82493 26.0332 2.98484C27.3182 3.18474 27.4896 3.07052 26.9755 4.09856C26.5643 4.921 25.3383 7.08752 24.7767 8.06797C24.6053 8.49633 23.7219 9.19154 21.5212 9.09602C18.6227 8.97022 14.9749 8.54358 14.1249 8.43921C13.2749 8.33485 10.9551 7.96326 9.67005 7.81096C9.55582 7.77288 9.15945 7.5389 9.77628 7.10483C10.5473 6.56225 14.048 3.80526 16.0877 2.98484ZM12.4974 16.9887C11.4312 16.9033 10.804 16.1711 11.7119 15.6488C13.5461 14.5934 18.6648 13.2545 20.9347 12.5992C20.6523 13.5233 19.7028 15.4917 18.1638 15.9722C16.6248 16.4527 13.7449 16.8501 12.4974 16.9887ZM1.56927 16.8621C1.3951 16.6598 0.991153 16.2403 1.03478 15.6731C1.08932 14.9641 1.08932 14.5496 1.79834 14.7132C2.50736 14.8768 7.86315 16.2621 8.29947 16.3167C8.73579 16.3712 9.91384 17.0584 10.4701 17.582C10.9152 18.0008 11.1792 18.2874 11.2555 18.3783C10.8774 18.6291 9.92475 19.1156 9.13938 19.0546C8.15767 18.9782 4.71076 18.1383 4.39443 18.0074C4.14136 17.9027 2.35464 17.4402 1.56927 16.8621Z" stroke="currentColor" stroke-width="1.5" stroke-linejoin="round"/>
</svg>
