<svg width="19" height="18" viewBox="0 0 19 18" fill="none" xmlns="http://www.w3.org/2000/svg">
<path d="M18 4.27979V1.99979C18 0.899786 17.1 -0.000213623 16 -0.000213623H2C0.89 -0.000213623 0 0.899786 0 1.99979V15.9998C0 17.0998 0.89 17.9998 2 17.9998H16C17.1 17.9998 18 17.0998 18 15.9998V13.7198C18.59 13.3698 19 12.7398 19 11.9998V5.99979C19 5.25979 18.59 4.62979 18 4.27979ZM17 5.99979V11.9998H10V5.99979H17ZM2 15.9998V1.99979H16V3.99979H10C8.9 3.99979 8 4.89979 8 5.99979V11.9998C8 13.0998 8.9 13.9998 10 13.9998H16V15.9998H2Z" fill="#F2F2F2"/>
</svg>
