<svg width="20" height="20" viewBox="0 0 20 20" fill="none" xmlns="http://www.w3.org/2000/svg">
<path fill-rule="evenodd" clip-rule="evenodd" d="M18 9.49996C18 4.06975 12.0662 0.309805 7.15088 2.79256L7.14709 2.79447L7.14709 2.79447C3.52862 4.60292 1.95647 9.2139 3.79263 12.8491C3.91284 13.0871 3.93303 13.3632 3.84871 13.6162L2.58117 17.4188L6.3838 16.1513C6.63674 16.067 6.91289 16.0872 7.15088 16.2074C12.0075 18.6604 18.0139 14.8409 18 9.50257L18 9.49996ZM20 9.49884C19.9992 2.61375 12.5263 -2.16151 6.25106 1.00641C1.78432 3.24011 -0.223921 8.7956 1.82401 13.3657L0.0513438 18.6837C-0.0684344 19.0431 0.0250881 19.4392 0.29292 19.7071C0.560753 19.9749 0.95692 20.0684 1.31625 19.9486L6.63399 18.1761C12.7713 20.9322 20.0163 16.1596 20 9.49884Z" fill="#B8B5FF"/>
</svg>
