<svg  viewBox="0 0 24 24" fill="none" xmlns="http://www.w3.org/2000/svg">
<path fill-rule="evenodd" clip-rule="evenodd" d="M15.2652 3.77329C13.5375 2.9834 11.6072 2.78771 9.76219 3.21542C7.9172 3.64314 6.25639 4.67133 5.02745 6.14666C3.79851 7.62199 3.06728 9.4654 2.94283 11.402C2.81838 13.3386 3.30736 15.2645 4.33686 16.8927C5.36636 18.5208 6.88121 19.7638 8.65548 20.4364C10.4298 21.109 12.3684 21.1751 14.1823 20.6248C15.9961 20.0745 17.588 18.9374 18.7206 17.3829C19.8531 15.8285 20.4656 13.9401 20.4667 11.9993V11.0799C20.4667 10.5276 20.903 10.0799 21.4413 10.0799C21.9795 10.0799 22.4159 10.5276 22.4159 11.0799V11.9999C22.4146 14.3719 21.666 16.6806 20.2818 18.5804C18.8975 20.4803 16.9519 21.8702 14.7349 22.5427C12.518 23.2153 10.1485 23.1345 7.97998 22.3125C5.81142 21.4904 3.95994 19.9711 2.70166 17.9812C1.44339 15.9913 0.845738 13.6373 0.997848 11.2704C1.14996 8.90346 2.04368 6.6504 3.54572 4.84722C5.04776 3.04404 7.07764 1.78736 9.33262 1.2646C11.5876 0.741837 13.9469 0.981007 16.0585 1.94644C16.5502 2.17122 16.7712 2.76239 16.5521 3.26687C16.333 3.77134 15.7569 3.99807 15.2652 3.77329Z" fill="white"/>
<path fill-rule="evenodd" clip-rule="evenodd" d="M15.2652 3.77329C13.5375 2.9834 11.6072 2.78771 9.76219 3.21542C7.9172 3.64314 6.25639 4.67133 5.02745 6.14666C3.79851 7.62199 3.06728 9.4654 2.94283 11.402C2.81838 13.3386 3.30736 15.2645 4.33686 16.8927C5.36636 18.5208 6.88121 19.7638 8.65548 20.4364C10.4298 21.109 12.3684 21.1751 14.1823 20.6248C15.9961 20.0745 17.588 18.9374 18.7206 17.3829C19.8531 15.8285 20.4656 13.9401 20.4667 11.9993V11.0799C20.4667 10.5276 20.903 10.0799 21.4413 10.0799C21.9795 10.0799 22.4159 10.5276 22.4159 11.0799V11.9999C22.4146 14.3719 21.666 16.6806 20.2818 18.5804C18.8975 20.4803 16.9519 21.8702 14.7349 22.5427C12.518 23.2153 10.1485 23.1345 7.97998 22.3125C5.81142 21.4904 3.95994 19.9711 2.70166 17.9812C1.44339 15.9913 0.845738 13.6373 0.997848 11.2704C1.14996 8.90346 2.04368 6.6504 3.54572 4.84722C5.04776 3.04404 7.07764 1.78736 9.33262 1.2646C11.5876 0.741837 13.9469 0.981007 16.0585 1.94644C16.5502 2.17122 16.7712 2.76239 16.5521 3.26687C16.333 3.77134 15.7569 3.99807 15.2652 3.77329Z" fill="#FFB801"/>
<path fill-rule="evenodd" clip-rule="evenodd" d="M22.1301 3.29254C22.5109 3.68287 22.5112 4.31603 22.1308 4.70675L12.3848 14.7168C12.202 14.9044 11.9541 15.0099 11.6955 15.01C11.437 15.0101 11.189 14.9047 11.0061 14.7171L8.08233 11.7171C7.70172 11.3266 7.70172 10.6934 8.08233 10.3029C8.46294 9.91237 9.08002 9.91237 9.46063 10.3029L11.6949 12.5954L20.7518 3.29325C21.1322 2.90253 21.7493 2.90221 22.1301 3.29254Z" fill="#5A13A7"/>
</svg>
