<svg width="24" height="24" viewBox="0 0 24 24" fill="none" xmlns="http://www.w3.org/2000/svg">
<path fill-rule="evenodd" clip-rule="evenodd" d="M4 3.9998C4 2.23249 5.43269 0.799805 7.2 0.799805H15.3882C15.8301 0.799805 16.1882 1.15798 16.1882 1.5998C16.1882 2.04163 15.8301 2.3998 15.3882 2.3998H7.2C6.31635 2.3998 5.6 3.11615 5.6 3.9998V19.9998C5.6 20.8835 6.31634 21.5998 7.2 21.5998H16.8C17.6837 21.5998 18.4 20.8835 18.4 19.9998V7.8398C18.4 7.39798 18.7582 7.0398 19.2 7.0398C19.6418 7.0398 20 7.39798 20 7.8398V19.9998C20 21.7671 18.5673 23.1998 16.8 23.1998H7.2C5.43269 23.1998 4 21.7671 4 19.9998V3.9998Z" fill="white"/>
<path d="M13 18C13 18.5523 12.5523 19 12 19C11.4477 19 11 18.5523 11 18C11 17.4477 11.4477 17 12 17C12.5523 17 13 17.4477 13 18Z" fill="white"/>
<path fill-rule="evenodd" clip-rule="evenodd" d="M20.5665 1.83392C20.8789 2.14634 20.8789 2.65288 20.5665 2.96529L12.5665 10.9653C12.254 11.2777 11.7475 11.2777 11.4351 10.9653L9.0351 8.56529C8.72268 8.25288 8.72268 7.74634 9.0351 7.43392C9.34752 7.1215 9.85405 7.1215 10.1665 7.43392L12.0008 9.26824L19.4351 1.83392C19.7475 1.5215 20.254 1.5215 20.5665 1.83392Z" fill="white"/>
</svg>
