<svg  viewBox="0 0 35 36" fill="none" xmlns="http://www.w3.org/2000/svg">
<path d="M11.2781 7.46387C17.0513 4.13076 24.4333 6.10877 27.7664 11.8819C30.6452 16.8681 29.5621 23.0545 25.4937 26.7958M23.3483 28.3702C17.5752 31.7033 10.1932 29.7253 6.86007 23.9522C4.09288 19.1592 4.98641 13.2574 8.67315 9.48411" stroke="#5D55D0" stroke-width="1.1" stroke-linecap="round"/>
<path d="M21.3723 27.157C21.0789 27.0784 20.7773 27.2525 20.6987 27.5459C20.6201 27.8393 20.7942 28.1409 21.0876 28.2195L21.3723 27.157ZM23.4836 28.2921L24.0149 28.4345C24.0935 28.1411 23.9194 27.8395 23.626 27.7609L23.4836 28.2921ZM22.3485 30.4034C22.2699 30.6968 22.444 30.9984 22.7374 31.077C23.0308 31.1556 23.3324 30.9815 23.411 30.6881L22.3485 30.4034ZM21.0876 28.2195L23.3413 28.8234L23.626 27.7609L21.3723 27.157L21.0876 28.2195ZM22.9524 28.1498L22.3485 30.4034L23.411 30.6881L24.0149 28.4345L22.9524 28.1498Z" fill="#5D55D0"/>
<path d="M13.3264 8.63538C13.6198 8.714 13.9214 8.53989 14 8.24648C14.0786 7.95307 13.9045 7.65149 13.6111 7.57287L13.3264 8.63538ZM11.2151 7.50024L10.6838 7.35789C10.6052 7.6513 10.7793 7.95288 11.0727 8.0315L11.2151 7.50024ZM12.3502 5.38895C12.4288 5.09555 12.2547 4.79396 11.9613 4.71534C11.6679 4.63673 11.3663 4.81085 11.2877 5.10425L12.3502 5.38895ZM13.6111 7.57287L11.3575 6.96899L11.0727 8.0315L13.3264 8.63538L13.6111 7.57287ZM11.7464 7.6426L12.3502 5.38895L11.2877 5.10425L10.6838 7.35789L11.7464 7.6426Z" fill="#5D55D0"/>
</svg>
