<svg width="23" height="24" viewBox="0 0 23 24" fill="none" xmlns="http://www.w3.org/2000/svg">
<path fill-rule="evenodd" clip-rule="evenodd" d="M7.90901 1.40901C8.33097 0.987053 8.90326 0.75 9.5 0.75H14.75C14.9489 0.75 15.1397 0.829018 15.2803 0.96967L20.5303 6.21967C20.671 6.36032 20.75 6.55109 20.75 6.75V15C20.75 15.5967 20.5129 16.169 20.091 16.591C19.669 17.0129 19.0967 17.25 18.5 17.25H9.5C8.90326 17.25 8.33097 17.0129 7.90901 16.591C7.48705 16.169 7.25 15.5967 7.25 15V3C7.25 2.40326 7.48705 1.83097 7.90901 1.40901ZM9.5 2.25C9.30109 2.25 9.11032 2.32902 8.96967 2.46967C8.82902 2.61032 8.75 2.80109 8.75 3V15C8.75 15.1989 8.82902 15.3897 8.96967 15.5303C9.11032 15.671 9.30109 15.75 9.5 15.75H18.5C18.6989 15.75 18.8897 15.671 19.0303 15.5303C19.171 15.3897 19.25 15.1989 19.25 15V7.06066L14.4393 2.25H9.5Z" fill="#5A13A7"/>
<path fill-rule="evenodd" clip-rule="evenodd" d="M14.75 0.75C15.1642 0.75 15.5 1.08579 15.5 1.5V6H20C20.4142 6 20.75 6.33579 20.75 6.75C20.75 7.16421 20.4142 7.5 20 7.5H14.75C14.3358 7.5 14 7.16421 14 6.75V1.5C14 1.08579 14.3358 0.75 14.75 0.75Z" fill="#5A13A7"/>
<path d="M0 6.06445H12.2419L17.8065 11.629V14.9677V23.8709H0V6.06445Z" fill="white"/>
<g clip-path="url(#clip0)">
<path fill-rule="evenodd" clip-rule="evenodd" d="M4.3616 7.45808C4.77902 7.04066 5.34516 6.80615 5.93549 6.80615H11.129C11.3258 6.80615 11.5145 6.88432 11.6537 7.02346L16.8472 12.217C16.9864 12.3561 17.0645 12.5449 17.0645 12.7416V20.9029C17.0645 21.4932 16.83 22.0594 16.4126 22.4768C15.9952 22.8942 15.429 23.1287 14.8387 23.1287H5.93549C5.34516 23.1287 4.77902 22.8942 4.3616 22.4768C3.94418 22.0594 3.70968 21.4932 3.70968 20.9029V9.03196C3.70968 8.44164 3.94418 7.8755 4.3616 7.45808ZM5.93549 8.29002C5.73871 8.29002 5.55 8.36819 5.41086 8.50733C5.27172 8.64647 5.19355 8.83519 5.19355 9.03196V20.9029C5.19355 21.0997 5.27172 21.2884 5.41086 21.4276C5.55 21.5667 5.73871 21.6449 5.93549 21.6449H14.8387C15.0355 21.6449 15.2242 21.5667 15.3633 21.4276C15.5025 21.2884 15.5806 21.0997 15.5806 20.9029V13.049L10.8217 8.29002H5.93549Z" fill="#5A13A7"/>
<path fill-rule="evenodd" clip-rule="evenodd" d="M11.129 6.80615C11.5388 6.80615 11.871 7.13833 11.871 7.54809V11.9997H16.3226C16.7323 11.9997 17.0645 12.3319 17.0645 12.7416C17.0645 13.1514 16.7323 13.4836 16.3226 13.4836H11.129C10.7193 13.4836 10.3871 13.1514 10.3871 12.7416V7.54809C10.3871 7.13833 10.7193 6.80615 11.129 6.80615Z" fill="#5A13A7"/>
</g>
<defs>
<clipPath id="clip0">
<rect width="17.8065" height="17.8065" fill="white" transform="translate(1.48387 6.06445)"/>
</clipPath>
</defs>
</svg>
