<svg width="28" height="30" viewBox="0 0 28 30" fill="none" xmlns="http://www.w3.org/2000/svg">
<path fill-rule="evenodd" clip-rule="evenodd" d="M7.47634 2.2787C8.03895 1.71609 8.80201 1.40002 9.59766 1.40002H17.5977C17.8629 1.40002 18.1172 1.50538 18.3048 1.69292L24.3048 7.69292C24.4923 7.88045 24.5977 8.13481 24.5977 8.40002V20.4C24.5977 21.1957 24.2816 21.9587 23.719 22.5213C23.1564 23.084 22.3933 23.4 21.5977 23.4H9.59766C8.80201 23.4 8.03894 23.084 7.47634 22.5213C6.91373 21.9587 6.59766 21.1957 6.59766 20.4V4.40002C6.59766 3.60438 6.91373 2.84131 7.47634 2.2787ZM9.59766 3.40002C9.33244 3.40002 9.07809 3.50538 8.89055 3.69292C8.70301 3.88045 8.59766 4.13481 8.59766 4.40002V20.4C8.59766 20.6652 8.70301 20.9196 8.89055 21.1071C9.07809 21.2947 9.33244 21.4 9.59766 21.4H21.5977C21.8629 21.4 22.1172 21.2947 22.3048 21.1071C22.4923 20.9196 22.5977 20.6652 22.5977 20.4V8.81424L17.1834 3.40002H9.59766Z" fill="white"/>
<path fill-rule="evenodd" clip-rule="evenodd" d="M17.5977 1.40002C18.1499 1.40002 18.5977 1.84774 18.5977 2.40002V7.40002H23.5977C24.1499 7.40002 24.5977 7.84774 24.5977 8.40002C24.5977 8.95231 24.1499 9.40002 23.5977 9.40002H17.5977C17.0454 9.40002 16.5977 8.95231 16.5977 8.40002V2.40002C16.5977 1.84774 17.0454 1.40002 17.5977 1.40002Z" fill="white"/>
<path fill-rule="evenodd" clip-rule="evenodd" d="M10.5977 13.4C10.5977 12.8477 11.0454 12.4 11.5977 12.4H19.5977C20.1499 12.4 20.5977 12.8477 20.5977 13.4C20.5977 13.9523 20.1499 14.4 19.5977 14.4H11.5977C11.0454 14.4 10.5977 13.9523 10.5977 13.4Z" fill="white"/>
<path fill-rule="evenodd" clip-rule="evenodd" d="M10.5977 17.4C10.5977 16.8477 11.0454 16.4 11.5977 16.4H19.5977C20.1499 16.4 20.5977 16.8477 20.5977 17.4C20.5977 17.9523 20.1499 18.4 19.5977 18.4H11.5977C11.0454 18.4 10.5977 17.9523 10.5977 17.4Z" fill="white"/>
<path fill-rule="evenodd" clip-rule="evenodd" d="M10.5977 9.40002C10.5977 8.84774 11.0454 8.40002 11.5977 8.40002H13.5977C14.1499 8.40002 14.5977 8.84774 14.5977 9.40002C14.5977 9.95231 14.1499 10.4 13.5977 10.4H11.5977C11.0454 10.4 10.5977 9.95231 10.5977 9.40002Z" fill="white"/>
<circle cx="7.59844" cy="22" r="6.4" fill="#AA7ADD" stroke="#AA7ADD" stroke-width="1.6"/>
<circle cx="7.53359" cy="21.9336" r="4.73359" fill="#AA7ADD" stroke="white" stroke-width="1.6"/>
<path d="M8.33507 19.845C8.34061 19.4032 7.98695 19.0406 7.54516 19.035C7.10337 19.0295 6.74073 19.3831 6.73519 19.8249L8.33507 19.845ZM7.53513 21.9336L6.73538 21.9537C6.74626 22.3876 7.10111 22.7336 7.53513 22.7336V21.9336ZM9.62601 22.7336C10.0678 22.7336 10.426 22.3755 10.426 21.9336C10.426 21.4918 10.0678 21.1336 9.62601 21.1336V22.7336ZM7.53513 19.835C6.73519 19.8249 6.73519 19.8249 6.73519 19.825C6.73519 19.825 6.73519 19.825 6.73519 19.825C6.73519 19.8251 6.73519 19.8252 6.73519 19.8252C6.73519 19.8254 6.73518 19.8257 6.73518 19.8261C6.73517 19.8268 6.73516 19.8278 6.73514 19.8292C6.73511 19.832 6.73506 19.836 6.735 19.8413C6.73487 19.8519 6.73469 19.8675 6.73446 19.8875C6.73401 19.9275 6.73339 19.9853 6.7327 20.0568C6.73132 20.1998 6.72967 20.3978 6.72856 20.6179C6.72637 21.0548 6.72628 21.5905 6.73538 21.9537L8.33488 21.9136C8.32645 21.5772 8.32635 21.0635 8.32854 20.626C8.32963 20.4089 8.33127 20.2134 8.33263 20.0722C8.33331 20.0016 8.33392 19.9447 8.33436 19.9054C8.33458 19.8858 8.33476 19.8706 8.33488 19.8604C8.33494 19.8553 8.33499 19.8514 8.33502 19.8488C8.33504 19.8475 8.33505 19.8465 8.33506 19.8459C8.33506 19.8456 8.33506 19.8453 8.33507 19.8452C8.33507 19.8451 8.33507 19.8451 8.33507 19.845C8.33507 19.845 8.33507 19.845 8.33507 19.845C8.33507 19.845 8.33507 19.845 7.53513 19.835ZM7.53513 22.7336H9.62601V21.1336H7.53513V22.7336Z" fill="white"/>
<path d="M6.71962 23.9737C6.71408 24.4155 7.06774 24.7782 7.50953 24.7837C7.95132 24.7892 8.31396 24.4356 8.31949 23.9938L6.71962 23.9737ZM7.51956 21.8851L8.3193 21.865C8.30843 21.4312 7.95357 21.0851 7.51956 21.0851L7.51956 21.8851ZM5.42868 21.0851C4.98685 21.0851 4.62868 21.4433 4.62868 21.8851C4.62868 22.3269 4.98685 22.6851 5.42868 22.6851L5.42868 21.0851ZM7.51956 23.9838C8.31949 23.9938 8.31949 23.9938 8.31949 23.9938C8.31949 23.9937 8.31949 23.9937 8.31949 23.9937C8.3195 23.9936 8.3195 23.9936 8.3195 23.9935C8.3195 23.9933 8.3195 23.993 8.31951 23.9927C8.31952 23.9919 8.31953 23.9909 8.31955 23.9895C8.31958 23.9868 8.31963 23.9827 8.31969 23.9774C8.31982 23.9668 8.32 23.9513 8.32023 23.9313C8.32067 23.8913 8.3213 23.8335 8.32199 23.7619C8.32336 23.6189 8.32502 23.4209 8.32612 23.2008C8.32831 22.7639 8.32841 22.2282 8.3193 21.865L6.71981 21.9051C6.72824 22.2415 6.72834 22.7552 6.72614 23.1928C6.72505 23.4098 6.72342 23.6053 6.72206 23.7465C6.72138 23.8171 6.72077 23.874 6.72033 23.9133C6.72011 23.9329 6.71993 23.9481 6.71981 23.9583C6.71974 23.9635 6.7197 23.9674 6.71967 23.9699C6.71965 23.9712 6.71964 23.9722 6.71963 23.9728C6.71963 23.9732 6.71962 23.9734 6.71962 23.9735C6.71962 23.9736 6.71962 23.9737 6.71962 23.9737C6.71962 23.9737 6.71962 23.9737 6.71962 23.9737C6.71962 23.9737 6.71962 23.9737 7.51956 23.9838ZM7.51956 21.0851L5.42868 21.0851L5.42868 22.6851L7.51956 22.6851L7.51956 21.0851Z" fill="white"/>
</svg>
