<svg viewBox="0 0 29 29" fill="none" xmlns="http://www.w3.org/2000/svg">
<path
    fill-rule="evenodd"
    clip-rule="evenodd"
    d="M12.0833 14.5C12.0833 13.1653 13.1652 12.0833 14.4999 12.0833C15.8346 12.0833 16.9166 13.1653 16.9166 14.5C16.9166 15.8347 15.8346 16.9167 14.4999 16.9167C13.1652 16.9167 12.0833 15.8347 12.0833 14.5Z"
    fill="black"
  />
<path
    fill-rule="evenodd"
    clip-rule="evenodd"
    d="M12.0833 6.04167C12.0833 4.70698 13.1652 3.625 14.4999 3.625C15.8346 3.625 16.9166 4.70698 16.9166 6.04167C16.9166 7.37635 15.8346 8.45833 14.4999 8.45833C13.1652 8.45833 12.0833 7.37635 12.0833 6.04167Z"
    fill="black"
  />
<path
    fill-rule="evenodd"
    clip-rule="evenodd"
    d="M12.0833 22.9583C12.0833 21.6237 13.1652 20.5417 14.4999 20.5417C15.8346 20.5417 16.9166 21.6237 16.9166 22.9583C16.9166 24.293 15.8346 25.375 14.4999 25.375C13.1652 25.375 12.0833 24.293 12.0833 22.9583Z"
    fill="black"
  />
</svg>
