<svg width="26" height="17" viewBox="0 0 26 17" fill="none" xmlns="http://www.w3.org/2000/svg">
<rect x="1.52421" y="0.890909" width="23.4035" height="15.2182" rx="1.48485" stroke="currentColor" stroke-width="1.78182"/>
<path fill-rule="evenodd" clip-rule="evenodd" d="M6.56994 9.4668C5.83797 9.4668 5.13599 9.74873 4.61841 10.2506C4.10083 10.7524 3.81006 11.433 3.81006 12.1427V13.0872C3.81006 13.5219 4.17348 13.8742 4.62179 13.8742C5.07009 13.8742 5.43352 13.5219 5.43352 13.0872V12.1427C5.43352 11.8505 5.55325 11.5702 5.76637 11.3636C5.97949 11.157 6.26854 11.0409 6.56994 11.0409H10.4662C10.7676 11.0409 11.0567 11.157 11.2698 11.3636C11.4829 11.5702 11.6027 11.8505 11.6027 12.1427V13.0872C11.6027 13.5219 11.9661 13.8742 12.4144 13.8742C12.8627 13.8742 13.2261 13.5219 13.2261 13.0872V12.1427C13.2261 11.433 12.9353 10.7524 12.4178 10.2506C11.9002 9.74873 11.1982 9.4668 10.4662 9.4668H6.56994ZM10.587 9.78451C10.5469 9.78258 10.5066 9.78161 10.4662 9.78161H6.56994C5.92409 9.78161 5.30469 10.0304 4.848 10.4732C4.39131 10.916 4.13475 11.5165 4.13475 12.1427V13.0872C4.13475 13.3315 4.32607 13.5324 4.57135 13.5569C4.32609 13.5324 4.13481 13.3315 4.13481 13.0872V12.1427C4.13481 11.5165 4.39137 10.916 4.84806 10.4732C5.30475 10.0304 5.92415 9.78162 6.57 9.78162H10.4663C10.5066 9.78162 10.5469 9.78259 10.587 9.78451ZM10.6107 10.733C10.9451 10.7652 11.2596 10.9085 11.4994 11.141C11.7734 11.4067 11.9274 11.767 11.9274 12.1427V13.0872C11.9274 13.3192 12.0999 13.5121 12.3273 13.5519C12.0999 13.512 11.9274 13.3191 11.9274 13.0872V12.1427C11.9274 11.767 11.7735 11.4067 11.4995 11.141C11.2597 10.9085 10.9452 10.7652 10.6107 10.733Z" fill="currentColor"/>
<path fill-rule="evenodd" clip-rule="evenodd" d="M9.6546 5.84293C9.6546 6.45147 9.14581 6.94478 8.51818 6.94478C7.89055 6.94478 7.38176 6.45147 7.38176 5.84293C7.38176 5.23439 7.89055 4.74107 8.51818 4.74107C9.14581 4.74107 9.6546 5.23439 9.6546 5.84293ZM8.51818 3.16699C6.99394 3.16699 5.7583 4.36505 5.7583 5.84293C5.7583 7.32081 6.99394 8.51886 8.51818 8.51886C10.0424 8.51886 11.2781 7.32081 11.2781 5.84293C11.2781 4.36505 10.0424 3.16699 8.51818 3.16699ZM7.84459 4.58545C7.37664 4.82158 7.05707 5.29607 7.05707 5.84293C7.05707 6.62533 7.71123 7.2596 8.51818 7.2596C8.51818 7.2596 8.51817 7.2596 8.51817 7.2596C7.71122 7.2596 7.05706 6.62534 7.05706 5.84293C7.05706 5.29607 7.37663 4.82158 7.84459 4.58545ZM7.70541 3.61652C7.9596 3.52928 8.23317 3.48181 8.51818 3.48181C9.8631 3.48181 10.9534 4.53892 10.9534 5.84293C10.9534 6.65793 10.5275 7.37649 9.87972 7.8008C10.5275 7.37649 10.9534 6.65793 10.9534 5.84293C10.9534 4.53892 9.86309 3.48181 8.51817 3.48181C8.23316 3.48181 7.9596 3.52928 7.70541 3.61652Z" fill="currentColor"/>
<rect x="14.8022" y="3.19629" width="8.19454" height="1.8889" rx="0.944448" fill="currentColor"/>
<rect x="14.8022" y="7.55566" width="8.19454" height="1.8889" rx="0.944448" fill="currentColor"/>
<rect x="14.8022" y="11.9629" width="8.19454" height="1.8889" rx="0.944448" fill="currentColor"/>
</svg>
