<svg  width="28" height="25" viewBox="0 0 28 25" fill="none" xmlns="http://www.w3.org/2000/svg">
<path fill-rule="evenodd" clip-rule="evenodd" d="M4.46447 15.4127C5.40215 14.475 6.67392 13.9482 8 13.9482H16C17.3261 13.9482 18.5979 14.475 19.5355 15.4127C20.4732 16.3504 21 17.6222 21 18.9482V20.9482C21 21.5005 20.5523 21.9482 20 21.9482C19.4477 21.9482 19 21.5005 19 20.9482V18.9482C19 18.1526 18.6839 17.3895 18.1213 16.8269C17.5587 16.2643 16.7956 15.9482 16 15.9482H8C7.20435 15.9482 6.44129 16.2643 5.87868 16.8269C5.31607 17.3895 5 18.1526 5 18.9482V20.9482C5 21.5005 4.55228 21.9482 4 21.9482C3.44772 21.9482 3 21.5005 3 20.9482V18.9482C3 17.6222 3.52678 16.3504 4.46447 15.4127Z" fill="#F2F2F2"/>
<path fill-rule="evenodd" clip-rule="evenodd" d="M11.984 19.9443C10.7124 19.9443 9.58833 20.5764 8.90875 21.548C8.74267 21.7854 8.6036 22.0426 8.49576 22.3152C8.29257 22.8288 7.71154 23.0804 7.19799 22.8772C6.68444 22.674 6.43284 22.093 6.63603 21.5794C6.80193 21.1601 7.0155 20.7653 7.26987 20.4016C8.30761 18.918 10.032 17.9443 11.984 17.9443C13.936 17.9443 15.6605 18.918 16.6982 20.4016C16.9526 20.7653 17.1662 21.1601 17.332 21.5794C17.5352 22.093 17.2836 22.674 16.7701 22.8772C16.2565 23.0804 15.6755 22.8288 15.4723 22.3152C15.3645 22.0427 15.2254 21.7854 15.0593 21.548C14.3797 20.5764 13.2556 19.9443 11.984 19.9443Z" fill="#F2F2F2"/>
<path fill-rule="evenodd" clip-rule="evenodd" d="M12 3.94824C10.3431 3.94824 9 5.29139 9 6.94824C9 8.6051 10.3431 9.94824 12 9.94824C13.6569 9.94824 15 8.6051 15 6.94824C15 5.29139 13.6569 3.94824 12 3.94824ZM7 6.94824C7 4.18682 9.23858 1.94824 12 1.94824C14.7614 1.94824 17 4.18682 17 6.94824C17 9.70967 14.7614 11.9482 12 11.9482C9.23858 11.9482 7 9.70967 7 6.94824Z" fill="#F2F2F2"/>
<g clip-path="url(#clip0)">
<path fill-rule="evenodd" clip-rule="evenodd" d="M26.9079 8.49309C27.2984 8.88361 27.2984 9.51678 26.9079 9.9073L22.9079 13.9073C22.5174 14.2978 21.8842 14.2978 21.4937 13.9073L19.4937 11.9073C19.1031 11.5168 19.1031 10.8836 19.4937 10.4931C19.8842 10.1026 20.5174 10.1026 20.9079 10.4931L22.2008 11.786L25.4937 8.49309C25.8842 8.10256 26.5174 8.10256 26.9079 8.49309Z" fill="white"/>
</g>
<defs>
<clipPath id="clip0">
<rect width="24" height="24" fill="white" transform="translate(3.2 0.200195)"/>
</clipPath>
</defs>
</svg>
