<svg width="14" height="16" viewBox="0 0 14 16" fill="none" xmlns="http://www.w3.org/2000/svg">
<path d="M11.3144 15.3333H2.24034C1.13849 15.3333 0.295898 14.4666 0.295898 13.3333V8.66662C0.295898 7.53328 1.13849 6.66662 2.24034 6.66662H11.3144C12.4163 6.66662 13.2589 7.53328 13.2589 8.66662V13.3333C13.2589 14.4666 12.4163 15.3333 11.3144 15.3333ZM2.24034 7.99995C1.85145 7.99995 1.59219 8.26662 1.59219 8.66662V13.3333C1.59219 13.7333 1.85145 13.9999 2.24034 13.9999H11.3144C11.7033 13.9999 11.9626 13.7333 11.9626 13.3333V8.66662C11.9626 8.26662 11.7033 7.99995 11.3144 7.99995H2.24034Z" fill="#EB5757"/>
<path d="M3.53664 7.99995C3.14775 7.99995 2.88849 7.73328 2.88849 7.33328V4.66662C2.88849 3.59995 3.27738 2.59995 4.05516 1.86662C4.76812 1.06662 5.74034 0.666618 6.77738 0.666618C8.5922 0.666618 10.2126 1.99995 10.6015 3.86662C10.6663 4.19995 10.407 4.59995 10.0829 4.66662C9.75886 4.73328 9.36997 4.53328 9.30516 4.13328C9.0459 2.86662 8.00886 1.99995 6.77738 1.99995C6.06442 1.99995 5.41627 2.26662 4.96257 2.79995C4.44405 3.26662 4.18479 3.93328 4.18479 4.66662V7.33328C4.18479 7.73328 3.92553 7.99995 3.53664 7.99995Z" fill="#EB5757"/>
<path fill-rule="evenodd" clip-rule="evenodd" d="M2.85359 4.6311C2.85359 2.41212 4.60247 0.613281 6.75981 0.613281C8.91715 0.613281 10.666 2.41212 10.666 4.6311V7.34703H9.30491V4.6311C9.30491 3.18532 8.16543 2.01328 6.75981 2.01328C5.35419 2.01328 4.21471 3.18532 4.21471 4.6311V7.34703H2.85359V4.6311Z" fill="#EB5757"/>
</svg>
