<svg preserveAspectRatio="xMidYMid"  viewBox="0 0 51 58" fill="none" xmlns="http://www.w3.org/2000/svg">
<path fill-rule="evenodd" clip-rule="evenodd" d="M1.38971 7.24791C0.0817871 9.81486 0.0817871 13.1752 0.0817871 19.8958V32.1869C0.0817871 38.9075 0.0817871 42.2678 1.38971 44.8347C2.54019 47.0927 4.37596 48.9285 6.6339 50.0789C9.17647 51.3744 12.4974 51.3867 19.0913 51.3869L24.7124 57.008C25.1073 57.4029 25.7476 57.4029 26.1425 57.008L31.7637 51.3869C38.3573 51.3867 41.6782 51.3744 44.2207 50.0789C46.4787 48.9285 48.3144 47.0927 49.4649 44.8347C50.7728 42.2678 50.7728 38.9075 50.7728 32.1869V19.8958C50.7728 13.1752 50.7728 9.81486 49.4649 7.24791C48.3144 4.98997 46.4787 3.1542 44.2207 2.00372C41.6538 0.695801 38.2935 0.695801 31.5728 0.695801H19.2818C12.5612 0.695801 9.20084 0.695801 6.6339 2.00372C4.37596 3.1542 2.54019 4.98997 1.38971 7.24791Z" fill="white"/>
<path fill-rule="evenodd" clip-rule="evenodd" d="M1.38971 7.24791C0.0817871 9.81486 0.0817871 13.1752 0.0817871 19.8958V32.1869C0.0817871 38.9075 0.0817871 42.2678 1.38971 44.8347C2.54019 47.0927 4.37596 48.9285 6.6339 50.0789C9.17647 51.3744 12.4974 51.3867 19.0913 51.3869L24.7124 57.008C25.1073 57.4029 25.7476 57.4029 26.1425 57.008L31.7637 51.3869C38.3573 51.3867 41.6782 51.3744 44.2207 50.0789C46.4787 48.9285 48.3144 47.0927 49.4649 44.8347C50.7728 42.2678 50.7728 38.9075 50.7728 32.1869V19.8958C50.7728 13.1752 50.7728 9.81486 49.4649 7.24791C48.3144 4.98997 46.4787 3.1542 44.2207 2.00372C41.6538 0.695801 38.2935 0.695801 31.5728 0.695801H19.2818C12.5612 0.695801 9.20084 0.695801 6.6339 2.00372C4.37596 3.1542 2.54019 4.98997 1.38971 7.24791Z" fill="#FFB801"/>
<rect x="11.0094" y="14.5728" width="28.8356" height="7.90654" rx="3.95327" fill="#6979F8"/>
<rect x="29.3806" y="14.5729" width="28.8356" height="7.90654" rx="3.95327" transform="rotate(90 29.3806 14.5729)" fill="#6979F8"/>
<path d="M21.142 14.5729H35.8921C38.0755 14.5729 39.8454 16.3428 39.8454 18.5261C39.8454 20.7095 38.0755 22.4794 35.8921 22.4794H21.142V14.5729Z" fill="#6979F8"/>
<path d="M21.142 14.5731H35.8921C38.0755 14.5731 39.8454 16.3431 39.8454 18.5264C39.8454 20.7097 38.0755 22.4797 35.8921 22.4797H21.142V14.5731Z" fill="#6979F8"/>
<path d="M21.142 14.5731H35.8921C38.0755 14.5731 39.8454 16.3431 39.8454 18.5264C39.8454 20.7097 38.0755 22.4797 35.8921 22.4797H21.142V14.5731Z" fill="url(#paint0_linear)"/>
<path d="M18.4532 14.5729H21.4741C25.8408 14.5729 29.3807 18.1128 29.3807 22.4794H18.4532V14.5729Z" fill="#6979F8"/>
<path d="M19.4231 22.4796H21.4758V24.5322H19.4231V22.4796Z" fill="#6979F8"/>
<path d="M19.4231 22.4796C20.5568 22.4796 21.4758 23.3986 21.4758 24.5322H19.4231V22.4796Z" fill="#FFB801"/>
<defs>
<linearGradient id="paint0_linear" x1="21.142" y1="22.4797" x2="39.8454" y2="14.5731" gradientUnits="userSpaceOnUse">
<stop stop-color="#3B359C"/>
<stop offset="0.625676" stop-color="#5D55D0"/>
</linearGradient>
</defs>
</svg>
