<svg width="282" height="120" viewBox="0 0 282 120" fill="none" xmlns="http://www.w3.org/2000/svg">
<path fill-rule="evenodd" clip-rule="evenodd" d="M3.56432 18.8451C0 26.0034 0 35.3355 0 53.9997C0 72.6638 0 81.9959 3.56432 89.1542C6.86056 95.7741 12.2253 101.139 18.8451 104.435C24.0099 107.007 30.3062 107.723 40.4227 107.922L51.1712 118.671C52.7333 120.233 55.266 120.233 56.8281 118.671L67.5766 107.922C77.6931 107.723 83.9895 107.007 89.1542 104.435C95.7741 101.139 101.139 95.7741 104.435 89.1542C107.999 81.9959 107.999 72.6638 107.999 53.9997C107.999 35.3355 107.999 26.0034 104.435 18.8451C101.139 12.2253 95.7741 6.86056 89.1542 3.56432C81.9959 0 72.6638 0 53.9997 0C35.3355 0 26.0034 0 18.8451 3.56432C12.2253 6.86056 6.86056 12.2253 3.56432 18.8451Z" fill="#6979F8"/>
<circle cx="53.8574" cy="52.7612" r="26.3806" fill="white"/>
<circle cx="53.8574" cy="52.7612" r="26.3806" fill="#FFB801"/>
<path d="M149.801 49.1196H140.625V74H133.256V49.1196H124.249V43.4297H149.801V49.1196ZM174.653 68.2891H164.554L162.791 74H154.917L166.129 43.4297H173.058L184.354 74H176.438L174.653 68.2891ZM166.318 62.5991H172.89L169.593 51.9961L166.318 62.5991ZM204.881 53.5918L209.878 43.4297H218.298L209.752 58.5889L218.529 74H210.025L204.881 63.6489L199.737 74H191.255L200.01 58.5889L191.486 43.4297H199.884L204.881 53.5918ZM235.676 74H228.327V43.4297H235.676V74ZM249.862 53.0039L246.755 51.3242C247.917 49.3086 248.512 47.335 248.54 45.4033V41.75H253.705V45.1724C253.705 46.4741 253.327 47.8669 252.571 49.3506C251.829 50.8203 250.926 52.0381 249.862 53.0039ZM273.144 67.6172C273.144 67.0153 272.829 66.5324 272.199 66.1685C271.569 65.8045 270.372 65.4266 268.608 65.0347C266.845 64.6427 265.389 64.1318 264.241 63.502C263.093 62.8581 262.219 62.0812 261.617 61.1714C261.015 60.2616 260.714 59.2188 260.714 58.043C260.714 55.9574 261.575 54.2427 263.296 52.8989C265.018 51.5412 267.272 50.8623 270.057 50.8623C273.053 50.8623 275.46 51.5412 277.28 52.8989C279.099 54.2567 280.009 56.0413 280.009 58.2529H272.913C272.913 56.4333 271.954 55.5234 270.036 55.5234C269.294 55.5234 268.671 55.7334 268.168 56.1533C267.664 56.5592 267.412 57.0701 267.412 57.686C267.412 58.3159 267.72 58.8268 268.335 59.2188C268.951 59.6107 269.931 59.9326 271.275 60.1846C272.633 60.4365 273.822 60.7375 274.844 61.0874C278.26 62.2632 279.967 64.3698 279.967 67.4072C279.967 69.4788 279.044 71.1655 277.196 72.4673C275.362 73.769 272.983 74.4199 270.057 74.4199C268.112 74.4199 266.376 74.07 264.85 73.3701C263.324 72.6702 262.135 71.7184 261.281 70.5146C260.427 69.3109 260 68.0441 260 66.7144H266.614C266.642 67.7642 266.992 68.534 267.664 69.0239C268.335 69.4998 269.196 69.7378 270.246 69.7378C271.212 69.7378 271.933 69.5418 272.409 69.1499C272.899 68.758 273.144 68.2471 273.144 67.6172Z" fill="#B8B5FF"/>
</svg>
