<svg width="25" height="24" viewBox="0 0 25 24" fill="none" xmlns="http://www.w3.org/2000/svg">
<path d="M15.2855 8.08305C15.2855 7.70426 15.1624 7.39745 14.9162 7.1626C14.67 6.92775 14.3461 6.81032 13.9446 6.81032H12.1264V9.35578H13.9446C14.3461 9.35578 14.67 9.23836 14.9162 9.00351C15.1624 8.76866 15.2855 8.46184 15.2855 8.08305ZM16.6321 8.08305C16.6321 8.81411 16.3925 9.4107 15.9134 9.87283C15.4342 10.3349 14.8158 10.566 14.0582 10.566H12.1264V11.2365H14.9957C15.0488 11.2365 15.0923 11.2535 15.1264 11.2876C15.1605 11.3217 15.1776 11.3652 15.1776 11.4183V12.1456C15.1776 12.1986 15.1605 12.2421 15.1264 12.2762C15.0923 12.3103 15.0488 12.3274 14.9957 12.3274H12.1264V13.4183C12.1264 13.4713 12.1084 13.5149 12.0724 13.549C12.0365 13.5831 11.9938 13.6001 11.9446 13.6001H10.9957C10.9427 13.6001 10.8991 13.5831 10.8651 13.549C10.831 13.5149 10.8139 13.4713 10.8139 13.4183V12.3274H9.54119C9.48816 12.3274 9.4446 12.3103 9.41051 12.2762C9.37642 12.2421 9.35938 12.1986 9.35938 12.1456V11.4183C9.35938 11.3652 9.37642 11.3217 9.41051 11.2876C9.4446 11.2535 9.48816 11.2365 9.54119 11.2365H10.8139V10.566H9.54119C9.48816 10.566 9.4446 10.549 9.41051 10.5149C9.37642 10.4808 9.35938 10.4372 9.35938 10.3842V9.5376C9.35938 9.48836 9.37642 9.44574 9.41051 9.40976C9.4446 9.37377 9.48816 9.35578 9.54119 9.35578H10.8139V5.78192C10.8139 5.72889 10.831 5.68532 10.8651 5.65123C10.8991 5.61714 10.9427 5.6001 10.9957 5.6001H14.0582C14.8158 5.6001 15.4342 5.83116 15.9134 6.29328C16.3925 6.7554 16.6321 7.35199 16.6321 8.08305Z" fill="white"/>
<path d="M12.9953 18.4C8.11531 18.4 4.19531 14.48 4.19531 9.60005C4.19531 4.72005 8.11531 0.800049 12.9953 0.800049C17.8753 0.800049 21.7953 4.72005 21.7953 9.60005C21.7953 14.48 17.8753 18.4 12.9953 18.4ZM12.9953 2.40005C8.99531 2.40005 5.79531 5.60005 5.79531 9.60005C5.79531 13.6 8.99531 16.8 12.9953 16.8C16.9953 16.8 20.1953 13.6 20.1953 9.60005C20.1953 5.60005 16.9953 2.40005 12.9953 2.40005Z" fill="white"/>
<path d="M2.19844 14.3999C2.19844 13.9581 1.84027 13.5999 1.39844 13.5999C0.95661 13.5999 0.598437 13.9581 0.598437 14.3999H2.19844ZM24.9984 14.3999C24.9984 13.9581 24.6403 13.5999 24.1984 13.5999C23.7566 13.5999 23.3984 13.9581 23.3984 14.3999H24.9984ZM0.598437 14.3999V19.9999H2.19844V14.3999H0.598437ZM3.79844 23.1999H21.7984V21.5999H3.79844V23.1999ZM24.9984 19.9999V14.3999H23.3984V19.9999H24.9984ZM21.7984 23.1999C23.5657 23.1999 24.9984 21.7672 24.9984 19.9999H23.3984C23.3984 20.8836 22.6821 21.5999 21.7984 21.5999V23.1999ZM0.598437 19.9999C0.598437 21.7672 2.03113 23.1999 3.79844 23.1999V21.5999C2.91478 21.5999 2.19844 20.8836 2.19844 19.9999H0.598437Z" fill="white"/>
</svg>
