<svg  viewBox="0 0 24 25" fill="none" xmlns="http://www.w3.org/2000/svg">
<path d="M6.19571 6.52626C6.50819 6.83863 6.50827 7.34516 6.1959 7.65763C5.04938 8.80453 4.26867 10.2656 3.95249 11.8562C3.6363 13.4468 3.79885 15.0954 4.41957 16.5936C5.04028 18.0918 6.0913 19.3723 7.43972 20.2732C8.78815 21.1741 10.3734 21.655 11.9951 21.655C13.6168 21.655 15.2021 21.1741 16.5505 20.2732C17.8989 19.3723 18.95 18.0918 19.5707 16.5936C20.1914 15.0954 20.3539 13.4468 20.0378 11.8562C19.7216 10.2656 18.9409 8.80453 17.7943 7.65763C17.482 7.34516 17.4821 6.83863 17.7945 6.52626C18.107 6.21389 18.6135 6.21398 18.9259 6.52645C20.2961 7.89713 21.2292 9.64333 21.6071 11.5443C21.9849 13.4452 21.7907 15.4155 21.0488 17.206C20.307 18.9965 19.0509 20.5269 17.4394 21.6036C15.8278 22.6803 13.9332 23.255 11.9951 23.255C10.057 23.255 8.1624 22.6803 6.55087 21.6036C4.93933 20.5269 3.68324 18.9965 2.94141 17.206C2.19958 15.4155 2.00532 13.4452 2.38319 11.5443C2.76107 9.64333 3.69411 7.89713 5.06434 6.52645C5.37671 6.21398 5.88324 6.21389 6.19571 6.52626Z" fill="#5D55D0" stroke="white" stroke-width="0.4" stroke-linecap="round" stroke-linejoin="round"/>
<path d="M12 1.65215C12.4418 1.65215 12.8 2.01032 12.8 2.45215V12.4521C12.8 12.894 12.4418 13.2521 12 13.2521C11.5582 13.2521 11.2 12.894 11.2 12.4521V2.45215C11.2 2.01032 11.5582 1.65215 12 1.65215Z" fill="#5D55D0" stroke="white" stroke-width="0.4" stroke-linecap="round" stroke-linejoin="round"/>
</svg>
