<svg  viewBox="0 0 25 27" fill="none" xmlns="http://www.w3.org/2000/svg">
<path d="M23.119 14.6975L22.5951 14.1428L20.7562 9.18617C20.4429 8.34893 19.6416 7.7942 18.7479 7.78906H5.6141C4.72036 7.78906 3.91908 8.34893 3.60576 9.18617L1.79261 14.0812L1.03756 14.7797C0.380095 15.3396 0 16.1614 0 17.0243V24.2461C0.00513641 25.4275 0.965645 26.3829 2.14702 26.3829H3.50303C4.68441 26.3829 5.64492 25.4275 5.65005 24.2461V23.1983H18.3884V24.2461C18.3935 25.4275 19.354 26.3829 20.5354 26.3829H21.8914C23.0728 26.3829 24.0333 25.4275 24.0384 24.2461V16.8343C24.0333 16.0279 23.7045 15.2574 23.119 14.6975ZM4.57141 9.53544C4.73577 9.09885 5.15182 8.81635 5.6141 8.81635H18.753C19.2153 8.81635 19.6314 9.10398 19.7957 9.53544L21.3983 13.85H20.2015C19.919 11.9239 18.1264 10.5935 16.2002 10.8812C14.6645 11.1072 13.4574 12.3142 13.2314 13.85H2.96885L4.57141 9.53544ZM19.1537 13.85H14.269C14.5515 12.4992 15.8766 11.6362 17.2275 11.9187C18.1932 12.1242 18.9482 12.8792 19.1537 13.85ZM4.62277 24.2461C4.61763 24.8625 4.1194 25.3556 3.50303 25.3556H2.14702C1.53065 25.3556 1.03242 24.8625 1.02728 24.2461V22.9004C1.33547 23.1007 1.74124 23.1983 2.14702 23.1983H4.62277V24.2461ZM23.0111 24.2461C23.006 24.8625 22.5078 25.3556 21.8914 25.3556H20.5354C19.919 25.3556 19.4208 24.8574 19.4156 24.2461V23.1983H21.8914C22.2972 23.1983 22.7029 23.1007 23.0111 22.9004V24.2461ZM21.8914 22.171H2.14702C1.53579 22.1762 1.03242 21.6882 1.02728 21.0718V17.0243C1.02728 16.4593 1.27897 15.92 1.71043 15.5553C1.71556 15.5502 1.72583 15.5399 1.73097 15.5348L2.42952 14.8773H21.8811L22.3742 15.4064C22.3793 15.4166 22.3948 15.4218 22.3999 15.432C22.7851 15.7967 23.006 16.3052 23.006 16.8343V21.0718H23.0111C23.006 21.6831 22.5026 22.1762 21.8914 22.171Z" fill="#5D55D0"/>
<circle cx="6" cy="6" r="5.5" fill="white" stroke="#5D55D0"/>
<path d="M6.6167 2.47681C6.6167 2.20066 6.39284 1.97681 6.1167 1.97681C5.84056 1.97681 5.6167 2.20066 5.6167 2.47681H6.6167ZM6.1167 6.57035H5.6167C5.6167 6.84649 5.84056 7.07035 6.1167 7.07035V6.57035ZM9.24417 7.07035C9.52031 7.07035 9.74417 6.84649 9.74417 6.57035C9.74417 6.29421 9.52031 6.07035 9.24417 6.07035V7.07035ZM5.6167 2.47681V6.57035H6.6167V2.47681H5.6167ZM6.1167 7.07035H9.24417V6.07035H6.1167V7.07035Z" fill="#5D55D0"/>
<path d="M6.78001 16.9319H2.9277C2.6452 16.9319 2.41406 17.163 2.41406 17.4455V20.1165C2.41406 20.399 2.6452 20.6301 2.9277 20.6301H6.78001C7.06252 20.6301 7.29365 20.399 7.29365 20.1165V17.4455C7.29365 17.163 7.06252 16.9319 6.78001 16.9319ZM6.26637 19.6028H3.44135V17.9592H6.26637V19.6028Z" fill="#5D55D0"/>
<path d="M21.1108 16.9319H17.2585C16.976 16.9319 16.7449 17.163 16.7449 17.4455V20.1165C16.7449 20.399 16.976 20.6301 17.2585 20.6301H21.1108C21.3933 20.6301 21.6245 20.399 21.6245 20.1165V17.4455C21.6245 17.163 21.3933 16.9319 21.1108 16.9319ZM20.5972 19.6028H17.7722V17.9592H20.5972V19.6028Z" fill="#5D55D0"/>
<path d="M14.5001 19.0891H9.5383C9.2558 19.0891 9.02466 19.3202 9.02466 19.6028C9.02466 19.8853 9.2558 20.1164 9.5383 20.1164H14.5001C14.7826 20.1164 15.0137 19.8853 15.0137 19.6028C15.0137 19.3202 14.7826 19.0891 14.5001 19.0891Z" fill="#5D55D0"/>
<path d="M14.5001 17.4968H9.5383C9.2558 17.4968 9.02466 17.728 9.02466 18.0105C9.02466 18.293 9.2558 18.5241 9.5383 18.5241H14.5001C14.7826 18.5241 15.0137 18.293 15.0137 18.0105C15.0137 17.728 14.7826 17.4968 14.5001 17.4968Z" fill="#5D55D0"/>
</svg>
