<svg width="113" height="177" viewBox="0 0 113 177" fill="none" xmlns="http://www.w3.org/2000/svg">
<path d="M18 156.19V160L95 160V156.19C95 136.387 87.3356 117.773 73.4194 103.771L70.4431 100.777C67.1794 97.4999 65.3848 93.1384 65.3848 88.4999C65.3848 83.8615 67.1794 79.5 70.44 76.2228L73.4163 73.2287C87.3356 59.2265 95 40.6097 95 20.8103V17H18V20.8103C18 40.6097 25.6644 59.2265 39.5837 73.2287L42.56 76.2228C45.8206 79.5 47.6152 83.8616 47.6152 88.5C47.6152 93.1384 45.8206 97.5 42.5569 100.777L39.5806 103.771C25.6644 117.773 18 136.387 18 156.19Z" fill="white"/>
<path d="M103.699 0H9.29922C4.41997 0 0.449219 3.97075 0.449219 8.85C0.449219 13.7293 4.41997 17.7 9.29922 17.7H103.699C108.579 17.7 112.549 13.7293 112.549 8.85C112.549 3.97075 108.578 0 103.699 0ZM103.699 11.7999H9.29922C7.67372 11.7999 6.34933 10.4783 6.34933 8.85C6.34933 7.22174 7.67372 5.90012 9.29922 5.90012H103.699C105.325 5.90012 106.649 7.22174 106.649 8.85C106.649 10.4783 105.324 11.7999 103.699 11.7999Z" fill="url(#paint0_linear)"/>
<path d="M103.699 159.3H9.29922C4.41997 159.3 0.449219 163.271 0.449219 168.15C0.449219 173.029 4.41997 177 9.29922 177H103.699C108.579 177 112.549 173.029 112.549 168.15C112.549 163.271 108.578 159.3 103.699 159.3ZM103.699 171.1H9.29922C7.67372 171.1 6.34933 169.778 6.34933 168.15C6.34933 166.522 7.67372 165.2 9.29922 165.2H103.699C105.325 165.2 106.649 166.522 106.649 168.15C106.649 169.778 105.324 171.1 103.699 171.1Z" fill="url(#paint1_linear)"/>
<path d="M77.5209 77.5495C92.5009 62.5695 100.749 42.6539 100.749 21.473V14.7501C100.749 13.1188 99.4274 11.8002 97.7992 11.8002H15.1989C13.5707 11.8002 12.249 13.1188 12.249 14.7501V21.473C12.249 42.657 20.4972 62.5695 35.4744 77.5495L38.4392 80.5143C40.5424 82.6175 41.7489 85.5263 41.7489 88.5C41.7489 91.4737 40.5424 94.3825 38.4419 96.4858L35.4772 99.4505C20.4972 114.431 12.249 134.343 12.249 155.527V162.25C12.249 163.881 13.5707 165.2 15.1989 165.2H97.7988C99.4271 165.2 100.749 163.881 100.749 162.25V155.527C100.749 134.346 92.5006 114.431 77.5206 99.4505L74.5558 96.4858C72.4228 94.3528 71.2488 91.518 71.2488 88.5C71.2488 85.482 72.4228 82.6473 74.5558 80.5143L77.5209 77.5495ZM70.3845 76.343C67.1367 79.5881 65.349 83.9039 65.349 88.5C65.349 93.0961 67.1367 97.4119 70.3845 100.657L73.3493 103.622C87.2144 117.487 94.8489 135.921 94.8489 155.527V159.3H18.1492V155.527C18.1492 135.918 25.7837 117.487 39.6457 103.622L42.6104 100.657C45.8614 97.4119 47.649 93.093 47.649 88.5C47.649 83.907 45.8614 79.5881 42.6135 76.343L39.6488 73.3783C25.7837 59.5132 18.1492 41.0785 18.1492 21.473V17.7H94.8493V21.473C94.8493 41.0789 87.2148 59.5132 73.3496 73.3783L70.3845 76.343Z" fill="url(#paint2_linear)"/>
<path d="M81.4291 49.6986C81.1311 48.9495 80.1165 47.1999 77.1486 47.1999C61.8205 47.1999 54.9911 43.9164 52.2829 41.9576C48.905 39.5121 44.5716 38.8719 40.6804 40.2495C36.9665 41.5621 34.2465 44.4826 33.2229 48.2587C32.9574 49.2412 32.91 49.8784 32.91 49.8784C32.8658 50.4595 32.9927 51.088 33.2789 51.5982C36.0431 56.4982 39.2319 61.6665 43.8222 66.2567L46.7838 69.2215C51.1469 73.5787 53.5482 79.3783 53.5482 85.5497C53.5482 87.1811 54.8698 88.4996 56.4981 88.4996C58.1263 88.4996 59.4479 87.1811 59.4479 85.5497C59.4479 79.3814 61.8492 73.5815 66.2092 69.2215L69.1771 66.2536C69.9058 65.528 70.8554 64.6312 71.8998 63.6519C79.5264 56.4806 82.7331 52.9907 81.4291 49.6986ZM67.8534 59.3541C66.762 60.3836 65.7646 61.3218 65.0037 62.0827L62.0359 65.0506C59.7439 67.3398 57.8854 69.9475 56.4956 72.7736C55.1062 69.9475 53.2477 67.3398 50.9554 65.0506L47.9934 62.0858C44.3708 58.4604 41.7189 54.469 38.9605 49.6575C39.6893 47.1943 41.5772 46.1911 42.6481 45.8105C44.7072 45.0817 47.0171 45.4271 48.8224 46.737C52.5805 49.4569 59.991 52.6633 74.1866 53.0588C72.3638 55.112 69.5024 57.8053 67.8534 59.3541Z" fill="url(#paint3_linear)"/>
<path d="M88.7455 150.22C88.005 140.656 84.1701 136.685 79.7333 132.083C79.1346 131.461 78.5092 130.815 77.869 130.13C74.1637 126.171 68.9305 123.9 63.5053 123.9H49.4898C44.0678 123.9 38.8315 126.172 35.1262 130.13C34.486 130.815 33.8637 131.458 33.2646 132.08C28.8247 136.682 24.9899 140.656 24.2525 150.223C24.1875 151.043 24.4706 151.851 25.0282 152.456C25.5886 153.058 26.3706 153.4 27.1934 153.4H85.8039C86.6239 153.4 87.4086 153.058 87.969 152.453C88.527 151.848 88.8073 151.037 88.7455 150.22ZM30.5536 147.5C31.5537 142.349 33.9374 139.883 37.5126 136.178C38.1321 135.535 38.7751 134.865 39.4361 134.16C42.0292 131.387 45.693 129.8 49.4898 129.8H63.5053C67.305 129.8 70.9687 131.39 73.5618 134.157C74.2256 134.871 74.8686 135.535 75.4912 136.181C79.0637 139.886 81.4442 142.353 82.4474 147.5H30.5536Z" fill="url(#paint4_linear)"/>
<path d="M56.4105 94.4001C54.7823 94.4001 53.4606 95.7186 53.4606 97.35V100.3C53.4606 101.931 54.7823 103.25 56.4105 103.25C58.0388 103.25 59.3604 101.931 59.3604 100.3V97.35C59.3604 95.7186 58.0388 94.4001 56.4105 94.4001Z" fill="url(#paint5_linear)"/>
<path d="M56.4105 109.15C54.7823 109.15 53.4606 110.468 53.4606 112.1V115.05C53.4606 116.681 54.7823 118 56.4105 118C58.0388 118 59.3604 116.681 59.3604 115.05V112.1C59.3604 110.469 58.0388 109.15 56.4105 109.15Z" fill="url(#paint6_linear)"/>
<defs>
<linearGradient id="paint0_linear" x1="124" y1="-3.4781e-06" x2="-7.50427" y2="10.2559" gradientUnits="userSpaceOnUse">
<stop stop-color="#5A13A7"/>
<stop offset="1" stop-color="#5D55D0"/>
</linearGradient>
<linearGradient id="paint1_linear" x1="124" y1="-3.4781e-06" x2="-7.50427" y2="10.2559" gradientUnits="userSpaceOnUse">
<stop stop-color="#5A13A7"/>
<stop offset="1" stop-color="#5D55D0"/>
</linearGradient>
<linearGradient id="paint2_linear" x1="124" y1="-3.4781e-06" x2="-7.50427" y2="10.2559" gradientUnits="userSpaceOnUse">
<stop stop-color="#5A13A7"/>
<stop offset="1" stop-color="#5D55D0"/>
</linearGradient>
<linearGradient id="paint3_linear" x1="124" y1="-3.4781e-06" x2="-7.50427" y2="10.2559" gradientUnits="userSpaceOnUse">
<stop stop-color="#5A13A7"/>
<stop offset="1" stop-color="#5D55D0"/>
</linearGradient>
<linearGradient id="paint4_linear" x1="124" y1="-3.4781e-06" x2="-7.50427" y2="10.2559" gradientUnits="userSpaceOnUse">
<stop stop-color="#5A13A7"/>
<stop offset="1" stop-color="#5D55D0"/>
</linearGradient>
<linearGradient id="paint5_linear" x1="124" y1="-3.4781e-06" x2="-7.50427" y2="10.2559" gradientUnits="userSpaceOnUse">
<stop stop-color="#5A13A7"/>
<stop offset="1" stop-color="#5D55D0"/>
</linearGradient>
<linearGradient id="paint6_linear" x1="124" y1="-3.4781e-06" x2="-7.50427" y2="10.2559" gradientUnits="userSpaceOnUse">
<stop stop-color="#5A13A7"/>
<stop offset="1" stop-color="#5D55D0"/>
</linearGradient>
</defs>
</svg>
