<svg width="25" height="24" viewBox="0 0 25 24" fill="none" xmlns="http://www.w3.org/2000/svg">
<g clip-path="url(#clip0)">
<path fill-rule="evenodd" clip-rule="evenodd" d="M12.3198 10C11.2153 10 10.3198 10.8954 10.3198 12C10.3198 13.1046 11.2153 14 12.3198 14C13.4244 14 14.3198 13.1046 14.3198 12C14.3198 10.8954 13.4244 10 12.3198 10ZM8.31982 12C8.31982 9.79086 10.1107 8 12.3198 8C14.529 8 16.3198 9.79086 16.3198 12C16.3198 14.2091 14.529 16 12.3198 16C10.1107 16 8.31982 14.2091 8.31982 12Z" fill="#8F8AFF"/>
<path fill-rule="evenodd" clip-rule="evenodd" d="M12.3198 2C12.0546 2 11.8003 2.10536 11.6127 2.29289C11.4252 2.48043 11.3198 2.73478 11.3198 3V3.17399C11.3178 3.6908 11.1646 4.19572 10.8793 4.62661C10.5939 5.0575 10.1888 5.39555 9.71376 5.59914C9.6292 5.63538 9.54024 5.65969 9.44943 5.67157C9.0178 5.82272 8.55315 5.85998 8.10083 5.77796C7.57983 5.68349 7.09907 5.43512 6.72056 5.06486L6.71267 5.05715L6.65272 4.99711C6.55984 4.90413 6.44916 4.82998 6.32776 4.77965C6.20637 4.72933 6.07624 4.70343 5.94482 4.70343C5.81341 4.70343 5.68328 4.72933 5.56188 4.77965C5.44049 4.82998 5.3302 4.90374 5.23732 4.99671L5.23654 4.9975C5.14356 5.09037 5.0698 5.20066 5.01948 5.32206C4.96915 5.44346 4.94325 5.57358 4.94325 5.705C4.94325 5.83642 4.96915 5.96654 5.01948 6.08794C5.0698 6.20934 5.14356 6.31963 5.23654 6.4125L5.30473 6.48069C5.67499 6.85921 5.92332 7.34 6.01779 7.861C6.11037 8.37163 6.05095 8.89797 5.84727 9.37478C5.66171 9.86133 5.3368 10.2827 4.91287 10.5859C4.48037 10.8952 3.96481 11.0673 3.43321 11.0797L3.40982 11.08H3.31982C3.05461 11.08 2.80025 11.1854 2.61272 11.3729C2.42518 11.5604 2.31982 11.8148 2.31982 12.08C2.31982 12.3452 2.42518 12.5996 2.61272 12.7871C2.80025 12.9746 3.05461 13.08 3.31982 13.08H3.49381C4.01062 13.0821 4.51555 13.2352 4.94644 13.5206C5.37583 13.8049 5.71302 14.2082 5.91684 14.6811C6.1289 15.1643 6.19193 15.6998 6.09778 16.219C6.00332 16.74 5.75494 17.2207 5.38469 17.5993L5.37697 17.6072L5.31693 17.6671C5.22395 17.76 5.1498 17.8707 5.09948 17.9921C5.04915 18.1135 5.02325 18.2436 5.02325 18.375C5.02325 18.5064 5.04915 18.6365 5.09948 18.7579C5.1498 18.8793 5.22356 18.9896 5.31654 19.0825L5.31732 19.0833C5.4102 19.1763 5.52048 19.25 5.64188 19.3003C5.76328 19.3507 5.89341 19.3766 6.02482 19.3766C6.15624 19.3766 6.28637 19.3507 6.40776 19.3003C6.52916 19.25 6.63945 19.1763 6.73232 19.0833L6.80052 19.0151C7.17903 18.6448 7.65983 18.3965 8.18083 18.302C8.69145 18.2095 9.21778 18.2689 9.69459 18.4725C10.1811 18.6581 10.6025 18.983 10.9057 19.407C11.215 19.8395 11.3871 20.355 11.3996 20.8866L11.3998 20.91V21C11.3998 21.2652 11.5052 21.5196 11.6927 21.7071C11.8803 21.8946 12.1346 22 12.3998 22C12.665 22 12.9194 21.8946 13.1069 21.7071C13.2945 21.5196 13.3998 21.2652 13.3998 21V20.83L13.3998 20.826C13.4019 20.3092 13.555 19.8043 13.8404 19.3734C14.1248 18.944 14.5281 18.6067 15.0011 18.4029C15.4842 18.1909 16.0196 18.1279 16.5388 18.222C17.0598 18.3165 17.5406 18.5649 17.9191 18.9351L17.927 18.9429L17.9869 19.0029C18.0798 19.0959 18.1905 19.17 18.3119 19.2203C18.4333 19.2707 18.5634 19.2966 18.6948 19.2966C18.8262 19.2966 18.9564 19.2707 19.0778 19.2203C19.1992 19.17 19.3095 19.0963 19.4023 19.0033L19.4031 19.0025C19.4961 18.9096 19.5698 18.7993 19.6202 18.6779C19.6705 18.5565 19.6964 18.4264 19.6964 18.295C19.6964 18.1636 19.6705 18.0335 19.6202 17.9121C19.5698 17.7907 19.4961 17.6804 19.4031 17.5875L19.3349 17.5193C18.9647 17.1408 18.7163 16.66 18.6219 16.139C18.5277 15.6198 18.5907 15.0843 18.8028 14.6012C19.0066 14.1283 19.3438 13.725 19.7732 13.4406C20.2041 13.1552 20.709 13.0021 21.2258 13L21.2298 13L21.3198 13C21.585 13 21.8394 12.8946 22.0269 12.7071C22.2145 12.5196 22.3198 12.2652 22.3198 12C22.3198 11.7348 22.2145 11.4804 22.0269 11.2929C21.8394 11.1054 21.585 11 21.3198 11H21.1498L21.1458 11C20.629 10.9979 20.1241 10.8448 19.6932 10.5594C19.2623 10.2741 18.9243 9.86896 18.7207 9.39393C18.6844 9.30938 18.6601 9.22042 18.6483 9.12961C18.4971 8.69798 18.4598 8.23332 18.5419 7.781C18.6363 7.26 18.8847 6.77925 19.255 6.40073L19.2627 6.39285L19.3227 6.3329C19.4157 6.24002 19.4898 6.12934 19.5402 6.00794C19.5905 5.88654 19.6164 5.75641 19.6164 5.625C19.6164 5.49359 19.5905 5.36346 19.5402 5.24206C19.4898 5.12066 19.4161 5.01037 19.3231 4.9175L19.3223 4.91671C19.2295 4.82374 19.1192 4.74998 18.9978 4.69965C18.8764 4.64933 18.7462 4.62343 18.6148 4.62343C18.4834 4.62343 18.3533 4.64933 18.2319 4.69965C18.1105 4.74998 18.0002 4.82374 17.9073 4.91671L17.8391 4.98491C17.4606 5.35516 16.9798 5.60349 16.4588 5.69796C15.9396 5.79211 15.4041 5.72908 14.9209 5.51701C14.4481 5.3132 14.0448 4.97601 13.7604 4.54661C13.475 4.11572 13.3219 3.6108 13.3198 3.09399L13.3198 3.09V3C13.3198 2.73478 13.2145 2.48043 13.0269 2.29289C12.8394 2.10536 12.585 2 12.3198 2ZM19.7198 15L20.6347 15.4038C20.5822 15.5226 20.5666 15.6544 20.5898 15.7822C20.6127 15.9086 20.6725 16.0253 20.7617 16.1177L20.8165 16.1725C20.8164 16.1724 20.8167 16.1726 20.8165 16.1725C21.0953 16.451 21.3168 16.7822 21.4677 17.1462C21.6187 17.5104 21.6964 17.9008 21.6964 18.295C21.6964 18.6892 21.6187 19.0796 21.4677 19.4438C21.3167 19.808 21.0955 20.1389 20.8165 20.4175L20.1098 19.71L20.8173 20.4167C20.5387 20.6956 20.2078 20.9169 19.8436 21.0679C19.4795 21.2189 19.0891 21.2966 18.6948 21.2966C18.3006 21.2966 17.9102 21.2189 17.546 21.0679C17.182 20.917 16.8513 20.6959 16.5727 20.4171C16.5728 20.4172 16.5726 20.417 16.5727 20.4171L16.5175 20.3619C16.4251 20.2727 16.3084 20.2129 16.182 20.19C16.0542 20.1668 15.9224 20.1824 15.8036 20.2349L15.7938 20.2392C15.6773 20.2891 15.5779 20.372 15.5079 20.4777C15.4382 20.583 15.4006 20.7063 15.3998 20.8325V21C15.3998 21.7957 15.0838 22.5587 14.5211 23.1213C13.9585 23.6839 13.1955 24 12.3998 24C11.6042 24 10.8411 23.6839 10.2785 23.1213C9.7159 22.5587 9.39982 21.7957 9.39982 21V20.9244C9.39508 20.7972 9.35309 20.6741 9.27896 20.5704C9.20309 20.4644 9.09705 20.3836 8.97464 20.3385C8.95487 20.3313 8.93533 20.3234 8.91606 20.3149C8.79724 20.2624 8.66544 20.2468 8.53765 20.27C8.41124 20.2929 8.29449 20.3527 8.20212 20.4419L8.14732 20.4967C8.14745 20.4966 8.1472 20.4968 8.14732 20.4967C7.86878 20.7755 7.53767 20.997 7.17365 21.1479C6.80945 21.2989 6.41907 21.3766 6.02482 21.3766C5.63058 21.3766 5.2402 21.2989 4.876 21.1479C4.51215 20.9971 4.18157 20.7761 3.90311 20.4975C3.62418 20.2189 3.4029 19.888 3.25193 19.5238C3.10096 19.1596 3.02325 18.7692 3.02325 18.375C3.02325 17.9808 3.10096 17.5904 3.25193 17.2262C3.4029 16.862 3.62418 16.5311 3.90311 16.2525L3.95793 16.1977C4.04711 16.1053 4.10695 15.9886 4.12987 15.8622C4.15304 15.7344 4.1374 15.6026 4.08496 15.4838L4.08063 15.474C4.03069 15.3574 3.94783 15.258 3.84214 15.1881C3.73686 15.1183 3.61357 15.0808 3.48732 15.08H3.31982C2.52417 15.08 1.76111 14.7639 1.1985 14.2013C0.635895 13.6387 0.319824 12.8756 0.319824 12.08C0.319824 11.2844 0.635895 10.5213 1.1985 9.95868C1.76111 9.39607 2.52417 9.08 3.31982 9.08H3.39546C3.52266 9.07526 3.64574 9.03327 3.74938 8.95914C3.85546 8.88326 3.93627 8.77723 3.98129 8.65482C3.98856 8.63505 3.99646 8.61551 4.00496 8.59624C4.0574 8.47742 4.07304 8.34561 4.04987 8.21782C4.02695 8.09142 3.9671 7.97468 3.87792 7.88231L3.82311 7.8275C3.54418 7.54888 3.3229 7.21802 3.17193 6.85382C3.02096 6.48963 2.94325 6.09925 2.94325 5.705C2.94325 5.31075 3.02096 4.92037 3.17193 4.55618C3.32283 4.19216 3.54397 3.86143 3.82272 3.58289C4.10125 3.30415 4.43198 3.08301 4.796 2.93211C5.1602 2.78113 5.55058 2.70343 5.94482 2.70343C6.33907 2.70343 6.72945 2.78113 7.09365 2.93211C7.45784 3.08308 7.7887 3.30436 8.06732 3.58329L8.12213 3.6381C8.2145 3.72728 8.33125 3.78713 8.45765 3.81005C8.58544 3.83322 8.71724 3.81758 8.83606 3.76514C8.9001 3.73687 8.96675 3.71549 9.03489 3.70122C9.10462 3.6539 9.16481 3.59323 9.21177 3.52232C9.28149 3.41704 9.31903 3.29374 9.31982 3.1675V3C9.31982 2.20435 9.6359 1.44129 10.1985 0.87868C10.7611 0.316071 11.5242 0 12.3198 0C13.1155 0 13.8785 0.316071 14.4411 0.87868C15.0038 1.44129 15.3198 2.20435 15.3198 3V3.0875C15.3206 3.21374 15.3582 3.33704 15.4279 3.44232C15.4979 3.54801 15.5972 3.63092 15.7138 3.68086L15.7236 3.68508C15.8424 3.73752 15.9742 3.75322 16.102 3.73005C16.2284 3.70713 16.3451 3.64728 16.4375 3.55811L16.4923 3.50329C16.7709 3.22436 17.1018 3.00308 17.466 2.85211C17.8302 2.70113 18.2206 2.62343 18.6148 2.62343C19.0091 2.62343 19.3995 2.70113 19.7636 2.85211C20.1278 3.00308 20.4587 3.22436 20.7373 3.50329C21.0159 3.78174 21.2369 4.11233 21.3877 4.47618C21.5387 4.84037 21.6164 5.23075 21.6164 5.625C21.6164 6.01925 21.5387 6.40963 21.3877 6.77382C21.2368 7.13784 21.0157 7.46857 20.7369 7.7471C20.7371 7.74697 20.7368 7.74724 20.7369 7.7471L20.6817 7.80231C20.5925 7.89468 20.5327 8.01142 20.5098 8.13782C20.4866 8.26561 20.5022 8.39742 20.5547 8.51624C20.5829 8.58027 20.6043 8.64692 20.6186 8.71507C20.6659 8.78479 20.7266 8.84498 20.7975 8.89195C20.9028 8.96167 21.0261 8.99921 21.1523 9H21.3198C22.1155 9 22.8785 9.31607 23.4411 9.87868C24.0038 10.4413 24.3198 11.2043 24.3198 12C24.3198 12.7957 24.0038 13.5587 23.4411 14.1213C22.8785 14.6839 22.1155 15 21.3198 15H21.2323C21.1061 15.0008 20.9828 15.0383 20.8775 15.1081C20.7718 15.178 20.6889 15.2774 20.639 15.3939L19.7198 15Z" fill="#8F8AFF"/>
</g>
<defs>
<clipPath id="clip0">
<rect width="24" height="24" fill="white" transform="translate(0.319824)"/>
</clipPath>
</defs>
</svg>
