<svg width="20" height="22" viewBox="0 0 20 22" fill="none" xmlns="http://www.w3.org/2000/svg">
<path fill-rule="evenodd" clip-rule="evenodd" d="M16 2.00027C14.8954 2.00027 14 2.89571 14 4.00027C14 5.10484 14.8954 6.00027 16 6.00027C17.1046 6.00027 18 5.10484 18 4.00027C18 2.89571 17.1046 2.00027 16 2.00027ZM12 4.00027C12 1.79114 13.7909 0.000274658 16 0.000274658C18.2091 0.000274658 20 1.79114 20 4.00027C20 6.20941 18.2091 8.00027 16 8.00027C13.7909 8.00027 12 6.20941 12 4.00027Z" fill="white"/>
<path fill-rule="evenodd" clip-rule="evenodd" d="M4 9.00027C2.89543 9.00027 2 9.89571 2 11.0003C2 12.1048 2.89543 13.0003 4 13.0003C5.10457 13.0003 6 12.1048 6 11.0003C6 9.89571 5.10457 9.00027 4 9.00027ZM0 11.0003C0 8.79114 1.79086 7.00027 4 7.00027C6.20914 7.00027 8 8.79114 8 11.0003C8 13.2094 6.20914 15.0003 4 15.0003C1.79086 15.0003 0 13.2094 0 11.0003Z" fill="white"/>
<path fill-rule="evenodd" clip-rule="evenodd" d="M16 16.0003C14.8954 16.0003 14 16.8957 14 18.0003C14 19.1048 14.8954 20.0003 16 20.0003C17.1046 20.0003 18 19.1048 18 18.0003C18 16.8957 17.1046 16.0003 16 16.0003ZM12 18.0003C12 15.7911 13.7909 14.0003 16 14.0003C18.2091 14.0003 20 15.7911 20 18.0003C20 20.2094 18.2091 22.0003 16 22.0003C13.7909 22.0003 12 20.2094 12 18.0003Z" fill="white"/>
<path fill-rule="evenodd" clip-rule="evenodd" d="M6.13251 12.3608C6.41058 11.8836 7.02282 11.7222 7.5 12.0003L13.5 15.5003C13.9772 15.7783 14.1386 16.3906 13.8605 16.8678C13.5825 17.3449 12.9702 17.5064 12.493 17.2283L6.49304 13.7283C6.01587 13.4502 5.85445 12.838 6.13251 12.3608Z" fill="white"/>
<path fill-rule="evenodd" clip-rule="evenodd" d="M13.8597 5.13256C14.138 5.60956 13.977 6.22191 13.5 6.50027L7.50806 10.2276C7.03106 10.506 6.41871 10.345 6.14034 9.86799C5.86197 9.39099 6.023 8.77864 6.5 8.50027L12.4919 4.7729C12.9689 4.49453 13.5813 4.65556 13.8597 5.13256Z" fill="white"/>
</svg>
