<svg width="14" height="13" viewBox="0 0 14 13" fill="none" xmlns="http://www.w3.org/2000/svg">
<path d="M6.99994 0.583496C7.22196 0.583496 7.42474 0.709538 7.52302 0.908632L9.18992 4.2856L12.9176 4.83046C13.1373 4.86257 13.3197 5.01657 13.3882 5.22774C13.4566 5.43891 13.3993 5.67065 13.2403 5.82554L10.5434 8.45229L11.1799 12.1632C11.2174 12.3821 11.1274 12.6033 10.9478 12.7338C10.7681 12.8643 10.53 12.8815 10.3334 12.7781L6.99994 11.0251L3.66645 12.7781C3.46991 12.8815 3.23174 12.8643 3.05209 12.7338C2.87244 12.6033 2.78246 12.3821 2.82 12.1632L3.45646 8.45229L0.759592 5.82554C0.600564 5.67065 0.543238 5.43891 0.611709 5.22774C0.680179 5.01657 0.862576 4.86257 1.08224 4.83046L4.80995 4.2856L6.47686 0.908632C6.57513 0.709538 6.77791 0.583496 6.99994 0.583496Z" fill="white"/>
</svg>
