<svg width="14" height="16" viewBox="0 0 14 16" fill="none" xmlns="http://www.w3.org/2000/svg">
<path d="M11.6663 15.3332H2.33301C1.19967 15.3332 0.333008 14.4665 0.333008 13.3332V8.6665C0.333008 7.53317 1.19967 6.6665 2.33301 6.6665H11.6663C12.7997 6.6665 13.6663 7.53317 13.6663 8.6665V13.3332C13.6663 14.4665 12.7997 15.3332 11.6663 15.3332ZM2.33301 7.99984C1.93301 7.99984 1.66634 8.2665 1.66634 8.6665V13.3332C1.66634 13.7332 1.93301 13.9998 2.33301 13.9998H11.6663C12.0663 13.9998 12.333 13.7332 12.333 13.3332V8.6665C12.333 8.2665 12.0663 7.99984 11.6663 7.99984H2.33301Z" fill="#27AE60"/>
<path d="M3.66634 7.99984C3.26634 7.99984 2.99967 7.73317 2.99967 7.33317V4.6665C2.99967 3.59984 3.39967 2.59984 4.19967 1.8665C4.93301 1.0665 5.93301 0.666504 6.99967 0.666504C8.86634 0.666504 10.533 1.99984 10.933 3.8665C10.9997 4.19984 10.733 4.59984 10.3997 4.6665C10.0663 4.73317 9.66634 4.53317 9.59967 4.13317C9.33301 2.8665 8.26634 1.99984 6.99967 1.99984C6.26634 1.99984 5.59967 2.2665 5.13301 2.79984C4.59967 3.2665 4.33301 3.93317 4.33301 4.6665V7.33317C4.33301 7.73317 4.06634 7.99984 3.66634 7.99984Z" fill="#27AE60"/>
</svg>
