<svg width="25" height="25" viewBox="0 0 25 25" fill="none" xmlns="http://www.w3.org/2000/svg">
<circle cx="12.0244" cy="12.1016" r="12" fill="url(#user_gradient)"/>
<path fill-rule="evenodd" clip-rule="evenodd" d="M7.00072 14.4109C7.62585 13.7858 8.47369 13.4346 9.35775 13.4346H14.6911C15.5751 13.4346 16.423 13.7858 17.0481 14.4109C17.6732 15.036 18.0244 15.8838 18.0244 16.7679V18.1012C18.0244 18.4694 17.7259 18.7679 17.3577 18.7679C16.9896 18.7679 16.6911 18.4694 16.6911 18.1012V16.7679C16.6911 16.2375 16.4804 15.7288 16.1053 15.3537C15.7302 14.9786 15.2215 14.7679 14.6911 14.7679H9.35775C8.82731 14.7679 8.31861 14.9786 7.94353 15.3537C7.56846 15.7288 7.35775 16.2375 7.35775 16.7679V18.1012C7.35775 18.4694 7.05927 18.7679 6.69108 18.7679C6.32289 18.7679 6.02441 18.4694 6.02441 18.1012V16.7679C6.02441 15.8838 6.3756 15.036 7.00072 14.4109Z" fill="white"/>
<path fill-rule="evenodd" clip-rule="evenodd" d="M12.0247 6.7679C10.9202 6.7679 10.0247 7.66333 10.0247 8.7679C10.0247 9.87247 10.9202 10.7679 12.0247 10.7679C13.1293 10.7679 14.0247 9.87247 14.0247 8.7679C14.0247 7.66333 13.1293 6.7679 12.0247 6.7679ZM8.69141 8.7679C8.69141 6.92695 10.1838 5.43457 12.0247 5.43457C13.8657 5.43457 15.3581 6.92695 15.3581 8.7679C15.3581 10.6089 13.8657 12.1012 12.0247 12.1012C10.1838 12.1012 8.69141 10.6089 8.69141 8.7679Z" fill="white"/>
<defs>
<linearGradient id="user_gradient" x1="24.0244" y1="0.101557" x2="0.249375" y2="6.72293" gradientUnits="userSpaceOnUse">
<stop stop-color="#5A13A7"/>
<stop offset="1" stop-color="#5D55D0"/>
</linearGradient>
</defs>
</svg>
