<svg  viewBox="0 0 821 657" fill="none" xmlns="http://www.w3.org/2000/svg">
<rect opacity="0.35" x="0.5" y="0.5" width="820" height="656" rx="14.5" fill="white" stroke="#5A13A7"/>
<rect x="305" y="522" width="210" height="35" rx="17.5" fill="white"/>
<rect x="305" y="522" width="210" height="35" rx="17.5" fill="#FFB801"/>
<path d="M338.822 538.608C339.71 538.332 340.238 537.66 340.238 536.76C340.238 535.32 338.822 534.48 337.142 534.48C336.254 534.48 335.306 534.708 334.442 535.224L334.742 535.956C335.498 535.476 336.35 535.26 337.118 535.26C338.342 535.26 339.35 535.836 339.35 536.856C339.35 537.756 338.654 538.284 337.466 538.284H335.714V539.004H337.514C338.894 539.004 339.71 539.544 339.71 540.528C339.71 541.668 338.534 542.316 337.19 542.316C336.266 542.316 335.258 542.004 334.502 541.356L334.178 541.992C335.066 542.736 336.218 543.072 337.286 543.072C339.038 543.072 340.598 542.172 340.598 540.648C340.598 539.628 339.926 538.884 338.822 538.608ZM349.187 543H350.123L346.283 534.6H345.407L341.567 543H342.491L343.499 540.756H348.179L349.187 543ZM343.823 540.036L345.839 535.524L347.855 540.036H343.823ZM354.876 534.6H351.732V543H352.62V540.348H354.876C357.012 540.348 358.308 539.268 358.308 537.48C358.308 535.68 357.012 534.6 354.876 534.6ZM354.852 539.568H352.62V535.368H354.852C356.532 535.368 357.42 536.136 357.42 537.48C357.42 538.8 356.532 539.568 354.852 539.568ZM361.023 542.232V539.112H365.367V538.356H361.023V535.368H365.895V534.6H360.135V543H366.075V542.232H361.023ZM373.385 534.6H368.045V543H368.921L368.909 535.368H373.385V534.6ZM374.912 543H375.716L381.092 536.052V543H381.968V534.6H381.164L375.788 541.56V534.6H374.912V543ZM388.475 543.072C389.711 543.072 390.815 542.652 391.559 541.836L390.995 541.272C390.311 541.98 389.471 542.28 388.511 542.28C386.483 542.28 384.959 540.792 384.959 538.8C384.959 536.808 386.483 535.32 388.511 535.32C389.471 535.32 390.311 535.62 390.995 536.316L391.559 535.752C390.815 534.936 389.711 534.528 388.487 534.528C385.955 534.528 384.083 536.34 384.083 538.8C384.083 541.26 385.955 543.072 388.475 543.072ZM398.783 534.6H392.003V535.368H394.955V543H395.831V535.368H398.783V534.6ZM403.486 534.6H400.342V543H401.23V540.348H403.486C405.622 540.348 406.918 539.268 406.918 537.48C406.918 535.68 405.622 534.6 403.486 534.6ZM403.462 539.568H401.23V535.368H403.462C405.142 535.368 406.03 536.136 406.03 537.48C406.03 538.8 405.142 539.568 403.462 539.568ZM408.744 543H409.548L414.924 536.052V543H415.8V534.6H414.996L409.62 541.56V534.6H408.744V543ZM421.779 534.6H418.635V543H419.523V540.348H421.779C423.915 540.348 425.211 539.268 425.211 537.48C425.211 535.68 423.915 534.6 421.779 534.6ZM421.755 539.568H419.523V535.368H421.755C423.435 535.368 424.323 536.136 424.323 537.48C424.323 538.8 423.435 539.568 421.755 539.568ZM430.838 543.072C433.358 543.072 435.242 541.26 435.242 538.8C435.242 536.34 433.358 534.528 430.838 534.528C428.294 534.528 426.422 536.352 426.422 538.8C426.422 541.248 428.294 543.072 430.838 543.072ZM430.838 542.28C428.81 542.28 427.298 540.804 427.298 538.8C427.298 536.796 428.81 535.32 430.838 535.32C432.854 535.32 434.354 536.796 434.354 538.8C434.354 540.804 432.854 542.28 430.838 542.28ZM442.341 538.668C443.181 538.356 443.709 537.72 443.709 536.748C443.709 535.344 442.617 534.6 440.853 534.6H437.361V543H441.081C443.109 543 444.129 542.172 444.129 540.732C444.129 539.616 443.517 538.908 442.341 538.668ZM438.237 535.308H440.805C442.089 535.308 442.821 535.848 442.821 536.856C442.821 537.876 442.089 538.404 440.805 538.404H438.237V535.308ZM441.081 542.292H438.237V539.088H441.081C442.497 539.088 443.253 539.58 443.253 540.672C443.253 541.776 442.497 542.292 441.081 542.292ZM452.734 543H453.67L449.83 534.6H448.954L445.114 543H446.038L447.046 540.756H451.726L452.734 543ZM447.37 540.036L449.386 535.524L451.402 540.036H447.37ZM460.353 534.6H453.573V535.368H456.525V543H457.401V535.368H460.353V534.6ZM465.428 537.6H462.788V534.6H461.912V543H465.248C467.324 543 468.488 542.052 468.488 540.24C468.488 538.5 467.408 537.6 465.428 537.6ZM465.224 542.292H462.788V538.32H465.224C466.796 538.32 467.6 538.944 467.6 540.252C467.6 541.596 466.772 542.292 465.224 542.292ZM474.104 543.072C475.34 543.072 476.444 542.652 477.188 541.836L476.624 541.272C475.94 541.98 475.1 542.28 474.14 542.28C472.112 542.28 470.588 540.792 470.588 538.8C470.588 536.808 472.112 535.32 474.14 535.32C475.1 535.32 475.94 535.62 476.624 536.316L477.188 535.752C476.444 534.936 475.34 534.528 474.116 534.528C471.584 534.528 469.712 536.34 469.712 538.8C469.712 541.26 471.584 543.072 474.104 543.072ZM481.498 534.6C479.494 534.6 478.186 535.668 478.186 537.576C478.186 538.944 478.87 539.904 480.094 540.276L478.186 543H479.134L480.898 540.432C481.054 540.444 481.21 540.456 481.378 540.456H483.886V543H484.762V534.6H481.498ZM479.074 537.552C479.074 536.124 479.974 535.368 481.534 535.368H483.886V539.7H481.45C479.89 539.7 479.074 538.92 479.074 537.552Z" fill="#333333"/>
<path d="M279.888 603H280.96L288.128 593.736V603H289.296V591.8H288.224L281.056 601.08V591.8H279.888V603ZM292.804 603H293.94V599.288H299.236V603H300.372V594.584H299.236V598.312H293.94V594.584H292.804V603ZM309.52 594.584H302.016V595.592H305.2V603H306.336V595.592H309.52V594.584ZM318.148 598.792C318.148 596.264 316.436 594.52 314.068 594.52C311.7 594.52 309.956 596.296 309.956 598.792C309.956 601.288 311.748 603.08 314.372 603.08C315.7 603.08 316.868 602.6 317.62 601.704L316.98 600.968C316.34 601.704 315.428 602.072 314.404 602.072C312.564 602.072 311.22 600.904 311.092 599.144H318.132C318.132 599.016 318.148 598.888 318.148 598.792ZM314.068 595.496C315.716 595.496 316.916 596.648 317.06 598.296H311.092C311.236 596.648 312.436 595.496 314.068 595.496ZM326.615 594.584H320.663V603H321.799V595.592H326.615V594.584ZM332.593 594.52C331.201 594.52 330.033 595.128 329.345 596.248V594.584H328.257V606.104H329.393V601.416C330.097 602.504 331.249 603.08 332.593 603.08C334.993 603.08 336.785 601.352 336.785 598.792C336.785 596.248 334.993 594.52 332.593 594.52ZM332.513 602.072C330.721 602.072 329.377 600.76 329.377 598.792C329.377 596.84 330.721 595.512 332.513 595.512C334.289 595.512 335.649 596.84 335.649 598.792C335.649 600.76 334.289 602.072 332.513 602.072ZM342.075 594.52C340.747 594.52 339.499 594.936 338.651 595.656L339.163 596.504C339.851 595.896 340.875 595.512 341.963 595.512C343.531 595.512 344.347 596.296 344.347 597.736V598.248H341.674C339.259 598.248 338.427 599.336 338.427 600.632C338.427 602.088 339.595 603.08 341.499 603.08C342.891 603.08 343.883 602.552 344.395 601.688V603H345.483V597.784C345.483 595.608 344.251 594.52 342.075 594.52ZM341.674 602.184C340.331 602.184 339.547 601.576 339.547 600.6C339.547 599.736 340.075 599.096 341.707 599.096H344.347V600.472C343.899 601.576 342.955 602.184 341.674 602.184ZM355.915 602.008V594.584H354.779V602.008H349.643V594.584H348.507V603H356.203V605.112H357.275V602.008H355.915ZM359.444 603H360.468L366.068 596.312V603H367.204V594.584H366.196L360.58 601.272V594.584H359.444V603ZM373.388 594.584C371.212 594.584 369.804 595.544 369.804 597.464C369.804 598.824 370.54 599.704 371.836 600.056L369.74 603H370.972L372.924 600.216H373.244H375.884V603H376.924V594.584H373.388ZM370.956 597.496C370.956 596.152 371.852 595.592 373.42 595.592H375.884V599.368H373.34C371.772 599.368 370.956 598.776 370.956 597.496ZM390.27 594.584H382.766V595.592H385.95V603H387.086V595.592H390.27V594.584ZM394.809 594.52C393.481 594.52 392.233 594.936 391.385 595.656L391.897 596.504C392.585 595.896 393.609 595.512 394.697 595.512C396.265 595.512 397.081 596.296 397.081 597.736V598.248H394.409C391.993 598.248 391.161 599.336 391.161 600.632C391.161 602.088 392.329 603.08 394.233 603.08C395.625 603.08 396.617 602.552 397.129 601.688V603H398.217V597.784C398.217 595.608 396.985 594.52 394.809 594.52ZM394.409 602.184C393.065 602.184 392.281 601.576 392.281 600.6C392.281 599.736 392.809 599.096 394.441 599.096H397.081V600.472C396.633 601.576 395.689 602.184 394.409 602.184ZM407.401 603H408.745L405.193 598.664L408.505 594.584H407.273L404.313 598.28H402.377V594.584H401.241V603H402.377V599.256H404.297L407.401 603ZM413.761 603.08C415.185 603.08 416.385 602.504 417.057 601.416L416.209 600.84C415.633 601.688 414.737 602.072 413.761 602.072C411.921 602.072 410.577 600.776 410.577 598.792C410.577 596.824 411.921 595.512 413.761 595.512C414.737 595.512 415.633 595.912 416.209 596.76L417.057 596.184C416.385 595.08 415.185 594.52 413.761 594.52C411.249 594.52 409.425 596.28 409.425 598.792C409.425 601.304 411.249 603.08 413.761 603.08ZM422.588 603.08C425.052 603.08 426.86 601.288 426.86 598.792C426.86 596.296 425.052 594.52 422.588 594.52C420.124 594.52 418.3 596.296 418.3 598.792C418.3 601.288 420.124 603.08 422.588 603.08ZM422.588 602.072C420.796 602.072 419.452 600.76 419.452 598.792C419.452 596.824 420.796 595.512 422.588 595.512C424.38 595.512 425.708 596.824 425.708 598.792C425.708 600.76 424.38 602.072 422.588 602.072ZM429.288 594.584V603H430.424V595.592H435.704V603H436.84V594.584H429.288ZM442.965 594.52C441.637 594.52 440.389 594.936 439.541 595.656L440.053 596.504C440.741 595.896 441.765 595.512 442.853 595.512C444.421 595.512 445.237 596.296 445.237 597.736V598.248H442.565C440.149 598.248 439.317 599.336 439.317 600.632C439.317 602.088 440.485 603.08 442.389 603.08C443.781 603.08 444.773 602.552 445.285 601.688V603H446.373V597.784C446.373 595.608 445.141 594.52 442.965 594.52ZM442.565 602.184C441.221 602.184 440.437 601.576 440.437 600.6C440.437 599.736 440.965 599.096 442.597 599.096H445.237V600.472C444.789 601.576 443.845 602.184 442.565 602.184ZM453.733 594.52C452.341 594.52 451.173 595.128 450.485 596.248V594.584H449.397V606.104H450.533V601.416C451.237 602.504 452.389 603.08 453.733 603.08C456.133 603.08 457.925 601.352 457.925 598.792C457.925 596.248 456.133 594.52 453.733 594.52ZM453.653 602.072C451.861 602.072 450.517 600.76 450.517 598.792C450.517 596.84 451.861 595.512 453.653 595.512C455.429 595.512 456.789 596.84 456.789 598.792C456.789 600.76 455.429 602.072 453.653 602.072ZM466.526 603H467.87L464.318 598.664L467.63 594.584H466.398L463.438 598.28H461.502V594.584H460.366V603H461.502V599.256H463.422L466.526 603ZM472.838 603.08C475.302 603.08 477.11 601.288 477.11 598.792C477.11 596.296 475.302 594.52 472.838 594.52C470.374 594.52 468.55 596.296 468.55 598.792C468.55 601.288 470.374 603.08 472.838 603.08ZM472.838 602.072C471.046 602.072 469.702 600.76 469.702 598.792C469.702 596.824 471.046 595.512 472.838 595.512C474.63 595.512 475.958 596.824 475.958 598.792C475.958 600.76 474.63 602.072 472.838 602.072ZM484.898 598.648C485.778 598.328 486.322 597.688 486.322 596.744C486.322 595.352 485.154 594.584 483.25 594.584H479.538V603H483.362C485.554 603 486.61 602.168 486.61 600.712C486.61 599.608 486.066 598.92 484.898 598.648ZM480.642 595.48H483.17C484.466 595.48 485.186 595.944 485.186 596.888C485.186 597.832 484.466 598.328 483.17 598.328H480.642V595.48ZM483.314 602.104H480.642V599.176H483.426C484.85 599.176 485.49 599.64 485.49 600.648C485.49 601.656 484.738 602.104 483.314 602.104ZM495.844 603H497.028V592.824H500.964V591.8H491.908V592.824H495.844V603ZM505.091 594.52C503.763 594.52 502.515 594.936 501.667 595.656L502.179 596.504C502.867 595.896 503.891 595.512 504.979 595.512C506.547 595.512 507.363 596.296 507.363 597.736V598.248H504.691C502.275 598.248 501.443 599.336 501.443 600.632C501.443 602.088 502.611 603.08 504.515 603.08C505.907 603.08 506.899 602.552 507.411 601.688V603H508.499V597.784C508.499 595.608 507.267 594.52 505.091 594.52ZM504.691 602.184C503.347 602.184 502.562 601.576 502.562 600.6C502.562 599.736 503.091 599.096 504.723 599.096H507.363V600.472C506.915 601.576 505.971 602.184 504.691 602.184ZM518.24 603L514.88 598.68L518.048 594.584H516.8L514.272 597.88L511.744 594.584H510.464L513.632 598.68L510.304 603H511.584L514.272 599.48L516.944 603H518.24ZM522.231 603.08C524.423 603.08 525.703 602.136 525.703 600.68C525.703 597.448 520.247 599.16 520.247 596.888C520.247 596.088 520.919 595.496 522.439 595.496C523.303 595.496 524.183 595.704 524.919 596.216L525.415 595.304C524.711 594.824 523.527 594.52 522.439 594.52C520.295 594.52 519.111 595.544 519.111 596.92C519.111 600.248 524.567 598.52 524.567 600.712C524.567 601.544 523.911 602.088 522.311 602.088C521.127 602.088 519.991 601.672 519.319 601.144L518.807 602.04C519.495 602.632 520.839 603.08 522.231 603.08ZM533.599 594.584L530.431 601.736L527.263 594.584H526.079L529.839 602.984L529.471 603.8C528.991 604.856 528.479 605.208 527.727 605.208C527.118 605.208 526.607 604.984 526.191 604.568L525.662 605.416C526.175 605.928 526.927 606.184 527.711 606.184C528.911 606.184 529.807 605.656 530.511 604.008L534.719 594.584H533.599ZM538.481 603.08C540.673 603.08 541.953 602.136 541.953 600.68C541.953 597.448 536.497 599.16 536.497 596.888C536.497 596.088 537.169 595.496 538.689 595.496C539.553 595.496 540.433 595.704 541.169 596.216L541.665 595.304C540.961 594.824 539.777 594.52 538.689 594.52C536.545 594.52 535.361 595.544 535.361 596.92C535.361 600.248 540.817 598.52 540.817 600.712C540.817 601.544 540.161 602.088 538.561 602.088C537.377 602.088 536.241 601.672 535.569 601.144L535.057 602.04C535.745 602.632 537.089 603.08 538.481 603.08Z" fill="#5D55D0"/>
<path d="M213.59 53V67H215.05V54.28H223.91V67H225.37V53H213.59ZM234.094 67.1C237.174 67.1 239.434 64.86 239.434 61.74C239.434 58.62 237.174 56.4 234.094 56.4C231.014 56.4 228.734 58.62 228.734 61.74C228.734 64.86 231.014 67.1 234.094 67.1ZM234.094 65.84C231.854 65.84 230.174 64.2 230.174 61.74C230.174 59.28 231.854 57.64 234.094 57.64C236.334 57.64 237.994 59.28 237.994 61.74C237.994 64.2 236.334 65.84 234.094 65.84ZM251.031 65.76V56.48H243.271L243.131 60C242.991 62.84 242.731 65.66 241.171 65.76H240.571V69.54H241.911V67H251.331V69.54H252.671V65.76H251.031ZM244.431 60.08L244.551 57.74H249.611V65.76H243.051C244.111 64.96 244.331 62.48 244.431 60.08ZM263.138 67H264.818L260.378 61.58L264.518 56.48H262.978L259.278 61.1H256.858V56.48H255.438V67H256.858V62.32H259.258L263.138 67ZM267.959 56.48L267.779 60.24C267.639 63.02 267.479 65.84 265.739 65.84C265.599 65.84 265.419 65.8 265.239 65.76L265.139 66.98C265.519 67.08 265.839 67.14 266.159 67.14C268.419 67.14 268.879 64.02 269.059 60.34L269.199 57.74H274.239V67H275.659V56.48H267.959ZM288.736 56.4C285.956 56.4 283.856 58.26 283.536 61.02H281.116V56.48H279.696V67H281.116V62.32H283.516C283.776 65.14 285.916 67.1 288.736 67.1C291.736 67.1 293.956 64.86 293.956 61.74C293.956 58.6 291.736 56.4 288.736 56.4ZM288.736 65.86C286.556 65.86 284.916 64.2 284.916 61.74C284.916 59.28 286.556 57.64 288.736 57.64C290.896 57.64 292.556 59.28 292.556 61.74C292.556 64.2 290.896 65.86 288.736 65.86ZM303.52 56.48V61.48C302.34 61.98 301.22 62.26 300.2 62.26C298.44 62.26 297.34 61.46 297.34 59.86V56.48H295.92V59.94C295.92 62.32 297.48 63.42 299.94 63.42C301.12 63.42 302.34 63.14 303.52 62.62V67H304.94V56.48H303.52ZM308.973 67H310.253L317.253 58.64V67H318.673V56.48H317.413L310.393 64.84V56.48H308.973V67ZM330.143 56.48H320.763V57.74H324.743V67H326.163V57.74H330.143V56.48ZM336.716 60.2L333.616 60.16V56.48H332.196V67L336.436 67.02C339.236 67.06 340.756 65.8 340.756 63.56C340.756 61.4 339.356 60.22 336.716 60.2ZM336.356 65.94L333.616 65.9V61.22L336.356 61.26C338.316 61.28 339.316 62 339.316 63.56C339.316 65.14 338.296 65.96 336.356 65.94ZM347.865 67.1C349.645 67.1 351.145 66.38 351.985 65.02L350.925 64.3C350.205 65.36 349.085 65.84 347.865 65.84C345.565 65.84 343.885 64.22 343.885 61.74C343.885 59.28 345.565 57.64 347.865 57.64C349.085 57.64 350.205 58.14 350.925 59.2L351.985 58.48C351.145 57.1 349.645 56.4 347.865 56.4C344.725 56.4 342.445 58.6 342.445 61.74C342.445 64.88 344.725 67.1 347.865 67.1ZM358.043 56.48C355.323 56.48 353.563 57.68 353.563 60.08C353.563 61.78 354.483 62.88 356.103 63.32L353.483 67H355.023L357.463 63.52H357.863H361.163V67H362.463V56.48H358.043ZM355.003 60.12C355.003 58.44 356.123 57.74 358.083 57.74H361.163V62.46H357.983C356.023 62.46 355.003 61.72 355.003 60.12ZM379.447 67H381.127L376.687 61.58L380.827 56.48H379.287L375.587 61.1H373.167V56.48H371.747V67H373.167V62.32H375.567L379.447 67ZM393.422 53C390.082 53 387.902 54.78 387.902 57.96C387.902 60.24 389.042 61.84 391.082 62.46L387.902 67H389.482L392.422 62.72C392.682 62.74 392.942 62.76 393.222 62.76H397.402V67H398.862V53H393.422ZM389.382 57.92C389.382 55.54 390.882 54.28 393.482 54.28H397.402V61.5H393.342C390.742 61.5 389.382 60.2 389.382 57.92ZM403.25 67H404.67V62.36H411.29V67H412.71V56.48H411.29V61.14H404.67V56.48H403.25V67ZM425.367 65.76V56.48H417.607L417.467 60C417.327 62.84 417.067 65.66 415.507 65.76H414.907V69.54H416.247V67H425.667V69.54H427.007V65.76H425.367ZM418.767 60.08L418.887 57.74H423.947V65.76H417.387C418.447 64.96 418.667 62.48 418.767 60.08ZM438.994 61.74C438.994 58.58 436.854 56.4 433.894 56.4C430.934 56.4 428.754 58.62 428.754 61.74C428.754 64.86 430.994 67.1 434.274 67.1C435.934 67.1 437.394 66.5 438.334 65.38L437.534 64.46C436.734 65.38 435.594 65.84 434.314 65.84C432.014 65.84 430.334 64.38 430.174 62.18H438.974C438.974 62.02 438.994 61.86 438.994 61.74ZM433.894 57.62C435.954 57.62 437.454 59.06 437.634 61.12H430.174C430.354 59.06 431.854 57.62 433.894 57.62ZM449.837 67H451.517L447.077 61.58L451.217 56.48H449.677L445.977 61.1H443.557V56.48H442.137V67H443.557V62.32H445.957L449.837 67ZM457.787 67.1C459.567 67.1 461.067 66.38 461.907 65.02L460.847 64.3C460.127 65.36 459.007 65.84 457.787 65.84C455.487 65.84 453.807 64.22 453.807 61.74C453.807 59.28 455.487 57.64 457.787 57.64C459.007 57.64 460.127 58.14 460.847 59.2L461.907 58.48C461.067 57.1 459.567 56.4 457.787 56.4C454.647 56.4 452.367 58.6 452.367 61.74C452.367 64.88 454.647 67.1 457.787 67.1ZM465.147 67.1C465.727 67.1 466.227 66.62 466.227 66C466.227 65.38 465.727 64.92 465.147 64.92C464.567 64.92 464.087 65.38 464.087 66C464.087 66.62 464.567 67.1 465.147 67.1ZM478.161 53H466.861V54.28H471.781V67H473.241V54.28H478.161V53ZM483.453 56.4C481.793 56.4 480.233 56.92 479.173 57.82L479.813 58.88C480.673 58.12 481.953 57.64 483.313 57.64C485.273 57.64 486.293 58.62 486.293 60.42V61.06H482.952C479.933 61.06 478.893 62.42 478.893 64.04C478.893 65.86 480.353 67.1 482.733 67.1C484.473 67.1 485.713 66.44 486.353 65.36V67H487.713V60.48C487.713 57.76 486.173 56.4 483.453 56.4ZM482.952 65.98C481.273 65.98 480.293 65.22 480.293 64C480.293 62.92 480.953 62.12 482.993 62.12H486.293V63.84C485.733 65.22 484.553 65.98 482.952 65.98ZM499.193 67H500.873L496.433 61.58L500.573 56.48H499.033L495.333 61.1H492.913V56.48H491.493V67H492.913V62.32H495.313L499.193 67ZM507.143 67.1C508.923 67.1 510.423 66.38 511.263 65.02L510.203 64.3C509.483 65.36 508.363 65.84 507.143 65.84C504.843 65.84 503.163 64.22 503.163 61.74C503.163 59.28 504.843 57.64 507.143 57.64C508.363 57.64 509.483 58.14 510.203 59.2L511.263 58.48C510.423 57.1 508.923 56.4 507.143 56.4C504.003 56.4 501.723 58.6 501.723 61.74C501.723 64.88 504.003 67.1 507.143 67.1ZM514.012 67H515.292L522.292 58.64V67H523.712V56.48H522.452L515.432 64.84V56.48H514.012V67ZM537.356 67.1C540.436 67.1 542.696 64.86 542.696 61.74C542.696 58.62 540.436 56.4 537.356 56.4C534.276 56.4 531.996 58.62 531.996 61.74C531.996 64.86 534.276 67.1 537.356 67.1ZM537.356 65.84C535.116 65.84 533.436 64.2 533.436 61.74C533.436 59.28 535.116 57.64 537.356 57.64C539.596 57.64 541.256 59.28 541.256 61.74C541.256 64.2 539.596 65.84 537.356 65.84ZM545.731 67H547.151V62.36H553.771V67H555.191V56.48H553.771V61.14H547.151V56.48H545.731V67ZM560.127 56.48L559.947 60.24C559.807 63.02 559.647 65.84 557.907 65.84C557.767 65.84 557.587 65.8 557.407 65.76L557.307 66.98C557.687 67.08 558.007 67.14 558.327 67.14C560.587 67.14 561.047 64.02 561.227 60.34L561.367 57.74H566.407V67H567.827V56.48H560.127ZM575.484 56.4C573.824 56.4 572.264 56.92 571.204 57.82L571.844 58.88C572.704 58.12 573.984 57.64 575.344 57.64C577.304 57.64 578.324 58.62 578.324 60.42V61.06H574.984C571.964 61.06 570.924 62.42 570.924 64.04C570.924 65.86 572.384 67.1 574.764 67.1C576.504 67.1 577.744 66.44 578.384 65.36V67H579.744V60.48C579.744 57.76 578.204 56.4 575.484 56.4ZM574.984 65.98C573.304 65.98 572.324 65.22 572.324 64C572.324 62.92 572.984 62.12 575.024 62.12H578.324V63.84C577.764 65.22 576.584 65.98 574.984 65.98ZM588.304 54.98C590.084 54.98 591.264 54.06 591.304 52.38H590.284C590.244 53.44 589.444 54.1 588.304 54.1C587.164 54.1 586.364 53.44 586.344 52.38H585.324C585.364 54.06 586.524 54.98 588.304 54.98ZM583.524 67H584.804L591.804 58.64V67H593.224V56.48H591.964L584.944 64.84V56.48H583.524V67ZM597.293 67H598.713V62.36H605.333V67H606.753V56.48H605.333V61.14H598.713V56.48H597.293V67Z" fill="#5A13A7"/>
<path d="M68.3127 54.8H61.1927V66H62.3607L62.3447 55.824H68.3127V54.8ZM71.0958 66.08C73.5598 66.08 75.3678 64.288 75.3678 61.792C75.3678 59.296 73.5598 57.52 71.0958 57.52C68.6318 57.52 66.8078 59.296 66.8078 61.792C66.8078 64.288 68.6318 66.08 71.0958 66.08ZM71.0958 65.072C69.3038 65.072 67.9598 63.76 67.9598 61.792C67.9598 59.824 69.3038 58.512 71.0958 58.512C72.8878 58.512 74.2158 59.824 74.2158 61.792C74.2158 63.76 72.8878 65.072 71.0958 65.072ZM82.1317 57.52C80.7397 57.52 79.5717 58.128 78.8837 59.248V57.584H77.7957V69.104H78.9317V64.416C79.6357 65.504 80.7877 66.08 82.1317 66.08C84.5317 66.08 86.3237 64.352 86.3237 61.792C86.3237 59.248 84.5317 57.52 82.1317 57.52ZM82.0517 65.072C80.2597 65.072 78.9157 63.76 78.9157 61.792C78.9157 59.84 80.2597 58.512 82.0517 58.512C83.8277 58.512 85.1877 59.84 85.1877 61.792C85.1877 63.76 83.8277 65.072 82.0517 65.072ZM92.2364 66.08C94.7004 66.08 96.5084 64.288 96.5084 61.792C96.5084 59.296 94.7004 57.52 92.2364 57.52C89.7724 57.52 87.9484 59.296 87.9484 61.792C87.9484 64.288 89.7724 66.08 92.2364 66.08ZM92.2364 65.072C90.4444 65.072 89.1004 63.76 89.1004 61.792C89.1004 59.824 90.4444 58.512 92.2364 58.512C94.0284 58.512 95.3564 59.824 95.3564 61.792C95.3564 63.76 94.0284 65.072 92.2364 65.072ZM105.785 65.008V57.584H99.5774L99.4654 60.4C99.3534 62.672 99.1454 64.928 97.8974 65.008H97.4174V68.032H98.4894V66H106.025V68.032H107.097V65.008H105.785ZM100.505 60.464L100.601 58.592H104.649V65.008H99.4014C100.249 64.368 100.425 62.384 100.505 60.464Z" fill="#828282"/>
<path opacity="0.35" d="M59 401H275" stroke="#5A13A7"/>
<path d="M72.5259 373.8V385H71.3899V376.04L66.9899 383.576H66.4299L62.0299 376.088V385H60.8939V373.8H61.8699L66.7339 382.104L71.5499 373.8H72.5259ZM78.9241 376.52C80.0228 376.52 80.8654 376.797 81.4521 377.352C82.0388 377.896 82.3321 378.707 82.3321 379.784V385H81.2441V383.688C80.9881 384.125 80.6094 384.467 80.1081 384.712C79.6174 384.957 79.0308 385.08 78.3481 385.08C77.4094 385.08 76.6628 384.856 76.1081 384.408C75.5534 383.96 75.2761 383.368 75.2761 382.632C75.2761 381.917 75.5321 381.341 76.0441 380.904C76.5668 380.467 77.3934 380.248 78.5241 380.248H81.1961V379.736C81.1961 379.011 80.9934 378.461 80.5881 378.088C80.1828 377.704 79.5908 377.512 78.8121 377.512C78.2788 377.512 77.7668 377.603 77.2761 377.784C76.7854 377.955 76.3641 378.195 76.0121 378.504L75.5001 377.656C75.9268 377.293 76.4388 377.016 77.0361 376.824C77.6334 376.621 78.2628 376.52 78.9241 376.52ZM78.5241 384.184C79.1641 384.184 79.7134 384.04 80.1721 383.752C80.6308 383.453 80.9721 383.027 81.1961 382.472V381.096H78.5561C77.1161 381.096 76.3961 381.597 76.3961 382.6C76.3961 383.091 76.5828 383.48 76.9561 383.768C77.3294 384.045 77.8521 384.184 78.5241 384.184ZM89.6922 376.52C90.4816 376.52 91.1962 376.701 91.8362 377.064C92.4762 377.416 92.9776 377.917 93.3402 378.568C93.7029 379.219 93.8842 379.96 93.8842 380.792C93.8842 381.635 93.7029 382.381 93.3402 383.032C92.9776 383.683 92.4762 384.189 91.8362 384.552C91.2069 384.904 90.4922 385.08 89.6922 385.08C89.0096 385.08 88.3909 384.941 87.8362 384.664C87.2922 384.376 86.8442 383.96 86.4922 383.416V388.104H85.3562V376.584H86.4442V378.248C86.7856 377.693 87.2336 377.267 87.7882 376.968C88.3536 376.669 88.9882 376.52 89.6922 376.52ZM89.6122 384.072C90.1989 384.072 90.7322 383.939 91.2122 383.672C91.6922 383.395 92.0656 383.005 92.3322 382.504C92.6096 382.003 92.7482 381.432 92.7482 380.792C92.7482 380.152 92.6096 379.587 92.3322 379.096C92.0656 378.595 91.6922 378.205 91.2122 377.928C90.7322 377.651 90.1989 377.512 89.6122 377.512C89.0149 377.512 88.4762 377.651 87.9962 377.928C87.5269 378.205 87.1536 378.595 86.8762 379.096C86.6096 379.587 86.4762 380.152 86.4762 380.792C86.4762 381.432 86.6096 382.003 86.8762 382.504C87.1536 383.005 87.5269 383.395 87.9962 383.672C88.4762 383.939 89.0149 384.072 89.6122 384.072ZM99.381 381.256H97.461V385H96.325V376.584H97.461V380.28H99.397L102.357 376.584H103.589L100.277 380.664L103.829 385H102.485L99.381 381.256ZM108.362 376.52C109.46 376.52 110.303 376.797 110.89 377.352C111.476 377.896 111.77 378.707 111.77 379.784V385H110.682V383.688C110.426 384.125 110.047 384.467 109.546 384.712C109.055 384.957 108.468 385.08 107.786 385.08C106.847 385.08 106.1 384.856 105.546 384.408C104.991 383.96 104.714 383.368 104.714 382.632C104.714 381.917 104.97 381.341 105.482 380.904C106.004 380.467 106.831 380.248 107.962 380.248H110.634V379.736C110.634 379.011 110.431 378.461 110.026 378.088C109.62 377.704 109.028 377.512 108.25 377.512C107.716 377.512 107.204 377.603 106.714 377.784C106.223 377.955 105.802 378.195 105.45 378.504L104.938 377.656C105.364 377.293 105.876 377.016 106.474 376.824C107.071 376.621 107.7 376.52 108.362 376.52ZM107.962 384.184C108.602 384.184 109.151 384.04 109.61 383.752C110.068 383.453 110.41 383.027 110.634 382.472V381.096H107.994C106.554 381.096 105.834 381.597 105.834 382.6C105.834 383.091 106.02 383.48 106.394 383.768C106.767 384.045 107.29 384.184 107.962 384.184Z" fill="#828282"/>
<path opacity="0.35" d="M301 401H517" stroke="#5A13A7"/>
<path d="M314.524 373.8V385H313.388V376.04L308.988 383.576H308.428L304.028 376.088V385H302.892V373.8H303.868L308.732 382.104L313.548 373.8H314.524ZM321.498 385.08C320.687 385.08 319.957 384.899 319.306 384.536C318.655 384.163 318.143 383.651 317.77 383C317.397 382.349 317.21 381.613 317.21 380.792C317.21 379.971 317.397 379.235 317.77 378.584C318.143 377.933 318.655 377.427 319.306 377.064C319.957 376.701 320.687 376.52 321.498 376.52C322.309 376.52 323.039 376.701 323.69 377.064C324.341 377.427 324.847 377.933 325.21 378.584C325.583 379.235 325.77 379.971 325.77 380.792C325.77 381.613 325.583 382.349 325.21 383C324.847 383.651 324.341 384.163 323.69 384.536C323.039 384.899 322.309 385.08 321.498 385.08ZM321.498 384.072C322.095 384.072 322.629 383.939 323.098 383.672C323.578 383.395 323.951 383.005 324.218 382.504C324.485 382.003 324.618 381.432 324.618 380.792C324.618 380.152 324.485 379.581 324.218 379.08C323.951 378.579 323.578 378.195 323.098 377.928C322.629 377.651 322.095 377.512 321.498 377.512C320.901 377.512 320.362 377.651 319.882 377.928C319.413 378.195 319.039 378.579 318.762 379.08C318.495 379.581 318.362 380.152 318.362 380.792C318.362 381.432 318.495 382.003 318.762 382.504C319.039 383.005 319.413 383.395 319.882 383.672C320.362 383.939 320.901 384.072 321.498 384.072ZM336.359 384.008V387.032H335.287V385H327.751V387.032H326.679V384.008H327.159C327.724 383.976 328.108 383.56 328.311 382.76C328.514 381.96 328.652 380.84 328.727 379.4L328.839 376.584H335.047V384.008H336.359ZM329.767 379.464C329.714 380.659 329.612 381.645 329.463 382.424C329.314 383.192 329.047 383.72 328.663 384.008H333.911V377.592H329.863L329.767 379.464ZM345.933 381.144H338.893C338.957 382.019 339.293 382.728 339.901 383.272C340.509 383.805 341.277 384.072 342.205 384.072C342.727 384.072 343.207 383.981 343.645 383.8C344.082 383.608 344.461 383.331 344.781 382.968L345.421 383.704C345.047 384.152 344.578 384.493 344.013 384.728C343.458 384.963 342.845 385.08 342.173 385.08C341.309 385.08 340.541 384.899 339.869 384.536C339.207 384.163 338.69 383.651 338.317 383C337.943 382.349 337.757 381.613 337.757 380.792C337.757 379.971 337.933 379.235 338.285 378.584C338.647 377.933 339.138 377.427 339.757 377.064C340.386 376.701 341.09 376.52 341.869 376.52C342.647 376.52 343.346 376.701 343.965 377.064C344.583 377.427 345.069 377.933 345.421 378.584C345.773 379.224 345.949 379.96 345.949 380.792L345.933 381.144ZM341.869 377.496C341.058 377.496 340.375 377.757 339.821 378.28C339.277 378.792 338.967 379.464 338.893 380.296H344.861C344.786 379.464 344.471 378.792 343.917 378.28C343.373 377.757 342.69 377.496 341.869 377.496ZM355.172 376.584V385H354.036V377.592H350.004L349.892 379.672C349.806 381.421 349.604 382.765 349.284 383.704C348.964 384.643 348.393 385.112 347.572 385.112C347.348 385.112 347.076 385.069 346.756 384.984L346.836 384.008C347.028 384.051 347.161 384.072 347.236 384.072C347.673 384.072 348.004 383.869 348.228 383.464C348.452 383.059 348.601 382.557 348.676 381.96C348.75 381.363 348.814 380.573 348.868 379.592L349.012 376.584H355.172ZM362.017 379.56C363.073 379.571 363.873 379.805 364.417 380.264C364.972 380.723 365.249 381.384 365.249 382.248C365.249 383.144 364.95 383.832 364.353 384.312C363.766 384.792 362.913 385.027 361.793 385.016L358.401 385V376.584H359.537V379.528L362.017 379.56ZM361.729 384.152C362.508 384.163 363.094 384.008 363.489 383.688C363.894 383.357 364.097 382.877 364.097 382.248C364.097 381.629 363.9 381.171 363.505 380.872C363.11 380.573 362.518 380.419 361.729 380.408L359.537 380.376V384.12L361.729 384.152Z" fill="#828282"/>
<path opacity="0.35" d="M543 401H759" stroke="#5A13A7"/>
<path d="M552.012 374.824H546.044L546.06 385H544.892V373.8H552.012V374.824ZM554.795 385.08C553.984 385.08 553.253 384.899 552.603 384.536C551.952 384.163 551.44 383.651 551.067 383C550.693 382.349 550.507 381.613 550.507 380.792C550.507 379.971 550.693 379.235 551.067 378.584C551.44 377.933 551.952 377.427 552.603 377.064C553.253 376.701 553.984 376.52 554.795 376.52C555.605 376.52 556.336 376.701 556.987 377.064C557.637 377.427 558.144 377.933 558.507 378.584C558.88 379.235 559.067 379.971 559.067 380.792C559.067 381.613 558.88 382.349 558.507 383C558.144 383.651 557.637 384.163 556.987 384.536C556.336 384.899 555.605 385.08 554.795 385.08ZM554.795 384.072C555.392 384.072 555.925 383.939 556.395 383.672C556.875 383.395 557.248 383.005 557.515 382.504C557.781 382.003 557.915 381.432 557.915 380.792C557.915 380.152 557.781 379.581 557.515 379.08C557.248 378.579 556.875 378.195 556.395 377.928C555.925 377.651 555.392 377.512 554.795 377.512C554.197 377.512 553.659 377.651 553.179 377.928C552.709 378.195 552.336 378.579 552.059 379.08C551.792 379.581 551.659 380.152 551.659 380.792C551.659 381.432 551.792 382.003 552.059 382.504C552.336 383.005 552.709 383.395 553.179 383.672C553.659 383.939 554.197 384.072 554.795 384.072ZM565.015 385.08C564.183 385.08 563.436 384.899 562.775 384.536C562.124 384.173 561.612 383.667 561.239 383.016C560.865 382.355 560.679 381.613 560.679 380.792C560.679 379.971 560.865 379.235 561.239 378.584C561.612 377.933 562.124 377.427 562.775 377.064C563.436 376.701 564.183 376.52 565.015 376.52C565.74 376.52 566.385 376.664 566.951 376.952C567.527 377.229 567.98 377.64 568.311 378.184L567.463 378.76C567.185 378.344 566.833 378.035 566.407 377.832C565.98 377.619 565.516 377.512 565.015 377.512C564.407 377.512 563.857 377.651 563.367 377.928C562.887 378.195 562.508 378.579 562.231 379.08C561.964 379.581 561.831 380.152 561.831 380.792C561.831 381.443 561.964 382.019 562.231 382.52C562.508 383.011 562.887 383.395 563.367 383.672C563.857 383.939 564.407 384.072 565.015 384.072C565.516 384.072 565.98 383.971 566.407 383.768C566.833 383.565 567.185 383.256 567.463 382.84L568.311 383.416C567.98 383.96 567.527 384.376 566.951 384.664C566.375 384.941 565.729 385.08 565.015 385.08ZM570.903 385.08C570.668 385.08 570.465 384.995 570.295 384.824C570.135 384.653 570.055 384.445 570.055 384.2C570.055 383.955 570.135 383.752 570.295 383.592C570.465 383.421 570.668 383.336 570.903 383.336C571.137 383.336 571.34 383.421 571.511 383.592C571.681 383.752 571.767 383.955 571.767 384.2C571.767 384.445 571.681 384.653 571.511 384.824C571.34 384.995 571.137 385.08 570.903 385.08ZM578.401 376.584H579.537V380.312H584.833V376.584H585.969V385H584.833V381.288H579.537V385H578.401V376.584ZM592.67 385.08C591.859 385.08 591.128 384.899 590.478 384.536C589.827 384.163 589.315 383.651 588.942 383C588.568 382.349 588.382 381.613 588.382 380.792C588.382 379.971 588.568 379.235 588.942 378.584C589.315 377.933 589.827 377.427 590.478 377.064C591.128 376.701 591.859 376.52 592.67 376.52C593.48 376.52 594.211 376.701 594.862 377.064C595.512 377.427 596.019 377.933 596.382 378.584C596.755 379.235 596.942 379.971 596.942 380.792C596.942 381.613 596.755 382.349 596.382 383C596.019 383.651 595.512 384.163 594.862 384.536C594.211 384.899 593.48 385.08 592.67 385.08ZM592.67 384.072C593.267 384.072 593.8 383.939 594.27 383.672C594.75 383.395 595.123 383.005 595.39 382.504C595.656 382.003 595.79 381.432 595.79 380.792C595.79 380.152 595.656 379.581 595.39 379.08C595.123 378.579 594.75 378.195 594.27 377.928C593.8 377.651 593.267 377.512 592.67 377.512C592.072 377.512 591.534 377.651 591.054 377.928C590.584 378.195 590.211 378.579 589.934 379.08C589.667 379.581 589.534 380.152 589.534 380.792C589.534 381.432 589.667 382.003 589.934 382.504C590.211 383.005 590.584 383.395 591.054 383.672C591.534 383.939 592.072 384.072 592.67 384.072ZM608.778 376.584V385H607.738V378.344L604.33 383.976H603.818L600.41 378.328V385H599.37V376.584H600.522L604.09 382.648L607.722 376.584H608.778ZM619.37 381.144H612.33C612.394 382.019 612.73 382.728 613.338 383.272C613.946 383.805 614.714 384.072 615.642 384.072C616.165 384.072 616.645 383.981 617.082 383.8C617.52 383.608 617.898 383.331 618.218 382.968L618.858 383.704C618.485 384.152 618.016 384.493 617.45 384.728C616.896 384.963 616.282 385.08 615.61 385.08C614.746 385.08 613.978 384.899 613.306 384.536C612.645 384.163 612.128 383.651 611.754 383C611.381 382.349 611.194 381.613 611.194 380.792C611.194 379.971 611.37 379.235 611.722 378.584C612.085 377.933 612.576 377.427 613.194 377.064C613.824 376.701 614.528 376.52 615.306 376.52C616.085 376.52 616.784 376.701 617.402 377.064C618.021 377.427 618.506 377.933 618.858 378.584C619.21 379.224 619.386 379.96 619.386 380.792L619.37 381.144ZM615.306 377.496C614.496 377.496 613.813 377.757 613.258 378.28C612.714 378.792 612.405 379.464 612.33 380.296H618.298C618.224 379.464 617.909 378.792 617.354 378.28C616.81 377.757 616.128 377.496 615.306 377.496ZM626.237 376.52C627.026 376.52 627.741 376.701 628.381 377.064C629.021 377.416 629.522 377.917 629.885 378.568C630.248 379.219 630.429 379.96 630.429 380.792C630.429 381.635 630.248 382.381 629.885 383.032C629.522 383.683 629.021 384.189 628.381 384.552C627.752 384.904 627.037 385.08 626.237 385.08C625.554 385.08 624.936 384.941 624.381 384.664C623.837 384.376 623.389 383.96 623.037 383.416V388.104H621.901V376.584H622.989V378.248C623.33 377.693 623.778 377.267 624.333 376.968C624.898 376.669 625.533 376.52 626.237 376.52ZM626.157 384.072C626.744 384.072 627.277 383.939 627.757 383.672C628.237 383.395 628.61 383.005 628.877 382.504C629.154 382.003 629.293 381.432 629.293 380.792C629.293 380.152 629.154 379.587 628.877 379.096C628.61 378.595 628.237 378.205 627.757 377.928C627.277 377.651 626.744 377.512 626.157 377.512C625.56 377.512 625.021 377.651 624.541 377.928C624.072 378.205 623.698 378.595 623.421 379.096C623.154 379.587 623.021 380.152 623.021 380.792C623.021 381.432 623.154 382.003 623.421 382.504C623.698 383.005 624.072 383.395 624.541 383.672C625.021 383.939 625.56 384.072 626.157 384.072Z" fill="#828282"/>
<path opacity="0.35" d="M422 484H638" stroke="#5A13A7"/>
<path d="M431.014 457.824H425.046L425.062 468H423.894V456.8H431.014V457.824ZM433.797 468.08C432.986 468.08 432.256 467.899 431.605 467.536C430.954 467.163 430.442 466.651 430.069 466C429.696 465.349 429.509 464.613 429.509 463.792C429.509 462.971 429.696 462.235 430.069 461.584C430.442 460.933 430.954 460.427 431.605 460.064C432.256 459.701 432.986 459.52 433.797 459.52C434.608 459.52 435.338 459.701 435.989 460.064C436.64 460.427 437.146 460.933 437.509 461.584C437.882 462.235 438.069 462.971 438.069 463.792C438.069 464.613 437.882 465.349 437.509 466C437.146 466.651 436.64 467.163 435.989 467.536C435.338 467.899 434.608 468.08 433.797 468.08ZM433.797 467.072C434.394 467.072 434.928 466.939 435.397 466.672C435.877 466.395 436.25 466.005 436.517 465.504C436.784 465.003 436.917 464.432 436.917 463.792C436.917 463.152 436.784 462.581 436.517 462.08C436.25 461.579 435.877 461.195 435.397 460.928C434.928 460.651 434.394 460.512 433.797 460.512C433.2 460.512 432.661 460.651 432.181 460.928C431.712 461.195 431.338 461.579 431.061 462.08C430.794 462.581 430.661 463.152 430.661 463.792C430.661 464.432 430.794 465.003 431.061 465.504C431.338 466.005 431.712 466.395 432.181 466.672C432.661 466.939 433.2 467.072 433.797 467.072ZM448.658 467.008V470.032H447.586V468H440.05V470.032H438.978V467.008H439.458C440.023 466.976 440.407 466.56 440.61 465.76C440.813 464.96 440.951 463.84 441.026 462.4L441.138 459.584H447.346V467.008H448.658ZM442.066 462.464C442.013 463.659 441.911 464.645 441.762 465.424C441.613 466.192 441.346 466.72 440.962 467.008H446.21V460.592H442.162L442.066 462.464Z" fill="#828282"/>
<path opacity="0.35" d="M180 484H396" stroke="#5A13A7"/>
<path d="M192.772 466.976V470.624H191.668V468H181.892V456.8H183.06V466.976H189.828V456.8H190.996V466.976H192.772ZM200.214 463.648C201.355 463.915 201.926 464.603 201.926 465.712C201.926 466.448 201.654 467.013 201.11 467.408C200.566 467.803 199.755 468 198.678 468H194.854V459.584H198.566C199.526 459.584 200.278 459.771 200.822 460.144C201.366 460.517 201.638 461.051 201.638 461.744C201.638 462.203 201.51 462.597 201.254 462.928C201.009 463.248 200.662 463.488 200.214 463.648ZM195.958 463.328H198.486C199.137 463.328 199.633 463.205 199.974 462.96C200.326 462.715 200.502 462.357 200.502 461.888C200.502 461.419 200.326 461.067 199.974 460.832C199.633 460.597 199.137 460.48 198.486 460.48H195.958V463.328ZM198.63 467.104C199.355 467.104 199.899 466.987 200.262 466.752C200.625 466.517 200.806 466.149 200.806 465.648C200.806 465.147 200.641 464.779 200.31 464.544C199.979 464.299 199.457 464.176 198.742 464.176H195.958V467.104H198.63ZM211.948 464.144H204.908C204.972 465.019 205.308 465.728 205.916 466.272C206.524 466.805 207.292 467.072 208.22 467.072C208.743 467.072 209.223 466.981 209.66 466.8C210.098 466.608 210.476 466.331 210.796 465.968L211.436 466.704C211.063 467.152 210.594 467.493 210.028 467.728C209.474 467.963 208.86 468.08 208.188 468.08C207.324 468.08 206.556 467.899 205.884 467.536C205.223 467.163 204.706 466.651 204.332 466C203.959 465.349 203.772 464.613 203.772 463.792C203.772 462.971 203.948 462.235 204.3 461.584C204.663 460.933 205.154 460.427 205.772 460.064C206.402 459.701 207.106 459.52 207.884 459.52C208.663 459.52 209.362 459.701 209.98 460.064C210.599 460.427 211.084 460.933 211.436 461.584C211.788 462.224 211.964 462.96 211.964 463.792L211.948 464.144ZM207.884 460.496C207.074 460.496 206.391 460.757 205.836 461.28C205.292 461.792 204.983 462.464 204.908 463.296H210.876C210.802 462.464 210.487 461.792 209.932 461.28C209.388 460.757 208.706 460.496 207.884 460.496ZM220.024 460.592H216.84V468H215.704V460.592H212.52V459.584H220.024V460.592Z" fill="#828282"/>
<path opacity="0.35" d="M59 152H275" stroke="#5A13A7"/>
<path d="M72.8779 130.384C72.8779 131.867 72.3499 133.035 71.2939 133.888C70.2485 134.731 68.7819 135.179 66.8939 135.232V136.384H65.7899V135.232C63.9019 135.168 62.4299 134.715 61.3739 133.872C60.3285 133.029 59.8059 131.867 59.8059 130.384C59.8059 128.901 60.3285 127.739 61.3739 126.896C62.4299 126.053 63.9019 125.6 65.7899 125.536V124.416H66.8939V125.536C68.7712 125.6 70.2379 126.059 71.2939 126.912C72.3499 127.755 72.8779 128.912 72.8779 130.384ZM66.8939 134.288C68.4405 134.224 69.6352 133.856 70.4779 133.184C71.3205 132.512 71.7419 131.579 71.7419 130.384C71.7419 129.189 71.3152 128.256 70.4619 127.584C69.6192 126.912 68.4299 126.549 66.8939 126.496V134.288ZM60.9419 130.384C60.9419 131.579 61.3632 132.512 62.2059 133.184C63.0592 133.845 64.2539 134.213 65.7899 134.288V126.496C64.2325 126.56 63.0325 126.928 62.1899 127.6C61.3579 128.261 60.9419 129.189 60.9419 130.384ZM78.1897 127.52C79.2884 127.52 80.1311 127.797 80.7177 128.352C81.3044 128.896 81.5977 129.707 81.5977 130.784V136H80.5097V134.688C80.2537 135.125 79.8751 135.467 79.3737 135.712C78.8831 135.957 78.2964 136.08 77.6137 136.08C76.6751 136.08 75.9284 135.856 75.3737 135.408C74.8191 134.96 74.5417 134.368 74.5417 133.632C74.5417 132.917 74.7977 132.341 75.3097 131.904C75.8324 131.467 76.6591 131.248 77.7897 131.248H80.4617V130.736C80.4617 130.011 80.2591 129.461 79.8537 129.088C79.4484 128.704 78.8564 128.512 78.0777 128.512C77.5444 128.512 77.0324 128.603 76.5417 128.784C76.0511 128.955 75.6297 129.195 75.2777 129.504L74.7657 128.656C75.1924 128.293 75.7044 128.016 76.3017 127.824C76.8991 127.621 77.5284 127.52 78.1897 127.52ZM77.7897 135.184C78.4297 135.184 78.9791 135.04 79.4377 134.752C79.8964 134.453 80.2377 134.027 80.4617 133.472V132.096H77.8217C76.3817 132.096 75.6617 132.597 75.6617 133.6C75.6617 134.091 75.8484 134.48 76.2217 134.768C76.5951 135.045 77.1177 135.184 77.7897 135.184ZM94.0299 127.584V136H92.9899V129.344L89.5819 134.976H89.0699L85.6619 129.328V136H84.6219V127.584H85.7739L89.3419 133.648L92.9739 127.584H94.0299ZM97.2625 127.584H98.3985V134.272L104.014 127.584H105.022V136H103.886V129.312L98.2865 136H97.2625V127.584ZM115.158 127.584V136H114.022V128.592H109.99L109.878 130.672C109.793 132.421 109.59 133.765 109.27 134.704C108.95 135.643 108.379 136.112 107.558 136.112C107.334 136.112 107.062 136.069 106.742 135.984L106.822 135.008C107.014 135.051 107.147 135.072 107.222 135.072C107.659 135.072 107.99 134.869 108.214 134.464C108.438 134.059 108.587 133.557 108.662 132.96C108.737 132.363 108.801 131.573 108.854 130.592L108.998 127.584H115.158ZM118.387 127.584H119.523V134.272L125.139 127.584H126.147V136H125.011V129.312L119.411 136H118.387V127.584ZM135.867 127.584V136H134.827V133.216H132.187H131.867L129.915 136H128.683L130.779 133.056C130.128 132.875 129.627 132.565 129.275 132.128C128.923 131.691 128.747 131.136 128.747 130.464C128.747 129.525 129.067 128.811 129.707 128.32C130.347 127.829 131.222 127.584 132.331 127.584H135.867ZM129.899 130.496C129.899 131.744 130.694 132.368 132.283 132.368H134.827V128.592H132.363C130.72 128.592 129.899 129.227 129.899 130.496Z" fill="#828282"/>
<path opacity="0.35" d="M543 152H759" stroke="#5A13A7"/>
<path d="M549.804 136.096C548.695 136.096 547.687 135.851 546.78 135.36C545.884 134.859 545.18 134.176 544.668 133.312C544.167 132.448 543.916 131.477 543.916 130.4C543.916 129.323 544.167 128.352 544.668 127.488C545.18 126.624 545.884 125.947 546.78 125.456C547.687 124.955 548.695 124.704 549.804 124.704C550.913 124.704 551.911 124.949 552.796 125.44C553.692 125.931 554.396 126.613 554.908 127.488C555.42 128.352 555.676 129.323 555.676 130.4C555.676 131.477 555.42 132.453 554.908 133.328C554.396 134.192 553.692 134.869 552.796 135.36C551.911 135.851 550.913 136.096 549.804 136.096ZM549.804 135.04C550.689 135.04 551.489 134.843 552.204 134.448C552.919 134.043 553.479 133.488 553.884 132.784C554.289 132.069 554.492 131.275 554.492 130.4C554.492 129.525 554.289 128.736 553.884 128.032C553.479 127.317 552.919 126.763 552.204 126.368C551.489 125.963 550.689 125.76 549.804 125.76C548.919 125.76 548.113 125.963 547.388 126.368C546.673 126.763 546.108 127.317 545.692 128.032C545.287 128.736 545.084 129.525 545.084 130.4C545.084 131.275 545.287 132.069 545.692 132.784C546.108 133.488 546.673 134.043 547.388 134.448C548.113 134.843 548.919 135.04 549.804 135.04ZM563.915 128.592H560.731V136H559.595V128.592H556.411V127.584H563.915V128.592ZM571.909 127.584V136H570.773V132.496C569.803 132.923 568.848 133.136 567.909 133.136C566.896 133.136 566.107 132.907 565.541 132.448C564.976 131.979 564.693 131.28 564.693 130.352V127.584H565.829V130.288C565.829 130.917 566.032 131.397 566.437 131.728C566.843 132.048 567.403 132.208 568.117 132.208C568.907 132.208 569.792 132 570.773 131.584V127.584H571.909ZM582.496 132.144H575.456C575.52 133.019 575.856 133.728 576.464 134.272C577.072 134.805 577.84 135.072 578.768 135.072C579.29 135.072 579.77 134.981 580.208 134.8C580.645 134.608 581.024 134.331 581.344 133.968L581.984 134.704C581.61 135.152 581.141 135.493 580.576 135.728C580.021 135.963 579.408 136.08 578.736 136.08C577.872 136.08 577.104 135.899 576.432 135.536C575.77 135.163 575.253 134.651 574.88 134C574.506 133.349 574.32 132.613 574.32 131.792C574.32 130.971 574.496 130.235 574.848 129.584C575.21 128.933 575.701 128.427 576.32 128.064C576.949 127.701 577.653 127.52 578.432 127.52C579.21 127.52 579.909 127.701 580.528 128.064C581.146 128.427 581.632 128.933 581.984 129.584C582.336 130.224 582.512 130.96 582.512 131.792L582.496 132.144ZM578.432 128.496C577.621 128.496 576.938 128.757 576.384 129.28C575.84 129.792 575.53 130.464 575.456 131.296H581.424C581.349 130.464 581.034 129.792 580.48 129.28C579.936 128.757 579.253 128.496 578.432 128.496ZM588.546 136.08C587.714 136.08 586.967 135.899 586.306 135.536C585.655 135.173 585.143 134.667 584.77 134.016C584.397 133.355 584.21 132.613 584.21 131.792C584.21 130.971 584.397 130.235 584.77 129.584C585.143 128.933 585.655 128.427 586.306 128.064C586.967 127.701 587.714 127.52 588.546 127.52C589.271 127.52 589.917 127.664 590.482 127.952C591.058 128.229 591.511 128.64 591.842 129.184L590.994 129.76C590.717 129.344 590.365 129.035 589.938 128.832C589.511 128.619 589.047 128.512 588.546 128.512C587.938 128.512 587.389 128.651 586.898 128.928C586.418 129.195 586.039 129.579 585.762 130.08C585.495 130.581 585.362 131.152 585.362 131.792C585.362 132.443 585.495 133.019 585.762 133.52C586.039 134.011 586.418 134.395 586.898 134.672C587.389 134.939 587.938 135.072 588.546 135.072C589.047 135.072 589.511 134.971 589.938 134.768C590.365 134.565 590.717 134.256 590.994 133.84L591.842 134.416C591.511 134.96 591.058 135.376 590.482 135.664C589.906 135.941 589.261 136.08 588.546 136.08ZM599.806 128.592H596.622V136H595.486V128.592H592.302V127.584H599.806V128.592ZM606.808 131.648C607.949 131.915 608.52 132.603 608.52 133.712C608.52 134.448 608.248 135.013 607.704 135.408C607.16 135.803 606.349 136 605.272 136H601.448V127.584H605.16C606.12 127.584 606.872 127.771 607.416 128.144C607.96 128.517 608.232 129.051 608.232 129.744C608.232 130.203 608.104 130.597 607.848 130.928C607.603 131.248 607.256 131.488 606.808 131.648ZM602.552 131.328H605.08C605.731 131.328 606.227 131.205 606.568 130.96C606.92 130.715 607.096 130.357 607.096 129.888C607.096 129.419 606.92 129.067 606.568 128.832C606.227 128.597 605.731 128.48 605.08 128.48H602.552V131.328ZM605.224 135.104C605.949 135.104 606.493 134.987 606.856 134.752C607.219 134.517 607.4 134.149 607.4 133.648C607.4 133.147 607.235 132.779 606.904 132.544C606.573 132.299 606.051 132.176 605.336 132.176H602.552V135.104H605.224ZM614.654 136.08C613.844 136.08 613.113 135.899 612.462 135.536C611.812 135.163 611.3 134.651 610.926 134C610.553 133.349 610.366 132.613 610.366 131.792C610.366 130.971 610.553 130.235 610.926 129.584C611.3 128.933 611.812 128.427 612.462 128.064C613.113 127.701 613.844 127.52 614.654 127.52C615.465 127.52 616.196 127.701 616.846 128.064C617.497 128.427 618.004 128.933 618.366 129.584C618.74 130.235 618.926 130.971 618.926 131.792C618.926 132.613 618.74 133.349 618.366 134C618.004 134.651 617.497 135.163 616.846 135.536C616.196 135.899 615.465 136.08 614.654 136.08ZM614.654 135.072C615.252 135.072 615.785 134.939 616.254 134.672C616.734 134.395 617.108 134.005 617.374 133.504C617.641 133.003 617.774 132.432 617.774 131.792C617.774 131.152 617.641 130.581 617.374 130.08C617.108 129.579 616.734 129.195 616.254 128.928C615.785 128.651 615.252 128.512 614.654 128.512C614.057 128.512 613.518 128.651 613.038 128.928C612.569 129.195 612.196 129.579 611.918 130.08C611.652 130.581 611.518 131.152 611.518 131.792C611.518 132.432 611.652 133.003 611.918 133.504C612.196 134.005 612.569 134.395 613.038 134.672C613.518 134.939 614.057 135.072 614.654 135.072Z" fill="#828282"/>
<path opacity="0.35" d="M301 152H517" stroke="#5A13A7"/>
<path d="M302.892 124.8H304.06V134.08L311.228 124.8H312.3V136H311.132V126.736L303.964 136H302.892V124.8ZM325.215 127.584V136H324.175V129.344L320.767 134.976H320.255L316.847 129.328V136H315.807V127.584H316.959L320.527 133.648L324.159 127.584H325.215ZM334.912 127.584V136H333.872V133.216H331.232H330.912L328.96 136H327.728L329.824 133.056C329.173 132.875 328.672 132.565 328.32 132.128C327.968 131.691 327.792 131.136 327.792 130.464C327.792 129.525 328.112 128.811 328.752 128.32C329.392 127.829 330.267 127.584 331.376 127.584H334.912ZM328.944 130.496C328.944 131.744 329.739 132.368 331.328 132.368H333.872V128.592H331.408C329.765 128.592 328.944 129.227 328.944 130.496Z" fill="#828282"/>
<path opacity="0.35" d="M301 235H517" stroke="#5A13A7"/>
<path d="M307.79 219.096C306.681 219.096 305.678 218.851 304.782 218.36C303.897 217.869 303.198 217.192 302.686 216.328C302.185 215.453 301.934 214.477 301.934 213.4C301.934 212.323 302.185 211.352 302.686 210.488C303.198 209.613 303.902 208.931 304.798 208.44C305.694 207.949 306.697 207.704 307.806 207.704C308.638 207.704 309.406 207.843 310.11 208.12C310.814 208.397 311.411 208.803 311.902 209.336L311.15 210.088C310.275 209.203 309.171 208.76 307.838 208.76C306.953 208.76 306.147 208.963 305.422 209.368C304.697 209.773 304.126 210.328 303.71 211.032C303.305 211.736 303.102 212.525 303.102 213.4C303.102 214.275 303.305 215.064 303.71 215.768C304.126 216.472 304.697 217.027 305.422 217.432C306.147 217.837 306.953 218.04 307.838 218.04C309.182 218.04 310.286 217.592 311.15 216.696L311.902 217.448C311.411 217.981 310.809 218.392 310.094 218.68C309.39 218.957 308.622 219.096 307.79 219.096ZM321.06 215.144H314.02C314.084 216.019 314.42 216.728 315.028 217.272C315.636 217.805 316.404 218.072 317.332 218.072C317.855 218.072 318.335 217.981 318.772 217.8C319.209 217.608 319.588 217.331 319.908 216.968L320.548 217.704C320.175 218.152 319.705 218.493 319.14 218.728C318.585 218.963 317.972 219.08 317.3 219.08C316.436 219.08 315.668 218.899 314.996 218.536C314.335 218.163 313.817 217.651 313.444 217C313.071 216.349 312.884 215.613 312.884 214.792C312.884 213.971 313.06 213.235 313.412 212.584C313.775 211.933 314.265 211.427 314.884 211.064C315.513 210.701 316.217 210.52 316.996 210.52C317.775 210.52 318.473 210.701 319.092 211.064C319.711 211.427 320.196 211.933 320.548 212.584C320.9 213.224 321.076 213.96 321.076 214.792L321.06 215.144ZM316.996 211.496C316.185 211.496 315.503 211.757 314.948 212.28C314.404 212.792 314.095 213.464 314.02 214.296H319.988C319.913 213.464 319.599 212.792 319.044 212.28C318.5 211.757 317.817 211.496 316.996 211.496ZM327.927 210.52C328.716 210.52 329.431 210.701 330.071 211.064C330.711 211.416 331.212 211.917 331.575 212.568C331.937 213.219 332.119 213.96 332.119 214.792C332.119 215.635 331.937 216.381 331.575 217.032C331.212 217.683 330.711 218.189 330.071 218.552C329.441 218.904 328.727 219.08 327.927 219.08C327.244 219.08 326.625 218.941 326.071 218.664C325.527 218.376 325.079 217.96 324.727 217.416V222.104H323.591V210.584H324.679V212.248C325.02 211.693 325.468 211.267 326.023 210.968C326.588 210.669 327.223 210.52 327.927 210.52ZM327.847 218.072C328.433 218.072 328.967 217.939 329.447 217.672C329.927 217.395 330.3 217.005 330.567 216.504C330.844 216.003 330.983 215.432 330.983 214.792C330.983 214.152 330.844 213.587 330.567 213.096C330.3 212.595 329.927 212.205 329.447 211.928C328.967 211.651 328.433 211.512 327.847 211.512C327.249 211.512 326.711 211.651 326.231 211.928C325.761 212.205 325.388 212.595 325.111 213.096C324.844 213.587 324.711 214.152 324.711 214.792C324.711 215.432 324.844 216.003 325.111 216.504C325.388 217.005 325.761 217.395 326.231 217.672C326.711 217.939 327.249 218.072 327.847 218.072ZM334.559 210.584H335.695V217.272L341.311 210.584H342.319V219H341.183V212.312L335.583 219H334.559V210.584ZM352.039 210.584V219H350.999V216.216H348.359H348.039L346.087 219H344.855L346.951 216.056C346.3 215.875 345.799 215.565 345.447 215.128C345.095 214.691 344.919 214.136 344.919 213.464C344.919 212.525 345.239 211.811 345.879 211.32C346.519 210.829 347.394 210.584 348.503 210.584H352.039ZM346.071 213.496C346.071 214.744 346.866 215.368 348.455 215.368H350.999V211.592H348.535C346.892 211.592 346.071 212.227 346.071 213.496ZM358.542 205.528H359.582L354.302 220.6H353.262L358.542 205.528ZM359.544 210.584H360.68V214.312H365.976V210.584H367.112V219H365.976V215.288H360.68V219H359.544V210.584ZM373.813 219.08C373.002 219.08 372.271 218.899 371.621 218.536C370.97 218.163 370.458 217.651 370.085 217C369.711 216.349 369.525 215.613 369.525 214.792C369.525 213.971 369.711 213.235 370.085 212.584C370.458 211.933 370.97 211.427 371.621 211.064C372.271 210.701 373.002 210.52 373.813 210.52C374.623 210.52 375.354 210.701 376.005 211.064C376.655 211.427 377.162 211.933 377.525 212.584C377.898 213.235 378.085 213.971 378.085 214.792C378.085 215.613 377.898 216.349 377.525 217C377.162 217.651 376.655 218.163 376.005 218.536C375.354 218.899 374.623 219.08 373.813 219.08ZM373.813 218.072C374.41 218.072 374.943 217.939 375.413 217.672C375.893 217.395 376.266 217.005 376.533 216.504C376.799 216.003 376.933 215.432 376.933 214.792C376.933 214.152 376.799 213.581 376.533 213.08C376.266 212.579 375.893 212.195 375.413 211.928C374.943 211.651 374.41 211.512 373.813 211.512C373.215 211.512 372.677 211.651 372.197 211.928C371.727 212.195 371.354 212.579 371.077 213.08C370.81 213.581 370.677 214.152 370.677 214.792C370.677 215.432 370.81 216.003 371.077 216.504C371.354 217.005 371.727 217.395 372.197 217.672C372.677 217.939 373.215 218.072 373.813 218.072ZM389.92 210.584V219H388.88V212.344L385.472 217.976H384.96L381.552 212.328V219H380.512V210.584H381.664L385.232 216.648L388.864 210.584H389.92ZM400.513 215.144H393.473C393.537 216.019 393.873 216.728 394.481 217.272C395.089 217.805 395.857 218.072 396.785 218.072C397.308 218.072 397.788 217.981 398.225 217.8C398.662 217.608 399.041 217.331 399.361 216.968L400.001 217.704C399.628 218.152 399.158 218.493 398.593 218.728C398.038 218.963 397.425 219.08 396.753 219.08C395.889 219.08 395.121 218.899 394.449 218.536C393.788 218.163 393.27 217.651 392.897 217C392.524 216.349 392.337 215.613 392.337 214.792C392.337 213.971 392.513 213.235 392.865 212.584C393.228 211.933 393.718 211.427 394.337 211.064C394.966 210.701 395.67 210.52 396.449 210.52C397.228 210.52 397.926 210.701 398.545 211.064C399.164 211.427 399.649 211.933 400.001 212.584C400.353 213.224 400.529 213.96 400.529 214.792L400.513 215.144ZM396.449 211.496C395.638 211.496 394.956 211.757 394.401 212.28C393.857 212.792 393.548 213.464 393.473 214.296H399.441C399.366 213.464 399.052 212.792 398.497 212.28C397.953 211.757 397.27 211.496 396.449 211.496ZM407.38 210.52C408.169 210.52 408.884 210.701 409.524 211.064C410.164 211.416 410.665 211.917 411.028 212.568C411.39 213.219 411.572 213.96 411.572 214.792C411.572 215.635 411.39 216.381 411.028 217.032C410.665 217.683 410.164 218.189 409.524 218.552C408.894 218.904 408.18 219.08 407.38 219.08C406.697 219.08 406.078 218.941 405.524 218.664C404.98 218.376 404.532 217.96 404.18 217.416V222.104H403.044V210.584H404.132V212.248C404.473 211.693 404.921 211.267 405.476 210.968C406.041 210.669 406.676 210.52 407.38 210.52ZM407.3 218.072C407.886 218.072 408.42 217.939 408.9 217.672C409.38 217.395 409.753 217.005 410.02 216.504C410.297 216.003 410.436 215.432 410.436 214.792C410.436 214.152 410.297 213.587 410.02 213.096C409.753 212.595 409.38 212.205 408.9 211.928C408.42 211.651 407.886 211.512 407.3 211.512C406.702 211.512 406.164 211.651 405.684 211.928C405.214 212.205 404.841 212.595 404.564 213.096C404.297 213.587 404.164 214.152 404.164 214.792C404.164 215.432 404.297 216.003 404.564 216.504C404.841 217.005 405.214 217.395 405.684 217.672C406.164 217.939 406.702 218.072 407.3 218.072ZM425.112 213.224C425.891 213.384 426.483 213.699 426.888 214.168C427.293 214.627 427.496 215.229 427.496 215.976C427.496 216.947 427.149 217.693 426.456 218.216C425.773 218.739 424.765 219 423.432 219H418.472V207.8H423.128C424.323 207.8 425.256 208.045 425.928 208.536C426.6 209.027 426.936 209.736 426.936 210.664C426.936 211.293 426.776 211.827 426.456 212.264C426.136 212.691 425.688 213.011 425.112 213.224ZM419.64 212.872H423.064C423.928 212.872 424.589 212.696 425.048 212.344C425.517 211.992 425.752 211.48 425.752 210.808C425.752 210.136 425.517 209.624 425.048 209.272C424.589 208.92 423.928 208.744 423.064 208.744H419.64V212.872ZM423.432 218.056C425.363 218.056 426.328 217.336 426.328 215.896C426.328 214.488 425.363 213.784 423.432 213.784H419.64V218.056H423.432ZM430.296 219.08C430.061 219.08 429.858 218.995 429.688 218.824C429.528 218.653 429.448 218.445 429.448 218.2C429.448 217.955 429.528 217.752 429.688 217.592C429.858 217.421 430.061 217.336 430.296 217.336C430.53 217.336 430.733 217.421 430.904 217.592C431.074 217.752 431.16 217.955 431.16 218.2C431.16 218.445 431.074 218.653 430.904 218.824C430.733 218.995 430.53 219.08 430.296 219.08ZM442.678 207.8L437.59 217.224C437.228 217.896 436.801 218.397 436.31 218.728C435.83 219.048 435.302 219.208 434.726 219.208C434.3 219.208 433.841 219.107 433.35 218.904L433.686 217.944C434.07 218.093 434.422 218.168 434.742 218.168C435.478 218.168 436.081 217.768 436.55 216.968L436.87 216.424L432.326 207.8H433.59L437.494 215.384L441.494 207.8H442.678ZM443.983 219.08C443.748 219.08 443.546 218.995 443.375 218.824C443.215 218.653 443.135 218.445 443.135 218.2C443.135 217.955 443.215 217.752 443.375 217.592C443.546 217.421 443.748 217.336 443.983 217.336C444.218 217.336 444.42 217.421 444.591 217.592C444.762 217.752 444.847 217.955 444.847 218.2C444.847 218.445 444.762 218.653 444.591 218.824C444.42 218.995 444.218 219.08 443.983 219.08ZM447.374 212.264C447.139 212.264 446.936 212.179 446.766 212.008C446.606 211.837 446.526 211.629 446.526 211.384C446.526 211.139 446.606 210.936 446.766 210.776C446.936 210.605 447.139 210.52 447.374 210.52C447.608 210.52 447.811 210.605 447.982 210.776C448.152 210.936 448.238 211.139 448.238 211.384C448.238 211.629 448.152 211.837 447.982 212.008C447.811 212.179 447.608 212.264 447.374 212.264ZM447.374 219.08C447.139 219.08 446.936 218.995 446.766 218.824C446.606 218.653 446.526 218.445 446.526 218.2C446.526 217.955 446.606 217.752 446.766 217.592C446.936 217.421 447.139 217.336 447.374 217.336C447.608 217.336 447.811 217.421 447.982 217.592C448.152 217.752 448.238 217.955 448.238 218.2C448.238 218.445 448.152 218.653 447.982 218.824C447.811 218.995 447.608 219.08 447.374 219.08Z" fill="#828282"/>
<path opacity="0.35" d="M59 235H275" stroke="#5A13A7"/>
<path d="M68.2219 208.824H64.2859V219H63.1179V208.824H59.1819V207.8H68.2219V208.824ZM76.5131 215.144H69.4731C69.5371 216.019 69.8731 216.728 70.4811 217.272C71.0891 217.805 71.8571 218.072 72.7851 218.072C73.3078 218.072 73.7878 217.981 74.2251 217.8C74.6624 217.608 75.0411 217.331 75.3611 216.968L76.0011 217.704C75.6278 218.152 75.1584 218.493 74.5931 218.728C74.0384 218.963 73.4251 219.08 72.7531 219.08C71.8891 219.08 71.1211 218.899 70.4491 218.536C69.7878 218.163 69.2704 217.651 68.8971 217C68.5238 216.349 68.3371 215.613 68.3371 214.792C68.3371 213.971 68.5131 213.235 68.8651 212.584C69.2278 211.933 69.7184 211.427 70.3371 211.064C70.9664 210.701 71.6704 210.52 72.4491 210.52C73.2278 210.52 73.9264 210.701 74.5451 211.064C75.1638 211.427 75.6491 211.933 76.0011 212.584C76.3531 213.224 76.5291 213.96 76.5291 214.792L76.5131 215.144ZM72.4491 211.496C71.6384 211.496 70.9558 211.757 70.4011 212.28C69.8571 212.792 69.5478 213.464 69.4731 214.296H75.4411C75.3664 213.464 75.0518 212.792 74.4971 212.28C73.9531 211.757 73.2704 211.496 72.4491 211.496ZM85.7519 210.584V219H84.6159V211.592H80.5839L80.4719 213.672C80.3865 215.421 80.1839 216.765 79.8639 217.704C79.5439 218.643 78.9732 219.112 78.1519 219.112C77.9279 219.112 77.6559 219.069 77.3359 218.984L77.4159 218.008C77.6079 218.051 77.7412 218.072 77.8159 218.072C78.2532 218.072 78.5839 217.869 78.8079 217.464C79.0319 217.059 79.1812 216.557 79.2559 215.96C79.3305 215.363 79.3945 214.573 79.4479 213.592L79.5919 210.584H85.7519ZM96.3412 215.144H89.3012C89.3652 216.019 89.7012 216.728 90.3092 217.272C90.9172 217.805 91.6852 218.072 92.6132 218.072C93.1359 218.072 93.6159 217.981 94.0532 217.8C94.4906 217.608 94.8692 217.331 95.1892 216.968L95.8292 217.704C95.4559 218.152 94.9866 218.493 94.4212 218.728C93.8666 218.963 93.2532 219.08 92.5812 219.08C91.7172 219.08 90.9492 218.899 90.2772 218.536C89.6159 218.163 89.0986 217.651 88.7252 217C88.3519 216.349 88.1652 215.613 88.1652 214.792C88.1652 213.971 88.3412 213.235 88.6932 212.584C89.0559 211.933 89.5466 211.427 90.1652 211.064C90.7946 210.701 91.4986 210.52 92.2772 210.52C93.0559 210.52 93.7546 210.701 94.3732 211.064C94.9919 211.427 95.4772 211.933 95.8292 212.584C96.1812 213.224 96.3572 213.96 96.3572 214.792L96.3412 215.144ZM92.2772 211.496C91.4666 211.496 90.7839 211.757 90.2292 212.28C89.6852 212.792 89.3759 213.464 89.3012 214.296H95.2692C95.1946 213.464 94.8799 212.792 94.3252 212.28C93.7812 211.757 93.0986 211.496 92.2772 211.496ZM109.032 214.776C109.032 216.088 108.6 217.117 107.736 217.864C106.872 218.611 105.651 219.016 104.072 219.08V222.104H102.968V219.096C101.4 219.032 100.184 218.627 99.3199 217.88C98.4665 217.123 98.0399 216.088 98.0399 214.776C98.0399 213.475 98.4665 212.456 99.3199 211.72C100.184 210.984 101.4 210.584 102.968 210.52V207.128H104.072V210.52C105.651 210.595 106.872 211 107.736 211.736C108.6 212.472 109.032 213.485 109.032 214.776ZM99.1599 214.776C99.1599 215.779 99.4799 216.563 100.12 217.128C100.771 217.693 101.72 218.013 102.968 218.088V211.528C101.731 211.592 100.787 211.907 100.136 212.472C99.4852 213.027 99.1599 213.795 99.1599 214.776ZM104.072 218.088C105.32 218.024 106.269 217.709 106.92 217.144C107.581 216.579 107.912 215.789 107.912 214.776C107.912 213.784 107.581 213.011 106.92 212.456C106.269 211.901 105.32 211.592 104.072 211.528V218.088ZM114.906 219.08C114.096 219.08 113.365 218.899 112.714 218.536C112.064 218.163 111.552 217.651 111.178 217C110.805 216.349 110.618 215.613 110.618 214.792C110.618 213.971 110.805 213.235 111.178 212.584C111.552 211.933 112.064 211.427 112.714 211.064C113.365 210.701 114.096 210.52 114.906 210.52C115.717 210.52 116.448 210.701 117.098 211.064C117.749 211.427 118.256 211.933 118.618 212.584C118.992 213.235 119.178 213.971 119.178 214.792C119.178 215.613 118.992 216.349 118.618 217C118.256 217.651 117.749 218.163 117.098 218.536C116.448 218.899 115.717 219.08 114.906 219.08ZM114.906 218.072C115.504 218.072 116.037 217.939 116.506 217.672C116.986 217.395 117.36 217.005 117.626 216.504C117.893 216.003 118.026 215.432 118.026 214.792C118.026 214.152 117.893 213.581 117.626 213.08C117.36 212.579 116.986 212.195 116.506 211.928C116.037 211.651 115.504 211.512 114.906 211.512C114.309 211.512 113.77 211.651 113.29 211.928C112.821 212.195 112.448 212.579 112.17 213.08C111.904 213.581 111.77 214.152 111.77 214.792C111.77 215.432 111.904 216.003 112.17 216.504C112.448 217.005 112.821 217.395 113.29 217.672C113.77 217.939 114.309 218.072 114.906 218.072ZM121.606 210.584H122.742V214.312H128.038V210.584H129.174V219H128.038V215.288H122.742V219H121.606V210.584Z" fill="#828282"/>
<path opacity="0.35" d="M543 235H759" stroke="#5A13A7"/>
<path d="M555.182 217.976V221.512H554.078V219H544.302L544.286 221.512H543.182L543.198 217.976H543.758C544.494 217.933 545.006 217.352 545.294 216.232C545.582 215.101 545.758 213.501 545.822 211.432L545.95 207.8H553.502V217.976H555.182ZM546.878 211.544C546.825 213.251 546.691 214.659 546.478 215.768C546.275 216.867 545.929 217.603 545.438 217.976H552.334V208.824H546.974L546.878 211.544ZM560.221 210.52C561.32 210.52 562.162 210.797 562.749 211.352C563.336 211.896 563.629 212.707 563.629 213.784V219H562.541V217.688C562.285 218.125 561.906 218.467 561.405 218.712C560.914 218.957 560.328 219.08 559.645 219.08C558.706 219.08 557.96 218.856 557.405 218.408C556.85 217.96 556.573 217.368 556.573 216.632C556.573 215.917 556.829 215.341 557.341 214.904C557.864 214.467 558.69 214.248 559.821 214.248H562.493V213.736C562.493 213.011 562.29 212.461 561.885 212.088C561.48 211.704 560.888 211.512 560.109 211.512C559.576 211.512 559.064 211.603 558.573 211.784C558.082 211.955 557.661 212.195 557.309 212.504L556.797 211.656C557.224 211.293 557.736 211.016 558.333 210.824C558.93 210.621 559.56 210.52 560.221 210.52ZM559.821 218.184C560.461 218.184 561.01 218.04 561.469 217.752C561.928 217.453 562.269 217.027 562.493 216.472V215.096H559.853C558.413 215.096 557.693 215.597 557.693 216.6C557.693 217.091 557.88 217.48 558.253 217.768C558.626 218.045 559.149 218.184 559.821 218.184ZM572.573 211.592H569.389V219H568.253V211.592H565.069V210.584H572.573V211.592ZM577.112 210.52C578.21 210.52 579.053 210.797 579.64 211.352C580.226 211.896 580.52 212.707 580.52 213.784V219H579.432V217.688C579.176 218.125 578.797 218.467 578.296 218.712C577.805 218.957 577.218 219.08 576.536 219.08C575.597 219.08 574.85 218.856 574.296 218.408C573.741 217.96 573.464 217.368 573.464 216.632C573.464 215.917 573.72 215.341 574.232 214.904C574.754 214.467 575.581 214.248 576.712 214.248H579.384V213.736C579.384 213.011 579.181 212.461 578.776 212.088C578.37 211.704 577.778 211.512 577 211.512C576.466 211.512 575.954 211.603 575.464 211.784C574.973 211.955 574.552 212.195 574.2 212.504L573.688 211.656C574.114 211.293 574.626 211.016 575.224 210.824C575.821 210.621 576.45 210.52 577.112 210.52ZM576.712 218.184C577.352 218.184 577.901 218.04 578.36 217.752C578.818 217.453 579.16 217.027 579.384 216.472V215.096H576.744C575.304 215.096 574.584 215.597 574.584 216.6C574.584 217.091 574.77 217.48 575.144 217.768C575.517 218.045 576.04 218.184 576.712 218.184ZM593.091 214.648C594.233 214.915 594.803 215.603 594.803 216.712C594.803 217.448 594.531 218.013 593.987 218.408C593.443 218.803 592.633 219 591.555 219H587.731V210.584H591.443C592.403 210.584 593.155 210.771 593.699 211.144C594.243 211.517 594.515 212.051 594.515 212.744C594.515 213.203 594.387 213.597 594.131 213.928C593.886 214.248 593.539 214.488 593.091 214.648ZM588.835 214.328H591.363C592.014 214.328 592.51 214.205 592.851 213.96C593.203 213.715 593.379 213.357 593.379 212.888C593.379 212.419 593.203 212.067 592.851 211.832C592.51 211.597 592.014 211.48 591.363 211.48H588.835V214.328ZM591.507 218.104C592.233 218.104 592.777 217.987 593.139 217.752C593.502 217.517 593.683 217.149 593.683 216.648C593.683 216.147 593.518 215.779 593.187 215.544C592.857 215.299 592.334 215.176 591.619 215.176H588.835V218.104H591.507ZM601.002 213.56C602.058 213.571 602.863 213.805 603.418 214.264C603.972 214.723 604.25 215.384 604.25 216.248C604.25 217.144 603.951 217.832 603.354 218.312C602.756 218.792 601.903 219.027 600.794 219.016L597.466 219V210.584H598.602V213.528L601.002 213.56ZM605.658 210.584H606.794V219H605.658V210.584ZM600.73 218.152C601.508 218.163 602.095 218.008 602.49 217.688C602.895 217.357 603.098 216.877 603.098 216.248C603.098 215.629 602.9 215.171 602.506 214.872C602.111 214.573 601.519 214.419 600.73 214.408L598.602 214.376V218.12L600.73 218.152ZM618.236 218.008V221.032H617.164V219H609.628V221.032H608.556V218.008H609.036C609.601 217.976 609.985 217.56 610.188 216.76C610.391 215.96 610.529 214.84 610.604 213.4L610.716 210.584H616.924V218.008H618.236ZM611.644 213.464C611.591 214.659 611.489 215.645 611.34 216.424C611.191 217.192 610.924 217.72 610.54 218.008H615.788V211.592H611.74L611.644 213.464ZM623.346 210.52C624.445 210.52 625.287 210.797 625.874 211.352C626.461 211.896 626.754 212.707 626.754 213.784V219H625.666V217.688C625.41 218.125 625.031 218.467 624.53 218.712C624.039 218.957 623.453 219.08 622.77 219.08C621.831 219.08 621.085 218.856 620.53 218.408C619.975 217.96 619.698 217.368 619.698 216.632C619.698 215.917 619.954 215.341 620.466 214.904C620.989 214.467 621.815 214.248 622.946 214.248H625.618V213.736C625.618 213.011 625.415 212.461 625.01 212.088C624.605 211.704 624.013 211.512 623.234 211.512C622.701 211.512 622.189 211.603 621.698 211.784C621.207 211.955 620.786 212.195 620.434 212.504L619.922 211.656C620.349 211.293 620.861 211.016 621.458 210.824C622.055 210.621 622.685 210.52 623.346 210.52ZM622.946 218.184C623.586 218.184 624.135 218.04 624.594 217.752C625.053 217.453 625.394 217.027 625.618 216.472V215.096H622.978C621.538 215.096 620.818 215.597 620.818 216.6C620.818 217.091 621.005 217.48 621.378 217.768C621.751 218.045 622.274 218.184 622.946 218.184ZM636.13 210.584V219H634.994V215.496C634.023 215.923 633.069 216.136 632.13 216.136C631.117 216.136 630.327 215.907 629.762 215.448C629.197 214.979 628.914 214.28 628.914 213.352V210.584H630.05V213.288C630.05 213.917 630.253 214.397 630.658 214.728C631.063 215.048 631.623 215.208 632.338 215.208C633.127 215.208 634.013 215 634.994 214.584V210.584H636.13ZM639.356 210.584H640.492V217.272L646.108 210.584H647.116V219H645.98V212.312L640.38 219H639.356V210.584ZM661.471 213.224C662.25 213.384 662.842 213.699 663.247 214.168C663.653 214.627 663.855 215.229 663.855 215.976C663.855 216.947 663.509 217.693 662.815 218.216C662.133 218.739 661.125 219 659.791 219H654.831V207.8H659.487C660.682 207.8 661.615 208.045 662.287 208.536C662.959 209.027 663.295 209.736 663.295 210.664C663.295 211.293 663.135 211.827 662.815 212.264C662.495 212.691 662.047 213.011 661.471 213.224ZM655.999 212.872H659.423C660.287 212.872 660.949 212.696 661.407 212.344C661.877 211.992 662.111 211.48 662.111 210.808C662.111 210.136 661.877 209.624 661.407 209.272C660.949 208.92 660.287 208.744 659.423 208.744H655.999V212.872ZM659.791 218.056C661.722 218.056 662.687 217.336 662.687 215.896C662.687 214.488 661.722 213.784 659.791 213.784H655.999V218.056H659.791ZM666.655 219.08C666.42 219.08 666.218 218.995 666.047 218.824C665.887 218.653 665.807 218.445 665.807 218.2C665.807 217.955 665.887 217.752 666.047 217.592C666.218 217.421 666.42 217.336 666.655 217.336C666.89 217.336 667.092 217.421 667.263 217.592C667.434 217.752 667.519 217.955 667.519 218.2C667.519 218.445 667.434 218.653 667.263 218.824C667.092 218.995 666.89 219.08 666.655 219.08ZM679.038 207.8L673.95 217.224C673.587 217.896 673.16 218.397 672.67 218.728C672.19 219.048 671.662 219.208 671.086 219.208C670.659 219.208 670.2 219.107 669.71 218.904L670.046 217.944C670.43 218.093 670.782 218.168 671.102 218.168C671.838 218.168 672.44 217.768 672.91 216.968L673.23 216.424L668.686 207.8H669.95L673.854 215.384L677.854 207.8H679.038ZM680.342 219.08C680.108 219.08 679.905 218.995 679.734 218.824C679.574 218.653 679.494 218.445 679.494 218.2C679.494 217.955 679.574 217.752 679.734 217.592C679.905 217.421 680.108 217.336 680.342 217.336C680.577 217.336 680.78 217.421 680.95 217.592C681.121 217.752 681.206 217.955 681.206 218.2C681.206 218.445 681.121 218.653 680.95 218.824C680.78 218.995 680.577 219.08 680.342 219.08ZM683.733 212.264C683.498 212.264 683.296 212.179 683.125 212.008C682.965 211.837 682.885 211.629 682.885 211.384C682.885 211.139 682.965 210.936 683.125 210.776C683.296 210.605 683.498 210.52 683.733 210.52C683.968 210.52 684.17 210.605 684.341 210.776C684.512 210.936 684.597 211.139 684.597 211.384C684.597 211.629 684.512 211.837 684.341 212.008C684.17 212.179 683.968 212.264 683.733 212.264ZM683.733 219.08C683.498 219.08 683.296 218.995 683.125 218.824C682.965 218.653 682.885 218.445 682.885 218.2C682.885 217.955 682.965 217.752 683.125 217.592C683.296 217.421 683.498 217.336 683.733 217.336C683.968 217.336 684.17 217.421 684.341 217.592C684.512 217.752 684.597 217.955 684.597 218.2C684.597 218.445 684.512 218.653 684.341 218.824C684.17 218.995 683.968 219.08 683.733 219.08Z" fill="#828282"/>
<path opacity="0.35" d="M301 318H517" stroke="#5A13A7"/>
<path d="M307.79 302.096C306.681 302.096 305.678 301.851 304.782 301.36C303.897 300.869 303.198 300.192 302.686 299.328C302.185 298.453 301.934 297.477 301.934 296.4C301.934 295.323 302.185 294.352 302.686 293.488C303.198 292.613 303.902 291.931 304.798 291.44C305.694 290.949 306.697 290.704 307.806 290.704C308.638 290.704 309.406 290.843 310.11 291.12C310.814 291.397 311.411 291.803 311.902 292.336L311.15 293.088C310.275 292.203 309.171 291.76 307.838 291.76C306.953 291.76 306.147 291.963 305.422 292.368C304.697 292.773 304.126 293.328 303.71 294.032C303.305 294.736 303.102 295.525 303.102 296.4C303.102 297.275 303.305 298.064 303.71 298.768C304.126 299.472 304.697 300.027 305.422 300.432C306.147 300.837 306.953 301.04 307.838 301.04C309.182 301.04 310.286 300.592 311.15 299.696L311.902 300.448C311.411 300.981 310.809 301.392 310.094 301.68C309.39 301.957 308.622 302.096 307.79 302.096ZM319.761 294.592H316.577V302H315.441V294.592H312.257V293.584H319.761V294.592ZM324.299 293.52C325.398 293.52 326.24 293.797 326.827 294.352C327.414 294.896 327.707 295.707 327.707 296.784V302H326.619V300.688C326.363 301.125 325.984 301.467 325.483 301.712C324.992 301.957 324.406 302.08 323.723 302.08C322.784 302.08 322.038 301.856 321.483 301.408C320.928 300.96 320.651 300.368 320.651 299.632C320.651 298.917 320.907 298.341 321.419 297.904C321.942 297.467 322.768 297.248 323.899 297.248H326.571V296.736C326.571 296.011 326.368 295.461 325.963 295.088C325.558 294.704 324.966 294.512 324.187 294.512C323.654 294.512 323.142 294.603 322.651 294.784C322.16 294.955 321.739 295.195 321.387 295.504L320.875 294.656C321.302 294.293 321.814 294.016 322.411 293.824C323.008 293.621 323.638 293.52 324.299 293.52ZM323.899 301.184C324.539 301.184 325.088 301.04 325.547 300.752C326.006 300.453 326.347 300.027 326.571 299.472V298.096H323.931C322.491 298.096 321.771 298.597 321.771 299.6C321.771 300.091 321.958 300.48 322.331 300.768C322.704 301.045 323.227 301.184 323.899 301.184ZM338.107 298.256H336.283V302H335.147V298.256H333.323L330.747 302H329.387L332.411 297.664L329.627 293.584H330.859L333.323 297.28H335.147V293.584H336.283V297.28H338.107L340.587 293.584H341.819L339.035 297.68L342.059 302H340.699L338.107 298.256ZM353.497 297.648C354.639 297.915 355.209 298.603 355.209 299.712C355.209 300.448 354.937 301.013 354.393 301.408C353.849 301.803 353.039 302 351.961 302H348.137V293.584H351.849C352.809 293.584 353.561 293.771 354.105 294.144C354.649 294.517 354.921 295.051 354.921 295.744C354.921 296.203 354.793 296.597 354.537 296.928C354.292 297.248 353.945 297.488 353.497 297.648ZM349.241 297.328H351.769C352.42 297.328 352.916 297.205 353.257 296.96C353.609 296.715 353.785 296.357 353.785 295.888C353.785 295.419 353.609 295.067 353.257 294.832C352.916 294.597 352.42 294.48 351.769 294.48H349.241V297.328ZM351.913 301.104C352.639 301.104 353.183 300.987 353.545 300.752C353.908 300.517 354.089 300.149 354.089 299.648C354.089 299.147 353.924 298.779 353.593 298.544C353.263 298.299 352.74 298.176 352.025 298.176H349.241V301.104H351.913ZM361.344 302.08C360.533 302.08 359.803 301.899 359.152 301.536C358.501 301.163 357.989 300.651 357.616 300C357.243 299.349 357.056 298.613 357.056 297.792C357.056 296.971 357.243 296.235 357.616 295.584C357.989 294.933 358.501 294.427 359.152 294.064C359.803 293.701 360.533 293.52 361.344 293.52C362.155 293.52 362.885 293.701 363.536 294.064C364.187 294.427 364.693 294.933 365.056 295.584C365.429 296.235 365.616 296.971 365.616 297.792C365.616 298.613 365.429 299.349 365.056 300C364.693 300.651 364.187 301.163 363.536 301.536C362.885 301.899 362.155 302.08 361.344 302.08ZM361.344 301.072C361.941 301.072 362.475 300.939 362.944 300.672C363.424 300.395 363.797 300.005 364.064 299.504C364.331 299.003 364.464 298.432 364.464 297.792C364.464 297.152 364.331 296.581 364.064 296.08C363.797 295.579 363.424 295.195 362.944 294.928C362.475 294.651 361.941 294.512 361.344 294.512C360.747 294.512 360.208 294.651 359.728 294.928C359.259 295.195 358.885 295.579 358.608 296.08C358.341 296.581 358.208 297.152 358.208 297.792C358.208 298.432 358.341 299.003 358.608 299.504C358.885 300.005 359.259 300.395 359.728 300.672C360.208 300.939 360.747 301.072 361.344 301.072ZM375.123 298.256H373.299V302H372.163V298.256H370.339L367.763 302H366.403L369.427 297.664L366.643 293.584H367.875L370.339 297.28H372.163V293.584H373.299V297.28H375.123L377.603 293.584H378.835L376.051 297.68L379.075 302H377.715L375.123 298.256ZM389.174 301.008V304.032H388.102V302H380.566V304.032H379.494V301.008H379.974C380.539 300.976 380.923 300.56 381.126 299.76C381.328 298.96 381.467 297.84 381.542 296.4L381.654 293.584H387.862V301.008H389.174ZM382.582 296.464C382.528 297.659 382.427 298.645 382.278 299.424C382.128 300.192 381.862 300.72 381.478 301.008H386.726V294.592H382.678L382.582 296.464ZM398.747 298.144H391.707C391.771 299.019 392.107 299.728 392.715 300.272C393.323 300.805 394.091 301.072 395.019 301.072C395.542 301.072 396.022 300.981 396.459 300.8C396.897 300.608 397.275 300.331 397.595 299.968L398.235 300.704C397.862 301.152 397.393 301.493 396.827 301.728C396.273 301.963 395.659 302.08 394.987 302.08C394.123 302.08 393.355 301.899 392.683 301.536C392.022 301.163 391.505 300.651 391.131 300C390.758 299.349 390.571 298.613 390.571 297.792C390.571 296.971 390.747 296.235 391.099 295.584C391.462 294.933 391.953 294.427 392.571 294.064C393.201 293.701 393.905 293.52 394.683 293.52C395.462 293.52 396.161 293.701 396.779 294.064C397.398 294.427 397.883 294.933 398.235 295.584C398.587 296.224 398.763 296.96 398.763 297.792L398.747 298.144ZM394.683 294.496C393.873 294.496 393.19 294.757 392.635 295.28C392.091 295.792 391.782 296.464 391.707 297.296H397.675C397.601 296.464 397.286 295.792 396.731 295.28C396.187 294.757 395.505 294.496 394.683 294.496ZM401.278 293.584H402.414V297.312H407.71V293.584H408.846V302H407.71V298.288H402.414V302H401.278V293.584ZM412.075 293.584H413.211V300.272L418.827 293.584H419.835V302H418.699V295.312L413.099 302H412.075V293.584ZM429.555 293.584V302H428.515V299.216H425.875H425.555L423.603 302H422.371L424.467 299.056C423.816 298.875 423.315 298.565 422.963 298.128C422.611 297.691 422.435 297.136 422.435 296.464C422.435 295.525 422.755 294.811 423.395 294.32C424.035 293.829 424.909 293.584 426.019 293.584H429.555ZM423.587 296.496C423.587 297.744 424.381 298.368 425.971 298.368H428.515V294.592H426.051C424.408 294.592 423.587 295.227 423.587 296.496ZM432.874 295.264C432.639 295.264 432.436 295.179 432.266 295.008C432.106 294.837 432.026 294.629 432.026 294.384C432.026 294.139 432.106 293.936 432.266 293.776C432.436 293.605 432.639 293.52 432.874 293.52C433.108 293.52 433.311 293.605 433.482 293.776C433.652 293.936 433.738 294.139 433.738 294.384C433.738 294.629 433.652 294.837 433.482 295.008C433.311 295.179 433.108 295.264 432.874 295.264ZM432.874 302.08C432.639 302.08 432.436 301.995 432.266 301.824C432.106 301.653 432.026 301.445 432.026 301.2C432.026 300.955 432.106 300.752 432.266 300.592C432.436 300.421 432.639 300.336 432.874 300.336C433.108 300.336 433.311 300.421 433.482 300.592C433.652 300.752 433.738 300.955 433.738 301.2C433.738 301.445 433.652 301.653 433.482 301.824C433.311 301.995 433.108 302.08 432.874 302.08Z" fill="#828282"/>
<path opacity="0.35" d="M543 318H759" stroke="#5A13A7"/>
<path d="M549.79 302.096C548.681 302.096 547.678 301.851 546.782 301.36C545.897 300.869 545.198 300.192 544.686 299.328C544.185 298.453 543.934 297.477 543.934 296.4C543.934 295.323 544.185 294.352 544.686 293.488C545.198 292.613 545.902 291.931 546.798 291.44C547.694 290.949 548.697 290.704 549.806 290.704C550.638 290.704 551.406 290.843 552.11 291.12C552.814 291.397 553.411 291.803 553.902 292.336L553.15 293.088C552.275 292.203 551.171 291.76 549.838 291.76C548.953 291.76 548.147 291.963 547.422 292.368C546.697 292.773 546.126 293.328 545.71 294.032C545.305 294.736 545.102 295.525 545.102 296.4C545.102 297.275 545.305 298.064 545.71 298.768C546.126 299.472 546.697 300.027 547.422 300.432C548.147 300.837 548.953 301.04 549.838 301.04C551.182 301.04 552.286 300.592 553.15 299.696L553.902 300.448C553.411 300.981 552.809 301.392 552.094 301.68C551.39 301.957 550.622 302.096 549.79 302.096ZM561.761 294.592H558.577V302H557.441V294.592H554.257V293.584H561.761V294.592ZM567.739 293.52C568.528 293.52 569.243 293.701 569.883 294.064C570.523 294.416 571.024 294.917 571.387 295.568C571.75 296.219 571.931 296.96 571.931 297.792C571.931 298.635 571.75 299.381 571.387 300.032C571.024 300.683 570.523 301.189 569.883 301.552C569.254 301.904 568.539 302.08 567.739 302.08C567.056 302.08 566.438 301.941 565.883 301.664C565.339 301.376 564.891 300.96 564.539 300.416V305.104H563.403V293.584H564.491V295.248C564.832 294.693 565.28 294.267 565.835 293.968C566.4 293.669 567.035 293.52 567.739 293.52ZM567.659 301.072C568.246 301.072 568.779 300.939 569.259 300.672C569.739 300.395 570.112 300.005 570.379 299.504C570.656 299.003 570.795 298.432 570.795 297.792C570.795 297.152 570.656 296.587 570.379 296.096C570.112 295.595 569.739 295.205 569.259 294.928C568.779 294.651 568.246 294.512 567.659 294.512C567.062 294.512 566.523 294.651 566.043 294.928C565.574 295.205 565.2 295.595 564.923 296.096C564.656 296.587 564.523 297.152 564.523 297.792C564.523 298.432 564.656 299.003 564.923 299.504C565.2 300.005 565.574 300.395 566.043 300.672C566.523 300.939 567.062 301.072 567.659 301.072ZM577.221 293.52C578.32 293.52 579.162 293.797 579.749 294.352C580.336 294.896 580.629 295.707 580.629 296.784V302H579.541V300.688C579.285 301.125 578.906 301.467 578.405 301.712C577.914 301.957 577.328 302.08 576.645 302.08C575.706 302.08 574.96 301.856 574.405 301.408C573.85 300.96 573.573 300.368 573.573 299.632C573.573 298.917 573.829 298.341 574.341 297.904C574.864 297.467 575.69 297.248 576.821 297.248H579.493V296.736C579.493 296.011 579.29 295.461 578.885 295.088C578.48 294.704 577.888 294.512 577.109 294.512C576.576 294.512 576.064 294.603 575.573 294.784C575.082 294.955 574.661 295.195 574.309 295.504L573.797 294.656C574.224 294.293 574.736 294.016 575.333 293.824C575.93 293.621 576.56 293.52 577.221 293.52ZM576.821 301.184C577.461 301.184 578.01 301.04 578.469 300.752C578.928 300.453 579.269 300.027 579.493 299.472V298.096H576.853C575.413 298.096 574.693 298.597 574.693 299.6C574.693 300.091 574.88 300.48 575.253 300.768C575.626 301.045 576.149 301.184 576.821 301.184ZM583.653 293.584H584.789V297.312H590.085V293.584H591.221V302H590.085V298.288H584.789V302H583.653V293.584ZM597.346 293.52C598.445 293.52 599.287 293.797 599.874 294.352C600.461 294.896 600.754 295.707 600.754 296.784V302H599.666V300.688C599.41 301.125 599.031 301.467 598.53 301.712C598.039 301.957 597.453 302.08 596.77 302.08C595.831 302.08 595.085 301.856 594.53 301.408C593.975 300.96 593.698 300.368 593.698 299.632C593.698 298.917 593.954 298.341 594.466 297.904C594.989 297.467 595.815 297.248 596.946 297.248H599.618V296.736C599.618 296.011 599.415 295.461 599.01 295.088C598.605 294.704 598.013 294.512 597.234 294.512C596.701 294.512 596.189 294.603 595.698 294.784C595.207 294.955 594.786 295.195 594.434 295.504L593.922 294.656C594.349 294.293 594.861 294.016 595.458 293.824C596.055 293.621 596.685 293.52 597.346 293.52ZM596.946 301.184C597.586 301.184 598.135 301.04 598.594 300.752C599.053 300.453 599.394 300.027 599.618 299.472V298.096H596.978C595.538 298.096 594.818 298.597 594.818 299.6C594.818 300.091 595.005 300.48 595.378 300.768C595.751 301.045 596.274 301.184 596.946 301.184ZM613.326 297.648C614.467 297.915 615.038 298.603 615.038 299.712C615.038 300.448 614.766 301.013 614.222 301.408C613.678 301.803 612.867 302 611.79 302H607.966V293.584H611.678C612.638 293.584 613.39 293.771 613.934 294.144C614.478 294.517 614.75 295.051 614.75 295.744C614.75 296.203 614.622 296.597 614.366 296.928C614.12 297.248 613.774 297.488 613.326 297.648ZM609.07 297.328H611.598C612.248 297.328 612.744 297.205 613.086 296.96C613.438 296.715 613.614 296.357 613.614 295.888C613.614 295.419 613.438 295.067 613.086 294.832C612.744 294.597 612.248 294.48 611.598 294.48H609.07V297.328ZM611.742 301.104C612.467 301.104 613.011 300.987 613.374 300.752C613.736 300.517 613.918 300.149 613.918 299.648C613.918 299.147 613.752 298.779 613.422 298.544C613.091 298.299 612.568 298.176 611.854 298.176H609.07V301.104H611.742ZM621.236 296.56C622.292 296.571 623.097 296.805 623.652 297.264C624.207 297.723 624.484 298.384 624.484 299.248C624.484 300.144 624.185 300.832 623.588 301.312C622.991 301.792 622.137 302.027 621.028 302.016L617.7 302V293.584H618.836V296.528L621.236 296.56ZM625.892 293.584H627.028V302H625.892V293.584ZM620.964 301.152C621.743 301.163 622.329 301.008 622.724 300.688C623.129 300.357 623.332 299.877 623.332 299.248C623.332 298.629 623.135 298.171 622.74 297.872C622.345 297.573 621.753 297.419 620.964 297.408L618.836 297.376V301.12L620.964 301.152ZM638.47 301.008V304.032H637.398V302H629.862V304.032H628.79V301.008H629.27C629.836 300.976 630.22 300.56 630.422 299.76C630.625 298.96 630.764 297.84 630.838 296.4L630.95 293.584H637.158V301.008H638.47ZM631.878 296.464C631.825 297.659 631.724 298.645 631.574 299.424C631.425 300.192 631.158 300.72 630.774 301.008H636.022V294.592H631.974L631.878 296.464ZM643.58 293.52C644.679 293.52 645.522 293.797 646.108 294.352C646.695 294.896 646.988 295.707 646.988 296.784V302H645.9V300.688C645.644 301.125 645.266 301.467 644.764 301.712C644.274 301.957 643.687 302.08 643.004 302.08C642.066 302.08 641.319 301.856 640.764 301.408C640.21 300.96 639.932 300.368 639.932 299.632C639.932 298.917 640.188 298.341 640.7 297.904C641.223 297.467 642.05 297.248 643.18 297.248H645.852V296.736C645.852 296.011 645.65 295.461 645.244 295.088C644.839 294.704 644.247 294.512 643.468 294.512C642.935 294.512 642.423 294.603 641.932 294.784C641.442 294.955 641.02 295.195 640.668 295.504L640.156 294.656C640.583 294.293 641.095 294.016 641.692 293.824C642.29 293.621 642.919 293.52 643.58 293.52ZM643.18 301.184C643.82 301.184 644.37 301.04 644.828 300.752C645.287 300.453 645.628 300.027 645.852 299.472V298.096H643.212C641.772 298.096 641.052 298.597 641.052 299.6C641.052 300.091 641.239 300.48 641.612 300.768C641.986 301.045 642.508 301.184 643.18 301.184ZM656.364 293.584V302H655.228V298.496C654.258 298.923 653.303 299.136 652.364 299.136C651.351 299.136 650.562 298.907 649.996 298.448C649.431 297.979 649.148 297.28 649.148 296.352V293.584H650.284V296.288C650.284 296.917 650.487 297.397 650.892 297.728C651.298 298.048 651.858 298.208 652.572 298.208C653.362 298.208 654.247 298 655.228 297.584V293.584H656.364ZM659.591 293.584H660.727V300.272L666.343 293.584H667.351V302H666.215V295.312L660.615 302H659.591V293.584ZM670.686 295.264C670.452 295.264 670.249 295.179 670.078 295.008C669.918 294.837 669.838 294.629 669.838 294.384C669.838 294.139 669.918 293.936 670.078 293.776C670.249 293.605 670.452 293.52 670.686 293.52C670.921 293.52 671.124 293.605 671.294 293.776C671.465 293.936 671.55 294.139 671.55 294.384C671.55 294.629 671.465 294.837 671.294 295.008C671.124 295.179 670.921 295.264 670.686 295.264ZM670.686 302.08C670.452 302.08 670.249 301.995 670.078 301.824C669.918 301.653 669.838 301.445 669.838 301.2C669.838 300.955 669.918 300.752 670.078 300.592C670.249 300.421 670.452 300.336 670.686 300.336C670.921 300.336 671.124 300.421 671.294 300.592C671.465 300.752 671.55 300.955 671.55 301.2C671.55 301.445 671.465 301.653 671.294 301.824C671.124 301.995 670.921 302.08 670.686 302.08ZM685.096 296.224C685.875 296.384 686.467 296.699 686.872 297.168C687.278 297.627 687.48 298.229 687.48 298.976C687.48 299.947 687.134 300.693 686.44 301.216C685.758 301.739 684.75 302 683.416 302H678.456V290.8H683.112C684.307 290.8 685.24 291.045 685.912 291.536C686.584 292.027 686.92 292.736 686.92 293.664C686.92 294.293 686.76 294.827 686.44 295.264C686.12 295.691 685.672 296.011 685.096 296.224ZM679.624 295.872H683.048C683.912 295.872 684.574 295.696 685.032 295.344C685.502 294.992 685.736 294.48 685.736 293.808C685.736 293.136 685.502 292.624 685.032 292.272C684.574 291.92 683.912 291.744 683.048 291.744H679.624V295.872ZM683.416 301.056C685.347 301.056 686.312 300.336 686.312 298.896C686.312 297.488 685.347 296.784 683.416 296.784H679.624V301.056H683.416ZM690.28 302.08C690.045 302.08 689.843 301.995 689.672 301.824C689.512 301.653 689.432 301.445 689.432 301.2C689.432 300.955 689.512 300.752 689.672 300.592C689.843 300.421 690.045 300.336 690.28 300.336C690.515 300.336 690.717 300.421 690.888 300.592C691.059 300.752 691.144 300.955 691.144 301.2C691.144 301.445 691.059 301.653 690.888 301.824C690.717 301.995 690.515 302.08 690.28 302.08ZM702.663 290.8L697.575 300.224C697.212 300.896 696.785 301.397 696.295 301.728C695.815 302.048 695.287 302.208 694.711 302.208C694.284 302.208 693.825 302.107 693.335 301.904L693.671 300.944C694.055 301.093 694.407 301.168 694.727 301.168C695.463 301.168 696.065 300.768 696.535 299.968L696.855 299.424L692.311 290.8H693.575L697.479 298.384L701.479 290.8H702.663ZM703.967 302.08C703.733 302.08 703.53 301.995 703.359 301.824C703.199 301.653 703.119 301.445 703.119 301.2C703.119 300.955 703.199 300.752 703.359 300.592C703.53 300.421 703.733 300.336 703.967 300.336C704.202 300.336 704.405 300.421 704.575 300.592C704.746 300.752 704.831 300.955 704.831 301.2C704.831 301.445 704.746 301.653 704.575 301.824C704.405 301.995 704.202 302.08 703.967 302.08Z" fill="#828282"/>
<path opacity="0.35" d="M59 318H275" stroke="#5A13A7"/>
<path d="M65.7899 302.096C64.6805 302.096 63.6779 301.851 62.7819 301.36C61.8965 300.869 61.1979 300.192 60.6859 299.328C60.1845 298.453 59.9339 297.477 59.9339 296.4C59.9339 295.323 60.1845 294.352 60.6859 293.488C61.1979 292.613 61.9019 291.931 62.7979 291.44C63.6939 290.949 64.6965 290.704 65.8059 290.704C66.6379 290.704 67.4059 290.843 68.1099 291.12C68.8139 291.397 69.4112 291.803 69.9019 292.336L69.1499 293.088C68.2752 292.203 67.1712 291.76 65.8379 291.76C64.9525 291.76 64.1472 291.963 63.4219 292.368C62.6965 292.773 62.1259 293.328 61.7099 294.032C61.3045 294.736 61.1019 295.525 61.1019 296.4C61.1019 297.275 61.3045 298.064 61.7099 298.768C62.1259 299.472 62.6965 300.027 63.4219 300.432C64.1472 300.837 64.9525 301.04 65.8379 301.04C67.1819 301.04 68.2859 300.592 69.1499 299.696L69.9019 300.448C69.4112 300.981 68.8085 301.392 68.0939 301.68C67.3899 301.957 66.6219 302.096 65.7899 302.096ZM76.411 293.52C77.2003 293.52 77.915 293.701 78.555 294.064C79.195 294.416 79.6963 294.917 80.059 295.568C80.4217 296.219 80.603 296.96 80.603 297.792C80.603 298.635 80.4217 299.381 80.059 300.032C79.6963 300.683 79.195 301.189 78.555 301.552C77.9257 301.904 77.211 302.08 76.411 302.08C75.7283 302.08 75.1097 301.941 74.555 301.664C74.011 301.376 73.563 300.96 73.211 300.416V305.104H72.075V293.584H73.163V295.248C73.5043 294.693 73.9523 294.267 74.507 293.968C75.0723 293.669 75.707 293.52 76.411 293.52ZM76.331 301.072C76.9177 301.072 77.451 300.939 77.931 300.672C78.411 300.395 78.7843 300.005 79.051 299.504C79.3283 299.003 79.467 298.432 79.467 297.792C79.467 297.152 79.3283 296.587 79.051 296.096C78.7843 295.595 78.411 295.205 77.931 294.928C77.451 294.651 76.9177 294.512 76.331 294.512C75.7337 294.512 75.195 294.651 74.715 294.928C74.2457 295.205 73.8723 295.595 73.595 296.096C73.3283 296.587 73.195 297.152 73.195 297.792C73.195 298.432 73.3283 299.003 73.595 299.504C73.8723 300.005 74.2457 300.395 74.715 300.672C75.195 300.939 75.7337 301.072 76.331 301.072ZM86.5157 302.08C85.7051 302.08 84.9744 301.899 84.3237 301.536C83.6731 301.163 83.1611 300.651 82.7877 300C82.4144 299.349 82.2277 298.613 82.2277 297.792C82.2277 296.971 82.4144 296.235 82.7877 295.584C83.1611 294.933 83.6731 294.427 84.3237 294.064C84.9744 293.701 85.7051 293.52 86.5157 293.52C87.3264 293.52 88.0571 293.701 88.7077 294.064C89.3584 294.427 89.8651 294.933 90.2277 295.584C90.6011 296.235 90.7877 296.971 90.7877 297.792C90.7877 298.613 90.6011 299.349 90.2277 300C89.8651 300.651 89.3584 301.163 88.7077 301.536C88.0571 301.899 87.3264 302.08 86.5157 302.08ZM86.5157 301.072C87.1131 301.072 87.6464 300.939 88.1157 300.672C88.5957 300.395 88.9691 300.005 89.2357 299.504C89.5024 299.003 89.6357 298.432 89.6357 297.792C89.6357 297.152 89.5024 296.581 89.2357 296.08C88.9691 295.579 88.5957 295.195 88.1157 294.928C87.6464 294.651 87.1131 294.512 86.5157 294.512C85.9184 294.512 85.3797 294.651 84.8997 294.928C84.4304 295.195 84.0571 295.579 83.7797 296.08C83.5131 296.581 83.3797 297.152 83.3797 297.792C83.3797 298.432 83.5131 299.003 83.7797 299.504C84.0571 300.005 84.4304 300.395 84.8997 300.672C85.3797 300.939 85.9184 301.072 86.5157 301.072ZM96.2716 298.256H94.3516V302H93.2156V293.584H94.3516V297.28H96.2876L99.2476 293.584H100.48L97.1676 297.664L100.72 302H99.3756L96.2716 298.256ZM114.908 301.008V304.032H113.836V302H106.3V304.032H105.228V301.008H105.708C106.273 300.976 106.657 300.56 106.86 299.76C107.063 298.96 107.201 297.84 107.276 296.4L107.388 293.584H113.596V301.008H114.908ZM108.316 296.464C108.263 297.659 108.161 298.645 108.012 299.424C107.863 300.192 107.596 300.72 107.212 301.008H112.46V294.592H108.412L108.316 296.464ZM124.482 298.144H117.442C117.506 299.019 117.842 299.728 118.45 300.272C119.058 300.805 119.826 301.072 120.754 301.072C121.277 301.072 121.757 300.981 122.194 300.8C122.631 300.608 123.01 300.331 123.33 299.968L123.97 300.704C123.597 301.152 123.127 301.493 122.562 301.728C122.007 301.963 121.394 302.08 120.722 302.08C119.858 302.08 119.09 301.899 118.418 301.536C117.757 301.163 117.239 300.651 116.866 300C116.493 299.349 116.306 298.613 116.306 297.792C116.306 296.971 116.482 296.235 116.834 295.584C117.197 294.933 117.687 294.427 118.306 294.064C118.935 293.701 119.639 293.52 120.418 293.52C121.197 293.52 121.895 293.701 122.514 294.064C123.133 294.427 123.618 294.933 123.97 295.584C124.322 296.224 124.498 296.96 124.498 297.792L124.482 298.144ZM120.418 294.496C119.607 294.496 118.925 294.757 118.37 295.28C117.826 295.792 117.517 296.464 117.442 297.296H123.41C123.335 296.464 123.021 295.792 122.466 295.28C121.922 294.757 121.239 294.496 120.418 294.496ZM127.012 293.584H128.148V300.272L133.764 293.584H134.772V302H133.636V295.312L128.036 302H127.012V293.584ZM130.836 292.368C130.111 292.368 129.535 292.187 129.108 291.824C128.682 291.461 128.463 290.949 128.452 290.288H129.268C129.279 290.704 129.428 291.04 129.716 291.296C130.004 291.541 130.378 291.664 130.836 291.664C131.295 291.664 131.668 291.541 131.956 291.296C132.255 291.04 132.41 290.704 132.42 290.288H133.236C133.226 290.949 133.002 291.461 132.564 291.824C132.138 292.187 131.562 292.368 130.836 292.368ZM141.548 302.08C140.716 302.08 139.969 301.899 139.308 301.536C138.657 301.173 138.145 300.667 137.772 300.016C137.399 299.355 137.212 298.613 137.212 297.792C137.212 296.971 137.399 296.235 137.772 295.584C138.145 294.933 138.657 294.427 139.308 294.064C139.969 293.701 140.716 293.52 141.548 293.52C142.273 293.52 142.919 293.664 143.484 293.952C144.06 294.229 144.513 294.64 144.844 295.184L143.996 295.76C143.719 295.344 143.367 295.035 142.94 294.832C142.513 294.619 142.049 294.512 141.548 294.512C140.94 294.512 140.391 294.651 139.9 294.928C139.42 295.195 139.041 295.579 138.764 296.08C138.497 296.581 138.364 297.152 138.364 297.792C138.364 298.443 138.497 299.019 138.764 299.52C139.041 300.011 139.42 300.395 139.9 300.672C140.391 300.939 140.94 301.072 141.548 301.072C142.049 301.072 142.513 300.971 142.94 300.768C143.367 300.565 143.719 300.256 143.996 299.84L144.844 300.416C144.513 300.96 144.06 301.376 143.484 301.664C142.908 301.941 142.263 302.08 141.548 302.08ZM152.807 294.592H149.623V302H148.487V294.592H145.303V293.584H152.807V294.592ZM159.81 297.648C160.951 297.915 161.522 298.603 161.522 299.712C161.522 300.448 161.25 301.013 160.706 301.408C160.162 301.803 159.351 302 158.274 302H154.45V293.584H158.162C159.122 293.584 159.874 293.771 160.418 294.144C160.962 294.517 161.234 295.051 161.234 295.744C161.234 296.203 161.106 296.597 160.85 296.928C160.605 297.248 160.258 297.488 159.81 297.648ZM155.554 297.328H158.082C158.733 297.328 159.229 297.205 159.57 296.96C159.922 296.715 160.098 296.357 160.098 295.888C160.098 295.419 159.922 295.067 159.57 294.832C159.229 294.597 158.733 294.48 158.082 294.48H155.554V297.328ZM158.226 301.104C158.951 301.104 159.495 300.987 159.858 300.752C160.221 300.517 160.402 300.149 160.402 299.648C160.402 299.147 160.237 298.779 159.906 298.544C159.575 298.299 159.053 298.176 158.338 298.176H155.554V301.104H158.226ZM164.184 293.584H165.32V300.272L170.936 293.584H171.944V302H170.808V295.312L165.208 302H164.184V293.584ZM181.664 293.584V302H180.624V299.216H177.984H177.664L175.712 302H174.48L176.576 299.056C175.925 298.875 175.424 298.565 175.072 298.128C174.72 297.691 174.544 297.136 174.544 296.464C174.544 295.525 174.864 294.811 175.504 294.32C176.144 293.829 177.019 293.584 178.128 293.584H181.664ZM175.696 296.496C175.696 297.744 176.491 298.368 178.08 298.368H180.624V294.592H178.16C176.517 294.592 175.696 295.227 175.696 296.496ZM196.003 296.224C196.781 296.384 197.373 296.699 197.779 297.168C198.184 297.627 198.387 298.229 198.387 298.976C198.387 299.947 198.04 300.693 197.347 301.216C196.664 301.739 195.656 302 194.323 302H189.363V290.8H194.019C195.213 290.8 196.147 291.045 196.819 291.536C197.491 292.027 197.827 292.736 197.827 293.664C197.827 294.293 197.667 294.827 197.347 295.264C197.027 295.691 196.579 296.011 196.003 296.224ZM190.531 295.872H193.955C194.819 295.872 195.48 295.696 195.939 295.344C196.408 294.992 196.643 294.48 196.643 293.808C196.643 293.136 196.408 292.624 195.939 292.272C195.48 291.92 194.819 291.744 193.955 291.744H190.531V295.872ZM194.323 301.056C196.253 301.056 197.219 300.336 197.219 298.896C197.219 297.488 196.253 296.784 194.323 296.784H190.531V301.056H194.323ZM201.186 302.08C200.952 302.08 200.749 301.995 200.578 301.824C200.418 301.653 200.338 301.445 200.338 301.2C200.338 300.955 200.418 300.752 200.578 300.592C200.749 300.421 200.952 300.336 201.186 300.336C201.421 300.336 201.624 300.421 201.794 300.592C201.965 300.752 202.05 300.955 202.05 301.2C202.05 301.445 201.965 301.653 201.794 301.824C201.624 301.995 201.421 302.08 201.186 302.08ZM213.569 290.8L208.481 300.224C208.118 300.896 207.692 301.397 207.201 301.728C206.721 302.048 206.193 302.208 205.617 302.208C205.19 302.208 204.732 302.107 204.241 301.904L204.577 300.944C204.961 301.093 205.313 301.168 205.633 301.168C206.369 301.168 206.972 300.768 207.441 299.968L207.761 299.424L203.217 290.8H204.481L208.385 298.384L212.385 290.8H213.569ZM214.874 302.08C214.639 302.08 214.436 301.995 214.266 301.824C214.106 301.653 214.026 301.445 214.026 301.2C214.026 300.955 214.106 300.752 214.266 300.592C214.436 300.421 214.639 300.336 214.874 300.336C215.108 300.336 215.311 300.421 215.482 300.592C215.652 300.752 215.738 300.955 215.738 301.2C215.738 301.445 215.652 301.653 215.482 301.824C215.311 301.995 215.108 302.08 214.874 302.08ZM218.264 295.264C218.03 295.264 217.827 295.179 217.656 295.008C217.496 294.837 217.416 294.629 217.416 294.384C217.416 294.139 217.496 293.936 217.656 293.776C217.827 293.605 218.03 293.52 218.264 293.52C218.499 293.52 218.702 293.605 218.872 293.776C219.043 293.936 219.128 294.139 219.128 294.384C219.128 294.629 219.043 294.837 218.872 295.008C218.702 295.179 218.499 295.264 218.264 295.264ZM218.264 302.08C218.03 302.08 217.827 301.995 217.656 301.824C217.496 301.653 217.416 301.445 217.416 301.2C217.416 300.955 217.496 300.752 217.656 300.592C217.827 300.421 218.03 300.336 218.264 300.336C218.499 300.336 218.702 300.421 218.872 300.592C219.043 300.752 219.128 300.955 219.128 301.2C219.128 301.445 219.043 301.653 218.872 301.824C218.702 301.995 218.499 302.08 218.264 302.08Z" fill="#828282"/>
</svg>
