<svg width="129" height="112" viewBox="0 0 129 112" fill="none" xmlns="http://www.w3.org/2000/svg">
<rect width="128" height="112" rx="15" fill="white"/>
<rect x="0.5" y="0.5" width="127" height="111" rx="14.5" stroke="#B8B5FF" stroke-opacity="0.15"/>
<path d="M21.2031 52.3242H21.3848C22.0293 52.3281 22.6172 52.4785 23.1484 52.7754C23.6797 53.0723 24.0918 53.4824 24.3848 54.0059C24.6816 54.5254 24.8301 55.1074 24.8301 55.752C24.8301 56.4004 24.6816 56.9883 24.3848 57.5156C24.0879 58.043 23.6777 58.4551 23.1543 58.752C22.6309 59.0449 22.0488 59.1953 21.4082 59.2031H21.2031V60.3516H20.1133V59.2031H19.9492C19.2969 59.2031 18.7031 59.0547 18.168 58.7578C17.6367 58.4609 17.2227 58.0508 16.9258 57.5273C16.6328 57.0039 16.4863 56.416 16.4863 55.7637C16.4863 55.1113 16.6328 54.5234 16.9258 54C17.2227 53.4766 17.6367 53.0664 18.168 52.7695C18.7031 52.4727 19.2969 52.3242 19.9492 52.3242H20.1133V51.1172H21.2031V52.3242ZM19.9492 53.209C19.2148 53.209 18.6328 53.4355 18.2031 53.8887C17.7773 54.3379 17.5645 54.9629 17.5645 55.7637C17.5645 56.5684 17.7773 57.1953 18.2031 57.6445C18.6289 58.0898 19.2148 58.3125 19.9609 58.3125H20.1133V53.209H19.9492ZM21.2031 53.209V58.3125H21.3672C22.1133 58.3125 22.6953 58.084 23.1133 57.627C23.5352 57.166 23.7461 56.541 23.7461 55.752C23.7461 54.9707 23.5352 54.3516 23.1133 53.8945C22.6953 53.4375 22.1055 53.209 21.3438 53.209H21.2031ZM25.791 56.7715C25.791 56.1504 25.9121 55.5918 26.1543 55.0957C26.4004 54.5996 26.7402 54.2168 27.1738 53.9473C27.6113 53.6777 28.1094 53.543 28.668 53.543C29.5312 53.543 30.2285 53.8418 30.7598 54.4395C31.2949 55.0371 31.5625 55.832 31.5625 56.8242V56.9004C31.5625 57.5176 31.4434 58.0723 31.2051 58.5645C30.9707 59.0527 30.6328 59.4336 30.1914 59.707C29.7539 59.9805 29.25 60.1172 28.6797 60.1172C27.8203 60.1172 27.123 59.8184 26.5879 59.2207C26.0566 58.623 25.791 57.832 25.791 56.8477V56.7715ZM26.8809 56.9004C26.8809 57.6035 27.043 58.168 27.3672 58.5938C27.6953 59.0195 28.1328 59.2324 28.6797 59.2324C29.2305 59.2324 29.668 59.0176 29.9922 58.5879C30.3164 58.1543 30.4785 57.5488 30.4785 56.7715C30.4785 56.0762 30.3125 55.5137 29.9805 55.084C29.6523 54.6504 29.2148 54.4336 28.668 54.4336C28.1328 54.4336 27.7012 54.6465 27.373 55.0723C27.0449 55.498 26.8809 56.1074 26.8809 56.9004ZM37.5039 54.5391H35.377V60H34.293V54.5391H32.207V53.6602H37.5039V54.5391ZM38.0254 56.7715C38.0254 56.1504 38.1465 55.5918 38.3887 55.0957C38.6348 54.5996 38.9746 54.2168 39.4082 53.9473C39.8457 53.6777 40.3438 53.543 40.9023 53.543C41.7656 53.543 42.4629 53.8418 42.9941 54.4395C43.5293 55.0371 43.7969 55.832 43.7969 56.8242V56.9004C43.7969 57.5176 43.6777 58.0723 43.4395 58.5645C43.2051 59.0527 42.8672 59.4336 42.4258 59.707C41.9883 59.9805 41.4844 60.1172 40.9141 60.1172C40.0547 60.1172 39.3574 59.8184 38.8223 59.2207C38.291 58.623 38.0254 57.832 38.0254 56.8477V56.7715ZM39.1152 56.9004C39.1152 57.6035 39.2773 58.168 39.6016 58.5938C39.9297 59.0195 40.3672 59.2324 40.9141 59.2324C41.4648 59.2324 41.9023 59.0176 42.2266 58.5879C42.5508 58.1543 42.7129 57.5488 42.7129 56.7715C42.7129 56.0762 42.5469 55.5137 42.2148 55.084C41.8867 54.6504 41.4492 54.4336 40.9023 54.4336C40.3672 54.4336 39.9355 54.6465 39.6074 55.0723C39.2793 55.498 39.1152 56.1074 39.1152 56.9004ZM52.0469 60C51.9844 59.875 51.9336 59.6523 51.8945 59.332C51.3906 59.8555 50.7891 60.1172 50.0898 60.1172C49.4648 60.1172 48.9512 59.9414 48.5488 59.5898C48.1504 59.2344 47.9512 58.7852 47.9512 58.2422C47.9512 57.582 48.2012 57.0703 48.7012 56.707C49.2051 56.3398 49.9121 56.1562 50.8223 56.1562H51.877V55.6582C51.877 55.2793 51.7637 54.9785 51.5371 54.7559C51.3105 54.5293 50.9766 54.416 50.5352 54.416C50.1484 54.416 49.8242 54.5137 49.5625 54.709C49.3008 54.9043 49.1699 55.1406 49.1699 55.418H48.0801C48.0801 55.1016 48.1914 54.7969 48.4141 54.5039C48.6406 54.207 48.9453 53.9727 49.3281 53.8008C49.7148 53.6289 50.1387 53.543 50.5996 53.543C51.3301 53.543 51.9023 53.7266 52.3164 54.0938C52.7305 54.457 52.9453 54.959 52.9609 55.5996V58.5176C52.9609 59.0996 53.0352 59.5625 53.1836 59.9062V60H52.0469ZM50.248 59.1738C50.5879 59.1738 50.9102 59.0859 51.2148 58.9102C51.5195 58.7344 51.7402 58.5059 51.877 58.2246V56.9238H51.0273C49.6992 56.9238 49.0352 57.3125 49.0352 58.0898C49.0352 58.4297 49.1484 58.6953 49.375 58.8867C49.6016 59.0781 49.8926 59.1738 50.248 59.1738ZM54.7598 60V53.6602H57.2324C58.0762 53.6602 58.7227 53.8086 59.1719 54.1055C59.625 54.3984 59.8516 54.8301 59.8516 55.4004C59.8516 55.6934 59.7637 55.959 59.5879 56.1973C59.4121 56.4316 59.1523 56.6113 58.8086 56.7363C59.1914 56.8262 59.498 57.002 59.7285 57.2637C59.9629 57.5254 60.0801 57.8379 60.0801 58.2012C60.0801 58.7832 59.8652 59.2285 59.4355 59.5371C59.0098 59.8457 58.4062 60 57.625 60H54.7598ZM55.8438 57.2168V59.127H57.6367C58.0898 59.127 58.4277 59.043 58.6504 58.875C58.877 58.707 58.9902 58.4707 58.9902 58.166C58.9902 57.5332 58.5254 57.2168 57.5957 57.2168H55.8438ZM55.8438 56.3496H57.2441C58.2598 56.3496 58.7676 56.0527 58.7676 55.459C58.7676 54.8652 58.2871 54.5586 57.3262 54.5391H55.8438V56.3496ZM66.1562 54.5391H64.0293V60H62.9453V54.5391H60.8594V53.6602H66.1562V54.5391ZM66.6777 56.7715C66.6777 56.1504 66.7988 55.5918 67.041 55.0957C67.2871 54.5996 67.627 54.2168 68.0605 53.9473C68.498 53.6777 68.9961 53.543 69.5547 53.543C70.418 53.543 71.1152 53.8418 71.6465 54.4395C72.1816 55.0371 72.4492 55.832 72.4492 56.8242V56.9004C72.4492 57.5176 72.3301 58.0723 72.0918 58.5645C71.8574 59.0527 71.5195 59.4336 71.0781 59.707C70.6406 59.9805 70.1367 60.1172 69.5664 60.1172C68.707 60.1172 68.0098 59.8184 67.4746 59.2207C66.9434 58.623 66.6777 57.832 66.6777 56.8477V56.7715ZM67.7676 56.9004C67.7676 57.6035 67.9297 58.168 68.2539 58.5938C68.582 59.0195 69.0195 59.2324 69.5664 59.2324C70.1172 59.2324 70.5547 59.0176 70.8789 58.5879C71.2031 58.1543 71.3652 57.5488 71.3652 56.7715C71.3652 56.0762 71.1992 55.5137 70.8672 55.084C70.5391 54.6504 70.1016 54.4336 69.5547 54.4336C69.0195 54.4336 68.5879 54.6465 68.2598 55.0723C67.9316 55.498 67.7676 56.1074 67.7676 56.9004ZM77.459 58.5645L79.6152 53.6602H80.9688V60H79.8848V55.3887L77.834 60H77.084L74.9922 55.2891V60H73.9082V53.6602H75.3145L77.459 58.5645ZM82.4277 56.7715C82.4277 56.1504 82.5488 55.5918 82.791 55.0957C83.0371 54.5996 83.377 54.2168 83.8105 53.9473C84.248 53.6777 84.7461 53.543 85.3047 53.543C86.168 53.543 86.8652 53.8418 87.3965 54.4395C87.9316 55.0371 88.1992 55.832 88.1992 56.8242V56.9004C88.1992 57.5176 88.0801 58.0723 87.8418 58.5645C87.6074 59.0527 87.2695 59.4336 86.8281 59.707C86.3906 59.9805 85.8867 60.1172 85.3164 60.1172C84.457 60.1172 83.7598 59.8184 83.2246 59.2207C82.6934 58.623 82.4277 57.832 82.4277 56.8477V56.7715ZM83.5176 56.9004C83.5176 57.6035 83.6797 58.168 84.0039 58.5938C84.332 59.0195 84.7695 59.2324 85.3164 59.2324C85.8672 59.2324 86.3047 59.0176 86.6289 58.5879C86.9531 58.1543 87.1152 57.5488 87.1152 56.7715C87.1152 56.0762 86.9492 55.5137 86.6172 55.084C86.2891 54.6504 85.8516 54.4336 85.3047 54.4336C84.7695 54.4336 84.3379 54.6465 84.0098 55.0723C83.6816 55.498 83.5176 56.1074 83.5176 56.9004ZM92.3418 54.0234C93.1387 54.0234 93.7754 54.291 94.252 54.8262C94.7324 55.3574 94.9727 56.0586 94.9727 56.9297V57.0293C94.9727 57.627 94.8574 58.1621 94.627 58.6348C94.3965 59.1035 94.0645 59.4688 93.6309 59.7305C93.2012 59.9883 92.7051 60.1172 92.1426 60.1172C91.291 60.1172 90.6055 59.834 90.0859 59.2676C89.5664 58.6973 89.3066 57.9336 89.3066 56.9766V56.4492C89.3066 55.1172 89.5527 54.0586 90.0449 53.2734C90.541 52.4883 91.2715 52.0098 92.2363 51.8379C92.7832 51.7402 93.1523 51.6211 93.3438 51.4805C93.5352 51.3398 93.6309 51.1465 93.6309 50.9004H94.5215C94.5215 51.3887 94.4102 51.7695 94.1875 52.043C93.9688 52.3164 93.6172 52.5098 93.1328 52.623L92.3242 52.8047C91.6797 52.957 91.1953 53.2148 90.8711 53.5781C90.5508 53.9375 90.3418 54.418 90.2441 55.0195C90.8184 54.3555 91.5176 54.0234 92.3418 54.0234ZM92.1309 54.9141C91.5996 54.9141 91.1777 55.0938 90.8652 55.4531C90.5527 55.8086 90.3965 56.3027 90.3965 56.9355V57.0293C90.3965 57.709 90.5527 58.248 90.8652 58.6465C91.1816 59.041 91.6074 59.2383 92.1426 59.2383C92.6816 59.2383 93.1074 59.0391 93.4199 58.6406C93.7324 58.2422 93.8887 57.6602 93.8887 56.8945C93.8887 56.2969 93.7305 55.8184 93.4141 55.459C93.1016 55.0957 92.6738 54.9141 92.1309 54.9141ZM100.188 53.6602H101.271V60H100.188V55.377L97.2637 60H96.1797V53.6602H97.2637V58.2891L100.188 53.6602ZM108.209 53.6602V60H107.119V54.5566H104.963L104.834 56.9297C104.764 58.0195 104.58 58.7988 104.283 59.2676C103.99 59.7363 103.523 59.9805 102.883 60H102.449V59.0449L102.76 59.0215C103.111 58.9824 103.363 58.7793 103.516 58.4121C103.668 58.0449 103.766 57.3652 103.809 56.373L103.926 53.6602H108.209ZM114.795 53.6602V60H113.705V57.5332H112.07L110.576 60H109.404L110.998 57.3691C110.592 57.2207 110.279 56.9922 110.061 56.6836C109.846 56.3711 109.738 56.0078 109.738 55.5938C109.738 55.0156 109.955 54.5508 110.389 54.1992C110.822 53.8438 111.402 53.6641 112.129 53.6602H114.795ZM110.828 55.6055C110.828 55.9141 110.934 56.1641 111.145 56.3555C111.355 56.543 111.635 56.6387 111.982 56.6426H113.705V54.5391H112.146C111.744 54.5391 111.424 54.6387 111.186 54.8379C110.947 55.0332 110.828 55.2891 110.828 55.6055ZM16.7793 72.5371C16.7793 71.6543 16.8965 70.8066 17.1309 69.9941C17.3691 69.1816 17.7227 68.4434 18.1914 67.7793C18.6602 67.1152 19.1465 66.6465 19.6504 66.373L19.873 67.0879C19.3027 67.5254 18.834 68.1934 18.4668 69.0918C18.1035 69.9902 17.9043 70.9961 17.8691 72.1094L17.8633 72.6074C17.8633 74.1152 18.1387 75.4238 18.6895 76.5332C19.0215 77.1973 19.416 77.7168 19.873 78.0918L19.6504 78.7539C19.1309 78.4648 18.6348 77.9805 18.1621 77.3008C17.2402 75.9727 16.7793 74.3848 16.7793 72.5371ZM27.3672 73.293C27.2617 74.1953 26.9277 74.8926 26.3652 75.3848C25.8066 75.873 25.0625 76.1172 24.1328 76.1172C23.125 76.1172 22.3164 75.7559 21.707 75.0332C21.1016 74.3105 20.7988 73.3438 20.7988 72.1328V71.3125C20.7988 70.5195 20.9395 69.8223 21.2207 69.2207C21.5059 68.6191 21.9082 68.1582 22.4277 67.8379C22.9473 67.5137 23.5488 67.3516 24.2324 67.3516C25.1387 67.3516 25.8652 67.6055 26.4121 68.1133C26.959 68.6172 27.2773 69.3164 27.3672 70.2109H26.2363C26.1387 69.5312 25.9258 69.0391 25.5977 68.7344C25.2734 68.4297 24.8184 68.2773 24.2324 68.2773C23.5137 68.2773 22.9492 68.543 22.5391 69.0742C22.1328 69.6055 21.9297 70.3613 21.9297 71.3418V72.168C21.9297 73.0938 22.123 73.8301 22.5098 74.377C22.8965 74.9238 23.4375 75.1973 24.1328 75.1973C24.7578 75.1973 25.2363 75.0566 25.5684 74.7754C25.9043 74.4902 26.127 73.9961 26.2363 73.293H27.3672ZM33.9238 76H32.8398V70.5566H29.9219V76H28.832V69.6602H33.9238V76ZM38.2949 76.1172C37.4355 76.1172 36.7363 75.8359 36.1973 75.2734C35.6582 74.707 35.3887 73.9512 35.3887 73.0059V72.8066C35.3887 72.1777 35.5078 71.6172 35.7461 71.125C35.9883 70.6289 36.3242 70.2422 36.7539 69.9648C37.1875 69.6836 37.6562 69.543 38.1602 69.543C38.9844 69.543 39.625 69.8145 40.082 70.3574C40.5391 70.9004 40.7676 71.6777 40.7676 72.6895V73.1406H36.4727C36.4883 73.7656 36.6699 74.2715 37.0176 74.6582C37.3691 75.041 37.8145 75.2324 38.3535 75.2324C38.7363 75.2324 39.0605 75.1543 39.3262 74.998C39.5918 74.8418 39.8242 74.6348 40.0234 74.377L40.6855 74.8926C40.1543 75.709 39.3574 76.1172 38.2949 76.1172ZM38.1602 70.4336C37.7227 70.4336 37.3555 70.5938 37.0586 70.9141C36.7617 71.2305 36.5781 71.6758 36.5078 72.25H39.6836V72.168C39.6523 71.6172 39.5039 71.1914 39.2383 70.8906C38.9727 70.5859 38.6133 70.4336 38.1602 70.4336ZM47.3828 72.9004C47.3828 73.8652 47.1621 74.6426 46.7207 75.2324C46.2793 75.8223 45.6816 76.1172 44.9277 76.1172C44.1582 76.1172 43.5527 75.873 43.1113 75.3848V78.4375H42.0273V69.6602H43.0176L43.0703 70.3633C43.5117 69.8164 44.125 69.543 44.9102 69.543C45.6719 69.543 46.2734 69.8301 46.7148 70.4043C47.1602 70.9785 47.3828 71.7773 47.3828 72.8008V72.9004ZM46.2988 72.7773C46.2988 72.0625 46.1465 71.498 45.8418 71.084C45.5371 70.6699 45.1191 70.4629 44.5879 70.4629C43.9316 70.4629 43.4395 70.7539 43.1113 71.3359V74.3652C43.4355 74.9434 43.9316 75.2324 44.5996 75.2324C45.1191 75.2324 45.5312 75.0273 45.8359 74.6172C46.1445 74.2031 46.2988 73.5898 46.2988 72.7773ZM51.3965 76.1172C50.5371 76.1172 49.8379 75.8359 49.2988 75.2734C48.7598 74.707 48.4902 73.9512 48.4902 73.0059V72.8066C48.4902 72.1777 48.6094 71.6172 48.8477 71.125C49.0898 70.6289 49.4258 70.2422 49.8555 69.9648C50.2891 69.6836 50.7578 69.543 51.2617 69.543C52.0859 69.543 52.7266 69.8145 53.1836 70.3574C53.6406 70.9004 53.8691 71.6777 53.8691 72.6895V73.1406H49.5742C49.5898 73.7656 49.7715 74.2715 50.1191 74.6582C50.4707 75.041 50.916 75.2324 51.4551 75.2324C51.8379 75.2324 52.1621 75.1543 52.4277 74.998C52.6934 74.8418 52.9258 74.6348 53.125 74.377L53.7871 74.8926C53.2559 75.709 52.459 76.1172 51.3965 76.1172ZM51.2617 70.4336C50.8242 70.4336 50.457 70.5938 50.1602 70.9141C49.8633 71.2305 49.6797 71.6758 49.6094 72.25H52.7852V72.168C52.7539 71.6172 52.6055 71.1914 52.3398 70.8906C52.0742 70.5859 51.7148 70.4336 51.2617 70.4336ZM55.0762 75.1152L55.4512 74.6523C55.873 74.1055 56.1133 73.2852 56.1719 72.1914L56.2715 69.6602H60.3555V75.1152H61.1699V77.8633H60.0859V76H55.6621V77.8633H54.5781L54.584 75.1152H55.0762ZM56.3594 75.1152H59.2715V70.6621H57.3203L57.2559 72.1738C57.1895 73.4355 56.8906 74.416 56.3594 75.1152ZM66.4727 69.6602H67.5566V76H66.4727V71.377L63.5488 76H62.4648V69.6602H63.5488V74.2891L66.4727 69.6602ZM71.7988 72.5957C71.7988 73.4668 71.6836 74.3027 71.4531 75.1035C71.2266 75.9004 70.877 76.6367 70.4043 77.3125C69.9355 77.9883 69.4434 78.4688 68.9277 78.7539L68.6992 78.0918C69.3008 77.6309 69.7832 76.916 70.1465 75.9473C70.5137 74.9746 70.7012 73.8965 70.709 72.7129V72.5254C70.709 71.7051 70.623 70.9434 70.4512 70.2402C70.2793 69.5332 70.0391 68.9004 69.7305 68.3418C69.4258 67.7832 69.082 67.3477 68.6992 67.0352L68.9277 66.373C69.4434 66.6582 69.9336 67.1348 70.3984 67.8027C70.8672 68.4707 71.2168 69.207 71.4473 70.0117C71.6816 70.8164 71.7988 71.6777 71.7988 72.5957Z" fill="#828282"/>
<path d="M17.3612 36.6187C16.6199 34.1125 15.9916 28.606 19.4085 26.6293C22.8254 24.6525 24.7151 23.7465 25.2328 23.5406C27.2095 21.9228 31.763 18.5918 34.1633 18.2105C37.1637 17.734 41.1348 17.3634 43.9939 17.5399C46.8531 17.7164 49.7829 17.2575 51.1948 21.3345C51.6714 23.0641 51.3713 27.2999 50.8066 27.7588C50.7948 28.5295 50.6124 30.1697 49.977 30.565C49.3417 30.9604 48.1592 30.7298 47.6473 30.565V30.265L42.0349 34.9068H41.8407C41.6525 36.1775 41.0077 38.8461 39.9346 39.3544C38.8615 39.8627 37.4872 39.6368 36.9342 39.4603C36.8107 39.425 36.5636 39.2697 36.5636 38.9308C35.6105 39.4603 28.5685 40.5192 25.2328 39.5838C22.5642 38.8355 18.8731 37.2953 17.3612 36.6187ZM32.0872 18.9848C34.743 18.9182 41.0046 18.8249 42.0327 18.9848C43.3177 19.1847 43.4891 19.0705 42.975 20.0986C42.5638 20.921 41.3378 23.0875 40.7762 24.068C40.6048 24.4963 39.7214 25.1915 37.5207 25.096C34.6222 24.9702 30.9744 24.5436 30.1244 24.4392C29.2744 24.3348 26.9546 23.9633 25.6696 23.811C25.5553 23.7729 25.159 23.5389 25.7758 23.1048C26.5468 22.5622 30.0475 19.8053 32.0872 18.9848ZM28.4969 32.9887C27.4307 32.9033 26.8036 32.1711 27.7114 31.6488C29.5456 30.5934 34.6643 29.2545 36.9342 28.5992C36.6518 29.5233 35.7023 31.4917 34.1633 31.9722C32.6243 32.4527 29.7445 32.8501 28.4969 32.9887ZM17.5688 32.8621C17.3946 32.6598 16.9907 32.2403 17.0343 31.6731C17.0888 30.9641 17.0888 30.5496 17.7979 30.7132C18.5069 30.8768 23.8627 32.2621 24.299 32.3167C24.7353 32.3712 25.9134 33.0584 26.4697 33.582C26.9147 34.0008 27.1787 34.2874 27.255 34.3783C26.8769 34.6291 25.9243 35.1156 25.1389 35.0546C24.1572 34.9782 20.7103 34.1383 20.3939 34.0074C20.1409 33.9027 18.3542 33.4402 17.5688 32.8621Z" stroke="#6979F8" stroke-width="1.5" stroke-linejoin="round"/>
</svg>
