<svg width="24" height="24" viewBox="0 0 24 24" fill="none" xmlns="http://www.w3.org/2000/svg">
<path fill-rule="evenodd" clip-rule="evenodd" d="M4 4.00005C4 2.23274 5.43269 0.800049 7.2 0.800049H15.3882C15.8301 0.800049 16.1882 1.15822 16.1882 1.60005C16.1882 2.04188 15.8301 2.40005 15.3882 2.40005H7.2C6.31635 2.40005 5.6 3.11639 5.6 4.00005V20C5.6 20.8837 6.31634 21.6 7.2 21.6H16.8C17.6837 21.6 18.4 20.8837 18.4 20V7.84005C18.4 7.39822 18.7582 7.04005 19.2 7.04005C19.6418 7.04005 20 7.39822 20 7.84005V20C20 21.7674 18.5673 23.2 16.8 23.2H7.2C5.43269 23.2 4 21.7674 4 20V4.00005Z" fill="white"/>
<circle cx="11.9992" cy="18.4" r="0.8" fill="white"/>
<path fill-rule="evenodd" clip-rule="evenodd" d="M20.5665 1.83429C20.8789 2.14671 20.8789 2.65324 20.5665 2.96566L12.5665 10.9657C12.254 11.2781 11.7475 11.2781 11.4351 10.9657L9.0351 8.56566C8.72268 8.25324 8.72268 7.74671 9.0351 7.43429C9.34752 7.12187 9.85405 7.12187 10.1665 7.43429L12.0008 9.26861L19.4351 1.83429C19.7475 1.52187 20.254 1.52187 20.5665 1.83429Z" fill="white"/>
</svg>
