<svg width="24" height="16" viewBox="0 0 24 16" fill="none" xmlns="http://www.w3.org/2000/svg">
<path fill-rule="evenodd" clip-rule="evenodd" d="M21.736 2.6152H2.26395C1.95136 2.6152 1.69796 2.8686 1.69796 3.18119V13.0533C1.69796 13.3659 1.95136 13.6193 2.26395 13.6193H21.736C22.0486 13.6193 22.302 13.3659 22.302 13.0533V3.18119C22.302 2.8686 22.0486 2.6152 21.736 2.6152ZM2.26395 0.917236C1.0136 0.917236 0 1.93084 0 3.18119V13.0533C0 14.3036 1.01361 15.3172 2.26395 15.3172H21.736C22.9864 15.3172 24 14.3036 24 13.0533V3.18119C24 1.93084 22.9864 0.917236 21.736 0.917236H2.26395Z" fill="#219653"/>
<path d="M13.8891 6.86222C13.8891 6.57812 13.7875 6.34801 13.5844 6.17188C13.3813 5.99574 13.1141 5.90767 12.7828 5.90767H11.2828V7.81676H12.7828C13.1141 7.81676 13.3813 7.72869 13.5844 7.55256C13.7875 7.37642 13.8891 7.14631 13.8891 6.86222ZM15 6.86222C15 7.41051 14.8023 7.85795 14.407 8.20455C14.0117 8.55114 13.5016 8.72443 12.8766 8.72443H11.2828V9.22727H13.65C13.6938 9.22727 13.7297 9.24006 13.7578 9.26562C13.7859 9.29119 13.8 9.32386 13.8 9.36364V9.90909C13.8 9.94886 13.7859 9.98153 13.7578 10.0071C13.7297 10.0327 13.6938 10.0455 13.65 10.0455H11.2828V10.8636C11.2828 10.9034 11.268 10.9361 11.2383 10.9616C11.2086 10.9872 11.1734 11 11.1328 11H10.35C10.3063 11 10.2703 10.9872 10.2422 10.9616C10.2141 10.9361 10.2 10.9034 10.2 10.8636V10.0455H9.15C9.10625 10.0455 9.07031 10.0327 9.04219 10.0071C9.01406 9.98153 9 9.94886 9 9.90909V9.36364C9 9.32386 9.01406 9.29119 9.04219 9.26562C9.07031 9.24006 9.10625 9.22727 9.15 9.22727H10.2V8.72443H9.15C9.10625 8.72443 9.07031 8.71165 9.04219 8.68608C9.01406 8.66051 9 8.62784 9 8.58807V7.95312C9 7.91619 9.01406 7.88423 9.04219 7.85724C9.07031 7.83026 9.10625 7.81676 9.15 7.81676H10.2V5.13636C10.2 5.09659 10.2141 5.06392 10.2422 5.03835C10.2703 5.01278 10.3063 5 10.35 5H12.8766C13.5016 5 14.0117 5.1733 14.407 5.51989C14.8023 5.86648 15 6.31392 15 6.86222Z" fill="#219653"/>
<path d="M4.8001 4.6C4.8001 4.93137 4.53147 5.2 4.2001 5.2C3.86873 5.2 3.6001 4.93137 3.6001 4.6C3.6001 4.26863 3.86873 4 4.2001 4C4.53147 4 4.8001 4.26863 4.8001 4.6Z" fill="#219653"/>
<path d="M20.4002 4.6C20.4002 4.93137 20.1316 5.2 19.8002 5.2C19.4688 5.2 19.2002 4.93137 19.2002 4.6C19.2002 4.26863 19.4688 4 19.8002 4C20.1316 4 20.4002 4.26863 20.4002 4.6Z" fill="#219653"/>
<path d="M20.4002 11.6C20.4002 11.9314 20.1316 12.2 19.8002 12.2C19.4688 12.2 19.2002 11.9314 19.2002 11.6C19.2002 11.2686 19.4688 11 19.8002 11C20.1316 11 20.4002 11.2686 20.4002 11.6Z" fill="#219653"/>
<path d="M4.8001 11.6001C4.8001 11.9315 4.53147 12.2001 4.2001 12.2001C3.86873 12.2001 3.6001 11.9315 3.6001 11.6001C3.6001 11.2688 3.86873 11.0001 4.2001 11.0001C4.53147 11.0001 4.8001 11.2688 4.8001 11.6001Z" fill="#219653"/>
</svg>
