<svg width="20" height="20" viewBox="0 0 20 20" fill="none" xmlns="http://www.w3.org/2000/svg">
<path fill-rule="evenodd" clip-rule="evenodd" d="M2.49984 11.6666C2.96007 11.6666 3.33317 12.0397 3.33317 12.5V15.8333C3.33317 16.0543 3.42097 16.2663 3.57725 16.4225C3.73353 16.5788 3.94549 16.6666 4.1665 16.6666H15.8332C16.0542 16.6666 16.2661 16.5788 16.4224 16.4225C16.5787 16.2663 16.6665 16.0543 16.6665 15.8333V12.5C16.6665 12.0397 17.0396 11.6666 17.4998 11.6666C17.9601 11.6666 18.3332 12.0397 18.3332 12.5V15.8333C18.3332 16.4963 18.0698 17.1322 17.6009 17.6011C17.1321 18.0699 16.4962 18.3333 15.8332 18.3333H4.1665C3.50346 18.3333 2.86758 18.0699 2.39874 17.6011C1.9299 17.1322 1.6665 16.4963 1.6665 15.8333V12.5C1.6665 12.0397 2.0396 11.6666 2.49984 11.6666Z" fill="#8F8AFF"/>
<path fill-rule="evenodd" clip-rule="evenodd" d="M5.24408 7.74408C5.56951 7.41864 6.09715 7.41864 6.42259 7.74408L10 11.3215L13.5774 7.74408C13.9028 7.41864 14.4305 7.41864 14.7559 7.74408C15.0814 8.06951 15.0814 8.59715 14.7559 8.92259L10.5893 13.0893C10.2638 13.4147 9.73618 13.4147 9.41074 13.0893L5.24408 8.92259C4.91864 8.59715 4.91864 8.06951 5.24408 7.74408Z" fill="#8F8AFF"/>
<path fill-rule="evenodd" clip-rule="evenodd" d="M9.99984 1.66663C10.4601 1.66663 10.8332 2.03972 10.8332 2.49996V12.5C10.8332 12.9602 10.4601 13.3333 9.99984 13.3333C9.5396 13.3333 9.1665 12.9602 9.1665 12.5V2.49996C9.1665 2.03972 9.5396 1.66663 9.99984 1.66663Z" fill="#8F8AFF"/>
</svg>
