<svg width="18" height="18" viewBox="0 0 18 18" fill="none" xmlns="http://www.w3.org/2000/svg">
<g clip-path="url(#clip0)">
<path d="M9 15.75C3.375 15.75 0.225 9.6 0.075 9.3C-1.11759e-08 9.075 -1.11759e-08 8.85 0.075 8.625C1.05 6.825 2.4 5.25 4.125 3.975C4.425 3.675 4.875 3.75 5.175 4.125C5.4 4.425 5.4 4.95 5.025 5.175C3.6 6.225 2.475 7.5 1.575 9C2.25 10.2 4.95 14.25 9 14.25C10.425 14.25 11.85 13.725 12.975 12.825C13.275 12.6 13.8 12.675 14.025 12.975C14.25 13.275 14.175 13.8 13.875 14.025C12.525 15.15 10.8 15.75 9 15.75ZM15.6 12.15C15.45 12.15 15.225 12.075 15.15 12C14.85 11.7 14.775 11.25 15.075 10.95C15.6 10.35 16.05 9.75 16.425 9.075C15.75 7.875 13.05 3.825 9 3.825C8.55 3.825 8.025 3.9 7.575 3.975C7.2 3.975 6.825 3.75 6.675 3.375C6.525 3 6.825 2.55 7.2 2.475C7.8 2.325 8.4 2.25 9 2.25C14.625 2.25 17.775 8.4 17.925 8.7C18 8.925 18 9.15 17.925 9.375C17.475 10.275 16.875 11.1 16.2 11.925C16.05 12.075 15.825 12.15 15.6 12.15ZM8.925 12.075C8.175 12.075 7.425 11.775 6.9 11.25C6.3 10.725 6 9.975 5.925 9.15C5.925 8.325 6.15 7.575 6.75 6.975C6.825 6.9 6.825 6.9 6.9 6.825C7.2 6.525 7.65 6.525 7.95 6.825C8.25 7.125 8.25 7.575 7.95 7.875L7.875 7.95C7.575 8.25 7.425 8.625 7.5 9C7.5 9.375 7.65 9.75 7.95 10.05C8.55 10.65 9.525 10.575 10.05 9.975C10.35 9.675 10.8 9.675 11.1 9.975C11.4 10.275 11.4 10.725 11.1 11.025C10.575 11.7 9.75 12.075 8.925 12.075Z" fill="white"/>
<path d="M17.25 18C17.025 18 16.875 17.925 16.725 17.775L0.225 1.275C-0.075 0.975 -0.075 0.525 0.225 0.225C0.525 -0.075 0.975 -0.075 1.275 0.225L17.775 16.725C18.075 17.025 18.075 17.475 17.775 17.775C17.625 17.925 17.475 18 17.25 18Z" fill="white"/>
</g>
<defs>
<clipPath id="clip0">
<rect width="18" height="18" fill="white"/>
</clipPath>
</defs>
</svg>
