<svg width="70" height="70" viewBox="0 0 70 70" fill="none" xmlns="http://www.w3.org/2000/svg">
<g filter="url(#filter0_d)">
<rect x="15" y="10" width="40" height="40" rx="4" fill="#5C3ABE"/>
</g>
<path fill-rule="evenodd" clip-rule="evenodd" d="M43.5665 19.8344C43.8789 20.1468 43.8789 20.6533 43.5665 20.9657L35.5665 28.9657C35.254 29.2781 34.7475 29.2781 34.4351 28.9657L32.0351 26.5657C31.7227 26.2533 31.7227 25.7468 32.0351 25.4344C32.3475 25.1219 32.854 25.1219 33.1665 25.4344L35.0008 27.2687L42.4351 19.8344C42.7475 19.5219 43.254 19.5219 43.5665 19.8344Z" fill="white"/>
<path d="M38.389 19.6H30.2008C28.8753 19.6 27.8008 20.6745 27.8008 22V38C27.8008 39.3255 28.8753 40.4 30.2008 40.4H39.8008C41.1263 40.4 42.2008 39.3255 42.2008 38V25.84" stroke="white" stroke-width="1.6" stroke-linecap="round"/>
<circle cx="34.9992" cy="36.4" r="0.8" fill="white"/>
<defs>
<filter id="filter0_d" x="0.599999" y="0.4" width="68.8" height="68.8" filterUnits="userSpaceOnUse" color-interpolation-filters="sRGB">
<feFlood flood-opacity="0" result="BackgroundImageFix"/>
<feColorMatrix in="SourceAlpha" type="matrix" values="0 0 0 0 0 0 0 0 0 0 0 0 0 0 0 0 0 0 127 0"/>
<feOffset dy="4.8"/>
<feGaussianBlur stdDeviation="7.2"/>
<feColorMatrix type="matrix" values="0 0 0 0 0 0 0 0 0 0 0 0 0 0 0 0 0 0 0.1 0"/>
<feBlend mode="normal" in2="BackgroundImageFix" result="effect1_dropShadow"/>
<feBlend mode="normal" in="SourceGraphic" in2="effect1_dropShadow" result="shape"/>
</filter>
</defs>
</svg>
