<svg width="18" height="18" viewBox="0 0 18 18" fill="none" xmlns="http://www.w3.org/2000/svg">
<path fill-rule="evenodd" clip-rule="evenodd" d="M11.8338 1.79102C11.2366 1.79102 10.6639 2.02824 10.2416 2.45051L3.34908 9.34301C2.64535 10.0467 2.25 11.0012 2.25 11.9964C2.25 12.9917 2.64535 13.9461 3.34908 14.6499C4.05281 15.3536 5.00728 15.7489 6.0025 15.7489C6.99773 15.7489 7.95219 15.3536 8.65592 14.6499L15.5484 7.75735C15.8413 7.46446 16.3162 7.46446 16.6091 7.75735C16.902 8.05025 16.902 8.52512 16.6091 8.81801L9.71658 15.7105C8.73155 16.6955 7.39555 17.2489 6.0025 17.2489C4.60945 17.2489 3.27346 16.6955 2.28842 15.7105C1.30339 14.7255 0.75 13.3895 0.75 11.9964C0.75 10.6034 1.30339 9.26739 2.28842 8.28235L9.18092 1.38985C9.8845 0.686279 10.8387 0.291016 11.8338 0.291016C12.8288 0.291016 13.783 0.686279 14.4866 1.38985C15.1902 2.09343 15.5854 3.04768 15.5854 4.04268C15.5854 5.03769 15.1902 5.99194 14.4866 6.69551L7.58658 13.588C7.16447 14.0101 6.59196 14.2473 5.995 14.2473C5.39804 14.2473 4.82554 14.0101 4.40342 13.588C3.98131 13.1659 3.74417 12.5934 3.74417 11.9964C3.74417 11.3995 3.98131 10.827 4.40342 10.4049L10.7712 4.04454C11.0643 3.75182 11.5392 3.7521 11.8319 4.04517C12.1246 4.33823 12.1243 4.81311 11.8313 5.10583L5.46408 11.4655C5.32347 11.6063 5.24417 11.7974 5.24417 11.9964C5.24417 12.1956 5.32327 12.3865 5.46408 12.5274C5.60489 12.6682 5.79587 12.7473 5.995 12.7473C6.19414 12.7473 6.38511 12.6682 6.52592 12.5274L13.4259 5.63485C13.848 5.21261 14.0854 4.63973 14.0854 4.04268C14.0854 3.4455 13.8482 2.87278 13.4259 2.45051C13.0037 2.02824 12.4309 1.79102 11.8338 1.79102Z" fill="white"/>
</svg>
