<svg width="25" height="25" viewBox="0 0 25 25" fill="none" xmlns="http://www.w3.org/2000/svg">
<g clip-path="url(#clip0)">
<path fill-rule="evenodd" clip-rule="evenodd" d="M12.3198 10.2537C11.2153 10.2537 10.3198 11.1491 10.3198 12.2537C10.3198 13.3582 11.2153 14.2537 12.3198 14.2537C13.4244 14.2537 14.3198 13.3582 14.3198 12.2537C14.3198 11.1491 13.4244 10.2537 12.3198 10.2537ZM8.31982 12.2537C8.31982 10.0445 10.1107 8.25366 12.3198 8.25366C14.529 8.25366 16.3198 10.0445 16.3198 12.2537C16.3198 14.4628 14.529 16.2537 12.3198 16.2537C10.1107 16.2537 8.31982 14.4628 8.31982 12.2537Z" fill="#8F8AFF"/>
<path fill-rule="evenodd" clip-rule="evenodd" d="M12.3198 2.25366C12.0546 2.25366 11.8003 2.35902 11.6127 2.54656C11.4252 2.73409 11.3198 2.98845 11.3198 3.25366V3.42765C11.3178 3.94446 11.1646 4.44939 10.8793 4.88028C10.5939 5.31117 10.1888 5.64921 9.71376 5.8528C9.6292 5.88904 9.54024 5.91336 9.44943 5.92523C9.0178 6.07638 8.55315 6.11364 8.10083 6.03162C7.57983 5.93716 7.09907 5.68878 6.72056 5.31852L6.71267 5.31081L6.65272 5.25077C6.55984 5.15779 6.44916 5.08364 6.32776 5.03332C6.20637 4.98299 6.07624 4.95709 5.94482 4.95709C5.81341 4.95709 5.68328 4.98299 5.56188 5.03332C5.44049 5.08364 5.3302 5.1574 5.23732 5.25038L5.23654 5.25116C5.14356 5.34404 5.0698 5.45432 5.01948 5.57572C4.96915 5.69712 4.94325 5.82725 4.94325 5.95866C4.94325 6.09008 4.96915 6.2202 5.01948 6.3416C5.0698 6.463 5.14356 6.57329 5.23654 6.66616L5.30473 6.73435C5.67499 7.11287 5.92332 7.59367 6.01779 8.11466C6.11037 8.62529 6.05095 9.15163 5.84727 9.62844C5.66171 10.115 5.3368 10.5363 4.91287 10.8395C4.48037 11.1489 3.96481 11.321 3.43321 11.3334L3.40982 11.3337H3.31982C3.05461 11.3337 2.80025 11.439 2.61272 11.6266C2.42518 11.8141 2.31982 12.0684 2.31982 12.3337C2.31982 12.5989 2.42518 12.8532 2.61272 13.0408C2.80025 13.2283 3.05461 13.3337 3.31982 13.3337H3.49381C4.01062 13.3357 4.51555 13.4889 4.94644 13.7742C5.37583 14.0586 5.71302 14.4619 5.91684 14.9348C6.1289 15.4179 6.19193 15.9534 6.09778 16.4727C6.00332 16.9937 5.75494 17.4744 5.38469 17.8529L5.37697 17.8608L5.31693 17.9208C5.22395 18.0136 5.1498 18.1243 5.09948 18.2457C5.04915 18.3671 5.02325 18.4972 5.02325 18.6287C5.02325 18.7601 5.04915 18.8902 5.09948 19.0116C5.1498 19.133 5.22356 19.2433 5.31654 19.3362L5.31732 19.3369C5.4102 19.4299 5.52048 19.5037 5.64188 19.554C5.76328 19.6043 5.89341 19.6302 6.02482 19.6302C6.15624 19.6302 6.28637 19.6043 6.40776 19.554C6.52916 19.5037 6.63945 19.4299 6.73232 19.337L6.80052 19.2688C7.17903 18.8985 7.65983 18.6502 8.18083 18.5557C8.69145 18.4631 9.21778 18.5225 9.69459 18.7262C10.1811 18.9118 10.6025 19.2367 10.9057 19.6606C11.215 20.0931 11.3871 20.6087 11.3996 21.1403L11.3998 21.1637V21.2537C11.3998 21.5189 11.5052 21.7732 11.6927 21.9608C11.8803 22.1483 12.1346 22.2537 12.3998 22.2537C12.665 22.2537 12.9194 22.1483 13.1069 21.9608C13.2945 21.7732 13.3998 21.5189 13.3998 21.2537V21.0837L13.3998 21.0797C13.4019 20.5629 13.555 20.0579 13.8404 19.627C14.1248 19.1976 14.5281 18.8604 15.0011 18.6566C15.4842 18.4446 16.0196 18.3816 16.5388 18.4757C17.0598 18.5702 17.5406 18.8185 17.9191 19.1888L17.927 19.1965L17.9869 19.2566C18.0798 19.3495 18.1905 19.4237 18.3119 19.474C18.4333 19.5243 18.5634 19.5502 18.6948 19.5502C18.8262 19.5502 18.9564 19.5243 19.0778 19.474C19.1992 19.4237 19.3095 19.3499 19.4023 19.2569L19.4031 19.2562C19.4961 19.1633 19.5698 19.053 19.6202 18.9316C19.6705 18.8102 19.6964 18.6801 19.6964 18.5487C19.6964 18.4172 19.6705 18.2871 19.6202 18.1657C19.5698 18.0443 19.4961 17.934 19.4031 17.8412L19.3349 17.773C18.9647 17.3945 18.7163 16.9137 18.6219 16.3927C18.5277 15.8735 18.5907 15.338 18.8028 14.8549C19.0066 14.382 19.3438 13.9786 19.7732 13.6942C20.2041 13.4089 20.709 13.2557 21.2258 13.2537L21.2298 13.2537L21.3198 13.2537C21.585 13.2537 21.8394 13.1483 22.0269 12.9608C22.2145 12.7732 22.3198 12.5189 22.3198 12.2537C22.3198 11.9884 22.2145 11.7341 22.0269 11.5466C21.8394 11.359 21.585 11.2537 21.3198 11.2537H21.1498L21.1458 11.2537C20.629 11.2516 20.1241 11.0985 19.6932 10.8131C19.2623 10.5277 18.9243 10.1226 18.7207 9.64759C18.6844 9.56304 18.6601 9.47408 18.6483 9.38327C18.4971 8.95164 18.4598 8.48699 18.5419 8.03466C18.6363 7.51367 18.8847 7.03291 19.255 6.6544L19.2627 6.64651L19.3227 6.58656C19.4157 6.49368 19.4898 6.383 19.5402 6.2616C19.5905 6.1402 19.6164 6.01008 19.6164 5.87866C19.6164 5.74725 19.5905 5.61712 19.5402 5.49572C19.4898 5.37433 19.4161 5.26404 19.3231 5.17116L19.3223 5.17038C19.2295 5.0774 19.1192 5.00364 18.9978 4.95332C18.8764 4.90299 18.7462 4.87709 18.6148 4.87709C18.4834 4.87709 18.3533 4.90299 18.2319 4.95332C18.1105 5.00364 18.0002 5.0774 17.9073 5.17038L17.8391 5.23857C17.4606 5.60882 16.9798 5.85716 16.4588 5.95162C15.9396 6.04577 15.4041 5.98274 14.9209 5.77067C14.4481 5.56686 14.0448 5.22967 13.7604 4.80028C13.475 4.36939 13.3219 3.86446 13.3198 3.34765L13.3198 3.34366V3.25366C13.3198 2.98845 13.2145 2.73409 13.0269 2.54656C12.8394 2.35902 12.585 2.25366 12.3198 2.25366ZM19.7198 15.2537L20.6347 15.6574C20.5822 15.7762 20.5666 15.908 20.5898 16.0358C20.6127 16.1622 20.6725 16.279 20.7617 16.3713L20.8165 16.4262C20.8164 16.426 20.8167 16.4263 20.8165 16.4262C21.0953 16.7047 21.3168 17.0358 21.4677 17.3998C21.6187 17.764 21.6964 18.1544 21.6964 18.5487C21.6964 18.9429 21.6187 19.3333 21.4677 19.6975C21.3167 20.0617 21.0955 20.3925 20.8165 20.6712L20.1098 19.9637L20.8173 20.6704C20.5387 20.9493 20.2078 21.1706 19.8436 21.3216C19.4795 21.4725 19.0891 21.5502 18.6948 21.5502C18.3006 21.5502 17.9102 21.4725 17.546 21.3216C17.182 21.1707 16.8513 20.9495 16.5727 20.6708C16.5728 20.6709 16.5726 20.6706 16.5727 20.6708L16.5175 20.6155C16.4251 20.5264 16.3084 20.4665 16.182 20.4436C16.0542 20.4204 15.9224 20.4361 15.8036 20.4885L15.7938 20.4929C15.6773 20.5428 15.5779 20.6257 15.5079 20.7313C15.4382 20.8366 15.4006 20.9599 15.3998 21.0862V21.2537C15.3998 22.0493 15.0838 22.8124 14.5211 23.375C13.9585 23.9376 13.1955 24.2537 12.3998 24.2537C11.6042 24.2537 10.8411 23.9376 10.2785 23.375C9.7159 22.8124 9.39982 22.0493 9.39982 21.2537V21.178C9.39508 21.0508 9.35309 20.9277 9.27896 20.8241C9.20309 20.718 9.09705 20.6372 8.97464 20.5922C8.95487 20.5849 8.93533 20.577 8.91606 20.5685C8.79724 20.5161 8.66544 20.5004 8.53765 20.5236C8.41124 20.5465 8.29449 20.6064 8.20212 20.6956L8.14732 20.7504C8.14745 20.7502 8.1472 20.7505 8.14732 20.7504C7.86878 21.0291 7.53767 21.2507 7.17365 21.4016C6.80945 21.5525 6.41907 21.6302 6.02482 21.6302C5.63058 21.6302 5.2402 21.5525 4.876 21.4016C4.51215 21.2507 4.18157 21.0297 3.90311 20.7512C3.62418 20.4725 3.4029 20.1417 3.25193 19.7775C3.10096 19.4133 3.02325 19.0229 3.02325 18.6287C3.02325 18.2344 3.10096 17.844 3.25193 17.4798C3.4029 17.1156 3.62418 16.7848 3.90311 16.5062L3.95793 16.4513C4.04711 16.359 4.10695 16.2422 4.12987 16.1158C4.15304 15.988 4.1374 15.8562 4.08496 15.7374L4.08063 15.7276C4.03069 15.6111 3.94783 15.5117 3.84214 15.4417C3.73686 15.372 3.61357 15.3345 3.48732 15.3337H3.31982C2.52417 15.3337 1.76111 15.0176 1.1985 14.455C0.635895 13.8924 0.319824 13.1293 0.319824 12.3337C0.319824 11.538 0.635895 10.775 1.1985 10.2123C1.76111 9.64973 2.52417 9.33366 3.31982 9.33366H3.39546C3.52266 9.32892 3.64574 9.28693 3.74938 9.2128C3.85546 9.13693 3.93627 9.03089 3.98129 8.90848C3.98856 8.88871 3.99646 8.86917 4.00496 8.8499C4.0574 8.73108 4.07304 8.59928 4.04987 8.47148C4.02695 8.34508 3.9671 8.22834 3.87792 8.13597L3.82311 8.08116C3.54418 7.80254 3.3229 7.47168 3.17193 7.10748C3.02096 6.74329 2.94325 6.35291 2.94325 5.95866C2.94325 5.56442 3.02096 5.17404 3.17193 4.80984C3.32283 4.44582 3.54397 4.11509 3.82272 3.83656C4.10125 3.55781 4.43198 3.33667 4.796 3.18577C5.1602 3.0348 5.55058 2.95709 5.94482 2.95709C6.33907 2.95709 6.72945 3.0348 7.09365 3.18577C7.45784 3.33674 7.7887 3.55802 8.06732 3.83695L8.12213 3.89176C8.2145 3.98094 8.33125 4.04079 8.45765 4.06371C8.58544 4.08688 8.71724 4.07124 8.83606 4.0188C8.9001 3.99054 8.96675 3.96915 9.03489 3.95489C9.10462 3.90756 9.16481 3.84689 9.21177 3.77598C9.28149 3.6707 9.31903 3.54741 9.31982 3.42116V3.25366C9.31982 2.45801 9.6359 1.69495 10.1985 1.13234C10.7611 0.569733 11.5242 0.253662 12.3198 0.253662C13.1155 0.253662 13.8785 0.569733 14.4411 1.13234C15.0038 1.69495 15.3198 2.45801 15.3198 3.25366V3.34116C15.3206 3.46741 15.3582 3.5907 15.4279 3.69598C15.4979 3.80167 15.5972 3.88459 15.7138 3.93452L15.7236 3.93875C15.8424 3.99119 15.9742 4.00688 16.102 3.98371C16.2284 3.96079 16.3451 3.90095 16.4375 3.81177L16.4923 3.75695C16.7709 3.47802 17.1018 3.25674 17.466 3.10577C17.8302 2.9548 18.2206 2.87709 18.6148 2.87709C19.0091 2.87709 19.3995 2.9548 19.7636 3.10577C20.1278 3.25674 20.4587 3.47802 20.7373 3.75695C21.0159 4.0354 21.2369 4.36599 21.3877 4.72984C21.5387 5.09403 21.6164 5.48441 21.6164 5.87866C21.6164 6.27291 21.5387 6.66329 21.3877 7.02748C21.2368 7.39151 21.0157 7.72223 20.7369 8.00077C20.7371 8.00063 20.7368 8.0009 20.7369 8.00077L20.6817 8.05597C20.5925 8.14834 20.5327 8.26508 20.5098 8.39148C20.4866 8.51928 20.5022 8.65108 20.5547 8.7699C20.5829 8.83394 20.6043 8.90059 20.6186 8.96873C20.6659 9.03845 20.7266 9.09864 20.7975 9.14561C20.9028 9.21533 21.0261 9.25287 21.1523 9.25366H21.3198C22.1155 9.25366 22.8785 9.56973 23.4411 10.1323C24.0038 10.695 24.3198 11.458 24.3198 12.2537C24.3198 13.0493 24.0038 13.8124 23.4411 14.375C22.8785 14.9376 22.1155 15.2537 21.3198 15.2537H21.2323C21.1061 15.2545 20.9828 15.292 20.8775 15.3617C20.7718 15.4317 20.6889 15.5311 20.639 15.6476L19.7198 15.2537Z" fill="#8F8AFF"/>
</g>
<defs>
<clipPath id="clip0">
<rect width="24" height="24" fill="white" transform="translate(0.319824 0.253662)"/>
</clipPath>
</defs>
</svg>
