<svg width="14" height="13" viewBox="0 0 14 13" fill="none" xmlns="http://www.w3.org/2000/svg">
<path d="M6.99969 0.583252C7.22172 0.583252 7.4245 0.709294 7.52277 0.908388L9.18968 4.28536L12.9174 4.83022C13.1371 4.86232 13.3194 5.01633 13.3879 5.2275C13.4564 5.43867 13.3991 5.6704 13.24 5.82529L10.5432 8.45205L11.1796 12.163C11.2172 12.3818 11.1272 12.603 10.9475 12.7335C10.7679 12.864 10.5297 12.8812 10.3332 12.7779L6.99969 11.0248L3.6662 12.7779C3.46967 12.8812 3.2315 12.864 3.05185 12.7335C2.87219 12.603 2.78222 12.3818 2.81975 12.163L3.45622 8.45205L0.759347 5.82529C0.60032 5.6704 0.542994 5.43867 0.611465 5.2275C0.679935 5.01633 0.862332 4.86232 1.08199 4.83022L4.80971 4.28536L6.47661 0.908388C6.57489 0.709294 6.77766 0.583252 6.99969 0.583252Z" fill="white"/>
</svg>
