<svg width="328" height="517" viewBox="0 0 328 517" fill="none" xmlns="http://www.w3.org/2000/svg">
<g opacity="0.05">
<path d="M302.104 0H25.8947C11.6182 0 0 11.5982 0 25.85C0 40.1018 11.6182 51.7 25.8947 51.7H302.105C316.382 51.7 328 40.1018 328 25.85C328 11.5982 316.381 0 302.104 0ZM302.104 34.4663H25.8947C21.1386 34.4663 17.2635 30.606 17.2635 25.85C17.2635 21.094 21.1386 17.2337 25.8947 17.2337H302.105C306.861 17.2337 310.737 21.094 310.737 25.85C310.737 30.606 306.86 34.4663 302.104 34.4663Z" fill="url(#paint0_linear)"/>
<path d="M302.104 465.3H25.8947C11.6182 465.3 0 476.898 0 491.15C0 505.402 11.6182 517 25.8947 517H302.105C316.382 517 328 505.402 328 491.15C328 476.898 316.381 465.3 302.104 465.3ZM302.104 499.766H25.8947C21.1386 499.766 17.2635 495.906 17.2635 491.15C17.2635 486.394 21.1386 482.534 25.8947 482.534H302.105C306.861 482.534 310.737 486.394 310.737 491.15C310.737 495.906 306.86 499.766 302.104 499.766Z" fill="url(#paint1_linear)"/>
<path d="M225.508 226.515C269.339 182.76 293.473 124.588 293.473 62.7206V43.0837C293.473 38.3186 289.606 34.4674 284.842 34.4674H43.157C38.3928 34.4674 34.5258 38.3186 34.5258 43.0837V62.7206C34.5258 124.597 58.6594 182.76 102.482 226.515L111.157 235.174C117.311 241.318 120.841 249.814 120.841 258.5C120.841 267.186 117.311 275.682 111.165 281.826L102.49 290.485C58.6594 334.241 34.5258 392.403 34.5258 454.279V473.916C34.5258 478.681 38.3928 482.533 43.157 482.533H284.841C289.605 482.533 293.472 478.681 293.472 473.916V454.279C293.472 392.412 269.338 334.241 225.507 290.485L216.833 281.826C210.592 275.595 207.156 267.315 207.156 258.5C207.156 249.685 210.592 241.405 216.833 235.174L225.508 226.515ZM204.628 222.991C195.125 232.469 189.894 245.075 189.894 258.5C189.894 271.925 195.125 284.531 204.628 294.009L213.302 302.669C253.871 343.168 276.209 397.013 276.209 454.279V465.3H51.7892V454.279C51.7892 397.004 74.1275 343.168 114.687 302.669L123.362 294.009C132.874 284.531 138.105 271.916 138.105 258.5C138.105 245.084 132.874 232.469 123.371 222.991L114.696 214.331C74.1275 173.832 51.7892 119.986 51.7892 62.7206V51.7H276.21V62.7206C276.21 119.987 253.872 173.832 213.303 214.331L204.628 222.991Z" fill="url(#paint2_linear)"/>
<path d="M236.944 145.165C236.072 142.977 233.103 137.866 224.419 137.866C179.57 137.866 159.587 128.275 151.663 122.554C141.78 115.411 129.1 113.541 117.715 117.565C106.848 121.399 98.8894 129.929 95.8943 140.959C95.1175 143.829 94.9789 145.69 94.9789 145.69C94.8494 147.387 95.2207 149.223 96.0582 150.713C104.146 165.026 113.476 180.122 126.907 193.53L135.573 202.189C148.339 214.916 155.365 231.856 155.365 249.883C155.365 254.648 159.232 258.499 163.996 258.499C168.761 258.499 172.628 254.648 172.628 249.883C172.628 231.865 179.654 214.924 192.411 202.189L201.095 193.52C203.227 191.401 206.006 188.782 209.061 185.921C231.376 164.974 240.759 154.781 236.944 145.165ZM197.222 173.368C194.028 176.375 191.11 179.115 188.884 181.338L180.2 190.006C173.493 196.693 168.056 204.31 163.989 212.565C159.924 204.31 154.486 196.693 147.779 190.006L139.112 181.347C128.513 170.757 120.753 159.099 112.682 145.045C114.815 137.85 120.339 134.92 123.472 133.808C129.497 131.679 136.256 132.688 141.538 136.514C152.534 144.459 174.217 153.825 215.752 154.98C210.419 160.977 202.046 168.844 197.222 173.368Z" fill="url(#paint3_linear)"/>
<path d="M258.351 438.777C256.184 410.842 244.964 399.244 231.982 385.802C230.23 383.983 228.4 382.097 226.527 380.098C215.685 368.534 200.373 361.9 184.499 361.9H143.491C127.626 361.9 112.305 368.535 101.463 380.098C99.5901 382.097 97.7693 383.975 96.0164 385.794C83.0255 399.236 71.8048 410.842 69.6473 438.786C69.4571 441.182 70.2856 443.542 71.9171 445.31C73.5568 447.068 75.8448 448.067 78.2522 448.067H249.744C252.143 448.067 254.439 447.068 256.079 445.301C257.712 443.534 258.532 441.164 258.351 438.777ZM88.0841 430.834C91.0104 415.789 97.9848 408.585 108.446 397.763C110.258 395.884 112.14 393.929 114.074 391.869C121.661 383.769 132.381 379.134 143.491 379.134H184.499C195.617 379.134 206.337 383.777 213.924 391.861C215.866 393.946 217.748 395.885 219.57 397.772C230.023 408.594 236.988 415.798 239.923 430.834H88.0841Z" fill="url(#paint4_linear)"/>
<path d="M163.74 275.734C158.976 275.734 155.109 279.585 155.109 284.35V292.966C155.109 297.731 158.976 301.583 163.74 301.583C168.505 301.583 172.372 297.731 172.372 292.966V284.35C172.372 279.585 168.505 275.734 163.74 275.734Z" fill="url(#paint5_linear)"/>
<path d="M163.74 318.816C158.976 318.816 155.109 322.667 155.109 327.433V336.049C155.109 340.814 158.976 344.665 163.74 344.665C168.505 344.665 172.372 340.814 172.372 336.049V327.433C172.372 322.668 168.505 318.816 163.74 318.816Z" fill="url(#paint6_linear)"/>
</g>
<defs>
<linearGradient id="paint0_linear" x1="361.504" y1="-1.01592e-05" x2="-23.2635" y2="30.0597" gradientUnits="userSpaceOnUse">
<stop stop-color="#5A13A7"/>
<stop offset="1" stop-color="#5D55D0"/>
</linearGradient>
<linearGradient id="paint1_linear" x1="361.504" y1="-1.01592e-05" x2="-23.2635" y2="30.0597" gradientUnits="userSpaceOnUse">
<stop stop-color="#5A13A7"/>
<stop offset="1" stop-color="#5D55D0"/>
</linearGradient>
<linearGradient id="paint2_linear" x1="361.504" y1="-1.01592e-05" x2="-23.2635" y2="30.0597" gradientUnits="userSpaceOnUse">
<stop stop-color="#5A13A7"/>
<stop offset="1" stop-color="#5D55D0"/>
</linearGradient>
<linearGradient id="paint3_linear" x1="361.504" y1="-1.01592e-05" x2="-23.2635" y2="30.0597" gradientUnits="userSpaceOnUse">
<stop stop-color="#5A13A7"/>
<stop offset="1" stop-color="#5D55D0"/>
</linearGradient>
<linearGradient id="paint4_linear" x1="361.504" y1="-1.01592e-05" x2="-23.2635" y2="30.0597" gradientUnits="userSpaceOnUse">
<stop stop-color="#5A13A7"/>
<stop offset="1" stop-color="#5D55D0"/>
</linearGradient>
<linearGradient id="paint5_linear" x1="361.504" y1="-1.01592e-05" x2="-23.2635" y2="30.0597" gradientUnits="userSpaceOnUse">
<stop stop-color="#5A13A7"/>
<stop offset="1" stop-color="#5D55D0"/>
</linearGradient>
<linearGradient id="paint6_linear" x1="361.504" y1="-1.01592e-05" x2="-23.2635" y2="30.0597" gradientUnits="userSpaceOnUse">
<stop stop-color="#5A13A7"/>
<stop offset="1" stop-color="#5D55D0"/>
</linearGradient>
</defs>
</svg>
