<svg width="26" height="17" viewBox="0 0 26 17" fill="none" xmlns="http://www.w3.org/2000/svg">
<rect x="1.52372" y="0.890909" width="23.4035" height="15.2182" rx="1.48485" stroke="#6979F8" stroke-width="1.78182"/>
<path fill-rule="evenodd" clip-rule="evenodd" d="M6.56945 9.4668C5.83748 9.4668 5.1355 9.74873 4.61792 10.2506C4.10034 10.7524 3.80957 11.433 3.80957 12.1427V13.0872C3.80957 13.5219 4.17299 13.8742 4.6213 13.8742C5.06961 13.8742 5.43303 13.5219 5.43303 13.0872V12.1427C5.43303 11.8505 5.55276 11.5702 5.76588 11.3636C5.979 11.157 6.26805 11.0409 6.56945 11.0409H10.4658C10.7671 11.0409 11.0562 11.157 11.2693 11.3636C11.4824 11.5702 11.6022 11.8505 11.6022 12.1427V13.0872C11.6022 13.5219 11.9656 13.8742 12.4139 13.8742C12.8622 13.8742 13.2256 13.5219 13.2256 13.0872V12.1427C13.2256 11.433 12.9349 10.7524 12.4173 10.2506C11.8997 9.74873 11.1977 9.4668 10.4658 9.4668H6.56945ZM10.5865 9.78451C10.5464 9.78258 10.5061 9.78161 10.4658 9.78161H6.56945C5.9236 9.78161 5.3042 10.0304 4.84751 10.4732C4.39083 10.916 4.13426 11.5165 4.13426 12.1427V13.0872C4.13426 13.3315 4.32558 13.5324 4.57086 13.5569C4.32561 13.5324 4.13432 13.3315 4.13432 13.0872V12.1427C4.13432 11.5165 4.39088 10.916 4.84757 10.4732C5.30426 10.0304 5.92366 9.78162 6.56951 9.78162H10.4658C10.5062 9.78162 10.5464 9.78259 10.5865 9.78451ZM10.6102 10.733C10.9446 10.7652 11.2592 10.9085 11.4989 11.141C11.7729 11.4067 11.9269 11.767 11.9269 12.1427V13.0872C11.9269 13.3192 12.0994 13.5121 12.3268 13.5519C12.0994 13.512 11.9269 13.3191 11.9269 13.0872V12.1427C11.9269 11.767 11.773 11.4067 11.499 11.141C11.2592 10.9085 10.9447 10.7652 10.6102 10.733Z" fill="#6979F8"/>
<path fill-rule="evenodd" clip-rule="evenodd" d="M9.65411 5.84293C9.65411 6.45147 9.14532 6.94478 8.51769 6.94478C7.89006 6.94478 7.38127 6.45147 7.38127 5.84293C7.38127 5.23439 7.89006 4.74107 8.51769 4.74107C9.14532 4.74107 9.65411 5.23439 9.65411 5.84293ZM8.51769 3.16699C6.99345 3.16699 5.75781 4.36505 5.75781 5.84293C5.75781 7.32081 6.99345 8.51886 8.51769 8.51886C10.0419 8.51886 11.2776 7.32081 11.2776 5.84293C11.2776 4.36505 10.0419 3.16699 8.51769 3.16699ZM7.8441 4.58545C7.37615 4.82158 7.05658 5.29607 7.05658 5.84293C7.05658 6.62533 7.71074 7.2596 8.51769 7.2596C8.51769 7.2596 8.51768 7.2596 8.51768 7.2596C7.71073 7.2596 7.05657 6.62534 7.05657 5.84293C7.05657 5.29607 7.37615 4.82158 7.8441 4.58545ZM7.70492 3.61652C7.95911 3.52928 8.23268 3.48181 8.51769 3.48181C9.86261 3.48181 10.9529 4.53892 10.9529 5.84293C10.9529 6.65793 10.527 7.37649 9.87923 7.8008C10.527 7.37649 10.9529 6.65793 10.9529 5.84293C10.9529 4.53892 9.8626 3.48181 8.51768 3.48181C8.23268 3.48181 7.95911 3.52928 7.70492 3.61652Z" fill="#6979F8"/>
<rect x="14.8018" y="3.19629" width="8.19454" height="1.8889" rx="0.944448" fill="#6979F8"/>
<rect x="14.8018" y="7.55566" width="8.19454" height="1.8889" rx="0.944448" fill="#6979F8"/>
<rect x="14.8018" y="11.9629" width="8.19454" height="1.8889" rx="0.944448" fill="#6979F8"/>
</svg>
