<svg width="24" height="23" viewBox="0 0 24 23" fill="none" xmlns="http://www.w3.org/2000/svg">
<path d="M22.7452 10.3666L22.238 9.82954L20.4579 5.0312C20.1546 4.2207 19.3789 3.68368 18.5137 3.67871H5.79937C4.93418 3.67871 4.15848 4.2207 3.85517 5.0312L2.09992 9.76987L1.36898 10.4461C0.732519 10.9881 0.364563 11.7837 0.364563 12.619V19.6102C0.369535 20.7538 1.29937 21.6787 2.44302 21.6787H3.75572C4.89937 21.6787 5.8292 20.7538 5.83418 19.6102V18.5958H18.1657V19.6102C18.1706 20.7538 19.1005 21.6787 20.2441 21.6787H21.5568C22.7005 21.6787 23.6303 20.7538 23.6353 19.6102V12.4351C23.6303 11.6544 23.3121 10.9085 22.7452 10.3666ZM4.78998 5.36932C4.94909 4.94667 5.35186 4.67319 5.79937 4.67319H18.5187C18.9662 4.67319 19.369 4.95164 19.5281 5.36932L21.0795 9.54611H18.4351C18.1616 7.68147 16.4263 6.39363 14.5616 6.67208C13.0749 6.89087 11.9064 8.05937 11.6876 9.54611H3.2386L4.78998 5.36932ZM17.4208 9.54611H12.692C12.9655 8.23838 14.2484 7.40302 15.5561 7.6765C16.4909 7.8754 17.2219 8.60634 17.4208 9.54611ZM4.8397 19.6102C4.83473 20.2069 4.35241 20.6842 3.75572 20.6842H2.44302C1.84633 20.6842 1.36401 20.2069 1.35904 19.6102V18.3074C1.65738 18.5014 2.0502 18.5958 2.44302 18.5958H4.8397V19.6102ZM22.6408 19.6102C22.6358 20.2069 22.1535 20.6842 21.5568 20.6842H20.2441C19.6474 20.6842 19.1651 20.2019 19.1601 19.6102V18.5958H21.5568C21.9496 18.5958 22.3425 18.5014 22.6408 18.3074V19.6102ZM21.5568 17.6014H2.44302C1.8513 17.6063 1.36401 17.134 1.35904 16.5373V12.619C1.35904 12.0721 1.60268 11.55 2.02036 11.1969C2.02534 11.192 2.03528 11.182 2.04025 11.1771L2.7165 10.5406H21.5469L22.0242 11.0527C22.0292 11.0627 22.0441 11.0677 22.0491 11.0776C22.422 11.4306 22.6358 11.9229 22.6358 12.4351V16.5373H22.6408C22.6358 17.129 22.1485 17.6063 21.5568 17.6014Z" fill="#F2F2F2" stroke="#F2F2F2" stroke-width="0.7"/>
<path d="M9.0296 1.96167C9.0296 1.40939 9.47732 0.96167 10.0296 0.96167H14.0195C14.5718 0.96167 15.0195 1.40939 15.0195 1.96167V2.49681H9.0296V1.96167Z" fill="#F2F2F2"/>
<circle cx="4.80231" cy="14.2891" r="1.5" fill="#F2F2F2"/>
<circle cx="19.233" cy="14.2891" r="1.5" fill="#F2F2F2"/>
<rect x="8.19366" y="13.2891" width="7.62428" height="2" rx="1" fill="#F2F2F2"/>
</svg>
