<svg width="23" height="22" viewBox="0 0 23 22" fill="none" xmlns="http://www.w3.org/2000/svg">
<path fill-rule="evenodd" clip-rule="evenodd" d="M3.2373 4C2.97209 4 2.71773 4.10536 2.5302 4.29289C2.34266 4.48043 2.2373 4.73478 2.2373 5V19C2.2373 19.2652 2.34266 19.5196 2.5302 19.7071C2.71773 19.8946 2.97209 20 3.2373 20H17.2373C17.5025 20 17.7569 19.8946 17.9444 19.7071C18.1319 19.5196 18.2373 19.2652 18.2373 19V13.66C18.2373 13.1077 18.685 12.66 19.2373 12.66C19.7896 12.66 20.2373 13.1077 20.2373 13.66V19C20.2373 19.7957 19.9212 20.5587 19.3586 21.1213C18.796 21.6839 18.033 22 17.2373 22H3.2373C2.44165 22 1.67859 21.6839 1.11598 21.1213C0.553375 20.5587 0.237305 19.7957 0.237305 19V5C0.237305 4.20435 0.553375 3.44129 1.11598 2.87868C1.67859 2.31607 2.44166 2 3.2373 2H8.5773C9.12959 2 9.5773 2.44772 9.5773 3C9.5773 3.55228 9.12959 4 8.5773 4H3.2373Z" fill="#5D55D0"/>
<path fill-rule="evenodd" clip-rule="evenodd" d="M16.5302 0.292893C16.9207 -0.0976311 17.5539 -0.0976311 17.9444 0.292893L21.9444 4.29289C22.3349 4.68342 22.3349 5.31658 21.9444 5.70711L11.9444 15.7071C11.7569 15.8946 11.5025 16 11.2373 16H7.2373C6.68502 16 6.2373 15.5523 6.2373 15V11C6.2373 10.7348 6.34266 10.4804 6.5302 10.2929L16.5302 0.292893ZM8.2373 11.4142V14H10.8231L19.8231 5L17.2373 2.41421L8.2373 11.4142Z" fill="#5D55D0"/>
</svg>
