<?xml version="1.0" encoding="utf-8"?>
<!-- Generator: Adobe Illustrator 17.1.0, SVG Export Plug-In . SVG Version: 6.00 Build 0)  -->
<!DOCTYPE svg PUBLIC "-//W3C//DTD SVG 1.1//EN" "http://www.w3.org/Graphics/SVG/1.1/DTD/svg11.dtd">
<svg version="1.1" id="Layer_1" xmlns="http://www.w3.org/2000/svg" xmlns:xlink="http://www.w3.org/1999/xlink" x="0px" y="0px"
	 viewBox="0 0 168 152" enable-background="new 0 0 168 152" xml:space="preserve">
<g>
	<path fill="#FFFFFF" d="M19.7,0h128.6C159.2,0,168,9.1,168,20.3v111.3c0,11.2-8.8,20.4-19.7,20.4H19.7C8.8,152,0,142.9,0,131.7
		V20.3C0,9.1,8.8,0,19.7,0z"/>
	<path fill="none" stroke="#B8B5FF" stroke-opacity="0.15" d="M19.7,0.7h128.6c10.5,0,19,8.8,19,19.7v111.3c0,10.9-8.5,19.7-19,19.7
		H19.7c-10.5,0-19-8.8-19-19.7V20.3C0.7,9.5,9.2,0.7,19.7,0.7z"/>
</g>
<path fill="#6979F8" d="M22.3,24.3c0-0.7,0.6-1.4,1.3-1.4h7.9c1.7,0,3.4,0.7,4.6,2c1.2,1.3,1.9,3,1.9,4.8v19c0,0.7-0.6,1.4-1.3,1.4
	s-1.3-0.6-1.3-1.4c0-0.7-0.3-1.4-0.8-1.9c-0.5-0.5-1.2-0.8-1.9-0.8h-9.2c-0.7,0-1.3-0.6-1.3-1.4V24.3z M35.4,44V29.7
	c0-1.1-0.4-2.1-1.2-2.9c-0.7-0.8-1.7-1.2-2.8-1.2h-6.6v17.7h7.9C33.7,43.3,34.7,43.6,35.4,44z"/>
<path fill="#6979F8" d="M37.4,24.9c1.2-1.3,2.9-2,4.6-2h7.9c0.7,0,1.3,0.6,1.3,1.4v20.4c0,0.7-0.6,1.4-1.3,1.4h-9.2
	c-0.7,0-1.4,0.3-1.9,0.8c-0.5,0.5-0.8,1.2-0.8,1.9c0,0.7-0.6,1.4-1.3,1.4s-1.3-0.6-1.3-1.4v-19C35.4,27.9,36.1,26.2,37.4,24.9z
	 M38.1,44c0.8-0.5,1.7-0.7,2.6-0.7h7.9V25.7H42c-1,0-2,0.4-2.8,1.2s-1.2,1.8-1.2,2.9V44z"/>
<path fill="#828282" d="M26,71.9c1.2,0,2.1,0.3,2.8,0.9c0.7,0.6,1,1.4,1,2.4c0,1-0.3,1.8-1,2.4c-0.7,0.6-1.6,0.9-2.8,0.9h-2.5v3h-1
	v-9.5H26z M26,77.6c0.9,0,1.6-0.2,2.1-0.6c0.5-0.4,0.7-1,0.7-1.8c0-0.8-0.2-1.4-0.7-1.8c-0.5-0.4-1.2-0.6-2.1-0.6h-2.4v4.8H26z
	 M33.8,74.2c0.9,0,1.6,0.2,2.1,0.7c0.5,0.5,0.7,1.1,0.7,2.1v4.4h-0.9v-1.1c-0.2,0.4-0.5,0.7-0.9,0.9c-0.4,0.2-0.9,0.3-1.4,0.3
	c-0.8,0-1.4-0.2-1.8-0.6c-0.5-0.4-0.7-0.9-0.7-1.5c0-0.6,0.2-1.1,0.6-1.5c0.4-0.4,1.1-0.6,2-0.6h2.2V77c0-0.6-0.2-1.1-0.5-1.4
	c-0.3-0.3-0.8-0.5-1.5-0.5c-0.4,0-0.9,0.1-1.3,0.2c-0.4,0.1-0.7,0.3-1,0.6L31,75.2c0.3-0.3,0.8-0.5,1.3-0.7
	C32.8,74.3,33.3,74.2,33.8,74.2z M33.5,80.7c0.5,0,1-0.1,1.4-0.4c0.4-0.3,0.7-0.6,0.8-1.1v-1.2h-2.2c-1.2,0-1.8,0.4-1.8,1.3
	c0,0.4,0.2,0.7,0.5,1C32.5,80.6,33,80.7,33.5,80.7z M42.3,77.7c0.5,0.1,0.9,0.3,1.1,0.6c0.3,0.3,0.4,0.6,0.4,1.1
	c0,0.4-0.1,0.8-0.4,1.1c-0.3,0.3-0.6,0.6-1.1,0.8c-0.5,0.2-1,0.3-1.6,0.3c-0.5,0-1-0.1-1.5-0.2c-0.5-0.2-0.9-0.4-1.3-0.7l0.3-0.7
	c0.3,0.2,0.7,0.4,1.1,0.6c0.4,0.1,0.8,0.2,1.3,0.2c0.6,0,1.2-0.1,1.6-0.4c0.4-0.3,0.6-0.6,0.6-1c0-0.4-0.2-0.7-0.5-0.9
	c-0.3-0.2-0.8-0.3-1.4-0.3h-1.2v-0.7H41c0.5,0,0.9-0.1,1.2-0.3c0.3-0.2,0.5-0.5,0.5-0.8c0-0.4-0.2-0.7-0.5-0.9
	c-0.3-0.2-0.8-0.3-1.4-0.3c-0.7,0-1.5,0.2-2.2,0.6l-0.3-0.7c0.8-0.4,1.7-0.7,2.6-0.7c0.5,0,1,0.1,1.4,0.2c0.4,0.2,0.8,0.4,1,0.7
	c0.2,0.3,0.4,0.6,0.4,1c0,0.4-0.1,0.7-0.4,1C43.1,77.4,42.7,77.6,42.3,77.7z M50.4,77.7c0.9,0.2,1.4,0.8,1.4,1.8
	c0,0.6-0.2,1.1-0.7,1.4c-0.4,0.3-1.1,0.5-2,0.5H46v-7.1h3c0.8,0,1.4,0.2,1.9,0.5c0.4,0.3,0.7,0.8,0.7,1.4c0,0.4-0.1,0.7-0.3,1
	C51,77.4,50.7,77.6,50.4,77.7z M46.9,77.5H49c0.5,0,0.9-0.1,1.2-0.3c0.3-0.2,0.4-0.5,0.4-0.9c0-0.4-0.1-0.7-0.4-0.9
	c-0.3-0.2-0.7-0.3-1.2-0.3h-2.1V77.5z M49.1,80.7c0.6,0,1-0.1,1.3-0.3c0.3-0.2,0.4-0.5,0.4-0.9s-0.1-0.7-0.4-0.9
	c-0.3-0.2-0.7-0.3-1.3-0.3h-2.3v2.5H49.1z M56.8,81.5c-0.7,0-1.3-0.2-1.8-0.5c-0.5-0.3-1-0.8-1.3-1.3c-0.3-0.6-0.5-1.2-0.5-1.9
	c0-0.7,0.2-1.3,0.5-1.9c0.3-0.6,0.7-1,1.3-1.3c0.5-0.3,1.1-0.5,1.8-0.5c0.7,0,1.3,0.2,1.8,0.5c0.5,0.3,0.9,0.7,1.2,1.3
	c0.3,0.6,0.5,1.2,0.5,1.9c0,0.7-0.2,1.3-0.5,1.9c-0.3,0.6-0.7,1-1.2,1.3C58.1,81.4,57.5,81.5,56.8,81.5z M56.8,80.7
	c0.5,0,0.9-0.1,1.3-0.3c0.4-0.2,0.7-0.6,0.9-1c0.2-0.4,0.3-0.9,0.3-1.5c0-0.5-0.1-1-0.3-1.5c-0.2-0.4-0.5-0.8-0.9-1
	c-0.4-0.2-0.8-0.4-1.3-0.4c-0.5,0-0.9,0.1-1.3,0.4c-0.4,0.2-0.7,0.6-0.9,1c-0.2,0.4-0.3,0.9-0.3,1.5c0,0.5,0.1,1,0.3,1.5
	c0.2,0.4,0.5,0.8,0.9,1C55.9,80.5,56.3,80.7,56.8,80.7z M65.9,74.2c0.6,0,1.2,0.2,1.8,0.5c0.5,0.3,0.9,0.7,1.2,1.3s0.4,1.2,0.4,1.9
	c0,0.7-0.1,1.3-0.4,1.9s-0.7,1-1.2,1.3c-0.5,0.3-1.1,0.4-1.8,0.4c-0.6,0-1.1-0.1-1.5-0.4c-0.4-0.2-0.8-0.6-1.1-1.1v4h-0.9v-9.8h0.9
	v1.4c0.3-0.5,0.6-0.8,1.1-1.1C64.8,74.4,65.3,74.2,65.9,74.2z M65.8,80.7c0.5,0,0.9-0.1,1.3-0.3c0.4-0.2,0.7-0.6,0.9-1
	c0.2-0.4,0.3-0.9,0.3-1.5c0-0.5-0.1-1-0.3-1.4c-0.2-0.4-0.5-0.8-0.9-1c-0.4-0.2-0.8-0.4-1.3-0.4c-0.5,0-0.9,0.1-1.3,0.4
	c-0.4,0.2-0.7,0.6-0.9,1c-0.2,0.4-0.3,0.9-0.3,1.4c0,0.5,0.1,1,0.3,1.5c0.2,0.4,0.5,0.8,0.9,1C64.9,80.5,65.3,80.7,65.8,80.7z
	 M74.1,81.5c-0.7,0-1.3-0.2-1.8-0.5c-0.5-0.3-1-0.8-1.3-1.3c-0.3-0.6-0.5-1.2-0.5-1.9c0-0.7,0.2-1.3,0.5-1.9c0.3-0.6,0.7-1,1.3-1.3
	c0.5-0.3,1.1-0.5,1.8-0.5c0.7,0,1.3,0.2,1.8,0.5c0.5,0.3,0.9,0.7,1.2,1.3c0.3,0.6,0.5,1.2,0.5,1.9c0,0.7-0.2,1.3-0.5,1.9
	c-0.3,0.6-0.7,1-1.2,1.3C75.4,81.4,74.8,81.5,74.1,81.5z M74.1,80.7c0.5,0,0.9-0.1,1.3-0.3c0.4-0.2,0.7-0.6,0.9-1
	c0.2-0.4,0.3-0.9,0.3-1.5c0-0.5-0.1-1-0.3-1.5c-0.2-0.4-0.5-0.8-0.9-1c-0.4-0.2-0.8-0.4-1.3-0.4c-0.5,0-0.9,0.1-1.3,0.4
	c-0.4,0.2-0.7,0.6-0.9,1c-0.2,0.4-0.3,0.9-0.3,1.5c0,0.5,0.1,1,0.3,1.5c0.2,0.4,0.5,0.8,0.9,1C73.2,80.5,73.7,80.7,74.1,80.7z
	 M84.2,75.2h-2.6v6.3h-0.9v-6.3h-2.6v-0.9h6.2V75.2z M28.5,90.6v7.1h-0.9v-6.3h-4.3v6.3h-0.9v-7.1H28.5z M33.6,90.5
	c0.9,0,1.6,0.2,2.1,0.7c0.5,0.5,0.7,1.1,0.7,2.1v4.4h-0.9v-1.1c-0.2,0.4-0.5,0.7-0.9,0.9c-0.4,0.2-0.9,0.3-1.4,0.3
	c-0.8,0-1.4-0.2-1.8-0.6c-0.5-0.4-0.7-0.9-0.7-1.5c0-0.6,0.2-1.1,0.6-1.5c0.4-0.4,1.1-0.6,2-0.6h2.2v-0.4c0-0.6-0.2-1.1-0.5-1.4
	c-0.3-0.3-0.8-0.5-1.5-0.5c-0.4,0-0.9,0.1-1.3,0.2c-0.4,0.1-0.7,0.3-1,0.6l-0.4-0.7c0.3-0.3,0.8-0.5,1.3-0.7
	C32.5,90.6,33,90.5,33.6,90.5z M33.2,97c0.5,0,1-0.1,1.4-0.4c0.4-0.3,0.7-0.6,0.8-1.1v-1.2h-2.2c-1.2,0-1.8,0.4-1.8,1.3
	c0,0.4,0.2,0.7,0.5,1C32.2,96.9,32.7,97,33.2,97z M41.7,97.8c-0.7,0-1.3-0.2-1.8-0.5c-0.5-0.3-1-0.7-1.3-1.3
	c-0.3-0.6-0.5-1.2-0.5-1.9c0-0.7,0.2-1.3,0.5-1.9c0.3-0.6,0.7-1,1.3-1.3c0.5-0.3,1.2-0.5,1.8-0.5c0.6,0,1.1,0.1,1.6,0.4
	c0.5,0.2,0.8,0.6,1.1,1l-0.7,0.5c-0.2-0.4-0.5-0.6-0.9-0.8c-0.3-0.2-0.7-0.3-1.1-0.3c-0.5,0-0.9,0.1-1.4,0.4c-0.4,0.2-0.7,0.6-0.9,1
	c-0.2,0.4-0.3,0.9-0.3,1.5c0,0.6,0.1,1,0.3,1.5c0.2,0.4,0.5,0.7,0.9,1c0.4,0.2,0.9,0.3,1.4,0.3c0.4,0,0.8-0.1,1.1-0.3
	c0.3-0.2,0.6-0.4,0.9-0.8l0.7,0.5c-0.3,0.5-0.6,0.8-1.1,1.1C42.8,97.7,42.3,97.8,41.7,97.8z M52.4,90.6v7.1h-0.9v-6.3h-4.3v6.3h-0.9
	v-7.1H52.4z M57.9,97.8c-0.7,0-1.3-0.2-1.8-0.5c-0.5-0.3-1-0.8-1.3-1.3c-0.3-0.6-0.5-1.2-0.5-1.9c0-0.7,0.2-1.3,0.5-1.9
	c0.3-0.6,0.7-1,1.3-1.3s1.1-0.5,1.8-0.5c0.7,0,1.3,0.2,1.8,0.5s0.9,0.7,1.2,1.3c0.3,0.6,0.5,1.2,0.5,1.9c0,0.7-0.2,1.3-0.5,1.9
	c-0.3,0.6-0.7,1-1.2,1.3C59.2,97.6,58.6,97.8,57.9,97.8z M57.9,96.9c0.5,0,0.9-0.1,1.3-0.3c0.4-0.2,0.7-0.6,0.9-1
	c0.2-0.4,0.3-0.9,0.3-1.5c0-0.5-0.1-1-0.3-1.5c-0.2-0.4-0.5-0.8-0.9-1c-0.4-0.2-0.8-0.4-1.3-0.4c-0.5,0-0.9,0.1-1.3,0.4
	c-0.4,0.2-0.7,0.6-0.9,1c-0.2,0.4-0.3,0.9-0.3,1.5c0,0.5,0.1,1,0.3,1.5c0.2,0.4,0.5,0.8,0.9,1C57,96.8,57.4,96.9,57.9,96.9z
	 M67,90.5c0.6,0,1.2,0.2,1.8,0.5c0.5,0.3,0.9,0.7,1.2,1.3c0.3,0.6,0.4,1.2,0.4,1.9c0,0.7-0.1,1.3-0.4,1.9c-0.3,0.6-0.7,1-1.2,1.3
	c-0.5,0.3-1.1,0.4-1.8,0.4c-0.6,0-1.1-0.1-1.5-0.4c-0.4-0.2-0.8-0.6-1.1-1.1v4h-0.9v-9.8h0.9V92c0.3-0.5,0.6-0.8,1.1-1.1
	C65.9,90.7,66.4,90.5,67,90.5z M66.9,96.9c0.5,0,0.9-0.1,1.3-0.3c0.4-0.2,0.7-0.6,0.9-1c0.2-0.4,0.3-0.9,0.3-1.5
	c0-0.5-0.1-1-0.3-1.4c-0.2-0.4-0.5-0.8-0.9-1c-0.4-0.2-0.8-0.4-1.3-0.4c-0.5,0-0.9,0.1-1.3,0.4c-0.4,0.2-0.7,0.6-0.9,1
	c-0.2,0.4-0.3,0.9-0.3,1.4c0,0.5,0.1,1,0.3,1.5c0.2,0.4,0.5,0.8,0.9,1C66,96.8,66.4,96.9,66.9,96.9z M77,91.4h-2.6v6.3h-0.9v-6.3
	h-2.6v-0.9H77V91.4z M80.7,90.5c0.9,0,1.6,0.2,2.1,0.7c0.5,0.5,0.7,1.1,0.7,2.1v4.4h-0.9v-1.1c-0.2,0.4-0.5,0.7-0.9,0.9
	c-0.4,0.2-0.9,0.3-1.4,0.3c-0.8,0-1.4-0.2-1.8-0.6c-0.5-0.4-0.7-0.9-0.7-1.5c0-0.6,0.2-1.1,0.6-1.5c0.4-0.4,1.1-0.6,2-0.6h2.2v-0.4
	c0-0.6-0.2-1.1-0.5-1.4c-0.3-0.3-0.8-0.5-1.5-0.5c-0.4,0-0.9,0.1-1.3,0.2c-0.4,0.1-0.7,0.3-1,0.6l-0.4-0.7c0.3-0.3,0.8-0.5,1.3-0.7
	C79.7,90.6,80.2,90.5,80.7,90.5z M80.4,97c0.5,0,1-0.1,1.4-0.4c0.4-0.3,0.7-0.6,0.8-1.1v-1.2h-2.2c-1.2,0-1.8,0.4-1.8,1.3
	c0,0.4,0.2,0.7,0.5,1C79.4,96.9,79.8,97,80.4,97z"/>
</svg>
