<svg width="25" height="24" viewBox="0 0 25 24" fill="none" xmlns="http://www.w3.org/2000/svg">
<path d="M15.2894 8.08305C15.2894 7.70426 15.1663 7.39745 14.9201 7.1626C14.6739 6.92775 14.35 6.81032 13.9485 6.81032H12.1303V9.35578H13.9485C14.35 9.35578 14.6739 9.23836 14.9201 9.00351C15.1663 8.76866 15.2894 8.46184 15.2894 8.08305ZM16.636 8.08305C16.636 8.81411 16.3964 9.4107 15.9173 9.87283C15.4381 10.3349 14.8197 10.566 14.0621 10.566H12.1303V11.2365H14.9996C15.0527 11.2365 15.0962 11.2535 15.1303 11.2876C15.1644 11.3217 15.1815 11.3652 15.1815 11.4183V12.1456C15.1815 12.1986 15.1644 12.2421 15.1303 12.2762C15.0962 12.3103 15.0527 12.3274 14.9996 12.3274H12.1303V13.4183C12.1303 13.4713 12.1123 13.5149 12.0763 13.549C12.0404 13.5831 11.9978 13.6001 11.9485 13.6001H10.9996C10.9466 13.6001 10.9031 13.5831 10.869 13.549C10.8349 13.5149 10.8178 13.4713 10.8178 13.4183V12.3274H9.5451C9.49207 12.3274 9.44851 12.3103 9.41442 12.2762C9.38033 12.2421 9.36328 12.1986 9.36328 12.1456V11.4183C9.36328 11.3652 9.38033 11.3217 9.41442 11.2876C9.44851 11.2535 9.49207 11.2365 9.5451 11.2365H10.8178V10.566H9.5451C9.49207 10.566 9.44851 10.549 9.41442 10.5149C9.38033 10.4808 9.36328 10.4372 9.36328 10.3842V9.5376C9.36328 9.48836 9.38033 9.44574 9.41442 9.40976C9.44851 9.37377 9.49207 9.35578 9.5451 9.35578H10.8178V5.78192C10.8178 5.72889 10.8349 5.68532 10.869 5.65123C10.9031 5.61714 10.9466 5.6001 10.9996 5.6001H14.0621C14.8197 5.6001 15.4381 5.83116 15.9173 6.29328C16.3964 6.7554 16.636 7.35199 16.636 8.08305Z" fill="white"/>
<path d="M12.9992 18.4C8.11922 18.4 4.19922 14.48 4.19922 9.60005C4.19922 4.72005 8.11922 0.800049 12.9992 0.800049C17.8792 0.800049 21.7992 4.72005 21.7992 9.60005C21.7992 14.48 17.8792 18.4 12.9992 18.4ZM12.9992 2.40005C8.99922 2.40005 5.79922 5.60005 5.79922 9.60005C5.79922 13.6 8.99922 16.8 12.9992 16.8C16.9992 16.8 20.1992 13.6 20.1992 9.60005C20.1992 5.60005 16.9992 2.40005 12.9992 2.40005Z" fill="white"/>
<path d="M2.20039 14.3999C2.20039 13.9581 1.84222 13.5999 1.40039 13.5999C0.958563 13.5999 0.600391 13.9581 0.600391 14.3999H2.20039ZM25.0004 14.3999C25.0004 13.9581 24.6422 13.5999 24.2004 13.5999C23.7586 13.5999 23.4004 13.9581 23.4004 14.3999H25.0004ZM0.600391 14.3999V19.9999H2.20039V14.3999H0.600391ZM3.80039 23.1999H21.8004V21.5999H3.80039V23.1999ZM25.0004 19.9999V14.3999H23.4004V19.9999H25.0004ZM21.8004 23.1999C23.5677 23.1999 25.0004 21.7672 25.0004 19.9999H23.4004C23.4004 20.8836 22.684 21.5999 21.8004 21.5999V23.1999ZM0.600391 19.9999C0.600391 21.7672 2.03308 23.1999 3.80039 23.1999V21.5999C2.91674 21.5999 2.20039 20.8836 2.20039 19.9999H0.600391Z" fill="white"/>
</svg>
