<svg width="128" height="112" viewBox="0 0 128 112" fill="none" xmlns="http://www.w3.org/2000/svg">
<rect width="128" height="112" rx="15" fill="white"/>
<rect x="0.5" y="0.5" width="127" height="111" rx="14.5" stroke="#B8B5FF" stroke-opacity="0.15"/>
<path d="M21.2031 52.3242H21.3848C22.0293 52.3281 22.6172 52.4785 23.1484 52.7754C23.6797 53.0723 24.0918 53.4824 24.3848 54.0059C24.6816 54.5254 24.8301 55.1074 24.8301 55.752C24.8301 56.4004 24.6816 56.9883 24.3848 57.5156C24.0879 58.043 23.6777 58.4551 23.1543 58.752C22.6309 59.0449 22.0488 59.1953 21.4082 59.2031H21.2031V60.3516H20.1133V59.2031H19.9492C19.2969 59.2031 18.7031 59.0547 18.168 58.7578C17.6367 58.4609 17.2227 58.0508 16.9258 57.5273C16.6328 57.0039 16.4863 56.416 16.4863 55.7637C16.4863 55.1113 16.6328 54.5234 16.9258 54C17.2227 53.4766 17.6367 53.0664 18.168 52.7695C18.7031 52.4727 19.2969 52.3242 19.9492 52.3242H20.1133V51.1172H21.2031V52.3242ZM19.9492 53.209C19.2148 53.209 18.6328 53.4355 18.2031 53.8887C17.7773 54.3379 17.5645 54.9629 17.5645 55.7637C17.5645 56.5684 17.7773 57.1953 18.2031 57.6445C18.6289 58.0898 19.2148 58.3125 19.9609 58.3125H20.1133V53.209H19.9492ZM21.2031 53.209V58.3125H21.3672C22.1133 58.3125 22.6953 58.084 23.1133 57.627C23.5352 57.166 23.7461 56.541 23.7461 55.752C23.7461 54.9707 23.5352 54.3516 23.1133 53.8945C22.6953 53.4375 22.1055 53.209 21.3438 53.209H21.2031ZM25.791 56.7715C25.791 56.1504 25.9121 55.5918 26.1543 55.0957C26.4004 54.5996 26.7402 54.2168 27.1738 53.9473C27.6113 53.6777 28.1094 53.543 28.668 53.543C29.5312 53.543 30.2285 53.8418 30.7598 54.4395C31.2949 55.0371 31.5625 55.832 31.5625 56.8242V56.9004C31.5625 57.5176 31.4434 58.0723 31.2051 58.5645C30.9707 59.0527 30.6328 59.4336 30.1914 59.707C29.7539 59.9805 29.25 60.1172 28.6797 60.1172C27.8203 60.1172 27.123 59.8184 26.5879 59.2207C26.0566 58.623 25.791 57.832 25.791 56.8477V56.7715ZM26.8809 56.9004C26.8809 57.6035 27.043 58.168 27.3672 58.5938C27.6953 59.0195 28.1328 59.2324 28.6797 59.2324C29.2305 59.2324 29.668 59.0176 29.9922 58.5879C30.3164 58.1543 30.4785 57.5488 30.4785 56.7715C30.4785 56.0762 30.3125 55.5137 29.9805 55.084C29.6523 54.6504 29.2148 54.4336 28.668 54.4336C28.1328 54.4336 27.7012 54.6465 27.373 55.0723C27.0449 55.498 26.8809 56.1074 26.8809 56.9004ZM37.5039 54.5391H35.377V60H34.293V54.5391H32.207V53.6602H37.5039V54.5391ZM38.0254 56.7715C38.0254 56.1504 38.1465 55.5918 38.3887 55.0957C38.6348 54.5996 38.9746 54.2168 39.4082 53.9473C39.8457 53.6777 40.3438 53.543 40.9023 53.543C41.7656 53.543 42.4629 53.8418 42.9941 54.4395C43.5293 55.0371 43.7969 55.832 43.7969 56.8242V56.9004C43.7969 57.5176 43.6777 58.0723 43.4395 58.5645C43.2051 59.0527 42.8672 59.4336 42.4258 59.707C41.9883 59.9805 41.4844 60.1172 40.9141 60.1172C40.0547 60.1172 39.3574 59.8184 38.8223 59.2207C38.291 58.623 38.0254 57.832 38.0254 56.8477V56.7715ZM39.1152 56.9004C39.1152 57.6035 39.2773 58.168 39.6016 58.5938C39.9297 59.0195 40.3672 59.2324 40.9141 59.2324C41.4648 59.2324 41.9023 59.0176 42.2266 58.5879C42.5508 58.1543 42.7129 57.5488 42.7129 56.7715C42.7129 56.0762 42.5469 55.5137 42.2148 55.084C41.8867 54.6504 41.4492 54.4336 40.9023 54.4336C40.3672 54.4336 39.9355 54.6465 39.6074 55.0723C39.2793 55.498 39.1152 56.1074 39.1152 56.9004ZM54.5781 57.293C54.4727 58.1953 54.1387 58.8926 53.5762 59.3848C53.0176 59.873 52.2734 60.1172 51.3438 60.1172C50.3359 60.1172 49.5273 59.7559 48.918 59.0332C48.3125 58.3105 48.0098 57.3438 48.0098 56.1328V55.3125C48.0098 54.5195 48.1504 53.8223 48.4316 53.2207C48.7168 52.6191 49.1191 52.1582 49.6387 51.8379C50.1582 51.5137 50.7598 51.3516 51.4434 51.3516C52.3496 51.3516 53.0762 51.6055 53.623 52.1133C54.1699 52.6172 54.4883 53.3164 54.5781 54.2109H53.4473C53.3496 53.5312 53.1367 53.0391 52.8086 52.7344C52.4844 52.4297 52.0293 52.2773 51.4434 52.2773C50.7246 52.2773 50.1602 52.543 49.75 53.0742C49.3438 53.6055 49.1406 54.3613 49.1406 55.3418V56.168C49.1406 57.0938 49.334 57.8301 49.7207 58.377C50.1074 58.9238 50.6484 59.1973 51.3438 59.1973C51.9688 59.1973 52.4473 59.0566 52.7793 58.7754C53.1152 58.4902 53.3379 57.9961 53.4473 57.293H54.5781ZM61.8379 52.3945H59.0957V60H57.9766V52.3945H55.2402V51.4688H61.8379V52.3945ZM69.2148 57.293C69.1094 58.1953 68.7754 58.8926 68.2129 59.3848C67.6543 59.873 66.9102 60.1172 65.9805 60.1172C64.9727 60.1172 64.1641 59.7559 63.5547 59.0332C62.9492 58.3105 62.6465 57.3438 62.6465 56.1328V55.3125C62.6465 54.5195 62.7871 53.8223 63.0684 53.2207C63.3535 52.6191 63.7559 52.1582 64.2754 51.8379C64.7949 51.5137 65.3965 51.3516 66.0801 51.3516C66.9863 51.3516 67.7129 51.6055 68.2598 52.1133C68.8066 52.6172 69.125 53.3164 69.2148 54.2109H68.084C67.9863 53.5312 67.7734 53.0391 67.4453 52.7344C67.1211 52.4297 66.666 52.2773 66.0801 52.2773C65.3613 52.2773 64.7969 52.543 64.3867 53.0742C63.9805 53.6055 63.7773 54.3613 63.7773 55.3418V56.168C63.7773 57.0938 63.9707 57.8301 64.3574 58.377C64.7441 58.9238 65.2852 59.1973 65.9805 59.1973C66.6055 59.1973 67.084 59.0566 67.416 58.7754C67.752 58.4902 67.9746 57.9961 68.084 57.293H69.2148ZM16.7793 72.5371C16.7793 71.6543 16.8965 70.8066 17.1309 69.9941C17.3691 69.1816 17.7227 68.4434 18.1914 67.7793C18.6602 67.1152 19.1465 66.6465 19.6504 66.373L19.873 67.0879C19.3027 67.5254 18.834 68.1934 18.4668 69.0918C18.1035 69.9902 17.9043 70.9961 17.8691 72.1094L17.8633 72.6074C17.8633 74.1152 18.1387 75.4238 18.6895 76.5332C19.0215 77.1973 19.416 77.7168 19.873 78.0918L19.6504 78.7539C19.1309 78.4648 18.6348 77.9805 18.1621 77.3008C17.2402 75.9727 16.7793 74.3848 16.7793 72.5371ZM26.1191 69.6602V76H25.0293V70.5566H22.873L22.7441 72.9297C22.6738 74.0195 22.4902 74.7988 22.1934 75.2676C21.9004 75.7363 21.4336 75.9805 20.793 76H20.3594V75.0449L20.6699 75.0215C21.0215 74.9824 21.2734 74.7793 21.4258 74.4121C21.5781 74.0449 21.6758 73.3652 21.7188 72.373L21.8359 69.6602H26.1191ZM31.9609 69.6602H33.0449V76H31.9609V71.377L29.0371 76H27.9531V69.6602H29.0371V74.2891L31.9609 69.6602ZM34.8789 69.6602H35.9688V75.1152H38.8867V69.6602H39.9707V75.1152H40.7266L40.6211 77.8809H39.6484V76H34.8789V69.6602ZM44.5293 76.1172C43.6699 76.1172 42.9707 75.8359 42.4316 75.2734C41.8926 74.707 41.623 73.9512 41.623 73.0059V72.8066C41.623 72.1777 41.7422 71.6172 41.9805 71.125C42.2227 70.6289 42.5586 70.2422 42.9883 69.9648C43.4219 69.6836 43.8906 69.543 44.3945 69.543C45.2188 69.543 45.8594 69.8145 46.3164 70.3574C46.7734 70.9004 47.002 71.6777 47.002 72.6895V73.1406H42.707C42.7227 73.7656 42.9043 74.2715 43.252 74.6582C43.6035 75.041 44.0488 75.2324 44.5879 75.2324C44.9707 75.2324 45.2949 75.1543 45.5605 74.998C45.8262 74.8418 46.0586 74.6348 46.2578 74.377L46.9199 74.8926C46.3887 75.709 45.5918 76.1172 44.5293 76.1172ZM44.3945 70.4336C43.957 70.4336 43.5898 70.5938 43.293 70.9141C42.9961 71.2305 42.8125 71.6758 42.7422 72.25H45.918V72.168C45.8867 71.6172 45.7383 71.1914 45.4727 70.8906C45.207 70.5859 44.8477 70.4336 44.3945 70.4336ZM48.3613 76V69.6602H50.834C51.6777 69.6602 52.3242 69.8086 52.7734 70.1055C53.2266 70.3984 53.4531 70.8301 53.4531 71.4004C53.4531 71.6934 53.3652 71.959 53.1895 72.1973C53.0137 72.4316 52.7539 72.6113 52.4102 72.7363C52.793 72.8262 53.0996 73.002 53.3301 73.2637C53.5645 73.5254 53.6816 73.8379 53.6816 74.2012C53.6816 74.7832 53.4668 75.2285 53.0371 75.5371C52.6113 75.8457 52.0078 76 51.2266 76H48.3613ZM49.4453 73.2168V75.127H51.2383C51.6914 75.127 52.0293 75.043 52.252 74.875C52.4785 74.707 52.5918 74.4707 52.5918 74.166C52.5918 73.5332 52.127 73.2168 51.1973 73.2168H49.4453ZM49.4453 72.3496H50.8457C51.8613 72.3496 52.3691 72.0527 52.3691 71.459C52.3691 70.8652 51.8887 70.5586 50.9277 70.5391H49.4453V72.3496ZM59.0312 76C58.9688 75.875 58.918 75.6523 58.8789 75.332C58.375 75.8555 57.7734 76.1172 57.0742 76.1172C56.4492 76.1172 55.9355 75.9414 55.5332 75.5898C55.1348 75.2344 54.9355 74.7852 54.9355 74.2422C54.9355 73.582 55.1855 73.0703 55.6855 72.707C56.1895 72.3398 56.8965 72.1562 57.8066 72.1562H58.8613V71.6582C58.8613 71.2793 58.748 70.9785 58.5215 70.7559C58.2949 70.5293 57.9609 70.416 57.5195 70.416C57.1328 70.416 56.8086 70.5137 56.5469 70.709C56.2852 70.9043 56.1543 71.1406 56.1543 71.418H55.0645C55.0645 71.1016 55.1758 70.7969 55.3984 70.5039C55.625 70.207 55.9297 69.9727 56.3125 69.8008C56.6992 69.6289 57.123 69.543 57.584 69.543C58.3145 69.543 58.8867 69.7266 59.3008 70.0938C59.7148 70.457 59.9297 70.959 59.9453 71.5996V74.5176C59.9453 75.0996 60.0195 75.5625 60.168 75.9062V76H59.0312ZM57.2324 75.1738C57.5723 75.1738 57.8945 75.0859 58.1992 74.9102C58.5039 74.7344 58.7246 74.5059 58.8613 74.2246V72.9238H58.0117C56.6836 72.9238 56.0195 73.3125 56.0195 74.0898C56.0195 74.4297 56.1328 74.6953 56.3594 74.8867C56.5859 75.0781 56.877 75.1738 57.2324 75.1738ZM66.4902 69.6602V76H65.4004V73.5332H63.7656L62.2715 76H61.0996L62.6934 73.3691C62.2871 73.2207 61.9746 72.9922 61.7559 72.6836C61.541 72.3711 61.4336 72.0078 61.4336 71.5938C61.4336 71.0156 61.6504 70.5508 62.084 70.1992C62.5176 69.8438 63.0977 69.6641 63.8242 69.6602H66.4902ZM62.5234 71.6055C62.5234 71.9141 62.6289 72.1641 62.8398 72.3555C63.0508 72.543 63.3301 72.6387 63.6777 72.6426H65.4004V70.5391H63.8418C63.4395 70.5391 63.1191 70.6387 62.8809 70.8379C62.6426 71.0332 62.5234 71.2891 62.5234 71.6055ZM19.3633 91.2324C19.75 91.2324 20.0879 91.1152 20.377 90.8809C20.666 90.6465 20.8262 90.3535 20.8574 90.002H21.8828C21.8633 90.3652 21.7383 90.7109 21.5078 91.0391C21.2773 91.3672 20.9688 91.6289 20.582 91.8242C20.1992 92.0195 19.793 92.1172 19.3633 92.1172C18.5 92.1172 17.8125 91.8301 17.3008 91.2559C16.793 90.6777 16.5391 89.8887 16.5391 88.8887V88.707C16.5391 88.0898 16.6523 87.541 16.8789 87.0605C17.1055 86.5801 17.4297 86.207 17.8516 85.9414C18.2773 85.6758 18.7793 85.543 19.3574 85.543C20.0684 85.543 20.6582 85.7559 21.127 86.1816C21.5996 86.6074 21.8516 87.1602 21.8828 87.8398H20.8574C20.8262 87.4297 20.6699 87.0938 20.3887 86.832C20.1113 86.5664 19.7676 86.4336 19.3574 86.4336C18.8066 86.4336 18.3789 86.6328 18.0742 87.0312C17.7734 87.4258 17.623 87.998 17.623 88.748V88.9531C17.623 89.6836 17.7734 90.2461 18.0742 90.6406C18.375 91.0352 18.8047 91.2324 19.3633 91.2324ZM27.8125 86.5391H25.6855V92H24.6016V86.5391H22.5156V85.6602H27.8125V86.5391ZM28.334 88.7715C28.334 88.1504 28.4551 87.5918 28.6973 87.0957C28.9434 86.5996 29.2832 86.2168 29.7168 85.9473C30.1543 85.6777 30.6523 85.543 31.2109 85.543C32.0742 85.543 32.7715 85.8418 33.3027 86.4395C33.8379 87.0371 34.1055 87.832 34.1055 88.8242V88.9004C34.1055 89.5176 33.9863 90.0723 33.748 90.5645C33.5137 91.0527 33.1758 91.4336 32.7344 91.707C32.2969 91.9805 31.793 92.1172 31.2227 92.1172C30.3633 92.1172 29.666 91.8184 29.1309 91.2207C28.5996 90.623 28.334 89.832 28.334 88.8477V88.7715ZM29.4238 88.9004C29.4238 89.6035 29.5859 90.168 29.9102 90.5938C30.2383 91.0195 30.6758 91.2324 31.2227 91.2324C31.7734 91.2324 32.2109 91.0176 32.5352 90.5879C32.8594 90.1543 33.0215 89.5488 33.0215 88.7715C33.0215 88.0762 32.8555 87.5137 32.5234 87.084C32.1953 86.6504 31.7578 86.4336 31.2109 86.4336C30.6758 86.4336 30.2441 86.6465 29.916 87.0723C29.5879 87.498 29.4238 88.1074 29.4238 88.9004ZM40.8203 88.9004C40.8203 89.8652 40.5996 90.6426 40.1582 91.2324C39.7168 91.8223 39.1191 92.1172 38.3652 92.1172C37.5957 92.1172 36.9902 91.873 36.5488 91.3848V94.4375H35.4648V85.6602H36.4551L36.5078 86.3633C36.9492 85.8164 37.5625 85.543 38.3477 85.543C39.1094 85.543 39.7109 85.8301 40.1523 86.4043C40.5977 86.9785 40.8203 87.7773 40.8203 88.8008V88.9004ZM39.7363 88.7773C39.7363 88.0625 39.584 87.498 39.2793 87.084C38.9746 86.6699 38.5566 86.4629 38.0254 86.4629C37.3691 86.4629 36.877 86.7539 36.5488 87.3359V90.3652C36.873 90.9434 37.3691 91.2324 38.0371 91.2324C38.5566 91.2324 38.9688 91.0273 39.2734 90.6172C39.582 90.2031 39.7363 89.5898 39.7363 88.7773ZM41.916 88.7715C41.916 88.1504 42.0371 87.5918 42.2793 87.0957C42.5254 86.5996 42.8652 86.2168 43.2988 85.9473C43.7363 85.6777 44.2344 85.543 44.793 85.543C45.6562 85.543 46.3535 85.8418 46.8848 86.4395C47.4199 87.0371 47.6875 87.832 47.6875 88.8242V88.9004C47.6875 89.5176 47.5684 90.0723 47.3301 90.5645C47.0957 91.0527 46.7578 91.4336 46.3164 91.707C45.8789 91.9805 45.375 92.1172 44.8047 92.1172C43.9453 92.1172 43.248 91.8184 42.7129 91.2207C42.1816 90.623 41.916 89.832 41.916 88.8477V88.7715ZM43.0059 88.9004C43.0059 89.6035 43.168 90.168 43.4922 90.5938C43.8203 91.0195 44.2578 91.2324 44.8047 91.2324C45.3555 91.2324 45.793 91.0176 46.1172 90.5879C46.4414 90.1543 46.6035 89.5488 46.6035 88.7715C46.6035 88.0762 46.4375 87.5137 46.1055 87.084C45.7773 86.6504 45.3398 86.4336 44.793 86.4336C44.2578 86.4336 43.8262 86.6465 43.498 87.0723C43.1699 87.498 43.0059 88.1074 43.0059 88.9004ZM54.2266 92H53.1426V89.293H50.2305V92H49.1406V85.6602H50.2305V88.4082H53.1426V85.6602H54.2266V92ZM59.8867 92C59.8242 91.875 59.7734 91.6523 59.7344 91.332C59.2305 91.8555 58.6289 92.1172 57.9297 92.1172C57.3047 92.1172 56.791 91.9414 56.3887 91.5898C55.9902 91.2344 55.791 90.7852 55.791 90.2422C55.791 89.582 56.041 89.0703 56.541 88.707C57.0449 88.3398 57.752 88.1562 58.6621 88.1562H59.7168V87.6582C59.7168 87.2793 59.6035 86.9785 59.377 86.7559C59.1504 86.5293 58.8164 86.416 58.375 86.416C57.9883 86.416 57.6641 86.5137 57.4023 86.709C57.1406 86.9043 57.0098 87.1406 57.0098 87.418H55.9199C55.9199 87.1016 56.0312 86.7969 56.2539 86.5039C56.4805 86.207 56.7852 85.9727 57.168 85.8008C57.5547 85.6289 57.9785 85.543 58.4395 85.543C59.1699 85.543 59.7422 85.7266 60.1562 86.0938C60.5703 86.457 60.7852 86.959 60.8008 87.5996V90.5176C60.8008 91.0996 60.875 91.5625 61.0234 91.9062V92H59.8867ZM58.0879 91.1738C58.4277 91.1738 58.75 91.0859 59.0547 90.9102C59.3594 90.7344 59.5801 90.5059 59.7168 90.2246V88.9238H58.8672C57.5391 88.9238 56.875 89.3125 56.875 90.0898C56.875 90.4297 56.9883 90.6953 57.2148 90.8867C57.4414 91.0781 57.7324 91.1738 58.0879 91.1738ZM65.002 88.5957C65.002 89.4668 64.8867 90.3027 64.6562 91.1035C64.4297 91.9004 64.0801 92.6367 63.6074 93.3125C63.1387 93.9883 62.6465 94.4688 62.1309 94.7539L61.9023 94.0918C62.5039 93.6309 62.9863 92.916 63.3496 91.9473C63.7168 90.9746 63.9043 89.8965 63.9121 88.7129V88.5254C63.9121 87.7051 63.8262 86.9434 63.6543 86.2402C63.4824 85.5332 63.2422 84.9004 62.9336 84.3418C62.6289 83.7832 62.2852 83.3477 61.9023 83.0352L62.1309 82.373C62.6465 82.6582 63.1367 83.1348 63.6016 83.8027C64.0703 84.4707 64.4199 85.207 64.6504 86.0117C64.8848 86.8164 65.002 87.6777 65.002 88.5957Z" fill="#BDBDBD"/>
<path fill-rule="evenodd" clip-rule="evenodd" d="M18 22C18 21.4477 18.4477 21 19 21H37C37.5523 21 38 21.4477 38 22C38 22.5523 37.5523 23 37 23H19C18.4477 23 18 22.5523 18 22Z" fill="#6979F8"/>
<path fill-rule="evenodd" clip-rule="evenodd" d="M26 19C25.7348 19 25.4804 19.1054 25.2929 19.2929C25.1054 19.4804 25 19.7348 25 20V21H31V20C31 19.7348 30.8946 19.4804 30.7071 19.2929C30.5196 19.1054 30.2652 19 30 19H26ZM33 21V20C33 19.2043 32.6839 18.4413 32.1213 17.8787C31.5587 17.3161 30.7956 17 30 17H26C25.2044 17 24.4413 17.3161 23.8787 17.8787C23.3161 18.4413 23 19.2043 23 20V21H21C20.4477 21 20 21.4477 20 22V36C20 36.7957 20.3161 37.5587 20.8787 38.1213C21.4413 38.6839 22.2043 39 23 39H33C33.7957 39 34.5587 38.6839 35.1213 38.1213C35.6839 37.5587 36 36.7957 36 36V22C36 21.4477 35.5523 21 35 21H33ZM22 23V36C22 36.2652 22.1054 36.5196 22.2929 36.7071C22.4804 36.8946 22.7348 37 23 37H33C33.2652 37 33.5196 36.8946 33.7071 36.7071C33.8946 36.5196 34 36.2652 34 36V23H22Z" fill="#6979F8"/>
<path fill-rule="evenodd" clip-rule="evenodd" d="M26 26C26.5523 26 27 26.4477 27 27V33C27 33.5523 26.5523 34 26 34C25.4477 34 25 33.5523 25 33V27C25 26.4477 25.4477 26 26 26Z" fill="#6979F8"/>
<path fill-rule="evenodd" clip-rule="evenodd" d="M30 26C30.5523 26 31 26.4477 31 27V33C31 33.5523 30.5523 34 30 34C29.4477 34 29 33.5523 29 33V27C29 26.4477 29.4477 26 30 26Z" fill="#6979F8"/>
</svg>
