<svg width="18" height="18" viewBox="0 0 18 18" fill="none" xmlns="http://www.w3.org/2000/svg">
<path fill-rule="evenodd" clip-rule="evenodd" d="M17.7604 0.239663C18.0799 0.559183 18.0799 1.07723 17.7604 1.39675L8.76037 10.3967C8.44085 10.7163 7.9228 10.7163 7.60328 10.3967C7.28376 10.0772 7.28376 9.55919 7.60328 9.23967L16.6033 0.239663C16.9228 -0.0798572 17.4409 -0.0798572 17.7604 0.239663Z" fill="white"/>
<path fill-rule="evenodd" clip-rule="evenodd" d="M17.7604 0.239663C17.9826 0.461912 18.0579 0.791829 17.9541 1.08849L12.2268 17.4521C12.116 17.7688 11.8231 17.9857 11.4879 17.9993C11.1527 18.013 10.8431 17.8207 10.7069 17.5141L7.56197 10.4381L0.485891 7.29314C0.179334 7.1569 -0.0129907 6.84732 0.000684233 6.51213C0.0143592 6.17694 0.231263 5.88405 0.547899 5.77323L16.9115 0.0459569C17.2082 -0.0578749 17.5381 0.0174135 17.7604 0.239663ZM3.03634 6.63597L8.51412 9.07054C8.69922 9.15281 8.84722 9.30081 8.92949 9.48591L11.3641 14.9637L15.8482 2.15182L3.03634 6.63597Z" fill="white"/>
</svg>
