<svg width="25" height="24" viewBox="0 0 25 24" fill="none" xmlns="http://www.w3.org/2000/svg">
<path fill-rule="evenodd" clip-rule="evenodd" d="M5.1588 15.4645C6.09648 14.5268 7.36825 14 8.69434 14H16.6943C18.0204 14 19.2922 14.5268 20.2299 15.4645C21.1676 16.4021 21.6943 17.6739 21.6943 19V21C21.6943 21.5523 21.2466 22 20.6943 22C20.1421 22 19.6943 21.5523 19.6943 21V19C19.6943 18.2044 19.3783 17.4413 18.8157 16.8787C18.253 16.3161 17.49 16 16.6943 16H8.69434C7.89869 16 7.13562 16.3161 6.57302 16.8787C6.01041 17.4413 5.69434 18.2044 5.69434 19V21C5.69434 21.5523 5.24662 22 4.69434 22C4.14205 22 3.69434 21.5523 3.69434 21V19C3.69434 17.6739 4.22112 16.4021 5.1588 15.4645Z" fill="#6979F8"/>
<path fill-rule="evenodd" clip-rule="evenodd" d="M12.6943 4C11.0375 4 9.69434 5.34315 9.69434 7C9.69434 8.65685 11.0375 10 12.6943 10C14.3512 10 15.6943 8.65685 15.6943 7C15.6943 5.34315 14.3512 4 12.6943 4ZM7.69434 7C7.69434 4.23858 9.93291 2 12.6943 2C15.4558 2 17.6943 4.23858 17.6943 7C17.6943 9.76142 15.4558 12 12.6943 12C9.93291 12 7.69434 9.76142 7.69434 7Z" fill="#6979F8"/>
</svg>
