<?xml version="1.0" encoding="utf-8"?>
<!-- Generator: Adobe Illustrator 17.1.0, SVG Export Plug-In . SVG Version: 6.00 Build 0)  -->
<!DOCTYPE svg PUBLIC "-//W3C//DTD SVG 1.1//EN" "http://www.w3.org/Graphics/SVG/1.1/DTD/svg11.dtd">
<svg version="1.1" id="Layer_1" xmlns="http://www.w3.org/2000/svg" xmlns:xlink="http://www.w3.org/1999/xlink" x="0px" y="0px"
	 viewBox="0 0 169 152" enable-background="new 0 0 169 152" xml:space="preserve">
<g>
	<path fill="#FFFFFF" d="M19.8,0h129.4C160.1,0,169,9.1,169,20.4v111.3c0,11.2-8.9,20.4-19.8,20.4H19.8C8.9,152,0,142.9,0,131.6
		V20.4C0,9.1,8.9,0,19.8,0z"/>
	<path fill="none" stroke="#B8B5FF" stroke-opacity="0.15" d="M19.8,0.7h129.4c10.6,0,19.1,8.8,19.1,19.7v111.3
		c0,10.9-8.6,19.7-19.1,19.7H19.8c-10.6,0-19.1-8.8-19.1-19.7V20.4C0.7,9.5,9.3,0.7,19.8,0.7z"/>
</g>
<path fill="#828282" d="M26.7,81.5c-0.9,0-1.7-0.2-2.5-0.6c-0.7-0.4-1.3-1-1.7-1.7c-0.4-0.7-0.6-1.6-0.6-2.5c0-0.9,0.2-1.7,0.6-2.5
	c0.4-0.7,1-1.3,1.7-1.7c0.7-0.4,1.6-0.6,2.5-0.6c0.7,0,1.3,0.1,1.9,0.4c0.6,0.2,1.1,0.6,1.5,1l-0.6,0.6c-0.7-0.8-1.6-1.1-2.7-1.1
	c-0.7,0-1.4,0.2-2,0.5c-0.6,0.3-1.1,0.8-1.4,1.4c-0.3,0.6-0.5,1.3-0.5,2c0,0.7,0.2,1.4,0.5,2c0.3,0.6,0.8,1.1,1.4,1.4
	c0.6,0.3,1.3,0.5,2,0.5c1.1,0,2-0.4,2.7-1.1l0.6,0.6c-0.4,0.5-0.9,0.8-1.5,1C28.1,81.4,27.4,81.5,26.7,81.5z M37.7,78.2h-5.8
	c0.1,0.7,0.3,1.3,0.8,1.8c0.5,0.5,1.1,0.7,1.9,0.7c0.4,0,0.8-0.1,1.2-0.2c0.4-0.2,0.7-0.4,0.9-0.7l0.5,0.6c-0.3,0.4-0.7,0.7-1.2,0.9
	c-0.5,0.2-1,0.3-1.5,0.3c-0.7,0-1.3-0.2-1.9-0.5c-0.5-0.3-1-0.8-1.3-1.3c-0.3-0.6-0.5-1.2-0.5-1.9c0-0.7,0.1-1.3,0.4-1.9
	c0.3-0.6,0.7-1,1.2-1.3c0.5-0.3,1.1-0.5,1.7-0.5c0.6,0,1.2,0.2,1.7,0.5c0.5,0.3,0.9,0.7,1.2,1.3c0.3,0.5,0.4,1.2,0.4,1.9L37.7,78.2z
	 M34.3,75.1c-0.7,0-1.2,0.2-1.7,0.7c-0.4,0.4-0.7,1-0.8,1.7h4.9c-0.1-0.7-0.3-1.3-0.8-1.7C35.6,75.3,35,75.1,34.3,75.1z M45.3,74.3
	v7.1h-0.9v-6.3h-3.3L41,76.9c-0.1,1.5-0.2,2.6-0.5,3.4s-0.7,1.2-1.4,1.2c-0.2,0-0.4,0-0.7-0.1l0.1-0.8c0.2,0,0.3,0.1,0.3,0.1
	c0.4,0,0.6-0.2,0.8-0.5c0.2-0.3,0.3-0.8,0.4-1.3c0.1-0.5,0.1-1.2,0.2-2l0.1-2.6H45.3z M56.4,77.8c0,1.1-0.4,2-1.1,2.6
	c-0.7,0.6-1.7,1-3,1v2.6h-0.9v-2.6c-1.3-0.1-2.3-0.4-3-1c-0.7-0.6-1.1-1.5-1.1-2.6c0-1.1,0.4-2,1.1-2.6c0.7-0.6,1.7-1,3-1v-2.9h0.9
	v2.9c1.3,0.1,2.3,0.4,3,1C56,75.9,56.4,76.8,56.4,77.8z M48.2,77.8c0,0.9,0.3,1.5,0.8,2c0.5,0.5,1.3,0.8,2.3,0.8v-5.6
	c-1,0.1-1.8,0.3-2.3,0.8C48.5,76.4,48.2,77,48.2,77.8z M52.3,80.7c1-0.1,1.8-0.3,2.3-0.8c0.5-0.5,0.8-1.1,0.8-2c0-0.8-0.3-1.5-0.8-2
	c-0.5-0.5-1.3-0.7-2.3-0.8V80.7z M58.3,74.3h0.9V80l4.6-5.7h0.8v7.1h-0.9v-5.7l-4.6,5.7h-0.8V74.3z M70.9,74.3h0.9v3.2h4.4v-3.2h0.9
	v7.1h-0.9v-3.1h-4.4v3.1h-0.9V74.3z M82.2,74.2c0.9,0,1.6,0.2,2.1,0.7c0.5,0.5,0.7,1.1,0.7,2.1v4.4h-0.9v-1.1
	c-0.2,0.4-0.5,0.7-0.9,0.9c-0.4,0.2-0.9,0.3-1.5,0.3c-0.8,0-1.4-0.2-1.8-0.6c-0.5-0.4-0.7-0.9-0.7-1.5c0-0.6,0.2-1.1,0.6-1.5
	c0.4-0.4,1.1-0.6,2-0.6h2.2V77c0-0.6-0.2-1.1-0.5-1.4c-0.3-0.3-0.8-0.5-1.5-0.5c-0.4,0-0.9,0.1-1.3,0.2c-0.4,0.1-0.8,0.3-1,0.6
	l-0.4-0.7c0.4-0.3,0.8-0.5,1.3-0.7C81.1,74.3,81.6,74.2,82.2,74.2z M81.9,80.7c0.5,0,1-0.1,1.4-0.4c0.4-0.3,0.7-0.6,0.8-1.1v-1.2
	h-2.2c-1.2,0-1.8,0.4-1.8,1.3c0,0.4,0.2,0.7,0.5,1C80.9,80.6,81.3,80.7,81.9,80.7z M25.4,97.8c-0.7,0-1.3-0.2-1.8-0.5
	c-0.5-0.3-1-0.7-1.3-1.3c-0.3-0.6-0.5-1.2-0.5-1.9c0-0.7,0.2-1.3,0.5-1.9c0.3-0.6,0.7-1,1.3-1.3c0.5-0.3,1.2-0.5,1.8-0.5
	c0.6,0,1.1,0.1,1.6,0.4c0.5,0.2,0.8,0.6,1.1,1l-0.7,0.5c-0.2-0.4-0.5-0.6-0.9-0.8c-0.4-0.2-0.7-0.3-1.1-0.3c-0.5,0-1,0.1-1.4,0.4
	c-0.4,0.2-0.7,0.6-0.9,1c-0.2,0.4-0.3,0.9-0.3,1.5c0,0.6,0.1,1,0.3,1.5c0.2,0.4,0.5,0.7,0.9,1c0.4,0.2,0.9,0.3,1.4,0.3
	c0.4,0,0.8-0.1,1.1-0.3c0.4-0.2,0.6-0.4,0.9-0.8l0.7,0.5c-0.3,0.5-0.6,0.8-1.1,1.1C26.5,97.7,26,97.8,25.4,97.8z M34.3,94
	c0.9,0.2,1.4,0.8,1.4,1.8c0,0.6-0.2,1.1-0.7,1.4c-0.4,0.3-1.1,0.5-2,0.5h-3.2v-7.1H33c0.8,0,1.4,0.2,1.9,0.5
	c0.4,0.3,0.7,0.8,0.7,1.4c0,0.4-0.1,0.7-0.3,1C35,93.7,34.7,93.9,34.3,94z M30.8,93.7h2.1c0.5,0,0.9-0.1,1.2-0.3
	c0.3-0.2,0.4-0.5,0.4-0.9s-0.1-0.7-0.4-0.9c-0.3-0.2-0.7-0.3-1.2-0.3h-2.1V93.7z M33,96.9c0.6,0,1-0.1,1.3-0.3
	c0.3-0.2,0.4-0.5,0.4-0.9c0-0.4-0.1-0.7-0.4-0.9c-0.3-0.2-0.7-0.3-1.3-0.3h-2.3v2.5H33z M44,94.4h-5.8c0.1,0.7,0.3,1.3,0.8,1.8
	c0.5,0.5,1.1,0.7,1.9,0.7c0.4,0,0.8-0.1,1.2-0.2c0.4-0.2,0.7-0.4,0.9-0.7l0.5,0.6c-0.3,0.4-0.7,0.7-1.2,0.9c-0.5,0.2-1,0.3-1.5,0.3
	c-0.7,0-1.3-0.2-1.9-0.5c-0.5-0.3-1-0.8-1.3-1.3c-0.3-0.6-0.5-1.2-0.5-1.9c0-0.7,0.1-1.3,0.4-1.9c0.3-0.6,0.7-1,1.2-1.3
	c0.5-0.3,1.1-0.5,1.7-0.5c0.6,0,1.2,0.2,1.7,0.5c0.5,0.3,0.9,0.7,1.2,1.3c0.3,0.5,0.4,1.2,0.4,1.9L44,94.4z M40.7,91.3
	c-0.7,0-1.2,0.2-1.7,0.7c-0.4,0.4-0.7,1-0.8,1.7h4.9c-0.1-0.7-0.3-1.3-0.8-1.7C41.9,91.6,41.3,91.3,40.7,91.3z M50.7,91.4h-2.6v6.3
	h-0.9v-6.3h-2.6v-0.9h6.2V91.4z M57.3,90.6v7.1h-0.9v-6.3H53l-0.1,1.8c-0.1,1.5-0.2,2.6-0.5,3.4c-0.3,0.8-0.7,1.2-1.4,1.2
	c-0.2,0-0.4,0-0.7-0.1l0.1-0.8c0.2,0,0.3,0.1,0.3,0.1c0.4,0,0.6-0.2,0.8-0.5c0.2-0.3,0.3-0.8,0.4-1.3c0.1-0.5,0.1-1.2,0.2-2l0.1-2.6
	H57.3z M62.8,97.8c-0.7,0-1.3-0.2-1.8-0.5c-0.5-0.3-1-0.8-1.3-1.3s-0.5-1.2-0.5-1.9c0-0.7,0.2-1.3,0.5-1.9c0.3-0.6,0.7-1,1.3-1.3
	c0.5-0.3,1.1-0.5,1.8-0.5c0.7,0,1.3,0.2,1.8,0.5c0.5,0.3,1,0.7,1.3,1.3c0.3,0.6,0.5,1.2,0.5,1.9c0,0.7-0.2,1.3-0.5,1.9
	c-0.3,0.6-0.7,1-1.3,1.3C64.1,97.6,63.5,97.8,62.8,97.8z M62.8,96.9c0.5,0,0.9-0.1,1.3-0.3c0.4-0.2,0.7-0.6,0.9-1
	c0.2-0.4,0.3-0.9,0.3-1.5c0-0.5-0.1-1-0.3-1.5c-0.2-0.4-0.5-0.8-0.9-1c-0.4-0.2-0.8-0.4-1.3-0.4s-0.9,0.1-1.3,0.4
	c-0.4,0.2-0.7,0.6-0.9,1c-0.2,0.4-0.3,0.9-0.3,1.5c0,0.5,0.1,1,0.3,1.5c0.2,0.4,0.5,0.8,0.9,1C61.9,96.8,62.3,96.9,62.8,96.9z
	 M76.1,90.6v7.1h-0.9v-5.6l-2.8,4.8H72l-2.8-4.8v5.7h-0.9v-7.1h1l2.9,5.1l3-5.1H76.1z M30.9,110.4c0,1.1-0.4,2-1.1,2.6s-1.7,1-3,1
	v2.6h-0.9v-2.6c-1.3-0.1-2.3-0.4-3-1c-0.7-0.6-1.1-1.5-1.1-2.6c0-1.1,0.4-2,1.1-2.6c0.7-0.6,1.7-1,3-1v-2.9h0.9v2.9
	c1.3,0.1,2.3,0.4,3,1S30.9,109.3,30.9,110.4z M22.7,110.4c0,0.9,0.3,1.5,0.8,2c0.5,0.5,1.3,0.8,2.3,0.8v-5.6c-1,0.1-1.8,0.3-2.3,0.8
	C23,108.9,22.7,109.6,22.7,110.4z M26.8,113.2c1-0.1,1.8-0.3,2.3-0.8c0.5-0.5,0.8-1.1,0.8-2c0-0.8-0.3-1.5-0.8-2
	c-0.5-0.5-1.3-0.7-2.3-0.8V113.2z M35.7,114.1c-0.7,0-1.3-0.2-1.8-0.5c-0.5-0.3-1-0.8-1.3-1.3c-0.3-0.6-0.5-1.2-0.5-1.9
	c0-0.7,0.2-1.3,0.5-1.9c0.3-0.6,0.7-1,1.3-1.3s1.1-0.5,1.8-0.5c0.7,0,1.3,0.2,1.8,0.5s1,0.7,1.3,1.3c0.3,0.6,0.5,1.2,0.5,1.9
	c0,0.7-0.2,1.3-0.5,1.9c-0.3,0.6-0.7,1-1.3,1.3C37,113.9,36.4,114.1,35.7,114.1z M35.7,113.2c0.5,0,0.9-0.1,1.3-0.3
	c0.4-0.2,0.7-0.6,0.9-1c0.2-0.4,0.3-0.9,0.3-1.5c0-0.5-0.1-1-0.3-1.5c-0.2-0.4-0.5-0.8-0.9-1c-0.4-0.2-0.8-0.4-1.3-0.4
	c-0.5,0-0.9,0.1-1.3,0.4c-0.4,0.2-0.7,0.6-0.9,1c-0.2,0.4-0.3,0.9-0.3,1.5c0,0.5,0.1,1,0.3,1.5c0.2,0.4,0.5,0.8,0.9,1
	C34.8,113.1,35.2,113.2,35.7,113.2z M41.2,106.9h0.9v3.2h4.4v-3.2h0.9v7.1h-0.9v-3.1h-4.4v3.1h-0.9V106.9z M56.2,110.7h-5.8
	c0.1,0.7,0.3,1.3,0.8,1.8c0.5,0.5,1.1,0.7,1.9,0.7c0.4,0,0.8-0.1,1.2-0.2c0.4-0.2,0.7-0.4,0.9-0.7l0.5,0.6c-0.3,0.4-0.7,0.7-1.2,0.9
	c-0.5,0.2-1,0.3-1.5,0.3c-0.7,0-1.3-0.2-1.9-0.5c-0.5-0.3-1-0.8-1.3-1.3c-0.3-0.6-0.5-1.2-0.5-1.9c0-0.7,0.1-1.3,0.4-1.9
	c0.3-0.6,0.7-1,1.2-1.3c0.5-0.3,1.1-0.5,1.7-0.5c0.6,0,1.2,0.2,1.7,0.5c0.5,0.3,0.9,0.7,1.2,1.3c0.3,0.5,0.4,1.2,0.4,1.9L56.2,110.7
	z M52.9,107.6c-0.7,0-1.2,0.2-1.7,0.7c-0.4,0.4-0.7,1-0.8,1.7h4.9c-0.1-0.7-0.3-1.3-0.8-1.7C54.1,107.9,53.5,107.6,52.9,107.6z"/>
<path fill="#6979F8" d="M28.4,41.4c1.2-1.3,2.9-2,4.7-2h10.6c1.8,0,3.4,0.7,4.7,2c1.2,1.3,1.9,3,1.9,4.8v2.7c0,0.7-0.6,1.4-1.3,1.4
	c-0.7,0-1.3-0.6-1.3-1.4v-2.7c0-1.1-0.4-2.1-1.2-2.9c-0.7-0.8-1.8-1.2-2.8-1.2H33c-1.1,0-2.1,0.4-2.8,1.2c-0.7,0.8-1.2,1.8-1.2,2.9
	v2.7c0,0.7-0.6,1.4-1.3,1.4c-0.7,0-1.3-0.6-1.3-1.4v-2.7C26.4,44.3,27.1,42.6,28.4,41.4z"/>
<path fill="#6979F8" d="M38.3,25.8c-2.2,0-4,1.8-4,4.1s1.8,4.1,4,4.1c2.2,0,4-1.8,4-4.1S40.5,25.8,38.3,25.8z M31.7,29.9
	c0-3.7,3-6.8,6.6-6.8c3.6,0,6.6,3,6.6,6.8s-3,6.8-6.6,6.8C34.7,36.7,31.7,33.6,31.7,29.9z"/>
</svg>
