<svg width="20" height="15" viewBox="0 0 20 15" fill="none" xmlns="http://www.w3.org/2000/svg">
<rect x="0.823843" y="1.68786" width="18.1833" height="11.7998" rx="1.21519" stroke="white" stroke-width="1.45823"/>
<path fill-rule="evenodd" clip-rule="evenodd" d="M4.72367 8.34106C4.15282 8.34106 3.60535 8.56094 3.20171 8.95231C2.79806 9.34368 2.57129 9.87449 2.57129 10.428V11.1645C2.57129 11.5035 2.85472 11.7783 3.20434 11.7783C3.55397 11.7783 3.83739 11.5035 3.83739 11.1645V10.428C3.83739 10.2001 3.93077 9.9815 4.09698 9.82035C4.26319 9.65919 4.48861 9.56866 4.72367 9.56866H7.76232C7.99737 9.56866 8.2228 9.65919 8.38901 9.82035C8.55522 9.9815 8.64859 10.2001 8.64859 10.428V11.1645C8.64859 11.5035 8.93202 11.7783 9.28164 11.7783C9.63127 11.7783 9.91469 11.5035 9.91469 11.1645V10.428C9.91469 9.87449 9.68793 9.34368 9.28428 8.95231C8.88063 8.56094 8.33316 8.34106 7.76232 8.34106H4.72367ZM7.76232 8.58658C8.26601 8.58658 8.74906 8.78059 9.10522 9.12592C9.46138 9.47124 9.66147 9.93961 9.66147 10.428V11.1645C9.66147 11.3545 9.51319 11.5108 9.32275 11.5307C9.51308 11.5107 9.66124 11.3544 9.66124 11.1646V10.428C9.66124 9.93963 9.46115 9.47127 9.10499 9.12594C8.74883 8.78061 8.26577 8.58661 7.76208 8.58661H4.72344C4.69501 8.58661 4.66666 8.58721 4.63839 8.58844C4.66674 8.58721 4.69517 8.58658 4.72367 8.58658H7.76232ZM3.24545 11.5307C3.43589 11.5108 3.58417 11.3545 3.58417 11.1645V10.428C3.58417 10.135 3.70423 9.85394 3.91792 9.64674C4.085 9.48475 4.29861 9.37825 4.52829 9.3395C4.29852 9.37822 4.08482 9.48472 3.91769 9.64676C3.704 9.85396 3.58394 10.135 3.58394 10.428V11.1646C3.58394 11.3544 3.43578 11.5107 3.24545 11.5307Z" fill="white"/>
<path fill-rule="evenodd" clip-rule="evenodd" d="M5.35692 5.51538C5.35692 5.04079 5.75372 4.65606 6.2432 4.65606C6.73267 4.65606 7.12947 5.04079 7.12947 5.51538C7.12947 5.98996 6.73267 6.37469 6.2432 6.37469C5.75372 6.37469 5.35692 5.98996 5.35692 5.51538ZM6.2432 3.42847C5.05447 3.42847 4.09082 4.36281 4.09082 5.51538C4.09082 6.66795 5.05447 7.60229 6.2432 7.60229C7.43192 7.60229 8.39558 6.66795 8.39558 5.51538C8.39558 4.36281 7.43192 3.42847 6.2432 3.42847ZM6.43809 4.42664C6.97457 4.51628 7.38269 4.96962 7.38269 5.51538C7.38269 6.12556 6.87252 6.62021 6.2432 6.62021C6.17814 6.62021 6.11436 6.61493 6.05229 6.60477C6.11453 6.61498 6.17849 6.6203 6.24372 6.6203C6.87305 6.6203 7.38322 6.12565 7.38322 5.51546C7.38322 4.96953 6.97483 4.51608 6.43809 4.42664ZM4.34404 5.51538C4.34404 4.49841 5.19432 3.67399 6.2432 3.67399C6.33334 3.67399 6.42201 3.68007 6.5088 3.69185C6.42217 3.68012 6.33368 3.67407 6.24372 3.67407C5.19485 3.67407 4.34457 4.49849 4.34457 5.51546C4.34457 6.41026 5.00282 7.15601 5.87544 7.32227C5.00256 7.15621 4.34404 6.41036 4.34404 5.51538Z" fill="white"/>
<rect x="11.1445" y="3.45129" width="6.39076" height="1.47311" rx="0.736557" fill="white"/>
<rect x="11.1445" y="6.8512" width="6.39076" height="1.47311" rx="0.736557" fill="white"/>
<rect x="11.1445" y="10.2885" width="6.39076" height="1.47311" rx="0.736557" fill="white"/>
</svg>
