<?xml version="1.0" encoding="utf-8"?>
<!-- Generator: Adobe Illustrator 17.1.0, SVG Export Plug-In . SVG Version: 6.00 Build 0)  -->
<!DOCTYPE svg PUBLIC "-//W3C//DTD SVG 1.1//EN" "http://www.w3.org/Graphics/SVG/1.1/DTD/svg11.dtd">
<svg version="1.1" id="Layer_1" xmlns="http://www.w3.org/2000/svg" xmlns:xlink="http://www.w3.org/1999/xlink" x="0px" y="0px"
	 viewBox="0 0 168 152" enable-background="new 0 0 168 152" xml:space="preserve">
<g>
	<path fill="#FFFFFF" d="M19.6-0.1h128.7C159.2-0.1,168,9,168,20.3v111.4c0,11.3-8.8,20.4-19.7,20.4H19.6
		c-10.9,0-19.7-9.1-19.7-20.4V20.3C-0.1,9,8.7-0.1,19.6-0.1z"/>
	<path fill="none" stroke="#B8B5FF" stroke-opacity="0.15" d="M19.6,0.6h128.7c10.5,0,19,8.8,19,19.7v111.4c0,10.9-8.5,19.7-19,19.7
		H19.6c-10.5,0-19-8.8-19-19.7V20.3C0.6,9.4,9.1,0.6,19.6,0.6z"/>
</g>
<path fill="none" stroke="#6979F8" stroke-width="1.7818" d="M22.3,21.5h26.8c1.1,0,1.9,0.9,1.9,2v16.6c0,1.1-0.9,2-1.9,2H22.3
	c-1.1,0-1.9-0.9-1.9-2V23.5C20.3,22.4,21.2,21.5,22.3,21.5z"/>
<path fill="#6979F8" d="M26.9,33.1c-1,0-1.9,0.4-2.6,1.1c-0.7,0.7-1.1,1.6-1.1,2.6v1.3c0,0.6,0.5,1.1,1.1,1.1c0.6,0,1.1-0.5,1.1-1.1
	v-1.3c0-0.4,0.2-0.8,0.4-1.1c0.3-0.3,0.7-0.4,1.1-0.4H32c0.4,0,0.8,0.2,1.1,0.4c0.3,0.3,0.4,0.7,0.4,1.1v1.3c0,0.6,0.5,1.1,1.1,1.1
	c0.6,0,1.1-0.5,1.1-1.1v-1.3c0-1-0.4-1.9-1.1-2.6c-0.7-0.7-1.6-1.1-2.6-1.1H26.9z M32.2,33.6c-0.1,0-0.1,0-0.2,0h-5.1
	c-0.8,0-1.7,0.3-2.3,0.9c-0.6,0.6-0.9,1.4-0.9,2.3v1.3c0,0.3,0.3,0.6,0.6,0.6c-0.3,0-0.6-0.3-0.6-0.6v-1.3c0-0.9,0.3-1.7,0.9-2.3
	c0.6-0.6,1.4-0.9,2.3-0.9H32C32.1,33.6,32.1,33.6,32.2,33.6z M32.2,34.9c0.4,0,0.9,0.2,1.2,0.6c0.4,0.4,0.6,0.9,0.6,1.4v1.3
	c0,0.3,0.2,0.6,0.5,0.6c-0.3-0.1-0.5-0.3-0.5-0.6v-1.3c0-0.5-0.2-1-0.6-1.4C33.1,35.1,32.7,34.9,32.2,34.9z"/>
<path fill="#6979F8" d="M31,28.2c0,0.8-0.7,1.5-1.5,1.5c-0.8,0-1.5-0.7-1.5-1.5c0-0.8,0.7-1.5,1.5-1.5C30.3,26.7,31,27.4,31,28.2z
	 M29.5,24.6c-2,0-3.6,1.6-3.6,3.6c0,2,1.6,3.6,3.6,3.6s3.6-1.6,3.6-3.6C33.1,26.2,31.5,24.6,29.5,24.6z M28.6,26.5
	c-0.6,0.3-1,1-1,1.7c0,1.1,0.9,1.9,1.9,1.9l0,0c-1.1,0-1.9-0.9-1.9-1.9C27.6,27.5,28,26.8,28.6,26.5z M28.4,25.2
	c0.3-0.1,0.7-0.2,1.1-0.2c1.8,0,3.2,1.4,3.2,3.2c0,1.1-0.6,2.1-1.4,2.7c0.9-0.6,1.4-1.6,1.4-2.7c0-1.8-1.4-3.2-3.2-3.2
	C29.1,25,28.8,25.1,28.4,25.2z"/>
<path fill="#6979F8" d="M39,24.6h8.3c0.7,0,1.2,0.6,1.2,1.3v0c0,0.7-0.6,1.3-1.2,1.3H39c-0.7,0-1.2-0.6-1.2-1.3v0
	C37.7,25.2,38.3,24.6,39,24.6z"/>
<path fill="#6979F8" d="M39,30.5h8.3c0.7,0,1.2,0.6,1.2,1.3v0c0,0.7-0.6,1.3-1.2,1.3H39c-0.7,0-1.2-0.6-1.2-1.3v0
	C37.7,31.1,38.3,30.5,39,30.5z"/>
<path fill="#6979F8" d="M39,36.5h8.3c0.7,0,1.2,0.6,1.2,1.3v0c0,0.7-0.6,1.3-1.2,1.3H39c-0.7,0-1.2-0.6-1.2-1.3v0
	C37.7,37.1,38.3,36.5,39,36.5z"/>
<path fill="#828282" d="M26.1,76.5c0.6,0.1,1.1,0.4,1.5,0.8c0.3,0.4,0.5,0.9,0.5,1.5c0,0.8-0.3,1.5-0.9,1.9
	c-0.6,0.4-1.4,0.7-2.5,0.7h-4.1v-9.5h3.8c1,0,1.7,0.2,2.3,0.6c0.6,0.4,0.8,1,0.8,1.8c0,0.5-0.1,1-0.4,1.4C27,76,26.6,76.3,26.1,76.5
	z M21.6,76.2h2.8c0.7,0,1.3-0.1,1.6-0.4c0.4-0.3,0.6-0.7,0.6-1.3c0-0.6-0.2-1-0.6-1.3c-0.4-0.3-0.9-0.4-1.6-0.4h-2.8V76.2z
	 M24.8,80.6c1.6,0,2.4-0.6,2.4-1.8c0-1.2-0.8-1.8-2.4-1.8h-3.1v3.6H24.8z M33.1,81.5c-0.7,0-1.3-0.2-1.8-0.5c-0.5-0.3-1-0.8-1.3-1.3
	c-0.3-0.6-0.5-1.2-0.5-1.9c0-0.7,0.2-1.3,0.5-1.9c0.3-0.6,0.7-1,1.3-1.3c0.5-0.3,1.1-0.5,1.8-0.5c0.7,0,1.3,0.2,1.8,0.5
	c0.5,0.3,0.9,0.7,1.2,1.3c0.3,0.6,0.5,1.2,0.5,1.9c0,0.7-0.2,1.3-0.5,1.9c-0.3,0.6-0.7,1-1.2,1.3C34.4,81.3,33.8,81.5,33.1,81.5z
	 M33.1,80.6c0.5,0,0.9-0.1,1.3-0.3c0.4-0.2,0.7-0.6,0.9-1c0.2-0.4,0.3-0.9,0.3-1.5c0-0.5-0.1-1-0.3-1.5c-0.2-0.4-0.5-0.8-0.9-1
	c-0.4-0.2-0.8-0.4-1.3-0.4c-0.5,0-0.9,0.1-1.3,0.4c-0.4,0.2-0.7,0.6-0.9,1c-0.2,0.4-0.3,0.9-0.3,1.5c0,0.5,0.1,1,0.3,1.5
	c0.2,0.4,0.5,0.8,0.9,1C32.2,80.5,32.7,80.6,33.1,80.6z M45.3,80.6v2.6h-0.9v-1.7h-6.2v1.7h-0.9v-2.6h0.4c0.5,0,0.8-0.4,0.9-1.1
	c0.2-0.7,0.3-1.6,0.3-2.9l0.1-2.4h5.1v6.3H45.3z M39.9,76.7c0,1-0.1,1.9-0.2,2.5c-0.1,0.7-0.3,1.1-0.7,1.3h4.3v-5.4H40L39.9,76.7z
	 M47.2,74.3h0.9v5.7l4.6-5.7h0.8v7.1h-0.9v-5.7L48,81.4h-0.8V74.3z M61.1,75.1h-2.6v6.3h-0.9v-6.3h-2.6v-0.9h6.2V75.1z M68.1,78.1
	h-5.8c0.1,0.7,0.3,1.3,0.8,1.8c0.5,0.5,1.1,0.7,1.9,0.7c0.4,0,0.8-0.1,1.2-0.2c0.4-0.2,0.7-0.4,0.9-0.7l0.5,0.6
	c-0.3,0.4-0.7,0.7-1.2,0.9c-0.5,0.2-1,0.3-1.5,0.3c-0.7,0-1.3-0.2-1.9-0.5c-0.5-0.3-1-0.8-1.3-1.3c-0.3-0.6-0.5-1.2-0.5-1.9
	c0-0.7,0.1-1.3,0.4-1.9c0.3-0.6,0.7-1,1.2-1.3c0.5-0.3,1.1-0.5,1.7-0.5c0.6,0,1.2,0.2,1.7,0.5c0.5,0.3,0.9,0.7,1.2,1.3
	c0.3,0.5,0.4,1.2,0.4,1.9L68.1,78.1z M64.8,75c-0.7,0-1.2,0.2-1.7,0.7c-0.4,0.4-0.7,1-0.8,1.7h4.9c-0.1-0.7-0.3-1.3-0.8-1.7
	C66,75.3,65.5,75,64.8,75z M75.7,74.3v7.1h-0.9v-6.3h-3.3l-0.1,1.8c-0.1,1.5-0.2,2.6-0.5,3.4c-0.3,0.8-0.7,1.2-1.4,1.2
	c-0.2,0-0.4,0-0.7-0.1l0.1-0.8c0.2,0,0.3,0.1,0.3,0.1c0.4,0,0.6-0.2,0.8-0.5c0.2-0.3,0.3-0.8,0.4-1.3c0.1-0.5,0.1-1.2,0.2-2l0.1-2.6
	H75.7z M81.3,76.8c0.9,0,1.5,0.2,2,0.6c0.5,0.4,0.7,1,0.7,1.7c0,0.8-0.2,1.3-0.7,1.8c-0.5,0.4-1.2,0.6-2.1,0.6l-2.8,0v-7.1h0.9v2.5
	L81.3,76.8z M81.1,80.7c0.6,0,1.1-0.1,1.4-0.4c0.3-0.3,0.5-0.7,0.5-1.2c0-0.5-0.2-0.9-0.5-1.2c-0.3-0.3-0.8-0.4-1.5-0.4l-1.8,0v3.2
	L81.1,80.7z M88.6,81.5c-0.7,0-1.3-0.2-1.8-0.5c-0.5-0.3-1-0.7-1.3-1.3c-0.3-0.6-0.5-1.2-0.5-1.9c0-0.7,0.2-1.3,0.5-1.9
	c0.3-0.6,0.7-1,1.3-1.3c0.5-0.3,1.2-0.5,1.8-0.5c0.6,0,1.1,0.1,1.6,0.4c0.5,0.2,0.8,0.6,1.1,1l-0.7,0.5c-0.2-0.4-0.5-0.6-0.9-0.8
	c-0.4-0.2-0.7-0.3-1.1-0.3c-0.5,0-0.9,0.1-1.4,0.4c-0.4,0.2-0.7,0.6-0.9,1c-0.2,0.4-0.3,0.9-0.3,1.5c0,0.6,0.1,1,0.3,1.5
	c0.2,0.4,0.5,0.7,0.9,1c0.4,0.2,0.9,0.3,1.4,0.3c0.4,0,0.8-0.1,1.1-0.3c0.4-0.2,0.6-0.4,0.9-0.8l0.7,0.5c-0.3,0.5-0.6,0.8-1.1,1.1
	C89.8,81.3,89.2,81.5,88.6,81.5z M95.7,78.2h-1.6v3.2h-0.9v-7.1h0.9v3.1h1.6l2.4-3.1h1l-2.7,3.5l2.9,3.7h-1.1L95.7,78.2z
	 M103.4,81.5c-0.7,0-1.3-0.2-1.8-0.5c-0.5-0.3-1-0.8-1.3-1.3c-0.3-0.6-0.5-1.2-0.5-1.9c0-0.7,0.2-1.3,0.5-1.9c0.3-0.6,0.7-1,1.3-1.3
	c0.5-0.3,1.1-0.5,1.8-0.5c0.7,0,1.3,0.2,1.8,0.5c0.5,0.3,0.9,0.7,1.2,1.3c0.3,0.6,0.5,1.2,0.5,1.9c0,0.7-0.2,1.3-0.5,1.9
	c-0.3,0.6-0.7,1-1.2,1.3C104.7,81.3,104.1,81.5,103.4,81.5z M103.4,80.6c0.5,0,0.9-0.1,1.3-0.3c0.4-0.2,0.7-0.6,0.9-1
	c0.2-0.4,0.3-0.9,0.3-1.5c0-0.5-0.1-1-0.3-1.5c-0.2-0.4-0.5-0.8-0.9-1c-0.4-0.2-0.8-0.4-1.3-0.4c-0.5,0-0.9,0.1-1.3,0.4
	c-0.4,0.2-0.7,0.6-0.9,1c-0.2,0.4-0.3,0.9-0.3,1.5c0,0.5,0.1,1,0.3,1.5c0.2,0.4,0.5,0.8,0.9,1C102.5,80.5,102.9,80.6,103.4,80.6z
	 M114.9,78.1h-5.8c0.1,0.7,0.3,1.3,0.8,1.8c0.5,0.5,1.1,0.7,1.9,0.7c0.4,0,0.8-0.1,1.2-0.2c0.4-0.2,0.7-0.4,0.9-0.7l0.5,0.6
	c-0.3,0.4-0.7,0.7-1.2,0.9c-0.5,0.2-1,0.3-1.5,0.3c-0.7,0-1.3-0.2-1.9-0.5c-0.5-0.3-1-0.8-1.3-1.3c-0.3-0.6-0.5-1.2-0.5-1.9
	c0-0.7,0.1-1.3,0.4-1.9c0.3-0.6,0.7-1,1.2-1.3c0.5-0.3,1.1-0.5,1.7-0.5c0.6,0,1.2,0.2,1.7,0.5c0.5,0.3,0.9,0.7,1.2,1.3
	c0.3,0.5,0.4,1.2,0.4,1.9L114.9,78.1z M111.6,75c-0.7,0-1.2,0.2-1.7,0.7c-0.4,0.4-0.7,1-0.8,1.7h4.9c-0.1-0.7-0.3-1.3-0.8-1.7
	C112.8,75.3,112.3,75,111.6,75z M26.3,90.6l-3.5,8c-0.3,0.7-0.6,1.1-1,1.4c-0.4,0.3-0.8,0.4-1.3,0.4c-0.3,0-0.6-0.1-0.9-0.2
	c-0.3-0.1-0.5-0.3-0.7-0.5l0.4-0.7c0.4,0.4,0.8,0.5,1.3,0.5c0.3,0,0.6-0.1,0.8-0.3c0.2-0.2,0.4-0.5,0.6-0.9l0.3-0.7l-3.1-7.1h1
	l2.6,6.1l2.6-6.1H26.3z M34.2,96.9v2.6h-0.9v-1.7h-6.2v1.7h-0.9v-2.6h0.4c0.5,0,0.8-0.4,0.9-1.1c0.2-0.7,0.3-1.6,0.3-2.9l0.1-2.4
	h5.1v6.3H34.2z M28.8,93c0,1-0.1,1.9-0.2,2.5c-0.1,0.7-0.3,1.1-0.7,1.3h4.3v-5.4h-3.3L28.8,93z M38.9,97.8c-0.7,0-1.3-0.2-1.8-0.5
	c-0.5-0.3-1-0.8-1.3-1.3c-0.3-0.6-0.5-1.2-0.5-1.9c0-0.7,0.2-1.3,0.5-1.9c0.3-0.6,0.7-1,1.3-1.3c0.5-0.3,1.1-0.5,1.8-0.5
	c0.7,0,1.3,0.2,1.8,0.5c0.5,0.3,0.9,0.7,1.2,1.3c0.3,0.6,0.5,1.2,0.5,1.9c0,0.7-0.2,1.3-0.5,1.9c-0.3,0.6-0.7,1-1.2,1.3
	C40.1,97.6,39.5,97.8,38.9,97.8z M38.9,96.9c0.5,0,0.9-0.1,1.3-0.3c0.4-0.2,0.7-0.6,0.9-1c0.2-0.4,0.3-0.9,0.3-1.5
	c0-0.5-0.1-1-0.3-1.5c-0.2-0.4-0.5-0.8-0.9-1c-0.4-0.2-0.8-0.4-1.3-0.4c-0.5,0-0.9,0.1-1.3,0.4c-0.4,0.2-0.7,0.6-0.9,1
	c-0.2,0.4-0.3,0.9-0.3,1.5c0,0.5,0.1,1,0.3,1.5c0.2,0.4,0.5,0.8,0.9,1C37.9,96.8,38.4,96.9,38.9,96.9z M47.3,97.8
	c-0.7,0-1.3-0.2-1.8-0.5c-0.5-0.3-1-0.7-1.3-1.3c-0.3-0.6-0.5-1.2-0.5-1.9c0-0.7,0.2-1.3,0.5-1.9c0.3-0.6,0.7-1,1.3-1.3
	c0.5-0.3,1.2-0.5,1.8-0.5c0.6,0,1.1,0.1,1.6,0.4c0.5,0.2,0.8,0.6,1.1,1l-0.7,0.5c-0.2-0.4-0.5-0.6-0.9-0.8c-0.4-0.2-0.7-0.3-1.1-0.3
	c-0.5,0-0.9,0.1-1.4,0.4c-0.4,0.2-0.7,0.6-0.9,1c-0.2,0.4-0.3,0.9-0.3,1.5c0,0.6,0.1,1,0.3,1.5c0.2,0.4,0.5,0.7,0.9,1
	c0.4,0.2,0.9,0.3,1.4,0.3c0.4,0,0.8-0.1,1.1-0.3c0.4-0.2,0.6-0.4,0.9-0.8l0.7,0.5c-0.3,0.5-0.6,0.8-1.1,1.1
	C48.4,97.6,47.8,97.8,47.3,97.8z M56.5,91.4h-2.6v6.3H53v-6.3h-2.6v-0.9h6.2V91.4z M60.4,97.8c-0.7,0-1.3-0.2-1.8-0.5
	c-0.5-0.3-1-0.8-1.3-1.3c-0.3-0.6-0.5-1.2-0.5-1.9c0-0.7,0.2-1.3,0.5-1.9c0.3-0.6,0.7-1,1.3-1.3c0.5-0.3,1.1-0.5,1.8-0.5
	c0.7,0,1.3,0.2,1.8,0.5c0.5,0.3,0.9,0.7,1.2,1.3c0.3,0.6,0.5,1.2,0.5,1.9c0,0.7-0.2,1.3-0.5,1.9c-0.3,0.6-0.7,1-1.2,1.3
	C61.6,97.6,61,97.8,60.4,97.8z M60.4,96.9c0.5,0,0.9-0.1,1.3-0.3c0.4-0.2,0.7-0.6,0.9-1c0.2-0.4,0.3-0.9,0.3-1.5
	c0-0.5-0.1-1-0.3-1.5c-0.2-0.4-0.5-0.8-0.9-1c-0.4-0.2-0.8-0.4-1.3-0.4c-0.5,0-0.9,0.1-1.3,0.4c-0.4,0.2-0.7,0.6-0.9,1
	c-0.2,0.4-0.3,0.9-0.3,1.5c0,0.5,0.1,1,0.3,1.5c0.2,0.4,0.5,0.8,0.9,1C59.4,96.8,59.9,96.9,60.4,96.9z M70.3,94
	c0.9,0.2,1.4,0.8,1.4,1.8c0,0.6-0.2,1.1-0.7,1.4c-0.4,0.3-1.1,0.5-2,0.5h-3.1v-7.1h3c0.8,0,1.4,0.2,1.9,0.5c0.4,0.3,0.7,0.8,0.7,1.4
	c0,0.4-0.1,0.7-0.3,1C70.9,93.7,70.6,93.9,70.3,94z M66.8,93.7h2.1c0.5,0,0.9-0.1,1.2-0.3c0.3-0.2,0.4-0.5,0.4-0.9
	c0-0.4-0.1-0.7-0.4-0.9c-0.3-0.2-0.7-0.3-1.2-0.3h-2.1V93.7z M69,96.9c0.6,0,1-0.1,1.3-0.3c0.3-0.2,0.4-0.5,0.4-0.9
	c0-0.4-0.1-0.7-0.4-0.9c-0.3-0.2-0.7-0.3-1.3-0.3h-2.3v2.5H69z M79.9,94.4h-5.8c0.1,0.7,0.3,1.3,0.8,1.8c0.5,0.5,1.1,0.7,1.9,0.7
	c0.4,0,0.8-0.1,1.2-0.2c0.4-0.2,0.7-0.4,0.9-0.7l0.5,0.6c-0.3,0.4-0.7,0.7-1.2,0.9c-0.5,0.2-1,0.3-1.5,0.3c-0.7,0-1.3-0.2-1.9-0.5
	c-0.5-0.3-1-0.8-1.3-1.3c-0.3-0.6-0.5-1.2-0.5-1.9c0-0.7,0.1-1.3,0.4-1.9c0.3-0.6,0.7-1,1.2-1.3c0.5-0.3,1.1-0.5,1.7-0.5
	c0.6,0,1.2,0.2,1.7,0.5c0.5,0.3,0.9,0.7,1.2,1.3c0.3,0.5,0.4,1.2,0.4,1.9L79.9,94.4z M76.6,91.3c-0.7,0-1.2,0.2-1.7,0.7
	c-0.4,0.4-0.7,1-0.8,1.7H79C79,93,78.7,92.4,78.3,92C77.8,91.5,77.2,91.3,76.6,91.3z M85.5,90.5c0.6,0,1.2,0.2,1.8,0.5
	c0.5,0.3,0.9,0.7,1.2,1.3c0.3,0.6,0.4,1.2,0.4,1.9c0,0.7-0.1,1.3-0.4,1.9c-0.3,0.6-0.7,1-1.2,1.3c-0.5,0.3-1.1,0.4-1.8,0.4
	c-0.6,0-1.1-0.1-1.5-0.4c-0.4-0.2-0.8-0.6-1.1-1.1v4H82v-9.8h0.9V92c0.3-0.5,0.6-0.8,1.1-1.1C84.4,90.6,85,90.5,85.5,90.5z
	 M85.5,96.9c0.5,0,0.9-0.1,1.3-0.3c0.4-0.2,0.7-0.6,0.9-1c0.2-0.4,0.3-0.9,0.3-1.5c0-0.5-0.1-1-0.3-1.4c-0.2-0.4-0.5-0.8-0.9-1
	c-0.4-0.2-0.8-0.4-1.3-0.4c-0.5,0-0.9,0.1-1.3,0.4c-0.4,0.2-0.7,0.6-0.9,1c-0.2,0.4-0.3,0.9-0.3,1.4c0,0.5,0.1,1,0.3,1.5
	c0.2,0.4,0.5,0.8,0.9,1C84.5,96.8,85,96.9,85.5,96.9z M97,94.4h-5.8c0.1,0.7,0.3,1.3,0.8,1.8c0.5,0.5,1.1,0.7,1.9,0.7
	c0.4,0,0.8-0.1,1.2-0.2c0.4-0.2,0.7-0.4,0.9-0.7l0.5,0.6c-0.3,0.4-0.7,0.7-1.2,0.9c-0.5,0.2-1,0.3-1.5,0.3c-0.7,0-1.3-0.2-1.9-0.5
	c-0.5-0.3-1-0.8-1.3-1.3c-0.3-0.6-0.5-1.2-0.5-1.9c0-0.7,0.1-1.3,0.4-1.9c0.3-0.6,0.7-1,1.2-1.3c0.5-0.3,1.1-0.5,1.7-0.5
	c0.6,0,1.2,0.2,1.7,0.5c0.5,0.3,0.9,0.7,1.2,1.3c0.3,0.5,0.4,1.2,0.4,1.9L97,94.4z M93.7,91.3c-0.7,0-1.2,0.2-1.7,0.7
	c-0.4,0.4-0.7,1-0.8,1.7h4.9c-0.1-0.7-0.3-1.3-0.8-1.7C94.9,91.5,94.4,91.3,93.7,91.3z M99.1,90.6h0.9v3.2h4.3v-3.2h0.9v7.1h-0.9
	v-3.2H100v3.2h-0.9V90.6z M108,90.6h0.9v5.7l4.6-5.7h0.8v7.1h-0.9V92l-4.6,5.7H108V90.6z M123,94.4h-5.8c0.1,0.7,0.3,1.3,0.8,1.8
	c0.5,0.5,1.1,0.7,1.9,0.7c0.4,0,0.8-0.1,1.2-0.2c0.4-0.2,0.7-0.4,0.9-0.7l0.5,0.6c-0.3,0.4-0.7,0.7-1.2,0.9c-0.5,0.2-1,0.3-1.5,0.3
	c-0.7,0-1.3-0.2-1.9-0.5c-0.5-0.3-1-0.8-1.3-1.3c-0.3-0.6-0.5-1.2-0.5-1.9c0-0.7,0.1-1.3,0.4-1.9c0.3-0.6,0.7-1,1.2-1.3
	c0.5-0.3,1.1-0.5,1.7-0.5c0.6,0,1.2,0.2,1.7,0.5c0.5,0.3,0.9,0.7,1.2,1.3c0.3,0.5,0.4,1.2,0.4,1.9L123,94.4z M119.7,91.3
	c-0.7,0-1.2,0.2-1.7,0.7c-0.4,0.4-0.7,1-0.8,1.7h4.9c-0.1-0.7-0.3-1.3-0.8-1.7C120.9,91.5,120.4,91.3,119.7,91.3z M22,116.6
	c-0.5-0.8-0.9-1.8-1.1-2.9c-0.3-1.1-0.4-2.2-0.4-3.5c0-1.2,0.1-2.4,0.4-3.5c0.3-1.1,0.6-2.1,1.1-2.9h0.9c-0.5,0.9-0.9,1.9-1.1,2.9
	c-0.2,1.1-0.4,2.2-0.4,3.4c0,1.2,0.1,2.4,0.4,3.4c0.2,1.1,0.6,2,1.1,2.9H22z M30.3,106.8v7.1h-0.9v-6.3H26l-0.1,1.8
	c-0.1,1.5-0.2,2.6-0.5,3.4c-0.3,0.8-0.7,1.2-1.4,1.2c-0.2,0-0.4,0-0.7-0.1l0.1-0.8c0.2,0,0.3,0.1,0.3,0.1c0.4,0,0.6-0.2,0.8-0.5
	c0.2-0.3,0.3-0.8,0.4-1.3c0.1-0.5,0.1-1.2,0.2-2l0.1-2.6H30.3z M32.9,106.8h0.9v5.7l4.6-5.7h0.8v7.1h-0.9v-5.7l-4.6,5.7h-0.8V106.8z
	 M49.2,113.1v2.6h-0.9V114H42v-7.1h0.9v6.3h4.2v-6.3H48v6.3H49.2z M57,110.7h-5.8c0.1,0.7,0.3,1.3,0.8,1.8c0.5,0.5,1.1,0.7,1.9,0.7
	c0.4,0,0.8-0.1,1.2-0.2c0.4-0.2,0.7-0.4,0.9-0.7l0.5,0.6c-0.3,0.4-0.7,0.7-1.2,0.9c-0.5,0.2-1,0.3-1.5,0.3c-0.7,0-1.3-0.2-1.9-0.5
	c-0.5-0.3-1-0.8-1.3-1.3c-0.3-0.6-0.5-1.2-0.5-1.9c0-0.7,0.1-1.3,0.4-1.9c0.3-0.6,0.7-1,1.2-1.3c0.5-0.3,1.1-0.5,1.7-0.5
	s1.2,0.2,1.7,0.5c0.5,0.3,0.9,0.7,1.2,1.3c0.3,0.5,0.4,1.2,0.4,1.9L57,110.7z M53.6,107.6c-0.7,0-1.2,0.2-1.7,0.7
	c-0.4,0.4-0.7,1-0.8,1.7h4.9c-0.1-0.7-0.3-1.3-0.8-1.7C54.9,107.8,54.3,107.6,53.6,107.6z M63.5,110.3c0.9,0.2,1.4,0.8,1.4,1.8
	c0,0.6-0.2,1.1-0.7,1.4c-0.4,0.3-1.1,0.5-2,0.5h-3.1v-7.1h3c0.8,0,1.4,0.2,1.9,0.5c0.4,0.3,0.7,0.8,0.7,1.4c0,0.4-0.1,0.7-0.3,1
	C64.1,110,63.8,110.2,63.5,110.3z M60,110H62c0.5,0,0.9-0.1,1.2-0.3c0.3-0.2,0.4-0.5,0.4-0.9c0-0.4-0.1-0.7-0.4-0.9
	c-0.3-0.2-0.7-0.3-1.2-0.3H60V110z M62.2,113.2c0.6,0,1-0.1,1.3-0.3c0.3-0.2,0.4-0.5,0.4-0.9c0-0.4-0.1-0.7-0.4-0.9
	c-0.3-0.2-0.7-0.3-1.3-0.3H60v2.5H62.2z M69.4,106.8c0.9,0,1.6,0.2,2.1,0.7c0.5,0.5,0.7,1.1,0.7,2.1v4.4h-0.9v-1.1
	c-0.2,0.4-0.5,0.7-0.9,0.9c-0.4,0.2-0.9,0.3-1.4,0.3c-0.8,0-1.4-0.2-1.8-0.6c-0.5-0.4-0.7-0.9-0.7-1.5c0-0.6,0.2-1.1,0.6-1.5
	c0.4-0.4,1.1-0.6,2-0.6h2.2v-0.4c0-0.6-0.2-1.1-0.5-1.4c-0.3-0.3-0.8-0.5-1.5-0.5c-0.4,0-0.9,0.1-1.3,0.2c-0.4,0.1-0.7,0.3-1,0.6
	l-0.4-0.7c0.4-0.3,0.8-0.5,1.3-0.7C68.4,106.9,68.9,106.8,69.4,106.8z M69.1,113.3c0.5,0,1-0.1,1.4-0.4c0.4-0.3,0.7-0.6,0.8-1.1
	v-1.2h-2.2c-1.2,0-1.8,0.4-1.8,1.3c0,0.4,0.2,0.7,0.5,1C68.1,113.2,68.5,113.3,69.1,113.3z M80,106.8v7.1h-0.9v-2.4H77h-0.3
	l-1.6,2.4h-1l1.7-2.5c-0.5-0.2-0.9-0.4-1.2-0.8c-0.3-0.4-0.4-0.8-0.4-1.4c0-0.8,0.3-1.4,0.8-1.8c0.5-0.4,1.2-0.6,2.2-0.6H80z
	 M75.1,109.3c0,1.1,0.7,1.6,2,1.6h2.1v-3.2h-2C75.8,107.7,75.1,108.2,75.1,109.3z M81.9,116.6c0.5-0.9,0.9-1.9,1.1-2.9
	c0.2-1.1,0.4-2.2,0.4-3.4s-0.1-2.4-0.4-3.4c-0.2-1.1-0.6-2-1.1-2.9h0.9c0.5,0.8,0.9,1.8,1.1,2.9c0.3,1.1,0.4,2.2,0.4,3.5
	c0,1.2-0.1,2.4-0.4,3.5c-0.3,1.1-0.6,2-1.1,2.9H81.9z"/>
</svg>
