<svg width="24" height="25" viewBox="0 0 24 25" fill="none" xmlns="http://www.w3.org/2000/svg">
<path fill-rule="evenodd" clip-rule="evenodd" d="M18.7071 6.2885C19.0976 6.67902 19.0976 7.31219 18.7071 7.70271L6.70711 19.7027C6.31658 20.0932 5.68342 20.0932 5.29289 19.7027C4.90237 19.3122 4.90237 18.679 5.29289 18.2885L17.2929 6.2885C17.6834 5.89797 18.3166 5.89797 18.7071 6.2885Z" fill="#4F4F4F"/>
<path fill-rule="evenodd" clip-rule="evenodd" d="M5.29289 6.2885C5.68342 5.89797 6.31658 5.89797 6.70711 6.2885L18.7071 18.2885C19.0976 18.679 19.0976 19.3122 18.7071 19.7027C18.3166 20.0932 17.6834 20.0932 17.2929 19.7027L5.29289 7.70271C4.90237 7.31219 4.90237 6.67902 5.29289 6.2885Z" fill="#4F4F4F"/>
</svg>
